<svg version="1" xmlns="http://www.w3.org/2000/svg" width="21.333" height="21.333" viewBox="0 0 16.000000 16.000000"><path d="M2.406.215C1.52.517.85.88.388 1.31c-.314.296-.388.4-.388.554v.185l.172-.24C.69 1.1 1.508.646 3.046.215l.739-.21h-.37C3.151 0 2.868.062 2.406.216z"/><path d="M5.262.043c-1.12.141-2.837.597-3.613.966C.58 1.513.062 2.209.062 3.132c0 .972.707 1.606 1.692 1.532.77-.067 1.31-.455 1.44-1.034.098-.455-.019-.88-.326-1.169l-.166-.147.326-.204c.178-.117.498-.258.714-.326.381-.117 1.36-.27 1.415-.221.03.037-1.877 10.45-1.97 10.732-.03.117-.147.308-.258.431-.283.32-.64.455-1.304.492l-.567.031-.098.53c-.055.289-.117.602-.135.701l-.037.166H4.24c2.006 0 3.459-.024 3.477-.055.025-.031.08-.29.13-.573.055-.277.11-.572.122-.646.031-.129.013-.141-.227-.141-.517-.006-.985-.32-1.096-.745-.061-.215.099-1.25.53-3.428l.104-.504h.486c.443 0 .487.012.536.135.03.08.172.51.314.96.713 2.246 2.203 4.388 4.166 6.006.615.511.738.437.16-.086-1.852-1.674-3.36-3.932-4.08-6.092-.142-.425-.302-.819-.351-.88-.08-.086-.203-.105-.702-.105h-.597l-.061.29c-.037.166-.197 1.002-.357 1.864-.314 1.705-.32 1.97-.068 2.35.191.272.493.469.819.518.308.043.308.043.197.615l-.068.394H4.388c-1.81 0-3.274-.018-3.262-.05.019-.024.062-.245.105-.492l.074-.443h.221c.388 0 1.003-.123 1.243-.246.265-.135.523-.418.646-.714.05-.117.142-.51.21-.873l.892-4.874c.425-2.32.812-4.425.862-4.677.08-.419.08-.474-.013-.579-.092-.098-.166-.11-.578-.08-.813.068-1.6.332-2.08.714l-.154.123.117.215c.061.123.172.234.234.259.246.074.307.621.117 1.046-.197.437-.72.714-1.367.72C.917 4.584.517 4.258.37 3.526.246 2.96.42 2.43.868 1.938 1.797.935 4.32.283 7.582.203c2.64-.062 4.394.221 5.84.947 1.194.597 1.717 1.477 1.717 2.88 0 .69-.086 1.065-.382 1.693-.203.43-.344.615-.781 1.046-.554.554-1.09.88-1.896 1.17-.461.165-.455.135-.227 1.162.381 1.723 1.144 3.207 2.437 4.727.615.726 1.71 1.674 1.71 1.483 0-.056-.277-.32-.615-.597-1.877-1.539-3.145-3.773-3.594-6.357l-.043-.222.326-.104c.794-.265 1.57-.751 2.117-1.336.45-.486.646-.806.862-1.44.227-.658.246-1.68.043-2.332-.37-1.176-1.33-2.025-2.85-2.517C11.09.03 10.74 0 7.945.006 6.572.012 5.366.03 5.262.043z"/><path d="M12.48.153c2.031.782 3.053 2.056 3.053 3.816 0 1.49-.726 2.775-2.068 3.655a7.233 7.233 0 0 1-.942.536c-.473.209-.467.172-.221 1.15.498 1.964 1.692 3.847 3.268 5.152l.4.326.018-.197c.019-.173-.037-.259-.45-.69-.824-.867-1.531-2.086-1.962-3.384-.351-1.071-.363-.985.178-1.225.819-.357 1.57-.898 2.006-1.44l.24-.301V2.849l-.166-.252c-.301-.437-.99-1.164-1.514-1.582C13.674.498 12.708 0 12.351 0l-.258.006.387.147z"/><path d="M8.493 1.507c0 .031-.24 1.323-.53 2.88-.627 3.379-.652 3.096.314 3.034.825-.049 1.305-.172 1.982-.498 1.23-.597 1.932-1.662 1.944-2.936 0-.48-.018-.578-.19-.929-.363-.732-.967-1.206-1.828-1.428-.419-.11-1.692-.197-1.692-.123zm1.403.16c.59.093 1.015.277 1.366.591.375.339.523.603.615 1.12.13.72-.098 1.619-.578 2.265-.64.874-1.736 1.397-3.096 1.477-.572.03-.634.024-.634-.068 0-.117.973-5.317 1.016-5.44.03-.08.578-.062 1.31.055z"/><path d="M8.831 1.92c-.037.104-.892 4.757-.892 4.843 0 .11.609.08 1.132-.056 1.317-.332 2.265-1.23 2.499-2.363.08-.406.043-.984-.093-1.304-.135-.333-.554-.733-.941-.905-.554-.252-1.643-.388-1.705-.215zm2.21 1.594l.418.067-.025.45c-.055.849-.64 1.71-1.458 2.147l-.327.173.037-.173c.019-.098.136-.707.253-1.348.117-.646.227-1.224.246-1.298.03-.142.074-.142.855-.018zM4.092 2c-.166.049-.437.147-.597.221l-.295.136.135.215c.179.29.228.997.093 1.323-.173.406-.406.646-.831.855-.37.185-.455.204-.96.197-.659 0-1.022-.141-1.403-.535C.018 4.19 0 4.184 0 4.307c0 .16.498.8 1.194 1.52.763.807 1.44 1.065 2.221.856.197-.05.37-.086.376-.08.03.03-1.01 5.508-1.07 5.612-.204.388-.56.523-1.38.523-.572 0-.609.007-.664.136-.03.08-.142.597-.24 1.15l-.185 1.01.437.48.443.486h8.45l.141-.794.142-.794-.67-.75c-.37-.413-.678-.794-.69-.85-.006-.055.05-.437.13-.843l.14-.738.26.498c.516 1.028 1.611 2.505 2.72 3.668.498.535.59.603.775.603h.209l-.474-.418c-1.76-1.551-3.194-3.717-3.963-5.97l-.259-.757-.283.019-.283.018-.295 1.6c-.166.93-.277 1.68-.259 1.797.062.363.542.634 1.126.634.167 0 .259.03.259.074 0 .043-.074.486-.166.984l-.166.911H.443l.05-.234c.024-.123.11-.566.184-.972l.135-.745.665-.03c.806-.043 1.138-.173 1.342-.53.086-.153.221-.732.406-1.735.154-.83.572-3.102.929-5.046.357-1.945.665-3.576.677-3.619.037-.098-.332-.092-.739.019z"/></svg>