<?xml version="1.0" encoding="UTF-8"?><svg id="Layer_2" xmlns="http://www.w3.org/2000/svg" viewBox="0 0 946.88 849"><defs><style>.cls-1{fill:none;}.cls-2{fill:#fff;}</style></defs><g id="Layer_2-2"><g><g><path class="cls-2" d="M266.42,113.17l15.01,18.54-10.89,5.26-5.99-22.99c-.32-1.24-.96-2.71-.41-2.97,.56-.28,1.9,1.68,2.28,2.15m-21.06-30.78c-2.04,1.02-2.56,4.19,.89,3.54,1.64-.21,3.09,1.27,4.43,6.23l18.65,71.9c.64,3.5,.27,5.96-1.85,8.37-.49,.56,0,1.88,.66,1.56,3.06-1.53,13.39-8.23,14.88-8.98,.79-.38-.17-1.4-1.05-1.19-3.81,1-4.71-1-5.75-4.9l-3.67-14.47,13.43-7.13,8.42,10.39c2.07,2.17,2.41,6.67-.34,8.59-1.43,1.01-.35,2.67,1.06,1.96,8.64-4.32,15.9-8.77,24.86-13.22,1.34-.68,.4-2.36-.83-2.22-2.53,.25-3.37-.4-6.1-3.75l-52.06-64.23c-3.54,1.77-10.19,4.84-15.62,7.55m471.71,34.79c-10.66,17.73-2.4,56.57-6.76,63.82-4.09,6.8-8.07,8.15-12.44,5.52-9.86-5.93-8.18-14.67-5.35-19.38,.44-.7,.81-1.71-.24-2.35-.44-.26-1.06,.19-1.67,1.08l-10.67,13.63c-.21,.24-1.42,1.49-.68,1.94,.89,.54,4.34-1.16,6.35,.05,1.98,1.2,3.14,7.15,11.15,11.97,11.68,7.04,22.43-1.58,26.79-8.82,13.35-22.2,.89-52.06,8.55-64.77,1.98-3.29,6.11-5.38,9.86-3.13,5.1,3.09,6.81,12.28,5.55,17.14-.55,2.1-2.29,5.95-1.56,6.39,.73,.43,1.59-.72,2.59-2l8.35-11.26c.77-1.01,1.2-2.09,.66-2.43-1.37-.81-.86,.86-3.58-.78-3.06-1.84-5.84-9.87-11.97-13.54-8.83-5.31-21.7,1.55-24.93,6.93m-29.59-36.47c-1.16,2.06,4.4,2.66-.92,12.01l-33.43,58.47c-4.75,8.3-9.34,4.46-10.53,6.53-.39,.71,.12,1.47,1.12,2.04l32.9,18.11,11.17-10.68c.56-.49,.95-1.45,.24-1.86-1.3-.74-13.04,5.18-18.46,2.09-2.96-1.7-3.39-2.67-.49-7.74l33.14-58.04c5.33-9.36,8.66-4.86,9.85-6.93,.39-.7-.09-1.46-1.1-2.04l-21.15-12.03c-1.01-.59-1.92-.64-2.34,.07m42.67-7.38c-4.51,.37-7.86,4.35-7.47,8.87,.21,2.41,1.43,4.48,3.22,5.84,.29,3.33-4.96,1.66-4.69,4.69,.05,.82,.75,1.11,2.76,.95,4.64-.39,15.71-4.26,14.98-12.87-.38-4.53-4.27-7.87-8.8-7.48m-518.57-3.65c-7.8,4.88-14.52,10.04-21.85,14.62-.94,.6-.94,2.26,.47,1.9,3.28-.77,5.56,.88,7.71,4.33l42.1,66.95c4.37,6.99,13.07,21.72,2.18,28.54-9.15,5.7-17.18,.12-21.42-6.63-3.92-6.27-4.28-15.79,.23-18.6,1.88-1.19,2.54-.66,3.96-1.54-.9-1.42-1.07-2.98-1.85-4.2-3.61-5.82-9.62-5.82-14.92-2.51-7.99,4.99-8.29,19.53-2.18,29.33,8.65,13.83,26.39,17.88,40.14,9.29,21.93-13.7,15.07-36.53,6.84-49.69l-38.35-61.47c-3.13-4.99-3.47-5.97-1.92-9.06,.33-.81,.23-2.09-1.13-1.26m429.23-10.07c-.99,2.17,4.62,2.23,.16,12.05l-27.74,60.75c-4.47,9.8-8.2,6.99-9.2,9.15-.34,.74,.25,1.45,1.3,1.92l33.9,14.02,8.21-10.95c.55-.81,.42-1.75-.4-2.14-2.82,1.53-12.01,5.61-15.7,3.92-4.01-1.82-4.3-2.74-3.13-5.37l14.48-31.76c1.16-2.51,3.34-3.26,5.94-2.07,4.67,2.1-1.21,13.39,2.02,14.87,.81,.37,1.68-.49,2.41-2.06l10.43-22.93c.59-1.26,.73-2.83-.16-3.22-2.8-1.29-6.52,9.85-11.79,7.45-2.86-1.31-3.5-3.7-2.35-6.21l7.94-17.07c3.27-7.17,3.77-8.23,6.86-6.82,6.66,3.03,8.36,11.75,8.04,14.98-.4,3.03,1.56,5.05,2.36,1.73l4.08-14.49-35.37-16.07c-1.05-.46-1.95-.43-2.3,.31m-317.84-10.63c-1.08,.36-1.13,3.23-2.84,3.78-3.03,1-9.91,1.91-13.28,3.02-15.65,5.1-13.45,31.17-8.35,46.81,10.12,30.97,27.97,44.28,42.22,39.63,8.85-2.9,12.26-13.62,9.72-21.38-1.64-4.99-4.29-10.23-9.87-11.12-1.07-.3-2,.17-.68,1.91,1.53,1.83,3.37,5.65,4.13,7.98,.94,2.85,1.71,16.16-4.24,18.1-7.14,2.34-13.17-12.32-15.18-18.48l-14.27-43.87c-1.42-4.32-5.02-14.71,2.97-17.31,7.59-2.49,14.3,9.01,15.37,8.66,.34-.12,.67-.24,.45-.95l-5.18-15.9c-.17-.47-.51-1.04-.96-.9m282.3-.32c-.79,2.26,4.81,1.83,1.24,11.99l-22.15,63c-3.57,10.15-7.66,6.35-8.46,8.59-.27,.75,.35,1.42,1.47,1.81l23.11,7.48c1.1,.38,2,.26,2.26-.5,.8-2.25-4.8-1.82-1.22-12l21.99-62.45c3.59-10.15,7.67-6.32,8.47-8.59,.25-.74-.36-1.41-1.47-1.78l-22.97-8.04c-1.12-.4-2.02-.28-2.28,.48m-217.18-13.84l-15.19,3.56c-.75,.18-1.05,.21-.9,.87,.28,1.21,2.39,.67,2.9,2.82,.46,2.02-.11,3.87-.56,5.38l-8.53,22.73c-.45,1.06-1.36,2.43-1.79,2.53-.53,.13-.85-.51-.98-1.04l-5.59-24.17c-1.05-4.52,3.16-4.23,2.73-6.05-.1-.41-.42-.6-.81-.51l-23.34,5.46c-.89,.21-1.11,.44-.98,1,.38,1.62,3.22-.12,4.46,5.22l17.41,74.63c1.17,4.97-2.88,5.2-2.41,7.17,.19,.82,.66,.76,2,.46l23.04-6.78c.55-.14,.55-.51,.45-.93-.36-1.48-4.11-.21-4.73-2.84l-8.63-36.99c-.24-.98,.36-2.69,1.4-2.93,.69-.16,1.56,1.25,2.09,2.43l16.82,38.34c.7,1.41,1.24,2,3.37,1.67l20.21-3.2c.79-.1,.98-.38,.79-1.16-.45-2-4.99,.03-7.19-4.41l-17.03-39.26c-.64-1.3-1.19-1.55-2.07-1.34-2.56,.6-12.45,3.77-13.64-1.34-.38-1.62,1.9-6.69,4.76-14.7l4.99-13.09c4.37-12.83,8.06-11.67,7.74-13.03-.11-.55-.36-.61-.79-.51m157.05-1.77c-.37,1.48,4.34,3.56,3.41,7.93l-15.57,74.84c-1.43,6.05-2.53,3.9-2.99,5.74-.15,.62,.63,.88,1.41,.98l10.93,1.78c.96,.17,1.33-.02,1.52-.77,.42-1.62-4.28,.2-1.88-11.31l7.65-36.97c.26-1.35,1.19-1.13,1.45,.19l8.96,52.52c.08,.75,.46,1.09,1.08,1.27l9.39,3.05c.54,.13,1.16,.18,1.24-.19,.17-.64-.77-.1-.17-2.39l21.57-76.58c2.07-7.69,4.42-5.16,4.73-6.37,.23-.87-.46-1.11-1.97-1.62l-8.88-2.97c-1.84-.67-2.75-.73-2.94,.07-.33,1.3,2.67,.81,1.04,6.87l-11.88,41.87c-.6,2.09-2-.81-2.92-5.13l-8.92-45.93c-.64-3.41-.69-3.98-1.95-4.29l-11.93-3.02c-1.34-.36-2.17-.34-2.38,.44m-42.56,31.27l2.18,25.45-13.12-1.3,7.87-24.43c1.69-5.24,2.67-4.34,3.07,.29m-4.18-36c-.11,1.23,2.68,2.37,2.42,5.05-.18,2.06-1.05,4.16-2.29,7.95l-20.89,64.67c-3.91,12.13-7.21,10.21-7.35,11.62-.08,.76,.22,1,1.02,.98l15.72,.17c.56,0,.95-.05,1.03-.66,.16-1.83-5.8-.54-3.51-7.68l5-15.29,15.8,1.5,1.34,15.22c.68,7.92-2.82,5.8-3,7.67-.09,.93,.55,1.18,1.83,1.24l21.03,1.48c1.06,.1,1.96,0,2.05-.92,.17-1.72-2.45,.28-3.35-8.12l-6.68-77.48c-.44-5.1-.57-5.99-1.67-6.08l-17.53-1.72c-.44-.04-.94-.1-.98,.4m-41.18,5.48l1.77,45.02c.38,9.57-3.13,32.57-10.68,32.85-2.74,.11-4.26,.47-4.36-1.9l-3.84-100.84c-.08-1.64,.83-1.98,3.49-2.07,9.79-.4,13.16,15.07,13.62,26.94M438.98,.03l-15.5,.64c-3.97,.15-6.33,.51-6.29,1.6,.1,2.03,3.69-.22,4.07,9.1l4.01,101.44c.21,5.29-3.99,5.01-3.92,7.04,.02,.43,.68,.73,2.43,.66l20.72-.87c19.14-.74,35.47-24.98,33.67-71.03C476.87,15.81,458.93-.76,438.98,.03"/><path class="cls-2" d="M716.37,197.8c1.32,0,2.56,.33,3.7,.99,1.14,.65,2.04,1.55,2.71,2.68,.66,1.13,.99,2.35,.99,3.67s-.33,2.54-.99,3.67c-.66,1.12-1.56,2.01-2.71,2.67-1.14,.65-2.37,.99-3.7,.99s-2.57-.34-3.72-.98c-1.16-.65-2.05-1.55-2.71-2.67-.66-1.13-.99-2.35-.99-3.67s.33-2.55,.99-3.68c.67-1.12,1.57-2.02,2.72-2.68,1.14-.66,2.38-.99,3.7-.99m0,1.22c-1.71,0-3.16,.6-4.36,1.8-1.22,1.19-1.82,2.64-1.82,4.33s.6,3.13,1.8,4.32c1.21,1.2,2.66,1.79,4.37,1.79s3.15-.59,4.35-1.79c1.21-1.19,1.8-2.63,1.8-4.32s-.6-3.14-1.81-4.33c-1.2-1.2-2.66-1.8-4.35-1.8m-1.68,10.07h-1.29v-7.89h2.76c.97,0,1.66,.07,2.06,.22,.4,.15,.72,.41,.97,.77,.24,.35,.36,.73,.36,1.14,0,.6-.22,1.11-.64,1.53-.43,.42-.98,.64-1.64,.7,.31,.13,.58,.33,.85,.6,.28,.29,.6,.75,1,1.39l.97,1.54h-1.57l-.7-1.24c-.5-.89-.9-1.47-1.2-1.73-.29-.26-.68-.39-1.17-.39h-.77v3.35Zm0-6.82v2.37h1.57c.67,0,1.15-.09,1.46-.29,.31-.19,.47-.49,.47-.91s-.15-.74-.46-.91c-.29-.17-.81-.26-1.56-.26h-1.47Z"/></g><g><path class="cls-2" d="M123.4,778.36c0-13.95-2.62-23.11-5.67-30.96-3.93-9.59,3.49-7.41,9.16-3.93,12.21,7.41,21.37,22.24,21.37,41.43,0,37.06-22.67,64.1-56.25,64.1C26.6,849,0,767.03,0,674.58c0-79.36,20.93-148.26,85.03-148.26,17.88,0,26.16,4.8,35.75,4.8,3.49,0,6.98-1.31,10.47-6.54,.87-1.31,3.49-1.31,3.49,.44l1.74,67.15c0,3.49-4.8,3.49-5.67,.87-8.28-22.67-16.57-48.84-41.42-48.84-17.44,0-27.47,17.44-27.47,93.75v90.7c0,76.31,16.13,102.47,33.14,102.47,21.36,0,28.34-34.88,28.34-52.76"/><path class="cls-2" d="M271.72,728.65v-86.34c0-76.31-8.72-96.8-24.42-96.8s-24.42,20.49-24.42,96.8v86.34c0,76.31,8.72,101.16,24.42,101.16s24.42-24.86,24.42-101.16m61.92-40.99c0,83.72-20.93,161.34-86.34,161.34s-86.34-77.62-86.34-161.34,20.93-161.34,86.34-161.34,86.34,77.62,86.34,161.34"/><path class="cls-2" d="M99.59,359.03c.68,2.05,3.43,2.05,4.11,0l33.91-95.91c1.03-2.74,1.71-6.85,1.71-9.25s.68-4.45,3.77-4.45h54.46c1.37,0,1.71,2.05,.34,2.74-8.22,5.14-10.28,8.56-10.28,16.44v208.26c0,7.88,2.05,11.3,10.28,16.44,1.37,.68,1.03,2.74-.34,2.74h-60.97c-1.37,0-1.71-2.05-.34-2.74,8.22-5.14,10.28-8.56,10.28-16.44v-159.96c0-2.05-2.74-2.74-3.43-.68l-48.3,130.85c-.68,2.05-4.45,2.05-5.14,0l-48.64-130.85c-.68-2.05-3.43-1.37-3.43,.68v159.96c0,7.88,2.06,11.3,10.28,16.44,1.37,.68,1.03,2.74-.34,2.74H3c-1.37,0-1.71-2.05-.34-2.74,8.22-5.14,10.28-8.56,10.28-16.44v-208.26c0-7.88-2.06-11.3-10.28-16.44-1.37-.69-1.03-2.74,.34-2.74H60.2c3.08,0,3.77,2.05,3.77,4.45s.35,6.51,1.71,9.25l33.91,95.91Z"/><path class="cls-2" d="M286.95,414.17c1.37,0,2.05-1.37,1.71-2.74l-16.1-91.8c-.69-4.45-4.45-4.45-5.14,0l-16.78,91.8c-.34,1.37,.34,2.74,1.71,2.74h34.59Zm-38.36,18.5c-1.37,0-2.05,.34-2.4,1.71l-7.88,44.53c-1.03,6.85,1.03,9.93,8.56,14.39,1.37,1.03,1.03,2.74-.34,2.74h-40.42c-1.37,0-1.71-2.05-.34-2.74,6.51-4.11,8.56-5.82,9.93-11.99l42.13-211.34c1.71-9.25,0-13.36-7.54-17.81-1.37-1.03-1.03-2.74,.34-2.74h47.95c2.06,0,3.42,1.03,3.77,3.08l44.87,228.81c1.03,6.17,3.43,7.88,9.93,11.99,1.37,.68,1.37,2.74,0,2.74h-63.71c-1.37,0-2.05-1.71-.68-2.74,7.53-4.45,9.93-7.53,8.56-14.39l-8.22-44.53c-.34-1.37-1.03-1.71-2.4-1.71h-42.13Z"/><path class="cls-2" d="M447.1,340.87c-2.05,3.42-3.42,6.51-3.42,9.25,0,4.45,2.74,6.85,11.3,7.88l15.07,1.71c4.11,.34,7.53,1.71,8.56,6.85l19.87,111.66c1.03,5.48,4.11,10.96,10.62,15.07,1.37,.68,1.03,2.74-.34,2.74h-50.01c-2.74,0-4.11-1.37-4.45-3.77l-18.5-115.43c-.68-5.14-3.42-6.85-7.88-7.54l-5.82-1.03c-2.05-.34-3.08,1.03-3.08,3.08v105.5c0,7.88,2.05,11.3,10.27,16.44,1.37,.68,1.03,2.74-.34,2.74h-64.39c-1.37,0-1.71-2.05-.34-2.74,8.22-5.14,10.28-8.56,10.28-16.44v-208.26c0-7.88-2.05-11.3-10.28-16.44-1.37-.69-1.03-2.74,.34-2.74h64.39c1.37,0,1.71,2.05,.34,2.74-8.22,5.14-10.27,8.56-10.27,16.44v71.93c0,1.71,1.03,2.4,2.4,2.4,1.71,0,2.74-1.03,3.77-2.74l44.53-71.93c2.74-4.45,4.79-11.99-1.71-16.1-1.37-.69-1.03-2.74,.34-2.74h42.13c1.37,0,1.71,2.05,.34,2.74-7.19,3.77-11.99,7.53-17.13,15.76l-46.59,72.96Z"/><path class="cls-2" d="M520.06,496.04c-1.37,0-1.71-2.05-.34-2.74,8.22-5.14,10.27-8.56,10.27-16.44v-208.26c0-7.88-2.05-11.3-10.27-16.44-1.37-.69-1.03-2.74,.34-2.74h102.42c2.4,0,3.77,1.03,4.11,3.42l4.79,36.99c.34,2.74,0,4.8-1.71,4.8-1.37,0-2.05-1.03-2.74-2.4l-4.79-8.56c-9.25-16.44-21.58-20.55-35.62-20.55h-4.45c-5.14,0-7.54,3.08-7.54,10.62v59.6c0,13.7,2.05,16.78,11.64,16.78h1.37c6.51,0,14.04-3.42,17.81-15.41l2.74-8.91c1.03-3.08,2.06-6.17,4.45-6.17,2.05,0,2.74,2.74,2.74,6.51v63.37c0,3.77-.34,6.51-2.74,6.51s-3.42-3.08-4.45-6.17l-3.08-9.93c-3.77-11.99-9.93-15.41-17.47-15.41h-1.37c-9.59,0-11.64,3.08-11.64,16.78v90.43c0,7.54,1.71,10.62,7.54,10.62h4.45c14.73,0,26.38-3.77,37-19.52l5.82-8.56c1.03-1.37,2.05-2.4,3.42-2.4,1.71,0,2.4,1.71,1.71,4.8l-7.87,35.96c-.69,2.4-1.72,3.42-4.11,3.42h-102.42Z"/><path class="cls-2" d="M728.65,268.6c0-7.88-2.05-11.3-10.27-16.44-1.37-.69-1.03-2.74,.34-2.74h64.4c1.37,0,1.71,2.05,.34,2.74-8.22,5.14-10.28,8.56-10.28,16.44v208.26c0,7.88,2.06,11.3,10.28,16.44,1.37,.68,1.03,2.74-.34,2.74h-64.4c-1.37,0-1.71-2.05-.34-2.74,8.22-5.14,10.27-8.56,10.27-16.44v-208.26Z"/><path class="cls-2" d="M924.92,249.42c10.62,0,14.39-5.14,15.42,3.77l6.51,56.17c.34,2.74-2.74,3.08-3.77,.68l-10.62-20.21c-8.56-16.44-15.75-23.98-27.74-23.98h-1.03c-9.94,0-12.68,5.14-12.68,11.99v199.01c0,7.88,2.06,11.3,10.28,16.44,1.37,.68,1.03,2.74-.34,2.74h-64.4c-1.37,0-1.71-2.05-.34-2.74,8.22-5.14,10.28-8.56,10.28-16.44v-199.01c0-6.85-2.74-11.99-12.67-11.99h-1.03c-11.99,0-20.55,7.54-28.43,23.98l-9.59,20.21c-1.03,2.4-4.11,2.06-3.77-.68l4.8-56.17c.68-8.91,4.79-3.77,15.41-3.77h113.72Z"/><path class="cls-2" d="M475.29,767.02v-211.92c0-10.03-2.62-14.39-13.08-20.93-1.75-.87-1.31-3.49,.43-3.49h81.98c1.74,0,2.18,2.62,.44,3.49-10.47,6.54-13.08,10.9-13.08,20.93v184.01c0,68.02-30.09,109.88-85.46,109.88s-85.47-41.86-85.47-109.88v-184.01c0-10.03-2.62-14.39-13.08-20.93-1.74-.87-1.31-3.49,.44-3.49h81.98c1.74,0,2.18,2.62,.44,3.49-10.47,6.54-13.08,10.9-13.08,20.93v211.92c0,39.68,7.85,64.1,28.78,64.1s28.78-24.42,28.78-64.1"/><path class="cls-2" d="M602.32,654.53c-1.31-2.62-4.36-1.74-4.36,.87v164.82c0,10.03,2.62,14.39,13.08,20.93,1.74,.87,1.31,3.49-.44,3.49h-56.68c-1.75,0-2.18-2.61-.44-3.49,10.47-6.54,13.08-10.9,13.08-20.93v-265.11c0-10.03-2.62-14.39-13.08-20.93-1.74-.87-1.31-3.49,.44-3.49h47.09c3.92,0,6.1,1.31,7.41,4.8l83.28,185.32c1.31,2.62,4.36,1.74,4.36-.87v-164.82c0-10.03-2.62-14.39-13.08-20.93-1.75-.87-1.31-3.49,.43-3.49h56.69c1.74,0,2.18,2.62,.44,3.49-10.47,6.54-13.08,10.9-13.08,20.93v286.04c0,2.18-1.31,3.49-3.05,3.49h-31.39c-3.93,0-6.11-1.31-7.42-4.79l-83.28-185.32Z"/><path class="cls-2" d="M918.89,530.69c13.52,0,18.31-6.54,19.62,4.8l8.28,71.51c.44,3.49-3.49,3.93-4.8,.87l-13.52-25.73c-10.9-20.93-20.06-30.52-35.32-30.52h-1.31c-12.64,0-16.13,6.54-16.13,15.26v253.34c0,10.03,2.62,14.39,13.08,20.93,1.74,.87,1.31,3.49-.44,3.49h-81.97c-1.74,0-2.18-2.61-.44-3.49,10.47-6.54,13.08-10.9,13.08-20.93v-253.34c0-8.72-3.49-15.26-16.13-15.26h-1.31c-15.26,0-26.16,9.59-36.19,30.52l-12.21,25.73c-1.31,3.05-5.23,2.62-4.8-.87l6.11-71.51c.87-11.34,6.1-4.8,19.62-4.8h144.77Z"/><rect class="cls-1" x="0" y="0" width="946.87" height="849"/></g></g></g></svg>