<?xml version="1.0" encoding="UTF-8"?><svg id="Layer_2" xmlns="http://www.w3.org/2000/svg" viewBox="0 0 157.8 94.23"><defs><style>.cls-1{fill:#fff;}</style></defs><g id="Layer_1-2"><path class="cls-1" d="M136.79,79.27c-.95,.56-2.09,.55-2.79,.6l3.78-2.42c-.21,.66-.24,1.38-.99,1.82m21.02-14.05l-2.06-3.93-14.99,9.12-4.52-8.93c-.44-.83-.77-1.67-.96-2.26,1.1,.31,2.99,1.04,4.69,1.82l.65,.3,3.35-2.53-1.01-.97c-.24-.23-5.88-5.58-10.67-2.57-.9,.57-1.47,1.38-1.68,2.41-.54,2.61,1.49,5.73,1.71,6.04l4.79,9.32-8.86,7.06,1.83,3.97h1.04c1.6-.03,9.69-.43,11.26-5.41,.49-1.55,.24-3.01,0-3.87l15.18-9.4,.26-.16ZM85.52,29.58c-.04-1.14,.53-1.7,1.15-1.94,1.18-.45,2.6-.12,2.69-.11l-3.84,2.05Zm8.95-1.86c-.08-1.12-.62-2.07-1.57-2.75-1.55-1.13-4.14-1.42-6.73-.77-3.28,.82-5.17,4.1-4.87,7.21l-3.6,2.02,1.84,3.48,2.92-1.6c3.05,4,8.28,3.21,8.35,3.2l.12-.03c6.61-1.14,11.87-8.25,14.03-13.3l-.37,27.47c0,.2,0,.46-.01,.77v.52s7.72,0,7.72,0l-.5-39.18,18.65,2.33,.42-3.61-19-2.2-.43-11.25-6.45,.57-.03,.9c-.04,1.61-.47,6.38-.74,9.31l-19.47-1.85-.19,3.12,19.46,2.53v.05c-1.29,11.15-10.64,18.51-11,18.79-3.33,1.84-5.52,.93-6.67,.02l8.15-5.08-.05-.66Zm17.63,49.79s-.08-.04-.09-.05c-.09-.11-.36-.67-.05-3.13,.26-2.07,3.03-3.09,4.33-3.46,.13,2.82-3.21,5.82-4.19,6.64M14.76,85.63c-.77,.62-1.72,.73-2.41,.67,.37-1.82,4.51-4.43,4.51-4.43,0,0-.63,2.56-2.11,3.75M124.68,37.92l-6.4-.35-1.32,28.56c-.07,0-.14,0-.2,0-2.33,0-4.38,.91-6.12,2.72-1.37,1.43-2.11,2.98-2.39,3.64-.52,.56-2.69,2.85-4.91,4.74-.21-.63-.47-1.99-.79-4.06-.61-4.01-1.19-7.79-3.7-7.96-2.27-.16-4.25,1.64-5.66,3.4l-.72-3.72-.82-.09c-.51-.06-2.22-.21-2.66-.24-.66,.01-.97,.02-6.12,8.17l-2.45-8.16-3.82,1.26,.16,.95c.51,2.97-2.64,7.16-4.13,8.94-.43-1.86-.79-6.16-.66-12.18v-.22s-.07-.2-.07-.2c-.21-.56-.86-2.26-12.51-2.81-1.05-1.47-2.43-2.81-4.12-3.98-1.77-1.22-3.87-1.94-5.9-2.64-.9-.31-1.84-.63-2.72-.99l-1.36-.1c-2.51,0-5.35-.02-7.81,1.19-3.71,1.81-7.08,5.7-8.17,8.61-.28,.75-.55,1.54-.83,2.43l-.84,3.23c-3.37,2.25-7.43,5.06-7.79,5.28-1.93-3.23-4.61-5.27-7.46-7.68-.9-.76-1.83-1.55-2.69-2.33-.23-.21-.56-.47-.93-.76-1.65-1.31-4.14-3.28-3.11-4.86,.9-1.38,4.16-1.83,6.11-2.1,.31-.04,.58-.08,.84-.12l.37-.06-.05-.38c-.21-1.45-.48-3.27-.68-4.51l-.13-.33h-.34c-.09,.01-.19,.02-.29,.03-3.86,.61-7.74,1.52-10.02,4.12-2.62,2.98-1.38,7.02,.89,9.52,1.71,1.88,3.71,3.51,5.65,5.09,2.02,1.64,4.11,3.34,5.83,5.31,.71,.81,1.12,1.3,1.58,2.11-2.97,2.03-6.86,5.44-9.39,9.35l-.08,.13,.72,3.54,.19,.08c.21,.09,3.49,1.39,6.83,1.3,1.87-.05,3.78-.52,5.15-1.91,3.02-3.09,3.54-6.7,2.95-10.49,.42-.26,3.02-2.12,5.23-3.61-.11,1.22,.17,3.41,.61,4.68,.38,1.11,.62,2,1.32,2.86,1.32,1.64,2.77,2.74,4.88,4.02,5.58,3.37,13.68,2.35,17.33,1.02,1.54-.57,3.52-1.39,5.09-2.79,3.24-2.87,4.2-7.48,4.85-11.58,.43-2.72,.77-5.38,.3-7.97l6.22,.78c-.28,6.9,.94,12.74,3.06,14.6,.81,.71,1.59,.73,2.1,.63,1.9-.37,4.17-3.87,5.85-7.03l1.42,5.14,4.28-.3,4.63-7.58,1.13,7.64,3.59-.07,.26-.74c1.68-4.9,3.43-7.65,3.85-7.98,.45,.33,1.12,2.78,1.18,5.59l.02,.12c.78,4.58,1.54,5.49,2.04,5.78l.11,.06,3.4,.36,2.97-3.12c.15,.36,.35,.69,.59,1,1.31,1.66,3.5,1.91,3.74,1.93h.11c2.62-.11,4.84-1.64,6.5-4.43l.6,16.82,6.78-.1-1.12-55.9v-.31ZM36.84,25.03c.14-.08,.26-.12,.4-.13,.02,0,.05,0,.07,0,.1,0,.2,.02,.31,.05,.3,.09,.56,.2,.78,.31-.78,.49-1.85,.96-2.71,1.29,.34-.73,.74-1.27,1.15-1.51m-19.1,16.53c-.3,.09-.81,.2-.96-.14-.18-.43,.17-1.42,1-1.86,.61-.33,4.21-2.24,4.21-2.24-.84,1.81-2.93,3.83-4.25,4.24m-6.67-21.82c9.53,6.52,10.92,12.53,10.92,12.53-.08,.05-9.51,4.45-10.34,8.18-.57,2.53,1.17,5.22,3.86,5.89,.53,.13,1.07,.19,1.61,.18,2.4-.04,5.01-1.06,6.93-3.55,1.79-2.32,3.08-5.47,3.4-8.28,1.05-.59,2.38-1.22,3.73-1.83l.04,.13c2.01,4.85,6.51,5.53,7.9,5.62h.05s.76-.13,.76-.13l6.29-3.18c.07,.92,.23,2.15,.57,3.43,.95,3.57,2.85,5.77,5.5,6.36,6.2,1.38,9.7-4.01,9.74-4.08l5.94-10.7,.36,15.77,5.86-.19-.23-12.03c2.24-5.38,4.21-9.34,4.65-9.67,.61-.46,1.85-.41,2.43-.32l1.04,.18,.62-4.98-4.93,.15c-1.6,.11-3.09,1.66-4.46,4.6l-.42-5.72-5.14,.26,.22,3.08c-2.97,6.24-8.59,17.15-10.98,18.87-1.07,.77-2.36,.89-3.55,.32-1.6-.77-2.68-2.59-2.76-4.62-.15-3.73,6.97-6.02,7.04-6.04l1.01-.31-1.07-2.98-4.75,.51-.09,.02c-1.11,.26-2.07,.8-2.9,1.44-.94,.53-4.15,2.23-6.79,3.64-2.27,1.21-3.73,1.99-4.06,2.17-.62-.18-2.43-1.8-3.46-3.43l7.56-3.69v-.8c.01-1.08,.03-3.09-1.48-4.5-1.08-1-2.69-1.42-4.79-1.24-2.6,.22-4.62,1.91-5.86,4.9-.37,.89-.61,1.76-.77,2.49-1.09,.47-2.26,.99-3.47,1.55-.6-2.16-1.48-3.33-2.9-5.3-4.74-6.56-11.02-10.06-11.25-10.62,.06-.12,.54-.31,.85-.43,.16-.06,6.94-2.56,6.94-2.56l-2.09-4.44s-9.29,2.77-10.77,5.54c-.56,1.05-.72,1.86-.35,3.04,.55,1.74,2.4,3.76,3.87,4.76"/></g></svg>