<svg xmlns="http://www.w3.org/2000/svg" viewBox="0 0 434.74 23.81"><defs><style>.cls-1{fill:#d20208;}</style></defs><g id="Layer_2" data-name="Layer 2"><g id="Layer_1-2" data-name="Layer 1"><path class="cls-1" d="M13.63,12.33c1.28.95,1.83,2.84,1.83,5.24,0,.64,0,1.31-.08,1.95a8.63,8.63,0,0,1-.42,2.4c-.49,1.32-2,1.76-3.75,1.76H1.71C.89,23.68,0,23.61,0,22.8a5.31,5.31,0,0,1,.68-1.89,8.88,8.88,0,0,0,.48-3.28V3.78A2.21,2.21,0,0,0,.81,2.33L.34,1.86A1,1,0,0,1,0,1C0,.34.74,0,1.16,0H13.94c.55,0,.63.44.63.71,0,.78-.47,1.19-.47,1.9a1.89,1.89,0,0,0,.1.47,25.06,25.06,0,0,1,1.13,2.26,5.29,5.29,0,0,1,.16,1.42c0,1.62-.26,4-1.65,4-.21,0-.71-.11-1.12-.11s-.62.07-.62.34C12.1,11.52,13.42,12.2,13.63,12.33ZM8.09,2.87c-1,0-1.92,1-2.31,2a4.36,4.36,0,0,0-.27,1.59c0,1.68.08,3.51.08,5.27a3.62,3.62,0,0,1,.58-.38,10.14,10.14,0,0,0,2.65-2,4.29,4.29,0,0,0,1.55-3.18C10.37,4.56,9.4,2.87,8.09,2.87Zm2.36,14.26a6.56,6.56,0,0,0-1.34-3.82c-.68.3-3.49,1.92-3.49,4.29,0,1.38.45,2.53,2.05,2.53A2.7,2.7,0,0,0,10.45,17.13Z"/><path class="cls-1" d="M31.37,22.23c0,.44-.24,1.45-1.21,1.45h-12c-.78,0-.86-.47-.86-1A4.27,4.27,0,0,1,18,20.74a10.18,10.18,0,0,0,.44-3.34V5.68c0-1.19-.05-2.94-.79-3.82a1.15,1.15,0,0,1-.36-.78c0-.81.68-1,1.26-1H29.76c.92,0,1.56.71,1.56,2s0,2.25,0,3.51c0,.94-.11,2.06-.74,2.06-.81,0-1-1.49-1.49-2.3a2.68,2.68,0,0,0-2.26-1.15A3.92,3.92,0,0,0,23,6.45a5.25,5.25,0,0,0-.21,1.62c0,.51,0,1,.08,1.46.21-.21.37-.51.58-.75a5.26,5.26,0,0,1,4.22-2.16,1.45,1.45,0,0,1,1.47.88,4.73,4.73,0,0,1,.11,1.39c0,1.26.05,2.46.05,3.81,0,.51-.18,1.22-.63,1.22-.18,0-.31-.14-.44-.31-.63-.77-1.11-1.85-2.26-1.85a2.16,2.16,0,0,0-1.42.57,5.29,5.29,0,0,0-1.68,4.36v0A6.44,6.44,0,0,0,23,18.48a2.32,2.32,0,0,0,2.13,1.79c.79,0,1.84-.54,1.84-1.52a1.29,1.29,0,0,0-.29-.81c-.29-.34-.71-.54-.71-1.22s.74-.95,1.28-.95,2.21,0,2.87.07a1.13,1.13,0,0,1,.94.47,2.12,2.12,0,0,1,.27,1.16Z"/><path class="cls-1" d="M47.24,22.23c0,.44-.24,1.45-1.21,1.45H34c-.79,0-.87-.47-.87-1a4.39,4.39,0,0,1,.71-1.93,9.93,9.93,0,0,0,.45-3.34V5.68c0-1.19-.06-2.94-.79-3.82a1.11,1.11,0,0,1-.37-.78c0-.81.68-1,1.26-1H45.64c.91,0,1.55.71,1.55,2s0,2.25,0,3.51c0,.94-.1,2.06-.73,2.06-.82,0-1-1.49-1.5-2.3a2.68,2.68,0,0,0-2.26-1.15,3.91,3.91,0,0,0-3.85,2.33,5.25,5.25,0,0,0-.21,1.62c0,.51.05,1,.07,1.46.21-.21.37-.51.58-.75a5.3,5.3,0,0,1,4.23-2.16A1.46,1.46,0,0,1,45,7.5a5.19,5.19,0,0,1,.1,1.39c0,1.26.06,2.46.06,3.81,0,.51-.19,1.22-.63,1.22-.19,0-.32-.14-.45-.31-.63-.77-1.1-1.85-2.26-1.85a2.16,2.16,0,0,0-1.42.57,5.32,5.32,0,0,0-1.68,4.36v0a6.06,6.06,0,0,0,.19,1.76A2.3,2.3,0,0,0,41,20.27c.79,0,1.84-.54,1.84-1.52a1.24,1.24,0,0,0-.29-.81c-.29-.34-.71-.54-.71-1.22s.74-.95,1.29-.95,2.21,0,2.86.07a1.16,1.16,0,0,1,.95.47,2.12,2.12,0,0,1,.26,1.16Z"/><path class="cls-1" d="M61.07,12.36a1.3,1.3,0,0,0,.37.85,18.07,18.07,0,0,1,2.33,4.32,28.49,28.49,0,0,0,1.79,4.76,1,1,0,0,1,.18.48.77.77,0,0,1-.18.44,1.83,1.83,0,0,1-1.53.47h-4.2c-.55,0-1.36,0-1.36-.78a1,1,0,0,1,.13-.4,5.14,5.14,0,0,0,.34-2,8.2,8.2,0,0,0-1.42-4.66,1.57,1.57,0,0,0-1.18-.71c-.73,0-1.34.81-1.7,1.42a10.68,10.68,0,0,0,1,4.93,2.81,2.81,0,0,1,.42,1.31c0,.61-.29.85-.89.85H49.83c-.55,0-.81-.37-.81-.91a5.31,5.31,0,0,1,.68-1.89,9.12,9.12,0,0,0,.47-3.28V3.75a2.26,2.26,0,0,0-.34-1.45c-.13-.14-.32-.31-.47-.47A1,1,0,0,1,49,1,1,1,0,0,1,50.17,0h4C57.39,0,61.59,0,63,0c.55,0,.63.44.63.71,0,.68-.5,1.05-.5,1.66,0,.94.71,1.62,1,2.36a7.76,7.76,0,0,1,.47,2.8A8.46,8.46,0,0,1,63.8,11c-.21.47-.5,1-1,1-.37,0-.76-.23-1.12-.23A.58.58,0,0,0,61.07,12.36Zm-4-9.49c-.94,0-1.91,1-2.31,2a4.57,4.57,0,0,0-.26,1.59c0,1.68.08,3.51.08,5.27a3.22,3.22,0,0,1,.58-.38,10.31,10.31,0,0,0,2.65-2,4.29,4.29,0,0,0,1.55-3.18C59.39,4.56,58.42,2.87,57.1,2.87Z"/><path class="cls-1" d="M78.28,0l2.55,0L86,0h.16c.81,0,1.23.51,1.44,1.32A27.48,27.48,0,0,1,88.18,5c.7,5.11,1.36,10.24,2,15.41a16.79,16.79,0,0,1,.21,2,2.84,2.84,0,0,1-.1.88c-.16.41-.56.44-.89.44h-4c-.75,0-1.66-.05-1.66-1s.81-1.56,1.15-2.27a4.14,4.14,0,0,0,.32-1.69c0-1.11,0-6.51-1.16-7.87a2,2,0,0,0-1.55-.71,3.45,3.45,0,0,0-2.47,1.46,7.07,7.07,0,0,0-1.57,3.68,8.69,8.69,0,0,0-.08,1.11,9.29,9.29,0,0,0,1.94,5.41c.16.23.55.61.55,1a.65.65,0,0,1-.39.57,5.5,5.5,0,0,1-2,.34H76c-.44,0-1.26-.2-1.26-1a1.05,1.05,0,0,1,0-.31L77.54,2.47v0c0-.74-.71-.88-.71-1.35S77.57,0,78.28,0ZM79.8,7.74c.26,0,.79-.75,1.89-1a3.07,3.07,0,0,1,.92-.14,3.94,3.94,0,0,1,1.16.17c-.19-2.06-.84-3.41-2.16-3.41s-2,2.67-2,3.85C79.64,7.5,79.64,7.74,79.8,7.74Z"/><path class="cls-1" d="M102.89,0c.27,0,.53,0,.79,0h3.1a1,1,0,0,1,.81,1.8,3.22,3.22,0,0,0-.5,1.24,15.22,15.22,0,0,0-.1,2s0,11.59.08,12.53c0,.35,0,.68,0,1v.44a5.68,5.68,0,0,0,.37,2.5,2.78,2.78,0,0,1,.42,1.32c0,.61-.47.78-.92.78h-2.54c-1.32,0-1.63,0-1.84-.37s-.55-1-1-1.76-1.62-4.08-1.91-4.9-1.87-6.75-2.26-8-.79-1.39-1.21-1.39c-.15,0-.34.14-.34.48v8.61c0,2.13,1.37,3.78,2.34,5.1A2.38,2.38,0,0,1,99,22.87c0,.61-.44.78-.89.78-.94,0-1.86,0-2.76,0s-1.89,0-2.88-.1c-.32,0-.53-.31-.53-.75a4.74,4.74,0,0,1,.71-1.95,10.75,10.75,0,0,0,.73-4.53c0-.74,0-1.45,0-2.2,0-2.63,0-5.23,0-7.87,0-.84,0-1.68,0-2.53A2.26,2.26,0,0,0,93,2.3c-.13-.14-.34-.31-.5-.47A1,1,0,0,1,92.18,1c0-.67.71-.95,1.13-.95L96.7,0a3.39,3.39,0,0,1,2.15.61,6.22,6.22,0,0,1,1.66,2.63c.36.88.73,1.76,1.07,2.67.26.71,2,6.65,2.5,7.57a1.39,1.39,0,0,0,.36.47c0-3.38-.1-8-.29-9a4,4,0,0,0-1.57-2.49,10.23,10.23,0,0,1-.81-.64,1,1,0,0,1-.32-.85C101.45.1,102.08,0,102.89,0Z"/><path class="cls-1" d="M124.12,4.05a13.64,13.64,0,0,0,.53,3.28,32.53,32.53,0,0,1,1.52,9c0,2.3-.42,5.14-1.47,6.45a2.51,2.51,0,0,1-2.13.82H111.08c-1,0-1.13-.58-1.13-1.12a5.44,5.44,0,0,1,.71-1.59,10.37,10.37,0,0,0,.44-3.37v-.14s.06-10.37.06-11.69a.86.86,0,0,1,.91-.91c1.21,0,2.45,0,3.68,0,.68,0,.92,0,.92.54A2.92,2.92,0,0,1,116,6.89c-.49.62-.5,2.82-.5,3.21v8.82c0,.64,1.2,1.38,2.28,1.38s1.76-1,2.15-2.06a16.14,16.14,0,0,0,.84-5.81,26.91,26.91,0,0,0-.29-4.12,8,8,0,0,0-.91-2.94c-1.2-1.89-3.27-1.92-6-1.92h-.82a1.76,1.76,0,0,0-1.57.58c-.29.37-.63,1.69-1.13,1.69s-.52-1-.52-1.49V1c0-.1,0-.88.71-.88,4.41,0,8.84,0,13.25,0,.87,0,1.55.14,1.55,1.12,0,.61-.39.94-.6,1.32A3.56,3.56,0,0,0,124.12,4.05Z"/><path class="cls-1" d="M155.69.51a2.18,2.18,0,0,1-.23.74,6.26,6.26,0,0,0-.53,2.8,36.88,36.88,0,0,0,.34,3.82l.4,3.75c.26,2.36.31,3.48.63,5.81a35.91,35.91,0,0,1,.52,4.66c0,1.05-.36,1.59-1.13,1.59h-4.8c-.5,0-.71-.44-.71-.91a2.17,2.17,0,0,1,.13-.71,16.23,16.23,0,0,0,.82-6c0-.65,0-1.66,0-2.77,0-2.57-.08-6.66-1.13-6.66-.18,0-.23.2-.26.37a32.71,32.71,0,0,1-2,7.4,1.49,1.49,0,0,0-.16.61,1,1,0,0,0,.08.34c.32.71.58,1.48,1,2.16a2.89,2.89,0,0,1,.52,1.32c0,.5-.71.67-.92.67s-2.89,0-3.49,0-.92-.68-1-.81a32.16,32.16,0,0,1-1.1-3.55c-.21-.71-.92-4.86-1.15-6.39s-.79-2.05-1.13-2.05-.55,1.18-.63,1.51a16.45,16.45,0,0,0-.32,3.31c0,3.65.19,7.57,1.71,9.46a3.61,3.61,0,0,1,.79,1.79c0,.92-1.24.95-1.84.95h-3.36c-.87,0-1-1-1-1.69,0-.3.05-.57.05-.64.13-.85.21-1.93.32-2.8.31-2.67.65-5.34,1-8,.29-2.43.5-5,.92-7.36a2.24,2.24,0,0,0,0-.38,1.17,1.17,0,0,0-.28-.74A2.06,2.06,0,0,1,137.48,1c0-.44.15-.95.86-.95h4.46A1.5,1.5,0,0,1,144,.54a2.48,2.48,0,0,1,.39.78,34.38,34.38,0,0,1,1.47,6.62c0,.37.21,1.59.61,1.59.15,0,.28-.34.34-.51.23-.68.34-1.42.52-2.13s.4-1.52.58-2.26a34.78,34.78,0,0,1,.92-3.48A1.49,1.49,0,0,1,150.15,0h4.6C155.2,0,155.69,0,155.69.51Z"/><path class="cls-1" d="M172.93,1.25c0,.61-.39.88-.6,1.25A3.19,3.19,0,0,0,172,4a23.67,23.67,0,0,0,.61,3.79,58.61,58.61,0,0,1,.81,8.64c0,3.45-.5,7.33-2.86,7.33h-9c-2.39,0-2.89-3.85-2.89-7.16a64.54,64.54,0,0,1,.92-9.39,22.53,22.53,0,0,0,.5-3.24,2.91,2.91,0,0,0-.37-1.52c-.21-.34-.55-.61-.55-1.18a1.16,1.16,0,0,1,1-1.19h3.52c.53,0,1,.68,1,1.42,0,2.17-1,8.18-1,12.74,0,3.21.71,5.71,2.39,5.71s2.31-2.71,2.31-6.08c0-4.57-.95-10.34-.95-12.4,0-.75.48-1.39,1-1.39h3.73C172.64,0,172.93.67,172.93,1.25Z"/><path class="cls-1" d="M184.66,16.38a6.87,6.87,0,0,0-1-3.64,4.28,4.28,0,0,0-3.58-2.07,4.37,4.37,0,0,0-2.1.58c-.34.2-.68.81-1,.81-.61,0-1.05-1-1.26-1.59a13.59,13.59,0,0,1-.52-3.78,7.41,7.41,0,0,1,.47-2.91A3.11,3.11,0,0,0,176,2.5c0-.56-.45-.9-.45-1.52,0-.44.21-.91.57-.91H188.2c1,0,1.05.84,1.05,1.35,0,.2-.05,4.05-.05,4.73a1,1,0,0,1-.89,1h-3.23c-.45,0-.63-.24-.63-.58A1.63,1.63,0,0,1,185,5.47a1.05,1.05,0,0,0,.53-.94c0-1-1.47-1.15-3-1.15A2.27,2.27,0,0,0,180,5.64a1.9,1.9,0,0,0,1.34,1.86c1,.52,2.19.46,3.25.84,2.53.95,4.5,3.45,5.12,6.86a14.6,14.6,0,0,1,.21,2.37,13.17,13.17,0,0,1-.81,4.56c-.13.37-.5,1.55-.89,1.55H176.94c-1,0-1.36-.37-1.36-1,0-.3-.11-3.07-.11-3.72a37,37,0,0,1,.21-4.29,1.12,1.12,0,0,1,.86-.71h3.66c.39,0,.52.28.52.58a2.91,2.91,0,0,1-.34,1.15,3.38,3.38,0,0,0-.5,2,2.24,2.24,0,0,0,2.42,2.4C183.88,20.1,184.66,18.48,184.66,16.38Z"/><path class="cls-1" d="M198,2.23a3.14,3.14,0,0,0-.42,2c0,4.39,0,9,0,13.41a8.26,8.26,0,0,0,.76,3.92,2.39,2.39,0,0,1,.4,1.22c0,.81-.63.91-1.26.91h-3.73a9.22,9.22,0,0,1-1.42-.1.7.7,0,0,1-.63-.81,2.39,2.39,0,0,1,.4-1.22,8.26,8.26,0,0,0,.76-3.92c0-4.42,0-9,0-13.41a3.16,3.16,0,0,0-.39-2c-.29-.34-.76-.51-.76-1.18A1,1,0,0,1,193,0h4.75a1,1,0,0,1,1.13,1C198.83,1.72,198.33,1.89,198,2.23Z"/><path class="cls-1" d="M210.59,4.53c0-1.22-1-1.52-1.87-1.52-2.07,0-2.49,2.29-2.78,4.39a26,26,0,0,0-.29,3.85c0,3.95.87,8.31,4,8.31a3.56,3.56,0,0,0,3-2.09c.45-.85.63-2.1,1.5-2.44a.38.38,0,0,1,.18,0c.29,0,.45.34.45.64v6.79a1.27,1.27,0,0,1-1.45,1.38H206.2c-2-.06-4.12,0-5.07-1.72a6,6,0,0,1-.57-2.63c-.06-.71-.06-1.52-.06-2.23a56.86,56.86,0,0,1,.45-6.66c.29-2.33,1.08-4.76,1.08-7.12a4.38,4.38,0,0,0-.21-1.15A5.26,5.26,0,0,1,201.4.81c0-.4.1-.78.31-.78H212.5c.71,0,1.47.1,1.73.64a4.41,4.41,0,0,1,.24,1.76V5.17a6.67,6.67,0,0,1-.5,3.21c-.52.67-2.28.71-3.12.71H210A14.84,14.84,0,0,1,208.14,9c-.21,0-.31-.2-.34-.44a13.44,13.44,0,0,1-.21-2.09c0-.61.16-1.56.69-1.56.26,0,.42.38.68.65a1,1,0,0,0,.68.33C210.22,5.84,210.59,5.17,210.59,4.53Z"/><path class="cls-1" d="M225.67.07h10.76c1,0,1.55.85,1.55,2.16V5.58c0,.94-.1,2.05-.73,2.05-.82,0-1-1.48-1.5-2.29a2.54,2.54,0,0,0-2.18-1.15,3.4,3.4,0,0,0-3.36,2.16c-.1.24-.16.47-.24.71V9.69c1.08-1.68,2.29-3,4.42-3a1.47,1.47,0,0,1,1.47.88A5.24,5.24,0,0,1,236,9c0,1.27,0,2.4,0,3.78,0,.51-.18,1.25-.63,1.25-.18,0-.31-.17-.44-.33-.63-.78-1.11-1.86-2.26-1.86-1.68,0-2.65,1.72-2.65,3.34v2.43a10.61,10.61,0,0,0,1,3.92,2.71,2.71,0,0,1,.42,1.28c0,.65-.52.85-1,.85h-4.93c-1.1,0-1.13-.17-1.13-.91a7.17,7.17,0,0,1,.71-1.86,10.16,10.16,0,0,0,.44-3.38V5.71c0-1.22-.05-2.94-.78-3.82a1.09,1.09,0,0,1-.37-.78C224.41.31,225.09.07,225.67.07Z"/><path class="cls-1" d="M253.78,1.25c0,.68-.42.91-.63,1.32A3,3,0,0,0,252.86,4c0,4.79,1.34,6.72,1.34,12.46,0,2.67-.24,7.3-2.81,7.3h-8.9c-2.71,0-3-4.7-3-7.3,0-4.46,1.33-8.48,1.33-12.5a2.84,2.84,0,0,0-.37-1.52c-.21-.34-.54-.57-.54-1.11A1.22,1.22,0,0,1,241.07,0c2,0,3.75,0,5.7,0h5C252.57,0,253.78.1,253.78,1.25Zm-7,18.65c1.1,0,2.31-2.91,2.31-9.16s-1.5-7.12-2.31-7.12-2.31,1-2.31,7.12S245.72,19.86,246.82,19.9Z"/><path class="cls-1" d="M267.89,12.36a1.3,1.3,0,0,0,.37.85,18.09,18.09,0,0,1,2.34,4.32,28.46,28.46,0,0,0,1.78,4.76,1.06,1.06,0,0,1,.19.48.77.77,0,0,1-.19.44,1.81,1.81,0,0,1-1.52.47h-4.2c-.55,0-1.37,0-1.37-.78a.87.87,0,0,1,.14-.4,5.34,5.34,0,0,0,.34-2,8.28,8.28,0,0,0-1.42-4.66,1.6,1.6,0,0,0-1.18-.71c-.74,0-1.34.81-1.71,1.42a10.67,10.67,0,0,0,1,4.93,2.81,2.81,0,0,1,.42,1.31c0,.61-.29.85-.9.85h-5.35c-.55,0-.82-.37-.82-.91a5.32,5.32,0,0,1,.69-1.89A9.12,9.12,0,0,0,257,17.6V3.75a2.26,2.26,0,0,0-.34-1.45c-.13-.14-.32-.31-.47-.47a1,1,0,0,1-.32-.85A1,1,0,0,1,257,0h4c3.26,0,7.46,0,8.82,0,.56,0,.63.44.63.71,0,.68-.49,1.05-.49,1.66,0,.94.7,1.62,1,2.36a8,8,0,0,1,.47,2.8,8.31,8.31,0,0,1-.74,3.45c-.21.47-.49,1-1,1-.37,0-.76-.23-1.13-.23A.58.58,0,0,0,267.89,12.36Zm-4-9.49c-.95,0-1.92,1-2.31,2a4.57,4.57,0,0,0-.26,1.59c0,1.68.08,3.51.08,5.27a3.14,3.14,0,0,1,.57-.38,10,10,0,0,0,2.65-2,4.26,4.26,0,0,0,1.55-3.18C266.21,4.56,265.24,2.87,263.93,2.87Z"/><path class="cls-1" d="M291.09,17.67a11.42,11.42,0,0,0,.21,2.49c.18.88.94,1.63.94,2.61a.84.84,0,0,1-.89.91h-4.93a.87.87,0,0,1-.92-.91c0-1,.79-1.73,1-2.61a11.42,11.42,0,0,0,.21-2.49v-12a4.7,4.7,0,0,0-.11-1.28,1.07,1.07,0,0,0-1-.85c-.42,0-.76.41-1,.85-.55,1.08-.86,2.33-1.39,3.44-.21.44-.58,1-1.1,1s-.61-.84-.61-1.49V1.83c0-1.76,1.19-1.8,1.63-1.8h11.08c.74,0,1.37.07,1.73.71A2.57,2.57,0,0,1,296.21,2v5.2c0,.64-.08,1.62-.6,1.62s-.9-.61-1.11-1c-.52-1.11-.84-2.36-1.39-3.44-.21-.44-.55-.85-1-.85a1.07,1.07,0,0,0-1,.85,4.45,4.45,0,0,0-.08,1v12.3Z"/><path class="cls-1" d="M298.8,0H303c.47,0,1.13.24,1.13.92a1,1,0,0,1-.32.84,3.12,3.12,0,0,0-.5,1.25,15.22,15.22,0,0,0-.1,2V7.8a.83.83,0,0,0,.31,0A2.68,2.68,0,0,0,305,7.19a3.88,3.88,0,0,1,2-.5,6.11,6.11,0,0,1,.86.07v-3a2.57,2.57,0,0,0-.26-1.38c-.26-.44-.89-.64-.89-1.39s.71-1,1.23-1h4.13c.55,0,1.12.21,1.12,1a1.27,1.27,0,0,1-.34.82,5.19,5.19,0,0,0-.57,2.93c0,.2,0,11.66.07,12.84a10.61,10.61,0,0,0,1,3.92,2.81,2.81,0,0,1,.42,1.31.83.83,0,0,1-.92.85H309c-.5,0-1,0-1.47-.07s-.76-.24-.76-.88c0-.87.63-1.45.84-2.13a12.55,12.55,0,0,0,.31-3.54V11.25a1.56,1.56,0,0,0-1.1-.34,2.58,2.58,0,0,0-2.57,1.49,12.21,12.21,0,0,0-.95,2.46c0,3.48.06,4.6,1.05,6.66a2.7,2.7,0,0,1,.42,1.31c0,.71-.57.85-1.1.85h-4.07a5.56,5.56,0,0,1-1.36-.14.69.69,0,0,1-.53-.77c0-.95.63-1.49.84-2.23a11,11,0,0,0,.32-3.11V15.61c0-3.35,0-6.72,0-10,0-.75,0-1.46,0-2.17a2,2,0,0,0-.29-1c-.29-.44-.76-.82-.76-1.49S298.38,0,298.8,0Z"/><path class="cls-1" d="M329.56,22.23c0,.44-.24,1.45-1.21,1.45h-12c-.79,0-.87-.47-.87-1a4.39,4.39,0,0,1,.71-1.93,9.93,9.93,0,0,0,.45-3.34V5.68c0-1.19-.05-2.94-.79-3.82a1.11,1.11,0,0,1-.37-.78c0-.81.69-1,1.26-1H328c.92,0,1.55.71,1.55,2s0,2.25,0,3.51c0,.94-.1,2.06-.73,2.06-.81,0-1-1.49-1.5-2.3A2.68,2.68,0,0,0,325,4.12a3.91,3.91,0,0,0-3.85,2.33A5.25,5.25,0,0,0,321,8.07c0,.51,0,1,.07,1.46.21-.21.37-.51.58-.75a5.3,5.3,0,0,1,4.23-2.16,1.46,1.46,0,0,1,1.47.88,5.19,5.19,0,0,1,.1,1.39c0,1.26.06,2.46.06,3.81,0,.51-.19,1.22-.63,1.22-.19,0-.32-.14-.45-.31-.63-.77-1.1-1.85-2.26-1.85a2.16,2.16,0,0,0-1.42.57,5.32,5.32,0,0,0-1.68,4.36v0a6.06,6.06,0,0,0,.19,1.76,2.3,2.3,0,0,0,2.12,1.79c.79,0,1.84-.54,1.84-1.52a1.24,1.24,0,0,0-.29-.81c-.29-.34-.71-.54-.71-1.22s.74-.95,1.29-.95,2.21,0,2.86.07a1.16,1.16,0,0,1,.95.47,2.12,2.12,0,0,1,.26,1.16Z"/><path class="cls-1" d="M340.31,0H353.1c.55,0,.63.48.63.75,0,.7-.5,1-.5,1.65a2.93,2.93,0,0,0,0,.37c.19.71.69,1.29.92,2a8.09,8.09,0,0,1,.47,2.8c0,1.62-.36,4.29-1.68,4.46h-.1c-.34,0-.68-.2-1-.2h0a2.15,2.15,0,0,0-1.08.57,21.52,21.52,0,0,1-3.15,2.13,10.25,10.25,0,0,0-2.52,1.59,1.27,1.27,0,0,0-.34.91c0,.2.05.41.05.61a10.56,10.56,0,0,0,1,3.91,2.88,2.88,0,0,1,.42,1.32c0,.64-.5.78-1,.78h-5.46c-.34,0-.57-.26-.63-.68a3,3,0,0,1,.45-1.52,5.15,5.15,0,0,0,.23-.54,8.82,8.82,0,0,0,.47-3.27V3.82A2.2,2.2,0,0,0,340,2.37l-.47-.48a1,1,0,0,1-.31-.84A1.16,1.16,0,0,1,340.31,0Zm6.8,2.91a3.24,3.24,0,0,0-2.33,2.53,3.68,3.68,0,0,0,0,.81c0,1.83,0,3.72,0,5.54a4.38,4.38,0,0,1,.58-.37,10.54,10.54,0,0,0,2.65-2,4.24,4.24,0,0,0,1.55-3.18C349.53,4.53,348.54,2.94,347.11,2.94Z"/><path class="cls-1" d="M370,22.23c0,.44-.24,1.45-1.21,1.45h-12c-.79,0-.87-.47-.87-1a4.39,4.39,0,0,1,.71-1.93A9.93,9.93,0,0,0,357,17.4V5.68c0-1.19,0-2.94-.79-3.82a1.11,1.11,0,0,1-.37-.78c0-.81.69-1,1.26-1h11.24c.92,0,1.55.71,1.55,2s0,2.25,0,3.51c0,.94-.1,2.06-.73,2.06-.81,0-1-1.49-1.5-2.3a2.66,2.66,0,0,0-2.25-1.15,3.92,3.92,0,0,0-3.86,2.33,5.25,5.25,0,0,0-.21,1.62c0,.51.05,1,.08,1.46.21-.21.36-.51.57-.75a5.3,5.3,0,0,1,4.23-2.16,1.46,1.46,0,0,1,1.47.88,5.19,5.19,0,0,1,.1,1.39c0,1.26.06,2.46.06,3.81,0,.51-.19,1.22-.63,1.22-.19,0-.32-.14-.45-.31-.63-.77-1.1-1.85-2.26-1.85a2.13,2.13,0,0,0-1.41.57,5.29,5.29,0,0,0-1.68,4.36v0a6.07,6.07,0,0,0,.18,1.76,2.3,2.3,0,0,0,2.13,1.79c.78,0,1.83-.54,1.83-1.52a1.24,1.24,0,0,0-.29-.81c-.28-.34-.7-.54-.7-1.22s.73-.95,1.28-.95,2.21,0,2.86.07a1.16,1.16,0,0,1,.95.47,2.12,2.12,0,0,1,.26,1.16Z"/><path class="cls-1" d="M386.24,1.25c0,.68-.42.91-.63,1.32A3,3,0,0,0,385.32,4c0,4.79,1.34,6.72,1.34,12.46,0,2.67-.24,7.3-2.81,7.3H375c-2.7,0-3-4.7-3-7.3,0-4.46,1.34-8.48,1.34-12.5a2.93,2.93,0,0,0-.37-1.52c-.21-.34-.55-.57-.55-1.11A1.22,1.22,0,0,1,373.53,0c2,0,3.76,0,5.7,0h5C385,0,386.24.1,386.24,1.25Zm-7,18.65c1.11,0,2.31-2.91,2.31-9.16s-1.49-7.12-2.31-7.12-2.31,1-2.31,7.12S378.18,19.86,379.28,19.9Z"/><path class="cls-1" d="M389.44,0h12.78c.55,0,.63.48.63.75,0,.7-.5,1-.5,1.65a1.88,1.88,0,0,0,.06.37c.18.71.68,1.29.91,2a8.09,8.09,0,0,1,.48,2.8c0,1.62-.37,4.29-1.68,4.46H402c-.34,0-.68-.2-1-.2h0a2.12,2.12,0,0,0-1.07.57,22.65,22.65,0,0,1-3.15,2.13,9.89,9.89,0,0,0-2.52,1.59,1.23,1.23,0,0,0-.35.91c0,.2.06.41.06.61a10.37,10.37,0,0,0,1,3.91,2.77,2.77,0,0,1,.42,1.32c0,.64-.49.78-1,.78h-5.46c-.34,0-.56-.26-.63-.68a3.08,3.08,0,0,1,.45-1.52,3.65,3.65,0,0,0,.23-.54,8.83,8.83,0,0,0,.48-3.27V3.82a2.26,2.26,0,0,0-.34-1.45c-.14-.14-.32-.31-.48-.48a1.05,1.05,0,0,1-.31-.84C388.31.4,389,0,389.44,0Zm6.8,2.91a3.24,3.24,0,0,0-2.34,2.53,3.68,3.68,0,0,0,0,.81c0,1.83,0,3.72,0,5.54a4.38,4.38,0,0,1,.58-.37,10.19,10.19,0,0,0,2.65-2,4.21,4.21,0,0,0,1.55-3.18C398.65,4.53,397.66,2.94,396.24,2.94Z"/><path class="cls-1" d="M413.79,15.67c-.65,0-.94.92-1.42,1.19a.51.51,0,0,1-.21.06c-.31,0-.39-.37-.39-.74,0-1.42,0-2.87,0-4.29,0-.1,0-.13.08-.17a2.51,2.51,0,0,1,1.57-.54c3.8,0,5.7,4.19,5.7,9a3.19,3.19,0,0,1-3.21,3.48H405.39c-.29,0-.6-.61-.6-1a4.87,4.87,0,0,1,.65-1.89,4.31,4.31,0,0,0,.4-1.29,18.54,18.54,0,0,0,.1-2V3.72a2.34,2.34,0,0,0-.34-1.46c-.13-.13-.32-.3-.47-.47a1,1,0,0,1-.32-.84c0-.68.71-.92,1.13-.92l6.46,0c.71,0,1,.47,1,.74V4.32c0,.41-.18.68-.5.68s-.84-.71-1.39-.71a1.1,1.1,0,0,0-1.13,1.15l0,11.65a2.47,2.47,0,0,0,2.32,2.71,2.23,2.23,0,0,0,2.12-2.3C414.84,16.62,414.42,15.67,413.79,15.67Z"/><path class="cls-1" d="M434.74,22.23c0,.44-.24,1.45-1.21,1.45h-12c-.79,0-.86-.47-.86-1a4.39,4.39,0,0,1,.7-1.93,9.93,9.93,0,0,0,.45-3.34V5.68c0-1.19-.05-2.94-.78-3.82a1.11,1.11,0,0,1-.37-.78c0-.81.68-1,1.26-1h11.23c.92,0,1.55.71,1.55,2s0,2.25,0,3.51c0,.94-.11,2.06-.74,2.06-.81,0-1-1.49-1.49-2.3a2.68,2.68,0,0,0-2.26-1.15,3.93,3.93,0,0,0-3.86,2.33,5.25,5.25,0,0,0-.21,1.62c0,.51.05,1,.08,1.46.21-.21.36-.51.57-.75A5.3,5.3,0,0,1,431,6.62a1.46,1.46,0,0,1,1.47.88,4.73,4.73,0,0,1,.11,1.39c0,1.26.05,2.46.05,3.81,0,.51-.18,1.22-.63,1.22a.59.59,0,0,1-.44-.31c-.64-.77-1.11-1.85-2.26-1.85a2.16,2.16,0,0,0-1.42.57,5.29,5.29,0,0,0-1.68,4.36v0a6.07,6.07,0,0,0,.18,1.76,2.3,2.3,0,0,0,2.13,1.79c.79,0,1.84-.54,1.84-1.52a1.29,1.29,0,0,0-.29-.81c-.29-.34-.71-.54-.71-1.22s.73-.95,1.29-.95,2.2,0,2.86.07a1.15,1.15,0,0,1,.94.47,2.12,2.12,0,0,1,.27,1.16Z"/></g></g></svg>