<?xml version="1.0" encoding="utf-8"?>
<!-- Generator: Adobe Illustrator 25.2.1, SVG Export Plug-In . SVG Version: 6.00 Build 0)  -->
<svg version="1.1" id="Layer_1" xmlns="http://www.w3.org/2000/svg" xmlns:xlink="http://www.w3.org/1999/xlink" x="0px" y="0px"
	 viewBox="0 0 353.7 151.6" style="enable-background:new 0 0 353.7 151.6;" xml:space="preserve">
<style type="text/css">
	.st0{fill:#181816;stroke:#D10208;stroke-width:0.7252;stroke-miterlimit:10;}
	.st1{fill:#D10208;}
	.st2{fill:#181816;}
</style>
<g>
	<path class="st0" d="M67.9,122.3h6.7c0.7,0,1.8,0.3,1.8,1.1c0,0.6-0.2,0.8-0.5,1c-0.2,0.2-0.7,1-0.8,1.5c-0.2,1-0.2,1.7-0.2,2.5
		v3.3c0.2,0,0.3,0,0.5,0c1,0,1.6-0.5,2.3-0.8c0.8-0.4,2-0.6,3.2-0.6c0.5,0,0.9,0,1.4,0.1v-1v-1.7v-1c0-0.6,0-1.2-0.4-1.7
		c-0.4-0.5-1.4-0.8-1.4-1.7c0-1,1.1-1.2,1.9-1.2h0.6h5.3h0.6c0.9,0,1.8,0.2,1.8,1.2c0,0.5-0.3,0.7-0.5,1c-0.9,1-0.9,2.3-0.9,3.6
		c0,0.2,0,14.3,0.1,15.7c0.1,1.8,0.7,3.5,1.6,4.8c0.4,0.7,0.7,1,0.7,1.6c0,0.7-0.7,1-1.4,1h-1.5h-4.6c-0.8,0-1.5,0-2.3-0.1
		c-0.7,0-1.2-0.3-1.2-1.1c0-1.1,1-1.8,1.3-2.6c0.5-1.2,0.5-2.8,0.5-4.3v-1.7v-5.4c-0.5-0.3-1.1-0.4-1.7-0.4c-1.8,0-3.1,0.4-4.1,1.8
		c-0.7,0.9-1.1,1.9-1.5,3c0,4.3,0.1,5.6,1.7,8.1c0.4,0.7,0.7,1,0.7,1.6c0,0.9-0.9,1-1.7,1h-0.3h-6.1c-0.7,0-1.4,0-2.1-0.2
		c-0.6-0.1-0.8-0.5-0.8-1c0-1.2,1-1.8,1.3-2.7c0.4-1.1,0.5-2.4,0.5-3.8v-2.2c0-4.1,0-8.2,0-12.3c0-0.9,0-1.8,0-2.6
		c0-0.5-0.2-1-0.5-1.3c-0.5-0.5-1.2-1-1.2-1.8C66.3,122.5,67.3,122.3,67.9,122.3z"/>
	<path class="st0" d="M100.3,122.3c1.3,0,2.7,0,4,0c2.6,0,5.5,0,8.1,0h0.2c1.3,0,1.9,0.6,2.3,1.6c0.5,1.4,0.7,2.9,1,4.4
		c1.1,6.2,2.1,12.5,3.2,18.8c0.1,0.8,0.3,1.6,0.3,2.4c0,0.4,0,0.8-0.2,1.1c-0.2,0.5-0.9,0.5-1.4,0.5H112c-0.1,0-0.3,0-0.4,0
		c-1.2,0-2.6-0.1-2.6-1.2c0-1.3,1.3-1.9,1.8-2.8c0.4-0.6,0.5-1.4,0.5-2.1c0-1.4,0-8-1.8-9.6c-0.8-0.8-1.9-0.9-2.4-0.9
		c-1.9,0-3.2,1.2-3.9,1.8c-0.5,0.5-2.1,2-2.5,4.5c0,0.3-0.1,0.8-0.1,1.4c0,2.8,1.6,5,3.1,6.6c0.2,0.3,0.9,0.7,0.9,1.2
		c0,0.4-0.4,0.6-0.6,0.7c-1.2,0.3-2.1,0.4-3.2,0.4h-3.9c-0.7,0-2-0.2-2-1.2c0-0.1,0-0.2,0-0.4c1.4-8.1,2.9-16.3,4.4-24.3v0
		c0-0.9-1.1-1.1-1.1-1.7C98,122.9,99.2,122.3,100.3,122.3z M102.7,131.8c0.4,0,1.2-0.9,3-1.3c0.5-0.1,1-0.2,1.4-0.2
		c0.7,0,1.3,0.1,1.8,0.2c-0.3-2.5-1.3-4.2-3.4-4.2c-2.3,0-3.1,3.3-3.1,4.7C102.5,131.5,102.5,131.8,102.7,131.8z"/>
	<path class="st0" d="M122.7,145.7c0-2.9,0.6-4.3,1.7-6.3c2-3.7,5.5-7,8.6-9.3c0.9-0.7,1.8-1.2,2.6-1.9c0.2-0.2,0.4-0.5,0.4-0.7
		c0-1-1.4-1.2-2.1-1.2h-2.6c-1.5,0-2.8,0-2.8,1.7c0,1.1,1.2,1.6,1.2,2.8c0,0.6-0.5,0.8-1,0.8h-3.9c-1.3,0-2.1-0.5-2.1-1.8
		c0-1.6,0-3.6,0-5.1c0-1.2,0.5-2.1,1.7-2.1h15.6c0.9,0,1.8,0,2.3,0.5c0.4,0.4,0.4,0.9,0.4,1.4c0,2.1,0,4.3,0,6.4
		c0,0.2,0,0.4-0.2,0.5c-4.7,2.9-11.7,8.4-11.7,12.1c0,1.9,0.7,2.7,2.5,2.7c1.5,0,2.8-0.4,2.8-2.1c0-0.6-0.2-1.2-0.6-1.6
		c-0.3-0.4-0.9-0.8-0.9-1.5c0-0.5,0.4-0.7,0.9-0.7h5.6c0.8,0,1.5,0.5,1.5,1.4v4.9c0,0.7,0.2,1.9,0.6,2.3c0.4,0.4,0.8,0.8,0.8,1.4
		c0,0.8-0.8,1.2-1.6,1.2h-17c-0.9,0-1.8,0-2.3-0.5c-0.4-0.4-0.4-0.6-0.4-1.2V145.7z"/>
	<path class="st0" d="M169.7,124c0,3.7-1.2,7.1-2.9,10.2c-1,1.8-2.2,3.3-3.5,4.9c-0.4,0.5-1,1.2-1.7,1.7c0,2.8,0.2,5.5,1.8,7.9
		c0.2,0.4,0.6,0.8,0.6,1.3c0,0.9-0.4,1.2-1.1,1.2H154c-0.8,0-1.1-0.6-1.1-1.1c0-1.3,1.2-2,1.5-3.2c0.3-1,0.3-2.1,0.3-3.1V141
		c-1.2-1.5-1.8-2.3-2.9-3.8c-2.2-2.9-4.4-6.4-5-10.7c-0.1-0.8-0.1-1.8-0.1-2.6v-0.2c0-0.5,0.1-1.4,1-1.4h7c0.6,0,1.6,0.2,1.6,0.9
		c0,0.4-0.4,0.8-0.7,1c-0.5,0.6-0.7,1.6-0.7,2.4c0,1.9,0.9,3.4,1.7,5c0.7,1.3,1.5,2.6,2.6,3.6c0.3,0.3,0.5,0.5,0.9,0.5
		c0.7,0,1.2-0.7,1.6-1.1c0.7-0.8,1.1-1.8,1.4-2.8c0.2-0.9,0.4-1.8,0.4-2.7c0-2-0.9-3.6-2.4-4.3c-0.6-0.3-1.1-0.5-1.1-1.3v0
		c0-0.6,0.3-1.1,0.9-1.1h7.1c0.6,0,1.1,0.1,1.4,0.7C169.7,123.4,169.7,123.7,169.7,124z"/>
	<path class="st0" d="M187.6,122.3h20.1c0.9,0,1,0.6,1,0.9c0,0.9-0.8,1.3-0.8,2c0,0.1,0,0.3,0.1,0.5c0.3,0.9,1.1,1.6,1.4,2.4
		c0.5,1.1,0.7,2.1,0.7,3.4c0,2-0.6,5.2-2.6,5.5h-0.2c-0.5,0-1.1-0.2-1.6-0.2h0c-0.6,0-1.2,0.4-1.7,0.7c-1.6,1-3.3,1.8-5,2.6
		c-1.3,0.6-2.9,1-4,1.9c-0.3,0.2-0.5,0.6-0.5,1.1c0,0.2,0.1,0.5,0.1,0.7c0.1,1.8,0.7,3.5,1.6,4.8c0.4,0.7,0.7,1,0.7,1.6
		c0,0.8-0.8,1-1.5,1h-8.6c-0.5,0-0.9-0.3-1-0.8c0-0.8,0.3-1.3,0.7-1.9c0.2-0.2,0.2-0.5,0.4-0.7c0.6-1.2,0.7-2.6,0.7-4V127
		c0-0.7-0.1-1.4-0.5-1.8c-0.2-0.2-0.5-0.4-0.7-0.6c-0.2-0.2-0.5-0.4-0.5-1C185.9,122.8,187,122.3,187.6,122.3z M198.3,125.9
		c-1.5,0.1-3.3,1.6-3.7,3.1c-0.1,0.3-0.1,0.7-0.1,1c0,2.2,0,4.5,0,6.8c0.3-0.2,0.6-0.3,0.9-0.5c1.5-0.6,2.9-1.4,4.2-2.5
		c1.2-1,2.4-2,2.4-3.9C202.1,127.9,200.6,125.9,198.3,125.9z"/>
	<path class="st0" d="M217.2,122.3c1.3,0,2.7,0,4,0c2.6,0,5.5,0,8.1,0h0.2c1.3,0,1.9,0.6,2.3,1.6c0.5,1.4,0.7,2.9,1,4.4
		c1.1,6.2,2.1,12.5,3.2,18.8c0.1,0.8,0.3,1.6,0.3,2.4c0,0.4,0,0.8-0.2,1.1c-0.2,0.5-0.9,0.5-1.4,0.5h-5.9c-0.1,0-0.3,0-0.4,0
		c-1.2,0-2.6-0.1-2.6-1.2c0-1.3,1.3-1.9,1.8-2.8c0.4-0.6,0.5-1.4,0.5-2.1c0-1.4,0-8-1.8-9.6c-0.8-0.8-1.9-0.9-2.4-0.9
		c-1.9,0-3.2,1.2-3.9,1.8c-0.5,0.5-2.1,2-2.5,4.5c0,0.3-0.1,0.8-0.1,1.4c0,2.8,1.6,5,3.1,6.6c0.2,0.3,0.9,0.7,0.9,1.2
		c0,0.4-0.4,0.6-0.6,0.7c-1.2,0.3-2.1,0.4-3.2,0.4h-3.9c-0.7,0-2-0.2-2-1.2c0-0.1,0-0.2,0-0.4c1.4-8.1,2.9-16.3,4.4-24.3v0
		c0-0.9-1.1-1.1-1.1-1.7C215,122.9,216.1,122.3,217.2,122.3z M219.6,131.8c0.4,0,1.2-0.9,3-1.3c0.5-0.1,1-0.2,1.4-0.2
		c0.7,0,1.3,0.1,1.8,0.2c-0.3-2.5-1.3-4.2-3.4-4.2c-2.3,0-3.1,3.3-3.1,4.7C219.4,131.5,219.4,131.8,219.6,131.8z"/>
	<path class="st0" d="M253.7,141.5c-1,0-1.5,1.1-2.2,1.4c-0.1,0-0.2,0.1-0.3,0.1c-0.5,0-0.6-0.5-0.6-0.9c0-1.7-0.1-3.5-0.1-5.2
		c0-0.1,0-0.2,0.1-0.2c0.7-0.5,1.6-0.7,2.5-0.7c6,0,9,5.1,9,11c0,2.7-2.3,4.3-5,4.3h-16.5c-0.5,0-1-0.7-1-1.2c0-0.8,0.7-1.7,1-2.3
		c0.3-0.5,0.5-1,0.6-1.6c0.1-0.8,0.2-1.6,0.2-2.4v-13.8v-3c0-0.7-0.1-1.4-0.5-1.8c-0.2-0.2-0.5-0.4-0.7-0.6c-0.2-0.2-0.5-0.4-0.5-1
		c0-0.8,1.1-1.1,1.8-1.1c0.2,0,9.6,0,10.2,0c1.1,0,1.5,0.6,1.5,0.9v4.3c0,0.5-0.3,0.8-0.8,0.8c-0.7,0-1.3-0.9-2.2-0.9
		c-0.8,0-1.8,0.4-1.8,1.4l0.1,14.3c0,1.7,1.4,3.3,3.6,3.3c1.5,0,3.3-1,3.3-2.8C255.4,142.6,254.7,141.5,253.7,141.5z"/>
	<path class="st0" d="M287.5,149.5c0,0.5-0.4,1.8-1.9,1.8h-18.9c-1.2,0-1.4-0.6-1.4-1.2c0-1,0.7-1.7,1.1-2.4c0.6-1,0.7-3,0.7-4.1
		v-1.5v-12.9c0-1.4-0.1-3.6-1.2-4.7c-0.2-0.2-0.6-0.5-0.6-1c0-1,1.1-1.3,2-1.3h1H285c1.4,0,2.4,0.9,2.4,2.4c0,1.5,0,2.8,0,4.3
		c0,1.2-0.2,2.5-1.2,2.5c-1.3,0-1.6-1.8-2.4-2.8c-0.8-1-2.2-1.4-3.6-1.4c-2.6,0-5.2,1-6.1,2.9c-0.2,0.6-0.3,1.3-0.3,2
		c0,0.6,0.1,1.2,0.1,1.8c0.3-0.2,0.6-0.6,0.9-0.9c1.7-1.6,3.8-2.6,6.7-2.6c1.1,0,1.9,0.3,2.3,1.1c0.2,0.3,0.2,1,0.2,1.7
		c0,1.6,0.1,3,0.1,4.7c0,0.6-0.3,1.5-1,1.5c-0.3,0-0.5-0.2-0.7-0.4c-1-1-1.7-2.3-3.6-2.3c-0.8,0-1.6,0.2-2.2,0.7
		c-2,1.3-2.6,3.2-2.6,5.3v0c0,0.8,0,1.5,0.3,2.1c0.6,1.4,1.9,2.2,3.3,2.2c1.2,0,2.9-0.7,2.9-1.9c0-0.4-0.2-0.7-0.5-1
		c-0.5-0.4-1.1-0.7-1.1-1.5c0-0.9,1.2-1.2,2-1.2c1,0,3.5,0,4.5,0.1c0.5,0,1.1,0.2,1.5,0.6c0.3,0.4,0.4,0.9,0.4,1.4V149.5z"/>
</g>
<g>
	<polygon class="st0" points="121.5,92.9 123.7,99.9 131.2,99.9 125.2,104.3 127.5,111.3 121.5,107 115.5,111.3 117.7,104.3 
		111.7,99.9 119.2,99.9 	"/>
	<polygon class="st0" points="149.2,92.9 151.4,99.9 158.9,99.9 152.9,104.3 155.2,111.3 149.2,107 143.1,111.3 145.4,104.3 
		139.4,99.9 146.9,99.9 	"/>
	<polygon class="st0" points="176.9,92.9 179.1,99.9 186.6,99.9 180.6,104.3 182.9,111.3 176.9,107 170.8,111.3 173.1,104.3 
		167.1,99.9 174.6,99.9 	"/>
	<polygon class="st0" points="204.6,92.9 206.8,99.9 214.3,99.9 208.3,104.3 210.6,111.3 204.6,107 198.5,111.3 200.8,104.3 
		194.8,99.9 202.3,99.9 	"/>
	<polygon class="st0" points="232.3,92.9 234.5,99.9 242,99.9 236,104.3 238.3,111.3 232.3,107 226.2,111.3 228.5,104.3 222.5,99.9 
		230,99.9 	"/>
</g>
<g>
	<g>
		<path class="st1" d="M48.7,109.6c-1.6-0.9-3.1-2.1-4.5-3.3c-6.7-5.9-13.4-11.8-20.1-17.6c-0.2-0.2-0.4-0.3-0.6-0.5
			C23,87.6,22.3,87,22,86.5c-0.6-1-0.5-2.4,0.2-3.2c0.7-0.9,1.9-0.9,3-0.7c2.7,0.5,5.2,1.9,7.9,2.6c1.1,0.3,2.6,0.5,3.5-0.4
			c0.8-1-0.6-2.6-1.6-3.7c-2.8-2.7-5.5-5.5-8.3-8.2c-0.8-0.7-1.5-1.4-2.5-1.6c-1.7-0.3-2.9,0.9-4.2,2.4C13.6,81.2,7.5,89.3,1.9,98
			c-0.7,1-2.4,3.9,0.8,6.1c2.9,2,5.9,4,8.8,6c0.5,0.3,0.9,0.6,1.4,0.9c1.2,0.8,2.8,1.7,3.5,0.6c0.7-1.1,0.1-2.7-0.4-3.7
			c-1.3-2.6-3.1-4.9-4.2-7.6c-0.5-1-0.7-2.3,0-3.3c0.6-0.9,1.9-1.4,3-1c0.8,0.3,1.6,0.9,2.4,1.5c7,5.5,14,11,21.1,16.6
			c1.5,1.2,2.9,2.4,4.1,3.8c1.3,1.5,1.6,4,3.4,5.3c0.7,0.5,1.9,0.9,2.7-0.4c2-2.8,4.1-5.6,6.2-8.3c0.9-1.1,0.3-2.2-0.4-2.8
			C52.7,110.4,50.4,110.6,48.7,109.6z"/>
		<path class="st2" d="M47,124.6c-0.6,0-1.2-0.2-1.8-0.6c-1.2-0.9-1.7-2.1-2.3-3.3c-0.4-0.8-0.7-1.5-1.2-2.1c-1.2-1.4-2.6-2.6-4-3.7
			L16.7,98.3c-0.7-0.5-1.5-1.2-2.2-1.4c-0.7-0.3-1.6,0-2.1,0.7c-0.4,0.6-0.3,1.5,0.1,2.5c0.6,1.5,1.4,2.8,2.3,4.2
			c0.6,1.1,1.3,2.2,1.9,3.3c0.9,1.9,1,3.4,0.3,4.5c-0.3,0.5-0.7,0.8-1.2,0.9c-0.9,0.2-2-0.2-3.4-1.2l-10.1-7c-1.5-1-3.6-3.3-1-7.2
			C6.8,89,12.9,80.8,19.4,73.2c1.3-1.5,2.8-3,4.9-2.6c1.2,0.2,2.1,1,2.9,1.8l8.3,8.2c2.1,2,2.6,3.6,1.6,4.7c-0.8,1-2.3,1.2-4.3,0.7
			c-1.2-0.3-2.3-0.8-3.5-1.2c-1.5-0.6-2.9-1.1-4.4-1.4c-0.4-0.1-1.6-0.3-2.2,0.4c-0.5,0.6-0.6,1.6-0.1,2.3c0.3,0.4,0.9,1,1.4,1.5
			l20.6,18.1c1.3,1.2,2.8,2.4,4.3,3.2c0,0,0,0,0,0c0.6,0.4,1.4,0.5,2.1,0.8c1.2,0.3,2.5,0.7,3.6,1.6c1,0.9,1.5,2.5,0.4,3.9
			c-2.1,2.7-4.2,5.4-6.2,8.2c-0.6,0.8-1.2,1.1-1.7,1.1C47.2,124.5,47.1,124.6,47,124.6z M13.9,95.2c0.4,0,0.8,0.1,1.1,0.2
			c0.9,0.3,1.9,1.1,2.6,1.7l21.1,16.6c1.5,1.1,3,2.4,4.2,3.9c0.6,0.7,1,1.6,1.4,2.4c0.5,1.1,1,2.1,1.8,2.7c0.2,0.2,0.6,0.3,0.9,0.3
			c0.3,0,0.5-0.2,0.7-0.5c2-2.8,4.1-5.6,6.2-8.3c0.6-0.8,0.1-1.4-0.3-1.7c-0.8-0.7-1.8-1-2.9-1.3c-0.8-0.2-1.7-0.5-2.5-0.9
			c-1.7-0.9-3.2-2.2-4.6-3.4L23,88.7c-0.6-0.5-1.3-1.2-1.7-1.8c-0.8-1.3-0.7-3,0.2-4.1c0.8-1,2.2-1.3,3.8-0.9
			c1.6,0.3,3.1,0.9,4.6,1.5c1.1,0.4,2.2,0.8,3.3,1.1c1.4,0.4,2.2,0.3,2.7-0.2c0.2-0.2-0.1-1.1-1.6-2.6l-8.3-8.2
			c-0.8-0.8-1.3-1.2-2-1.3c-1.2-0.2-2.2,0.6-3.5,2.1C14.1,81.8,8,89.9,2.5,98.4c-1.4,2.2-1.2,3.8,0.6,5l10.1,7c1.4,1,2,1,2.2,0.9
			c0.1,0,0.2-0.1,0.2-0.2c0.4-0.6,0.2-1.6-0.4-3c-0.5-1.1-1.2-2.2-1.8-3.2c-0.8-1.4-1.7-2.9-2.4-4.4c-0.7-1.5-0.7-3,0-4
			C11.8,95.7,12.9,95.2,13.9,95.2z"/>
	</g>
	<g>
		<path class="st1" d="M157,19.2c-0.5-1.8-1.3-3.6-1.8-5.5c-0.5-1.8-1.2-3.3-0.5-5.3c0.4-1.1,1-2.2,1.7-3.1c0.5-0.6,1.1-1.3,1-2.2
			c-0.1-0.8-0.8-1.4-1.6-1.6c-1.6-0.3-3.8,0.4-5.4,0.6c-1.9,0.3-3.7,0.6-5.6,0.9c-1.3,0.2-2.1,1.9-1.8,3.6
			c0.9,4.6,5.2,17.3,6.9,27.6c1.2,7.7,1.2,13.9-2.2,14.6c-3.2,0.7-5.8-4.6-7.4-11.8c-2.3-10.2-2.8-24.2-3.8-29.1
			c-0.3-1.7-1.8-2.9-3.1-2.6c-1.9,0.5-3.8,0.9-5.7,1.4c-1.5,0.4-3.6,0.6-4.8,1.6c-0.6,0.5-1,1.2-0.7,2c0.2,0.6,0.7,1,1.1,1.3
			c0.8,0.6,1.7,1.2,2.4,1.9c2.5,2.6,1.8,6.8,2.2,10.1c0.5,5.1,1.6,13.8,3.7,21.3c2,7.3,5.3,15.5,9.5,14.3c5.4-1.4,10.9-2.6,16.5-3.4
			c4.3-0.6,4.3-9.6,3.4-17.5C160.2,31.6,158.4,24,157,19.2z"/>
		<path class="st2" d="M140.3,60.5c-3.5,0-6.7-5-9.5-15c-1.6-5.7-2.9-13.1-3.7-21.5c-0.1-0.8-0.1-1.7-0.2-2.7
			c-0.1-2.6-0.2-5.2-1.8-7c-0.6-0.6-1.3-1.1-2-1.6l-0.3-0.2c-0.4-0.3-1.2-0.9-1.4-1.7c-0.3-1.1,0.3-2.2,1-2.8c1.1-0.9,2.6-1.2,4-1.5
			c0.4-0.1,0.8-0.2,1.1-0.3c1.9-0.5,3.8-1,5.8-1.5c0.7-0.2,1.5,0,2.2,0.4c0.9,0.6,1.6,1.6,1.9,2.8c0.4,1.9,0.7,5.1,1,8.8
			c0.6,6.2,1.3,14,2.8,20.3c1.6,7.4,4.1,11.7,6.4,11.2c1.7-0.3,3.3-3,1.6-13.7c-1-6.4-3.1-13.7-4.8-19.5c-1-3.5-1.8-6.3-2.1-8.1
			c-0.4-2.1,0.8-4.2,2.5-4.5c1.9-0.3,3.7-0.6,5.6-0.9c0.4-0.1,0.9-0.2,1.4-0.3c1.4-0.3,3-0.6,4.4-0.4c1.2,0.2,2.1,1.2,2.2,2.3
			c0.1,1.1-0.6,2-1.1,2.7c-0.8,1.1-1.4,2-1.7,2.9c-0.5,1.5-0.1,2.6,0.3,4.1l0.2,0.7c0.3,0.9,0.6,1.7,0.9,2.6
			c0.3,0.9,0.7,1.9,0.9,2.9c1.2,4.1,3.2,12,4,19.6c1.3,11.7-0.1,17.7-4.1,18.3c-5.5,0.9-11,2-16.4,3.4
			C141,60.4,140.6,60.5,140.3,60.5z M133.9,6.3c-0.1,0-0.1,0-0.2,0c-1.9,0.5-3.8,0.9-5.7,1.4c-0.4,0.1-0.8,0.2-1.2,0.3
			c-1.2,0.3-2.6,0.6-3.4,1.2c-0.3,0.3-0.6,0.7-0.5,1.1c0.1,0.3,0.5,0.6,0.8,0.9l0.3,0.2c0.7,0.5,1.5,1.1,2.2,1.8
			c2,2.2,2.2,5.2,2.3,8c0,0.9,0.1,1.7,0.2,2.6c0.8,8.3,2.1,15.6,3.7,21.2c2.7,9.7,5.7,14.6,8.6,13.8c5.4-1.4,11-2.6,16.6-3.5
			c2.9-0.4,3.9-6.3,2.8-16.6c-0.8-7.5-2.8-15.3-4-19.4c0,0,0,0,0,0c-0.3-0.9-0.6-1.9-0.9-2.8c-0.3-0.9-0.6-1.8-0.9-2.7l-0.2-0.7
			c-0.5-1.6-0.9-3.1-0.3-5c0.4-1.1,1-2.2,1.9-3.3c0.5-0.6,0.9-1.1,0.8-1.6c0-0.5-0.5-0.8-1-0.9c-1-0.2-2.5,0.1-3.7,0.3
			c-0.5,0.1-1,0.2-1.4,0.3c-1.8,0.3-3.7,0.6-5.5,0.9c-0.8,0.1-1.5,1.3-1.2,2.7c0.3,1.7,1.1,4.6,2.1,7.9c1.7,5.9,3.8,13.2,4.8,19.7
			c1.6,9.9,0.7,14.8-2.8,15.5c-3.4,0.7-6.4-3.7-8.3-12.4c-1.4-6.4-2.2-14.2-2.8-20.5c-0.4-3.7-0.7-6.9-1-8.7
			c-0.1-0.7-0.6-1.4-1.2-1.8C134.4,6.4,134.1,6.3,133.9,6.3z"/>
	</g>
	<g>
		<path class="st1" d="M209.8,4.8c0.2-1.5-1.5-2.4-2.8-2.5c-2.8-0.3-5.6-0.6-8.5-0.8c-0.7-0.1-1.4-0.2-2.1-0.2c-2.2-0.1-4,0-4.1,2
			c-0.1,1.2,0.3,1.6,0.7,2c1,1,2.1,1.4,2.8,2.7c1,2,1.3,4.3,1.4,6.6c0.2,5-0.1,10.1-1.1,15c-2.2-4.5-1.9-10.3-4.1-14.9
			c-0.7-2.1-1.6-4.2-2.5-6.3c-1.1-2.4-2-4.7-4.2-6.2c-1.8-1.2-3.8-1.5-5.9-1.5c-3,0-6.2,0.1-9.3,0.2c-1.2,0-3.1,0.7-3,2.3
			c0.1,1.2,0.5,1.5,0.9,1.9c0.4,0.4,1,0.7,1.4,1c0.7,0.6,1,1.9,1,3.3c0.1,1.9,0.2,3.9,0.3,5.8c0.2,6.1,0.4,12,0.6,18.1
			c0.1,1.7,0.2,3.3,0.2,5c0.2,4.2-0.1,7.5-1.2,10.4c-0.6,1.5-1.4,2.9-1.3,4.6c0.1,1,0.5,1.6,1.2,1.7c2.1,0.1,4.1,0.1,6.1,0.1
			c1.5,0,3,0,4.5-0.1c1,0,2.6,0.1,3.5-0.3c0.8-0.4,0.9-1.5,0.7-2.3c-0.4-1.3-1.2-2.3-2-3.4c-1.2-1.7-2.3-3.5-2.7-5.5
			c-0.3-1.3-0.3-2.7-0.3-4c0-5.1,0-10.2,0-15.4c0-1.1,0-2.1,0.3-3.1c0.1-0.3,0.3-0.7,0.6-0.8c0.4-0.2,0.9,0.2,1.1,0.5
			c1.9,2.7,2.1,6.6,2.6,9.8c0.5,2.8,0.8,5.7,1.6,8.5c0.6,1.9,3.1,10,3.7,11.4c0.7,1.7,1.5,3.6,1.7,4.1c0.4,0.9,1,0.9,3.8,1.1
			c1.8,0.1,3.5,0.3,5.3,0.5c0.9,0.1,2-0.2,2.2-1.6c0.2-1.2-0.1-1.8-0.5-3.1c-0.5-1.7-0.3-3.7-0.1-5.8c0-0.3,0.1-0.7,0.1-1
			c0.1-0.8,0.2-1.5,0.2-2.3c0.2-2.2,3.4-28.6,3.4-28.6c0.2-1.4,0.3-2.8,0.9-4.6c0.3-1,1.2-2.4,1.7-2.7C209.2,6.3,209.7,6,209.8,4.8z
			"/>
		<path class="st2" d="M201.1,57.2c-0.1,0-0.3,0-0.4,0c-1.8-0.2-3.5-0.4-5.3-0.5l-0.2,0c-2.7-0.2-3.7-0.3-4.2-1.6l-0.2-0.5
			c-0.3-0.8-0.9-2.3-1.5-3.6c-0.4-1-1.6-4.8-2.6-7.9c-0.5-1.6-0.9-3-1.1-3.6c-0.5-2-0.8-4-1.2-5.9c-0.1-0.9-0.3-1.8-0.4-2.7
			c-0.1-0.7-0.2-1.4-0.3-2.1c-0.4-2.7-0.8-5.4-2.2-7.4c-0.1-0.1-0.2-0.2-0.2-0.2c0,0-0.1,0.1-0.1,0.3c-0.3,0.9-0.3,1.9-0.3,2.9
			c0,5.1,0,10.2,0,15.3c0,1.3,0,2.6,0.3,3.8c0.4,1.6,1.2,3.3,2.6,5.2l0.3,0.4c0.7,1,1.5,2,1.8,3.2c0.3,1.2,0.1,2.7-1.1,3.2
			c-0.8,0.4-2,0.4-3,0.4c-0.3,0-0.5,0-0.8,0c-1.2,0-2.4,0-3.6,0.1l-0.9,0c-1.9,0-3.9,0-6.1-0.1c-1.1-0.1-1.9-1-1.9-2.4
			c-0.1-1.5,0.4-2.7,0.9-3.9c0.1-0.3,0.3-0.7,0.4-1c1-2.7,1.3-5.6,1.2-10.1c0-0.9-0.1-1.7-0.1-2.5c0-0.8-0.1-1.7-0.1-2.5
			c-0.1-3.1-0.2-6.2-0.3-9.3c-0.1-2.9-0.2-5.8-0.3-8.8c-0.1-1.9-0.1-3.9-0.3-5.8c-0.1-1.9-0.5-2.6-0.8-2.8c-0.2-0.1-0.4-0.3-0.6-0.4
			c-0.3-0.2-0.6-0.4-0.8-0.6c-0.5-0.4-1.1-1-1.2-2.5c0-0.7,0.2-1.3,0.7-1.8c0.8-0.8,2.1-1.2,3.1-1.3l1.3,0c2.7-0.1,5.4-0.2,8-0.2
			c1.8,0,4.2,0.2,6.3,1.6c2.2,1.5,3.3,3.8,4.3,6.1l0.2,0.4c0.8,2,1.7,4.1,2.5,6.3c1.1,2.3,1.6,5,2.1,7.6c0.3,1.6,0.6,3.1,1,4.6
			c0.6-3.9,0.8-8,0.6-12c-0.1-2-0.3-4.3-1.3-6.3c-0.3-0.7-0.8-1-1.4-1.5c-0.4-0.3-0.8-0.6-1.2-1c-0.4-0.5-1-1.1-1-2.6
			c0-0.8,0.3-1.5,0.9-2c0.9-0.8,2.3-0.9,4-0.8c0.4,0,0.8,0.1,1.2,0.1c0.3,0,0.7,0.1,1,0.1c2.8,0.2,5.7,0.5,8.5,0.8
			c0.9,0.1,2.2,0.5,3,1.5c0.4,0.6,0.6,1.2,0.5,1.9l0,0c-0.2,1.5-0.9,2-1.4,2.4c-0.3,0.2-1.2,1.4-1.4,2.3c-0.5,1.7-0.7,3.1-0.8,4.4
			l0,0c0,0.2-0.1,0.5-0.1,1.1c-2.6,21.2-3.2,26.7-3.3,27.5c-0.1,0.8-0.2,1.6-0.2,2.4l-0.1,1c-0.3,2.1-0.4,3.9,0,5.5l0.1,0.3
			c0.4,1.2,0.6,1.9,0.4,3.2C203.5,56.3,202.5,57.2,201.1,57.2z M181.1,19.5c0.6,0,1.2,0.4,1.6,0.9c1.6,2.3,2,5.4,2.4,8.1
			c0.1,0.7,0.2,1.4,0.3,2c0.2,0.9,0.3,1.8,0.5,2.7c0.3,1.9,0.6,3.9,1.1,5.7c0.2,0.6,0.6,2,1.1,3.6c0.9,2.9,2.1,6.8,2.5,7.7
			c0.6,1.3,1.2,2.8,1.5,3.6l0.2,0.5c0.2,0.4,0.4,0.4,2.9,0.6l0.2,0c1.8,0.1,3.6,0.3,5.3,0.5c1.2,0.1,1.3-0.6,1.3-0.9
			c0.1-0.9,0-1.4-0.4-2.5l-0.1-0.3c-0.6-1.9-0.4-3.9-0.1-6.1l0.1-1c0.1-0.7,0.2-1.5,0.2-2.3c0.1-1.3,1.2-10.8,3.3-27.6l0.1-1
			c0.2-1.4,0.4-2.9,0.9-4.7c0.3-1.1,1.4-2.7,2-3.1c0.4-0.3,0.7-0.5,0.8-1.3c0,0,0,0,0,0c0-0.3,0-0.5-0.2-0.7
			c-0.4-0.5-1.2-0.8-1.9-0.9c-2.8-0.3-5.6-0.6-8.4-0.8c-0.4,0-0.7-0.1-1.1-0.1c-0.4,0-0.7-0.1-1.1-0.1c-1.1-0.1-2.4-0.1-2.9,0.4
			c-0.1,0.1-0.3,0.3-0.4,0.9c0,0.8,0.2,1,0.5,1.4c0.3,0.3,0.7,0.6,1,0.8c0.7,0.5,1.4,1,1.9,2c1.1,2.2,1.4,4.7,1.5,6.9
			c0.2,5.1-0.2,10.2-1.1,15.2c-0.1,0.3-0.3,0.6-0.7,0.6c-0.4,0.1-0.7-0.1-0.8-0.4c-1.1-2.4-1.6-5-2.1-7.6c-0.5-2.5-0.9-5.1-2-7.3
			c-0.8-2.2-1.7-4.3-2.5-6.3l-0.2-0.4c-1-2.2-1.9-4.2-3.7-5.4c-1.8-1.2-3.7-1.3-5.4-1.3c-2.6,0-5.3,0.1-8,0.2l-1.3,0
			c-0.6,0-1.5,0.3-2,0.8C168.1,2.8,168,3,168,3.2c0,0.8,0.3,1,0.7,1.3c0.2,0.2,0.5,0.4,0.7,0.5c0.2,0.2,0.5,0.3,0.6,0.5
			c0.8,0.7,1.3,1.9,1.3,3.9c0.1,1.9,0.2,3.9,0.3,5.8c0.1,2.9,0.2,5.9,0.3,8.8c0.1,3.1,0.2,6.2,0.3,9.3c0,0.8,0.1,1.7,0.1,2.5
			c0,0.9,0.1,1.7,0.1,2.6c0.2,4.7-0.2,7.9-1.3,10.8c-0.1,0.4-0.3,0.7-0.4,1.1c-0.4,1.1-0.9,2-0.8,3.2c0,0.4,0.2,0.9,0.5,0.9
			c2.1,0.1,4.1,0.1,6,0.1l0.9,0c1.2,0,2.4,0,3.5-0.1c0.3,0,0.5,0,0.8,0c0.8,0,1.8,0,2.3-0.2c0.3-0.2,0.4-0.9,0.2-1.4
			c-0.3-1-0.9-1.8-1.6-2.7l-0.3-0.4c-1.6-2.1-2.5-4-2.9-5.8c-0.3-1.4-0.3-2.9-0.3-4.2c0-5.1,0-10.2,0-15.4c0-1,0-2.2,0.3-3.4
			c0.2-0.7,0.6-1.2,1.1-1.3C180.8,19.5,181,19.5,181.1,19.5z"/>
	</g>
	<g>
		<path class="st1" d="M228.6,15.8c0.4-1.9,0.9-3.5,1.9-4.2c0.8-0.6,2.1-0.7,2.4-2.2c0.4-1.8-1-2.7-2.2-2.9
			c-3.8-0.9-7.6-1.7-11.4-2.4c-1.1-0.2-2.8,0-3.1,1.8c-0.2,1.5,0.8,2.1,1.4,3c0.7,1.1,0.5,2.8,0.2,4.7c-1.6,9.9-3.4,20.3-5,30.4
			c-0.6,3.4-1.5,6.7-2.9,8.6c-0.5,0.8-1,1.6-1.2,2.6c-0.2,1.3,0.2,1.8,0.9,2c0.8,0.3,1.7,0.5,2.6,0.7c1.9,0.4,3.8,0.8,5.7,1.2
			c0.4,0.1,0.7,0.2,1.1,0.3c1.1,0.3,2.3,0.3,2.8-1.5c0.2-1.1,0.1-2-0.1-2.9c-0.6-2.4-0.3-5.7,0.5-9.1
			C224.4,36,226.5,25.7,228.6,15.8z"/>
		<path class="st2" d="M220.2,60.3c-0.4,0-0.8-0.1-1.2-0.2l-1.1-0.3c-1.9-0.4-3.8-0.8-5.7-1.2c-1-0.2-1.9-0.4-2.7-0.7
			c-1.2-0.5-1.6-1.4-1.4-2.9c0.2-1.3,0.8-2.2,1.3-3c1.2-1.7,2.2-4.6,2.8-8.3c0.8-5.2,1.7-10.4,2.6-15.7c0.8-4.9,1.6-9.9,2.4-14.7
			c0.3-1.8,0.5-3.2-0.1-4.1c-0.1-0.2-0.3-0.4-0.4-0.6c-0.5-0.6-1.3-1.5-1-2.9c0.1-0.9,0.5-1.5,1.1-2c1-0.7,2.2-0.6,2.8-0.5
			c3.8,0.7,7.7,1.5,11.4,2.4c1.6,0.4,3.3,1.6,2.8,3.8c-0.3,1.5-1.4,1.9-2.1,2.3c-0.2,0.1-0.4,0.2-0.6,0.4c-0.8,0.6-1.2,1.9-1.6,3.8
			c-1,4.6-2,9.4-3,14.1c-1.1,5.3-2.2,10.7-3.4,16c-0.8,3.6-0.9,6.7-0.5,8.8c0.2,0.9,0.4,2,0.1,3.3c-0.2,0.9-0.6,1.5-1.2,1.9
			C221.1,60.3,220.6,60.3,220.2,60.3z M218.7,4.9c-0.4,0-0.8,0.1-1.1,0.3c-0.3,0.2-0.4,0.5-0.5,1c-0.1,0.7,0.2,1.1,0.7,1.7
			c0.2,0.2,0.4,0.5,0.6,0.8c0.8,1.4,0.6,3.1,0.3,5.2c-0.8,4.8-1.6,9.7-2.4,14.7c-0.9,5.2-1.8,10.5-2.6,15.7c-0.5,2.8-1.3,6.5-3,8.9
			c-0.5,0.7-0.9,1.4-1,2.3c-0.1,1,0.1,1.1,0.4,1.2c0.7,0.3,1.5,0.5,2.4,0.7c1.9,0.4,3.8,0.8,5.7,1.2l1.1,0.3c0.5,0.1,1,0.2,1.3,0
			c0.2-0.1,0.4-0.4,0.5-0.9c0.2-0.8,0.1-1.6-0.1-2.6c-0.7-2.9-0.1-6.7,0.5-9.5c1.1-5.2,2.3-10.6,3.4-16c1-4.8,2-9.5,3-14.1l0,0
			c0.4-1.8,0.9-3.7,2.2-4.7c0.3-0.2,0.6-0.3,0.9-0.5c0.7-0.3,1.1-0.6,1.3-1.2c0.3-1.3-0.9-1.8-1.6-2c-3.7-0.9-7.5-1.7-11.3-2.3
			C219.1,4.9,218.9,4.9,218.7,4.9z"/>
	</g>
	<g>
		<path class="st1" d="M258.1,41.2c0.5-1.2,0.9-2.5,0.9-3.1c0-1.5-0.9-2.6-2.4-3.2c-4.6-1.9-7.5-2-11,0.9c0.6-1.9,1.8-5.5,2.4-7.4
			c0.3-0.5,0.6-0.9,1-1.4c2.4-2.6,5.3-3.3,9-1.9c1.9,0.7,3.4,2.3,3.8,4.4c0.4,2.2-0.5,5.5,1.2,6.3c1.3,0.6,2.5-1.6,3.4-3.6
			c1-2.3,2-4.7,3-7c1.2-2.8,0.7-5.1-1.6-6.1c-7.7-3.4-15.5-6.3-23.4-8.7c-0.5-0.2-1-0.3-1.5-0.5c-1.4-0.4-3.1-0.3-3.6,1.5
			c-0.2,0.9,0.2,1.4,0.4,2c1.2,2.4,0.2,6.3-0.5,9c-0.4,1.5-0.8,2.9-1.2,4.4c-1.7,6.3-3.5,12.7-5.2,19c-0.2,0.9-0.5,1.8-0.7,2.7
			c-0.5,2-1.7,5.7-2.9,7.2c-0.5,0.7-2.1,2.8-2.4,3.7c-0.4,1.7-0.5,2,1.5,2.6c3,0.9,5.9,1.8,8.8,2.9c0.8,0.3,1.9,0.2,2.4-1.2
			c0.3-1,0.3-1.7,0.2-3.1c-0.2-2.7,0-6,0.9-9.2c0.6-1.8,0,0.1,0.6-1.7c1.1-3.5,4.3-6.6,7.8-5.3c2.4,0.9,2.4,3.6,3,5.8
			c0.1,0.5,0.2,0.9,0.6,1.1c0.9,0.4,1.9-1,2.3-2.1C256.2,46.3,257.1,43.9,258.1,41.2z"/>
		<path class="st2" d="M238,65.8c-0.3,0-0.7-0.1-1-0.2c-2.9-1-5.8-2-8.8-2.9c-2.5-0.7-2.5-1.6-2-3.6c0.2-0.9,1.3-2.4,2.4-3.8
			l0.1-0.2c1-1.3,2.1-4.6,2.7-7l7.2-26.3c0.6-2.6,1.5-6.1,0.5-8.2l-0.1-0.3c-0.3-0.5-0.6-1.2-0.3-2.2c0.2-0.8,0.7-1.5,1.4-1.8
			c1.1-0.6,2.5-0.4,3.2-0.2l1.5,0.5c8,2.4,15.9,5.4,23.5,8.8c2.6,1.2,3.4,3.9,2,7.2l-3,7c-1,2.4-1.9,3.7-3,4.1c-0.5,0.2-1,0.2-1.4,0
			c-1.6-0.7-1.6-2.8-1.6-4.6c0-0.8,0-1.6-0.1-2.3c-0.3-1.7-1.6-3.1-3.3-3.9c-3.2-1.3-5.8-0.8-8.1,1.7c-0.2,0.3-0.4,0.5-0.6,0.8
			c-0.1,0.1-0.2,0.2-0.3,0.4l-1.7,5.1c3.2-1.7,6.2-1.2,9.8,0.3c1.8,0.7,2.8,2.1,2.9,3.9c0,0.7-0.3,1.8-1,3.4l0,0
			c-0.5,1.3-1,2.5-1.5,3.8c-0.5,1.4-1.1,2.7-1.7,4.3c-0.1,0.3-0.9,2-2.1,2.5c-0.4,0.2-0.9,0.2-1.3,0c-0.7-0.3-0.9-1.1-1-1.6
			c-0.1-0.4-0.2-0.9-0.3-1.3c-0.4-1.7-0.7-3.4-2.3-4c-1-0.4-2.1-0.4-3.1,0.1c-1.6,0.8-3,2.5-3.7,4.6c-0.1,0.4-0.2,0.7-0.3,0.9l0,0
			c0,0-0.1,0.2-0.3,0.8c-0.7,2.7-1,5.9-0.9,8.9l0,0.3c0.1,1.2,0.1,2-0.2,3.1c-0.3,1-0.9,1.4-1.3,1.6C238.7,65.7,238.4,65.8,238,65.8
			z M241.6,10.4c-0.4,0-0.7,0.1-0.9,0.2c-0.3,0.2-0.5,0.5-0.6,0.9c-0.1,0.5,0,0.7,0.2,1.1l0.1,0.3c1.3,2.6,0.3,6.5-0.4,9.3l-1.3,4.6
			l-5.9,21.7c-0.2,0.9-1.6,5.6-3,7.5l-0.1,0.2c-0.5,0.6-1.9,2.5-2.1,3.3c-0.3,1.3-0.3,1.3,1,1.7c3,0.9,6,1.9,8.9,2.9
			c0.2,0.1,0.6,0.2,0.9,0c0.2-0.1,0.4-0.3,0.5-0.7c0.3-0.8,0.2-1.3,0.2-2.5l0-0.3c-0.2-3.2,0.1-6.5,0.9-9.5c0.1-0.4,0.2-0.7,0.3-0.9
			l0,0c0,0,0.1-0.2,0.3-0.8c0.8-2.5,2.5-4.6,4.5-5.6c1.4-0.7,2.9-0.7,4.3-0.2c2.3,0.9,2.8,3.1,3.2,5.1c0.1,0.4,0.2,0.9,0.3,1.3
			c0.1,0.2,0.1,0.5,0.2,0.6c0.2,0,0.8-0.7,1.2-1.7c0.6-1.5,1.1-2.9,1.7-4.2c0.5-1.3,1-2.5,1.5-3.8l0,0c0.7-1.8,0.9-2.5,0.9-2.8
			c0-1.1-0.7-2-1.9-2.5c-4.6-1.9-7.2-1.7-10.2,0.8c-0.3,0.2-0.6,0.2-0.9,0c-0.3-0.2-0.4-0.6-0.3-0.9l2.4-7.4c0-0.1,0.1-0.2,0.1-0.2
			l0.3-0.4c0.2-0.3,0.5-0.7,0.8-1c2.7-2.9,6-3.6,9.8-2.1c2.2,0.9,3.8,2.8,4.3,5c0.1,0.8,0.1,1.7,0.1,2.6c0,1.4,0,2.8,0.6,3.1
			c0.1,0,0.1,0,0.2,0c0.3-0.1,1-0.7,2.1-3.2l3-7c0.5-1.2,1.4-4-1.2-5.1c-7.6-3.3-15.4-6.3-23.3-8.7l-1.5-0.5
			C242.3,10.5,242,10.4,241.6,10.4z M258.1,41.2L258.1,41.2L258.1,41.2z"/>
	</g>
	<g>
		<path class="st1" d="M288,35.3c1-0.3,2.2,0,3-1.3c0.9-1.6-0.3-2.9-1.3-3.5c-3.4-2-6.9-4-10.4-5.8c-1-0.5-2.7-0.9-3.5,0.8
			c-0.6,1.4,0.2,2.3,0.5,3.3c0.4,1.3-0.3,2.8-1.1,4.5c-4.3,9-8.8,18.5-13.1,27.6c-1.5,3.1-3.3,5.9-5.2,7.4c-0.7,0.6-1.4,1.2-1.8,2.2
			c-0.5,1.2-0.3,1.8,0.3,2.2c0.7,0.5,1.5,1,2.3,1.5c1.8,0.9,3.5,1.9,5.2,2.9c0.3,0.2,0.7,0.4,1,0.6c1,0.6,2.2,1.1,3.1-0.6
			c0.5-0.9,0.6-1.9,0.7-2.8c0.1-2.4,1.3-5.6,2.9-8.6c4.8-8.9,9.6-18.1,14.4-26.9C285.8,37.1,286.7,35.7,288,35.3z"/>
		<path class="st2" d="M265.4,79c-0.7,0-1.4-0.3-1.9-0.7l-1-0.6c-1.7-1-3.5-2-5.2-2.9c-0.9-0.5-1.7-1-2.4-1.5
			c-1-0.8-1.2-1.8-0.5-3.2c0.5-1.2,1.3-1.9,2.1-2.5c1.6-1.3,3.4-3.8,4.9-7.1c2.3-4.8,4.6-9.6,6.9-14.5c2.1-4.4,4.2-8.8,6.2-13.1
			c0.8-1.6,1.3-3,1-4c-0.1-0.2-0.2-0.5-0.3-0.7c-0.3-0.8-0.8-1.8-0.2-3.1c0.4-0.8,0.9-1.3,1.6-1.6c1.2-0.4,2.3,0.1,2.9,0.4
			c3.5,1.8,7.1,3.8,10.5,5.8c1.4,0.8,2.7,2.5,1.6,4.5c-0.7,1.3-1.9,1.5-2.7,1.6c-0.2,0-0.5,0.1-0.7,0.1c-0.9,0.3-1.7,1.4-2.6,3.1
			c-2.3,4.2-4.5,8.5-6.8,12.8c-2.5,4.7-5,9.5-7.5,14.1c-1.7,3.2-2.8,6.2-2.8,8.3c0,1-0.2,2.1-0.8,3.2c-0.4,0.8-1,1.3-1.6,1.4
			C265.8,79,265.6,79,265.4,79z M277.5,25c-0.2,0-0.3,0-0.4,0.1c-0.3,0.1-0.5,0.3-0.7,0.7c-0.3,0.7-0.1,1.1,0.2,1.8
			c0.1,0.3,0.3,0.6,0.4,0.9c0.4,1.6-0.2,3.2-1.1,5.1c-2,4.3-4.1,8.7-6.2,13.1c-2.3,4.9-4.6,9.7-6.9,14.5c-1.2,2.5-3.1,5.9-5.4,7.7
			c-0.6,0.5-1.2,1-1.6,1.9c-0.4,0.9-0.2,1.1,0.1,1.3c0.6,0.5,1.4,1,2.2,1.4c1.8,0.9,3.5,1.9,5.3,2.9l1,0.6c0.4,0.3,1,0.5,1.3,0.4
			c0.2-0.1,0.5-0.3,0.7-0.7c0.5-0.8,0.5-1.6,0.6-2.5c0.1-3,1.7-6.5,3-8.9c2.5-4.6,5-9.4,7.5-14.1c2.3-4.3,4.6-8.6,6.8-12.8
			c0.9-1.7,1.9-3.3,3.5-3.8c0,0,0,0,0,0c0.3-0.1,0.6-0.1,1-0.2c0.8-0.1,1.2-0.2,1.5-0.8c0.7-1.2-0.5-2.1-1-2.4
			c-3.4-2-6.9-4-10.4-5.8C278.4,25.2,277.9,25,277.5,25z"/>
	</g>
	<g>
		<path class="st1" d="M352.9,91.9c0-0.7,0-1.5-0.1-2.2c-0.2-2.4-0.8-3.4-2.3-5.2c-3-3.8-6.1-7.6-9.4-11.2c-2.4-2.7-4.8-5.3-7.2-7.8
			c-0.9-1-2.5-1.7-3.5-0.6c-0.8,0.8-0.7,1.4-0.7,2c0,0.6,0.1,1.2,0.2,1.7c0.1,0.9-0.7,2-1.6,3c-7,7.6-14.1,15.2-21.1,22.9
			c-1.7,1.9-3.6,3.6-5.7,4.7c-1.1,0.6-2.8,1-3.9,2.1c-0.8,0.9-1,1.9-0.2,2.7c2.5,2.6,5,5.3,7.4,8.1c0.8,0.9,1.6,1,2.6,0.1
			c0.8-0.7,1.1-1.4,1.6-2.7c1.4-3.3,3.1-5.9,6.5-9.4c1.5-0.3,3.7-0.5,4.8,0.8c0.7,0.8,0.8,2,0.6,3.2c-0.5,3-2.9,6.9-5.8,9.4
			c-1.2,1-2.5,1.9-3.7,2.3c-0.3,0.1-0.6,0.1-0.9,0.4c-1.2,1.1-0.2,2.5,0.5,3.4c1.8,2.3,3.6,4.7,5.3,7.2c0.7,1,1.5,2,2.7,2.1
			c0.3,0,0.7,0,1-0.2c0.3-0.2,0.5-0.6,0.6-1c1.4-3.3,4.3-6.6,6.2-9.7c2-3.3,3.4-6.8,4.3-10.5c0.1-0.6,0.2-1.3,0.9-1.9
			c0.1-0.1,2.9,1.1,3.3,1.2c1,0.2,2.1,0.2,3.1,0.1c2-0.2,3.8-1,5.5-2c3-1.9,6.1-4.9,7.9-8C352.5,95.3,352.9,93.6,352.9,91.9z
			 M339.9,93.2c-2.6,2.3-5.2,1.9-7.8,1.6c-2.6-0.3-5.2-0.9-7.5-1.9c-0.5-0.2-1-0.3-1.5-0.5c2.8-2.7,5.6-5.7,8.3-8.4
			c0.9-0.9,1.9-1.5,3-2c2.2-0.8,5.6-0.5,7.2,1.5C343.9,86.4,342.7,90.9,339.9,93.2z"/>
		<path class="st2" d="M319,129.6C319,129.6,319,129.6,319,129.6c-1.7,0-2.7-1.5-3.4-2.4c-1.7-2.4-3.5-4.8-5.2-7.1
			c-0.6-0.8-2.2-2.8-0.4-4.5c0.3-0.3,0.7-0.4,0.9-0.5l0.2-0.1c1.1-0.4,2.3-1.2,3.5-2.2c2.7-2.4,5-6.1,5.5-9c0.2-1.1,0-2-0.4-2.5
			c-0.8-1-2.7-0.8-3.9-0.5c-3,3.1-4.8,5.6-6.1,8.9c-0.5,1.3-0.9,2.1-1.8,3c-0.7,0.6-1.3,0.9-1.9,0.9c-0.6,0-1.2-0.4-1.8-1
			c-2.4-2.7-4.9-5.4-7.4-8c-1-1-1-2.5,0.2-3.8c0.9-1,2-1.5,3.1-1.9c0.4-0.1,0.7-0.3,1-0.4c2.2-1.1,4-2.9,5.5-4.5l21.1-22.9
			c1.3-1.4,1.4-2.1,1.4-2.4c0-0.2,0-0.4-0.1-0.7c0-0.3-0.1-0.7-0.1-1c0-0.6-0.1-1.5,0.9-2.6c0.5-0.5,1.1-0.8,1.8-0.8
			c0.9-0.1,2,0.5,2.9,1.4c2.5,2.5,4.9,5.1,7.3,7.8c2.8,3.1,5.8,6.7,9.4,11.3c1.5,1.9,2.2,3,2.5,5.6c0.1,0.8,0.1,1.6,0.1,2.3l0,0
			c-0.1,2-0.5,3.7-1.3,5.2c-1.7,3.1-4.8,6.3-8.1,8.3c-1.9,1.2-3.9,1.9-5.8,2.1c-1.1,0.1-2.2,0.1-3.3-0.1c-0.2,0-0.7-0.2-1.7-0.6
			c-0.4-0.2-0.9-0.3-1.2-0.4c-0.2,0.3-0.3,0.7-0.4,1.1c-0.9,3.9-2.4,7.5-4.4,10.9c-0.7,1.2-1.6,2.4-2.4,3.6c-1.4,2-2.8,4-3.7,6
			c-0.2,0.4-0.4,1-0.9,1.3C320,129.5,319.4,129.6,319,129.6z M317.6,99.1c1.5,0,2.6,0.4,3.3,1.3c0.8,0.9,1,2.3,0.7,3.8
			c-0.6,3.3-3,7.2-6,9.9c-1.3,1.2-2.7,2-4,2.5c-0.1,0-0.2,0.1-0.3,0.1c-0.2,0.1-0.2,0.1-0.3,0.1c-0.6,0.5-0.4,1.1,0.6,2.3
			c1.8,2.3,3.6,4.7,5.3,7.2c0.7,0.9,1.3,1.7,2.1,1.7c0.3,0,0.5,0,0.5-0.1c0.1-0.1,0.3-0.4,0.4-0.6c0.9-2.2,2.4-4.3,3.9-6.3
			c0.9-1.2,1.7-2.4,2.4-3.5c2-3.3,3.4-6.7,4.2-10.3c0.1-0.7,0.3-1.6,1.2-2.3c0.4-0.3,0.5-0.3,2.5,0.5c0.6,0.2,1.2,0.5,1.4,0.5
			c0.9,0.2,1.9,0.2,2.9,0.1c1.7-0.2,3.4-0.8,5.2-1.9c3.1-1.9,6-4.9,7.6-7.7c0.7-1.2,1.1-2.8,1.1-4.5c0,0,0,0,0,0
			c0-0.7,0-1.4-0.1-2.1c-0.2-2.2-0.8-3.1-2.1-4.8c-3.6-4.5-6.5-8.1-9.4-11.2c-2.3-2.6-4.8-5.2-7.2-7.7c-0.5-0.5-1.2-0.9-1.7-0.9
			c0,0,0,0,0,0c-0.3,0-0.5,0.1-0.7,0.3c-0.5,0.6-0.5,0.9-0.5,1.4c0,0.3,0.1,0.6,0.1,0.9c0,0.3,0.1,0.5,0.1,0.7
			c0.1,1-0.5,2.2-1.8,3.6L307.7,95c-1.6,1.7-3.5,3.6-5.9,4.9c-0.3,0.2-0.7,0.3-1.1,0.5c-0.9,0.4-1.9,0.8-2.5,1.5
			c-0.9,1-0.4,1.5-0.2,1.6c2.6,2.6,5.1,5.3,7.5,8.1c0.2,0.2,0.5,0.5,0.7,0.5c0.2,0,0.5-0.1,0.8-0.4c0.6-0.6,0.9-1.2,1.3-2.3
			c1.5-3.7,3.4-6.4,6.7-9.7c0.1-0.1,0.2-0.2,0.4-0.2C316.2,99.2,316.9,99.1,317.6,99.1z M334.8,95.9c-0.8,0-1.6-0.1-2.4-0.2l-0.4,0
			c-2.5-0.2-5.1-0.9-7.7-1.9c-0.5-0.2-0.9-0.3-1.4-0.4c-0.3-0.1-0.5-0.3-0.6-0.5c-0.1-0.3,0-0.6,0.2-0.8c1.4-1.4,2.9-2.9,4.3-4.4
			c1.3-1.4,2.7-2.7,4-4c1-1,2.1-1.7,3.3-2.1c2.6-0.9,6.3-0.5,8.1,1.7c2.6,3.1,1.1,8.1-1.9,10.7C338.5,95.5,336.6,95.9,334.8,95.9z
			 M324.7,92.2c0.1,0,0.2,0.1,0.3,0.1c2.4,1,4.8,1.6,7.2,1.8l0.4,0c2.3,0.2,4.6,0.5,6.8-1.5c0,0,0,0,0,0c2.4-2.1,3.6-6.1,1.7-8.5
			c-1.4-1.7-4.4-1.9-6.3-1.2c-1,0.4-1.8,0.9-2.7,1.8c-1.3,1.3-2.6,2.6-4,4C327,89.9,325.8,91.1,324.7,92.2z"/>
	</g>
	<g>
		<path class="st1" d="M111.5,52.9c-0.4-0.9-0.8-1.7-1.5-2.2c-0.8-0.5-1.6-0.4-2.3-0.1c-1.3,0.5-4.5,2-5.6,2.6
			c-1.1,0.6-2.3,1.7-1.5,3.2c0.7,1.4,1.7,1.4,2.5,1.8c0.6,0.3,1,0.8,1.3,1.4c1,2-0.4,4.1-1.8,4.9c-1.7,0.9-3.8,0.4-5.7-1.4
			c-0.8-0.8-1.5-2-2.2-3.3c0,0,0,0,0-0.1c-0.8-1.5-1.8-3.2-1.9-5c-0.2-2.2,0.5-5.1,2.2-6.5c1.4-1.3,2.8-2,4.7-1.4
			c0.8,0.2,1.7,0.4,2.2-0.2c0.4-0.4,0.4-1.1,0.3-1.7c-0.3-2.2-1.5-4-2.4-6c-0.5-1.2-1-2.3-1.5-2.8c-1.1-1-2.5-1-4-0.2
			c-3.9,2-5.8,5.3-6.6,9.2c-0.2,0.7-0.2,1.5-0.4,2.2c-0.5-0.8-1.4-3.7-1.9-4.7c-0.6-1.2-1.1-2.4-1.3-3.5c-0.5-3.8,2.2-7.4,5.8-9.3
			c1.8-1,4.2-1.2,6-0.1c1.9,1.2,3.6,4.1,5.4,3.2c1.4-0.6,0.6-3.1-0.2-5.1c-1.1-2.7-2-4.7-3.1-7.4c-1.1-2.6-3.2-3.4-5.4-2.4
			c-8.2,4-16.1,8.4-23.7,13.3c-0.5,0.3-0.9,0.6-1.4,0.9C66.2,33,65,34.4,66,36c0.5,0.8,1.1,0.8,1.7,1c2.6,0.7,4.7,4.1,6.1,6.3
			c4.1,6.8,8.2,13.6,12.3,20.4c0.5,0.8,0.9,1.6,1.4,2.4c1.1,1.8,2.9,5.1,3.2,7c0.2,1.3,0.1,3,1.1,4.5c0.6,1,1.3,1.8,2.6,1
			c6.5-4.3,13.3-8.2,20.5-11.6c1.7-0.8,1.3-3.1,0.9-4.1C114.3,59.6,112.9,56.2,111.5,52.9z"/>
		<path class="st2" d="M93.3,79.7c-1.2,0-1.9-1.1-2.3-1.7c-0.8-1.4-1-2.7-1.1-3.9c0-0.3-0.1-0.6-0.1-0.9c-0.3-1.6-1.8-4.6-3.1-6.7
			L73,43.5c-1.3-2.1-3.3-5.2-5.5-5.8l-0.3-0.1c-0.5-0.1-1.3-0.3-1.9-1.2c-1-1.6-0.4-3.5,1.6-4.9l1.4-0.9C76,25.7,84,21.2,92.1,17.3
			c1.2-0.6,2.4-0.7,3.6-0.2c1.2,0.5,2.2,1.5,2.9,3.1c0.5,1.3,1,2.5,1.6,3.6c0.5,1.2,1,2.4,1.6,3.7c0.6,1.4,2.1,5-0.2,6.1
			c-1.7,0.8-3.1-0.6-4.4-1.9c-0.6-0.5-1.1-1.1-1.7-1.4c-1.4-0.8-3.5-0.8-5.3,0.2c-3.1,1.6-5.9,4.8-5.4,8.5c0.1,0.9,0.5,2,1.2,3.2
			c0.3,0.5,0.6,1.4,1,2.3c1-4.3,3.3-7.4,6.9-9.3c1.8-0.9,3.5-0.8,4.9,0.3c0.6,0.6,1.1,1.7,1.7,3c0.2,0.5,0.5,1.1,0.8,1.6
			c0.7,1.4,1.5,2.9,1.7,4.6c0.1,0.6,0.1,1.6-0.5,2.3c-0.9,1.1-2.4,0.6-3,0.4c-1.4-0.4-2.5-0.1-3.9,1.3c-1.4,1.3-2.1,3.9-1.9,5.9
			c0.1,1.5,0.8,2.8,1.6,4.2l0.2,0.5c0.7,1.2,1.3,2.4,2.1,3.2c1.7,1.6,3.4,2.1,4.8,1.3c1.1-0.6,2.3-2.3,1.5-3.9c-0.2-0.5-0.5-0.8-1-1
			c-0.1-0.1-0.3-0.1-0.5-0.2c-0.8-0.3-1.7-0.6-2.4-1.9c-1-1.9,0.4-3.5,1.9-4.3c1.2-0.6,4.4-2.1,5.7-2.7c1-0.5,2.1-0.4,3,0.2
			c0.7,0.5,1.3,1.3,1.8,2.5l4.2,10c0.6,1.5,0.8,4.1-1.3,5.1c-7,3.3-13.9,7.2-20.4,11.6C94.2,79.6,93.8,79.7,93.3,79.7z M94.2,18.3
			c-0.5,0-0.9,0.1-1.4,0.4c-8.1,3.9-16,8.3-23.6,13.2l-1.4,0.9c-0.6,0.4-2,1.5-1.2,2.7c0.2,0.4,0.5,0.4,0.9,0.6l0.3,0.1
			c2.8,0.7,4.9,4.1,6.4,6.5l0.1,0.2l13.7,22.8c0.5,0.8,2.9,4.9,3.3,7.3c0,0.3,0.1,0.7,0.1,1c0.1,1.1,0.2,2.2,0.9,3.2
			c0.7,1.2,1,1.1,1.5,0.8c6.5-4.4,13.5-8.3,20.5-11.6c1.4-0.7,0.5-3,0.5-3.1l-4.2-10v0c-0.4-0.9-0.8-1.5-1.2-1.8
			c-0.6-0.4-1.2-0.2-1.5-0.1c-1.3,0.5-4.5,2-5.6,2.6c-0.5,0.3-1.7,1.1-1.2,2.2c0.4,0.8,0.8,0.9,1.5,1.1c0.2,0.1,0.5,0.2,0.7,0.3
			c0.8,0.4,1.3,1,1.7,1.8c1.1,2.3-0.3,4.9-2.2,5.9c-2,1.1-4.4,0.5-6.6-1.6c-0.9-1-1.7-2.3-2.4-3.5l-0.3-0.5c-0.8-1.4-1.6-3-1.7-4.8
			c-0.2-2.3,0.5-5.5,2.4-7.2c1.2-1.1,3-2.3,5.4-1.6c0.3,0.1,1.2,0.3,1.4,0.1c0.1-0.2,0.2-0.5,0.1-1.1c-0.2-1.5-0.9-2.8-1.6-4.1
			c-0.3-0.5-0.6-1.1-0.8-1.7c-0.5-1-1-2.2-1.3-2.5c-0.8-0.7-1.8-0.8-3.1-0.1c-3.4,1.7-5.4,4.6-6.2,8.7c-0.1,0.3-0.1,0.6-0.2,1
			c-0.1,0.5-0.1,0.9-0.2,1.3c-0.1,0.3-0.3,0.5-0.6,0.5c-0.3,0-0.6-0.1-0.8-0.4c-0.3-0.5-0.7-1.5-1.1-2.6c-0.3-0.9-0.6-1.7-0.9-2.2
			c-0.8-1.4-1.2-2.7-1.4-3.8c-0.5-3.8,2-7.9,6.2-10.1c1.8-0.9,4.5-1.5,6.8-0.1c0.7,0.4,1.3,1,2,1.6c1.2,1.1,2,1.9,2.7,1.6
			c0.4-0.2,0.5-1.4-0.6-4.1c-0.6-1.3-1.1-2.5-1.6-3.7c-0.5-1.2-1-2.3-1.6-3.7c-0.5-1.1-1.2-1.9-2-2.2C94.8,18.4,94.5,18.3,94.2,18.3
			z"/>
	</g>
	<g>
		<path class="st1" d="M85.3,78.7c-2.2-1.4-4.6-3.6-6.6-6.2c-1.6-2.2-16.1-23.7-16.3-24c-1.3-2-2.6-4-2.5-6.4c0.1-0.6,0.1-1.3-0.3-2
			c-1-1.5-2.4-1-3.5-0.1c-0.3,0.2-0.5,0.4-0.8,0.6c-2.3,1.7-4.6,3.5-6.8,5.4c-0.2,0.2-0.5,0.4-0.7,0.6c-1,0.9-2.2,2.3-1.1,3.8
			c1,1.3,2.5,0.7,3.6,1c1,0.3,1.7,1.2,2.4,2.1c0.4,0.5,0.7,1,1.1,1.5c0.6,0.8,1.2,1.7,1.9,2.5c0.3,0.4,0.5,0.7,0.8,1.1l1,1.3
			c-3.4,1.3-4.3,8-4.2,11.1c0,0.5,0,0.9,0.1,1.4l-7.5-9c-0.9-1.1-1.8-2.1-2.7-3.7c-0.5-0.9-0.9-2.5-0.9-3c0.1-0.6,0.1-1.1-0.6-2
			c-1-1.2-2.6-0.4-3.5,0.4c-2.7,2.5-5.4,5.1-8,7.8c-0.8,0.8-1.7,2.2-0.6,3.3c1,1.1,2.5,0.8,3.7,1c0.7,0.1,1.5,0.6,2.1,1.2
			c1.1,1.1,2.2,2.3,3.3,3.5c5,5.5,10.1,11.1,15.2,16.6c0.9,1,1.9,2,2.8,3c1.7,1.9,3.3,3.8,4.3,5.6c0.8,1.5,0.8,3.4,2.2,4.9
			c0.6,0.6,1.2,0.9,1.9,0.5c0.8-0.5,1.5-1.1,2.1-1.7c1.8-1.8,3.7-3.6,5.6-5.4c0.1-0.1,0.2-0.2,0.3-0.3c0.8-0.7,1.4-1.7,0.4-3
			c-0.7-0.8-1.3-1.2-2.5-1.7c-4.2-2.1-5.9-3.9-10.3-9l-1-1.2c-2.1-4.3,0.6-9.3,4.8-10.6c0.6,0.9,1.3,1.7,1.9,2.6l0.2,0.3
			c0.6,0.8,1.2,1.6,1.8,2.4c0.6,0.9,1.3,1.7,1.9,2.6c1.7,2.3,3.5,4.7,4.3,6.8c0.6,1.5,0.4,3.4,1.6,4.9c0.9,1.1,1.7,1.1,2.4,0.6
			c0.8-0.6,1.6-1.1,2.3-1.7c1.5-1.2,3-2.4,4.6-3.5c0.5-0.4,1-0.8,1.5-1.1c0.7-0.5,1.2-1.5,0.4-2.7C87,79.8,86.4,79.4,85.3,78.7z"/>
		<path class="st2" d="M64.4,103.3c-0.5,0-1.2-0.2-1.8-0.9c-1-1.1-1.4-2.3-1.7-3.4c-0.2-0.6-0.3-1.2-0.6-1.7c-1-1.9-2.7-3.8-4.2-5.4
			l-2.8-3c-2.7-2.9-5.3-5.8-8-8.7c-2.4-2.7-4.9-5.3-7.3-7.9c-1.1-1.2-2.2-2.4-3.3-3.5c-0.5-0.5-1.1-0.9-1.7-1
			c-0.3,0-0.6-0.1-0.9-0.1c-1-0.1-2.2-0.1-3.2-1.2c-1.2-1.2-0.9-2.9,0.6-4.4c2.6-2.7,5.3-5.3,8-7.8c0.3-0.3,1.5-1.3,2.9-1.2
			c0.7,0,1.3,0.4,1.7,0.9c0.9,1.1,0.8,2,0.8,2.6c0,0.4,0.3,1.8,0.7,2.5c0.9,1.5,1.8,2.5,2.6,3.6l6.1,7.3c0.1-2.9,0.8-8.5,3.8-10.5
			L52,53.8c-0.6-0.8-1.2-1.6-2-1.8c-0.3-0.1-0.6-0.1-1-0.1c-0.9,0-2.1,0-3-1.2c-1.1-1.5-0.7-3.3,1.2-4.9l0.7-0.6
			c2.3-1.8,4.6-3.7,6.9-5.4l0.8-0.6c1-0.8,2-1.1,2.9-0.9c0.5,0.1,1.2,0.4,1.8,1.3c0.6,0.9,0.5,1.9,0.4,2.5c-0.1,2,1,3.8,2.4,5.9
			l0.1,0.2C70.3,58.7,78.3,70.5,79.4,72c1.7,2.3,4,4.4,6.3,6l-0.4,0.7l0.5-0.6c1.1,0.7,1.8,1.2,2.5,2.2c1,1.5,0.4,3-0.6,3.7
			l-1.5,1.1c-1.5,1.1-3,2.3-4.5,3.5c-0.7,0.5-1.3,1-2,1.5l-0.4,0.3c-0.7,0.5-2.1,1-3.4-0.8c-0.9-1.1-1.1-2.4-1.3-3.5
			c-0.1-0.6-0.2-1.1-0.4-1.6c-0.8-2.1-2.6-4.5-4.2-6.6l-5.6-7.4c-1.7,0.7-3.1,2-3.9,3.8c-0.8,1.8-0.8,3.7,0,5.5l0.9,1.1
			c4.2,5,5.9,6.7,10,8.8c1.2,0.6,2,1,2.8,2c0.6,0.8,1.4,2.3-0.5,4l-0.3,0.3c-1.9,1.7-3.7,3.5-5.6,5.3c-0.8,0.8-1.5,1.4-2.3,1.9
			C65.2,103.1,64.9,103.3,64.4,103.3z M40.2,54.6c-0.5,0-1.2,0.4-1.7,0.8c-2.7,2.5-5.4,5.1-7.9,7.7c-0.6,0.6-1.2,1.6-0.6,2.2
			c0.6,0.6,1.3,0.6,2.2,0.7c0.4,0,0.7,0,1,0.1c0.9,0.1,1.8,0.7,2.6,1.4c1.1,1.1,2.2,2.3,3.3,3.5c2.4,2.6,4.8,5.3,7.3,7.9
			c2.6,2.9,5.3,5.8,8,8.7l2.8,3c1.6,1.7,3.3,3.7,4.4,5.8c0.3,0.6,0.5,1.3,0.7,2c0.3,1,0.6,1.9,1.4,2.8c0.6,0.6,0.8,0.4,1,0.4
			c0.6-0.4,1.3-0.9,2-1.6c1.8-1.8,3.7-3.7,5.6-5.4l0.3-0.3c0.9-0.8,0.8-1.3,0.4-1.9c-0.5-0.7-1.1-1-2.2-1.5
			c-4.4-2.2-6.3-4.2-10.6-9.2l-1-1.2c0-0.1-0.1-0.1-0.1-0.2c-1-2.2-1-4.6,0-6.9c1-2.3,3-4.1,5.3-4.8c0.3-0.1,0.7,0,0.9,0.3l5.9,7.9
			c1.7,2.2,3.6,4.8,4.4,7c0.2,0.6,0.4,1.3,0.5,1.9c0.2,1,0.4,2,1,2.8c0.7,0.9,1,0.6,1.3,0.4l0.4-0.3c0.7-0.5,1.3-0.9,1.9-1.4
			c1.5-1.2,3-2.4,4.6-3.6c0.5-0.4,1-0.8,1.5-1.1c0.3-0.2,0.8-0.8,0.2-1.6c-0.5-0.7-1-1.1-2-1.7l-0.1,0c-2.5-1.6-4.9-3.9-6.7-6.4
			C76.7,71,65.4,54.2,61.9,49.1l-0.1-0.2c-1.2-1.9-2.8-4.2-2.7-6.9c0.1-0.6,0.1-1.1-0.2-1.6c-0.2-0.3-0.5-0.5-0.8-0.6
			c-0.4-0.1-1,0.1-1.7,0.6l-0.8,0.6c-2.3,1.7-4.6,3.5-6.8,5.3L48.2,47c-0.9,0.7-1.7,1.8-1,2.7c0.4,0.5,0.9,0.6,1.8,0.6
			c0.5,0,1,0,1.5,0.2c1.2,0.4,2,1.4,2.8,2.4l4.7,6.3c0.1,0.2,0.2,0.4,0.1,0.7c-0.1,0.2-0.2,0.4-0.5,0.5c-3,1.1-3.8,7.5-3.7,10.4
			c0,0.4,0,0.9,0.1,1.4c0,0.3-0.2,0.7-0.5,0.8c-0.3,0.1-0.7,0-0.9-0.2l-7.5-9c-0.9-1.1-1.8-2.2-2.8-3.8c-0.6-1-1-2.8-1-3.5
			c0-0.5,0.1-0.8-0.4-1.4C40.8,54.7,40.6,54.6,40.2,54.6C40.3,54.6,40.3,54.6,40.2,54.6z"/>
	</g>
	<g>
		<path class="st1" d="M300.9,88.3c0.6-0.7,1.1-1.5,1.3-2.4c0.1-0.9-0.3-1.7-0.8-2.2c-1-1.1-3.6-3.4-4.6-4.3
			c-0.9-0.8-2.4-1.5-3.4-0.1c-0.9,1.2-0.5,2.2-0.5,3.2c0,0.7-0.2,1.3-0.6,1.8c-1.4,1.7-3.8,1.3-5,0.3c-1.5-1.2-1.9-3.4-1.1-6
			c0.4-1.1,1.1-2.3,2-3.5c0,0,0,0,0-0.1c1-1.4,2-3,3.5-3.9c1.9-1.1,4.6-1.6,6.6-0.6c1.7,0.8,2.9,1.9,3.2,3.9c0.1,0.8,0.3,1.8,1.1,2
			c0.5,0.2,1.1-0.1,1.6-0.4c1.8-1.2,2.8-3.1,4.2-4.8c0.8-1,1.6-2,1.8-2.6c0.4-1.5-0.2-2.8-1.4-3.9c-3.3-2.9-7-3.4-10.7-2.5
			c-0.7,0.1-1.4,0.5-2,0.5c0.5-0.9,2.7-2.9,3.3-3.8c0.7-1.1,1.6-2.1,2.5-2.7c3.1-2.1,7.3-1,10.5,1.7c1.6,1.4,2.8,3.5,2.6,5.7
			c-0.2,2.2-2,5.1-0.6,6.5c1.1,1,2.9-0.7,4.3-2.3c1.8-2.2,3.2-3.9,5.1-6.1c1.8-2.1,1.7-4.5-0.1-6.1c-6.8-6.2-14-11.9-21.3-17.1
			c-0.5-0.3-0.9-0.6-1.4-1c-1.2-0.8-2.9-1.3-3.9,0.2c-0.5,0.8-0.2,1.4-0.2,2c0.5,2.7-1.6,6.1-3,8.4c-4.2,6.7-8.4,13.5-12.6,20.2
			c-0.5,0.8-1,1.6-1.5,2.3c-1.1,1.8-3.2,4.8-4.8,5.9c-1.1,0.8-2.5,1.4-3.5,2.9c-0.6,1.1-1,2,0.2,2.9c6.4,4.4,12.6,9.3,18.6,14.8
			c1.4,1.3,3.3-0.1,3.9-0.8C296.2,93.7,298.6,91,300.9,88.3z"/>
		<path class="st2" d="M291.4,98.6c-0.7,0-1.3-0.3-1.9-0.7c-5.8-5.3-12-10.3-18.5-14.7c-1.9-1.5-0.9-3.1-0.4-4
			c0.8-1.4,2-2.1,2.9-2.7c0.3-0.2,0.5-0.3,0.7-0.5c1.3-0.9,3.3-3.6,4.6-5.7L293,47.6c1.3-2.1,3.2-5.4,2.8-7.7l-0.1-0.3
			c-0.1-0.6-0.2-1.3,0.3-2.3c0.4-0.7,1.1-1.2,1.8-1.3c1.3-0.3,2.6,0.4,3.2,0.9l1.4,1c7.4,5.2,14.6,11,21.4,17.2
			c2.2,2,2.2,4.8,0.2,7.2c-0.9,1.1-1.7,2-2.5,3c-0.8,1-1.6,2-2.6,3.1c-1.6,1.9-2.9,2.8-4,2.9c-0.5,0-1-0.1-1.4-0.5
			c-1.3-1.2-0.7-3.2-0.2-4.9c0.2-0.8,0.5-1.5,0.5-2.2c0.1-1.7-0.8-3.7-2.4-5.1c-2.6-2.3-6.6-3.6-9.5-1.7c-0.7,0.5-1.5,1.4-2.3,2.5
			c-0.3,0.5-1,1.2-1.7,1.9c0,0,0,0-0.1,0.1c4.2-0.9,7.9,0,11.1,2.8c1.6,1.3,2.1,3,1.7,4.7c-0.2,0.8-1,1.8-1.9,2.9
			c-0.4,0.5-0.7,0.9-1.1,1.4c-0.9,1.3-1.9,2.6-3.3,3.6c-0.5,0.4-1.4,0.8-2.2,0.5c-1.3-0.4-1.5-2-1.6-2.7c-0.2-1.5-1-2.4-2.7-3.3
			c-1.7-0.8-4.2-0.3-5.8,0.6c-1.2,0.7-2.1,2-3,3.2l-0.3,0.4c-0.8,1.1-1.5,2.3-1.9,3.4c-0.7,2.3-0.4,4.2,0.9,5.2
			c0.6,0.5,1.6,0.8,2.4,0.7c0.6-0.1,1.1-0.4,1.5-0.9c0.3-0.4,0.5-0.9,0.5-1.4c0-0.2,0-0.4,0-0.6c-0.1-0.8-0.2-1.8,0.7-3
			c0.5-0.6,1.1-1,1.8-1.1c1.2-0.1,2.4,0.7,2.8,1.1c1,0.9,3.6,3.3,4.7,4.4c0.8,0.7,1.2,1.8,1.1,2.9c-0.1,0.9-0.6,1.8-1.4,2.8l-7,8.2
			c-0.6,0.7-1.8,1.6-3,1.6C291.5,98.6,291.4,98.6,291.4,98.6z M298.4,37.5c-0.1,0-0.2,0-0.3,0c-0.3,0.1-0.6,0.3-0.8,0.6
			c-0.2,0.4-0.2,0.7-0.1,1.2l0.1,0.3c0.5,2.9-1.5,6.3-2.9,8.8l-0.1,0.2l-14.1,22.6c-0.7,1.1-3.1,4.8-5,6.1c-0.3,0.2-0.5,0.4-0.8,0.5
			c-0.9,0.5-1.8,1.1-2.4,2.2c-0.7,1.1-0.6,1.4,0,1.9c6.5,4.4,12.7,9.4,18.6,14.8c0.3,0.2,0.5,0.3,0.9,0.3c0.7,0,1.5-0.7,1.9-1.1
			l7-8.2c0,0,0,0,0,0c0.6-0.8,1-1.4,1.1-2c0.1-0.8-0.4-1.4-0.6-1.6c-1-1.1-3.6-3.4-4.6-4.3c-0.6-0.5-1.2-0.7-1.6-0.7
			c-0.2,0-0.4,0.1-0.7,0.5c-0.5,0.7-0.5,1.2-0.4,1.9c0,0.3,0.1,0.5,0.1,0.8c0,0.9-0.3,1.7-0.8,2.3c-0.6,0.8-1.5,1.3-2.6,1.5
			c-1.2,0.1-2.6-0.3-3.5-1c-1.8-1.5-2.3-4-1.4-6.9c0.4-1.3,1.3-2.5,2.1-3.7l0.3-0.5c0.9-1.3,2-2.8,3.5-3.7c2-1.1,5-1.8,7.3-0.7
			c1.5,0.7,3.2,1.9,3.6,4.5c0.1,0.9,0.3,1.3,0.6,1.4c0.1,0,0.4,0,0.9-0.3c1.2-0.8,2-2,2.9-3.2c0.4-0.5,0.7-1,1.1-1.5
			c0.7-0.9,1.5-1.8,1.6-2.3c0.3-1.1-0.1-2.1-1.2-3.1c-2.9-2.5-6.2-3.3-10-2.3c-0.3,0.1-0.6,0.2-0.9,0.2c-0.4,0.1-0.8,0.3-1.2,0.3
			c-0.3,0-0.6-0.1-0.7-0.4c-0.2-0.3-0.2-0.6,0-0.8c0.3-0.5,1-1.3,1.8-2.1c0.6-0.7,1.2-1.3,1.5-1.7c0.9-1.3,1.8-2.3,2.7-2.9
			c3.1-2.1,7.7-1.4,11.4,1.7c1.5,1.3,3.1,3.7,2.9,6.4c-0.1,0.8-0.3,1.7-0.6,2.5c-0.4,1.4-0.8,2.7-0.2,3.3c0.1,0.1,0.2,0.1,0.3,0.1
			c0.4,0,1.2-0.4,2.9-2.3c0.9-1.1,1.8-2.1,2.6-3.1c0.8-1,1.6-1.9,2.5-3c1.5-1.8,1.5-3.6-0.1-5.1c-6.7-6.1-13.9-11.9-21.2-17l-1.4-1
			C299.5,37.7,298.9,37.5,298.4,37.5z"/>
	</g>
</g>
</svg>
