<?xml version="1.0" encoding="UTF-8"?><svg id="Layer_2" xmlns="http://www.w3.org/2000/svg" viewBox="0 0 187.44 43.73"><defs><style>.cls-1{fill:#fff;}</style></defs><g id="Layer_1-2"><g><path class="cls-1" d="M14.87,41.36l-4.91,2.37L0,23.12l8.13-3.93c3-1.45,4.54-1.73,6.57-1.15,1.96,.5,3.41,1.78,4.34,3.7,1.01,2.1,1.11,4.34,.27,6.24-.76,1.74-1.86,2.69-4.74,4.08l-3.4,1.64,3.7,7.67Zm-2.54-12.84c1.3-.63,1.86-1.2,2.13-2.13,.19-.7,.13-1.47-.22-2.18-.36-.74-.98-1.32-1.71-1.57-.83-.29-1.64-.16-2.85,.42l-3.15,1.52,2.64,5.47,3.15-1.52Z"/><path class="cls-1" d="M39.04,31.45l-5.16,1.55-6.57-21.93,9.63-2.88c2.83-.85,4.49-.91,6.13-.22,1.76,.73,3.24,2.43,3.83,4.41,.47,1.58,.35,3.33-.36,4.77-.36,.72-.75,1.19-1.71,2.05l6.94,8.45-5.69,1.7-5.95-7.68-3.68,1.1,2.6,8.68Zm-3.72-12.43l3.16-.95c1.71-.51,2.08-.7,2.59-1.28,.62-.69,.85-1.83,.56-2.78-.26-.86-.9-1.56-1.67-1.86-.81-.3-1.22-.24-3.29,.38l-3.02,.91,1.67,5.59Z"/><path class="cls-1" d="M63.88,6.71l.64,4.66,8.5-1.16,.58,4.25-8.5,1.16,.68,4.96,10.81-1.48,.61,4.49-16.22,2.22-3.1-22.68L74.11,.91l.59,4.32-10.81,1.48Z"/><path class="cls-1" d="M98.39,6.97c-.79-2.07-1.77-2.74-3.93-2.78-1.99-.03-3.13,.7-3.16,1.97-.02,1.34,.79,1.94,3.25,2.46,3.42,.78,4.82,1.25,5.97,2.06,1.9,1.34,2.9,3.28,2.86,5.47-.04,2.4-1.38,4.75-3.47,6.05-1.49,.94-3.66,1.41-6.06,1.37-2.68-.05-4.83-.73-6.52-2.07-1.42-1.16-2.06-2.2-2.67-4.44l4.96-1.05c.61,2.21,2.04,3.23,4.58,3.27,2.26,.04,3.69-.86,3.71-2.34,.02-1.37-.89-2.01-3.94-2.68-2.53-.56-4-1.06-5.25-1.87-1.77-1.09-2.73-3-2.69-5.26,.04-2.13,.86-3.9,2.42-5.24C90.02,.54,91.92-.04,94.49,0c2.47,.04,4.45,.66,5.97,1.85,1.19,.91,1.79,1.81,2.48,3.68l-4.55,1.43Z"/><path class="cls-1" d="M121.03,6.97l-.78,4.64,8.46,1.43-.71,4.23-8.46-1.43-.83,4.94,10.76,1.82-.75,4.47-16.14-2.72,3.81-22.57,16.14,2.72-.73,4.3-10.76-1.82Z"/><path class="cls-1" d="M154.5,35.02l-4.35-1.48-3.51-17.54c-.09,.37-.19,.66-.22,.76-.13,.5-.21,.83-.25,.96l-4.4,12.97-3.93-1.33,7.35-21.68,5.46,1.85,3.04,15.28c.17-.7,.24-1.04,.39-1.46l3.85-11.34,3.93,1.33-7.35,21.68Z"/><path class="cls-1" d="M185.36,29.63l-5.03-2.6-8.42,16.32-4.82-2.49,8.42-16.32-5.06-2.61,2.08-4.03,14.91,7.7-2.08,4.03Z"/></g></g></svg>