<?xml version="1.0" encoding="UTF-8" standalone="no"?>
<svg
   xmlns:dc="http://purl.org/dc/elements/1.1/"
   xmlns:cc="http://creativecommons.org/ns#"
   xmlns:rdf="http://www.w3.org/1999/02/22-rdf-syntax-ns#"
   xmlns:svg="http://www.w3.org/2000/svg"
   xmlns="http://www.w3.org/2000/svg"
   xmlns:sodipodi="http://sodipodi.sourceforge.net/DTD/sodipodi-0.dtd"
   xmlns:inkscape="http://www.inkscape.org/namespaces/inkscape"
   id="Layer_1"
   data-name="Layer 1"
   viewBox="0 0 483.10394 984.46771"
   version="1.1"
   sodipodi:docname="JDliveatlast.svg"
   inkscape:version="1.0.2 (e86c8708, 2021-01-15)"
   width="483.10394"
   height="984.46771">
  <metadata
     id="metadata902">
    <rdf:RDF>
      <cc:Work
         rdf:about="">
        <dc:format>image/svg+xml</dc:format>
        <dc:type
           rdf:resource="http://purl.org/dc/dcmitype/StillImage" />
      </cc:Work>
    </rdf:RDF>
  </metadata>
  <sodipodi:namedview
     pagecolor="#ffffff"
     bordercolor="#666666"
     borderopacity="1"
     objecttolerance="10"
     gridtolerance="10"
     guidetolerance="10"
     inkscape:pageopacity="0"
     inkscape:pageshadow="2"
     inkscape:window-width="1440"
     inkscape:window-height="847"
     id="namedview900"
     showgrid="false"
     inkscape:zoom="0.38020833"
     inkscape:cx="241.12572"
     inkscape:cy="491.91771"
     inkscape:window-x="0"
     inkscape:window-y="25"
     inkscape:window-maximized="0"
     inkscape:current-layer="Layer_1" />
  <defs
     id="defs835">
    <style
       id="style833">.cls-1,.cls-2{fill:#fff;}.cls-2{fill-rule:evenodd;}</style>
  </defs>
  <path
     class="cls-1"
     d="m 26.66572,946.18771 a 0.58,0.58 0 0 0 1.12,0 l 9.24,-26.15 a 8.56,8.56 0 0 0 0.47,-2.52 c 0,-0.65 0.19,-1.21 1,-1.21 h 14.85 c 0.37,0 0.46,0.56 0.09,0.74 -2.24,1.4 -2.8,2.34 -2.8,4.48 v 56.78 c 0,2.15 0.56,3.08 2.8,4.48 0.37,0.19 0.28,0.75 -0.09,0.75 h -16.6 c -0.37,0 -0.46,-0.56 -0.09,-0.75 2.24,-1.4 2.8,-2.33 2.8,-4.48 v -43.61 a 0.48,0.48 0 0 0 -0.93,-0.19 l -13.17,35.68 a 0.79,0.79 0 0 1 -1.4,0 l -13.26,-35.68 a 0.48,0.48 0 0 0 -0.9299998,0.19 v 43.61 c 0,2.15 0.5599998,3.08 2.7999998,4.48 0.37,0.19 0.28,0.75 -0.1,0.75 H 0.33572022 c -0.38,0 -0.47,-0.56 -0.1,-0.75 2.23999998,-1.4 2.79999998,-2.33 2.79999998,-4.48 v -56.78 c 0,-2.14 -0.56,-3.08 -2.79999998,-4.48 -0.37,-0.18 -0.28,-0.74 0.1,-0.74 H 15.92572 c 0.84,0 1,0.56 1,1.21 a 6.37,6.37 0 0 0 0.46,2.52 z"
     id="path837" />
  <path
     class="cls-1"
     d="m 67.28572,966.25771 c -0.37,0 -0.56,0.1 -0.65,0.47 l -2.15,12.19 c -0.28,1.87 0.28,2.71 2.33,3.92 0.38,0.28 0.28,0.75 -0.09,0.75 h -11 c -0.37,0 -0.47,-0.56 -0.09,-0.75 1.77,-1.12 2.33,-1.58 2.7,-3.27 l 11.47,-57.65 c 0.47,-2.52 0,-3.64 -2,-4.86 -0.38,-0.28 -0.28,-0.74 0.09,-0.74 h 13.07 a 0.94,0.94 0 0 1 1,0.84 l 12.23,62.37 c 0.28,1.69 0.94,2.15 2.71,3.27 0.37,0.19 0.37,0.75 0,0.75 h -17.39 a 0.4,0.4 0 0 1 -0.18,-0.75 c 2,-1.21 2.7,-2 2.33,-3.92 l -2.24,-12.14 c -0.09,-0.37 -0.28,-0.47 -0.65,-0.47 z m 10.46,-5 c 0.37,0 0.56,-0.37 0.46,-0.75 l -4.38,-25 c -0.19,-1.22 -1.22,-1.22 -1.41,0 l -4.57,25 c -0.09,0.38 0.09,0.75 0.47,0.75 z"
     id="path839" />
  <path
     class="cls-1"
     d="m 121.33572,941.23771 a 5.26,5.26 0 0 0 -0.94,2.52 c 0,1.21 0.75,1.87 3.09,2.15 l 4.11,0.46 a 2.22,2.22 0 0 1 2.33,1.87 l 5.42,30.44 a 6.09,6.09 0 0 0 2.89,4.11 c 0.37,0.19 0.28,0.75 -0.09,0.75 h -13.64 a 1.08,1.08 0 0 1 -1.21,-1 l -5,-31.47 a 2.16,2.16 0 0 0 -2.15,-2 l -1.59,-0.28 c -0.56,-0.09 -0.84,0.28 -0.84,0.84 v 28.76 c 0,2.15 0.56,3.08 2.8,4.48 0.38,0.19 0.28,0.75 -0.09,0.75 h -17.6 c -0.37,0 -0.46,-0.56 -0.09,-0.75 2.24,-1.4 2.8,-2.33 2.8,-4.48 v -56.86 c 0,-2.14 -0.56,-3.08 -2.8,-4.48 -0.37,-0.18 -0.28,-0.74 0.09,-0.74 h 17.56 c 0.37,0 0.47,0.56 0.09,0.74 -2.24,1.4 -2.8,2.34 -2.8,4.48 v 19.61 a 0.6,0.6 0 0 0 0.66,0.66 c 0.46,0 0.74,-0.28 1,-0.75 l 12.14,-19.61 c 0.75,-1.21 1.31,-3.27 -0.46,-4.39 -0.38,-0.18 -0.29,-0.74 0.09,-0.74 h 11.48 c 0.38,0 0.47,0.56 0.1,0.74 a 10.8,10.8 0 0 0 -4.67,4.3 z"
     id="path841" />
  <path
     class="cls-1"
     d="m 141.22572,983.53771 c -0.37,0 -0.47,-0.56 -0.09,-0.75 2.24,-1.4 2.8,-2.33 2.8,-4.48 v -56.78 c 0,-2.14 -0.56,-3.08 -2.8,-4.48 -0.38,-0.18 -0.28,-0.74 0.09,-0.74 h 27.9 a 1,1 0 0 1 1.12,0.93 l 1.31,10.08 c 0.09,0.75 0,1.31 -0.47,1.31 -0.47,0 -0.56,-0.28 -0.75,-0.65 l -1.3,-2.34 c -2.52,-4.48 -5.89,-5.6 -9.72,-5.6 h -1.19 c -1.4,0 -2,0.84 -2,2.9 v 16.24 c 0,3.74 0.56,4.58 3.17,4.58 h 0.38 c 1.77,0 3.82,-0.93 4.85,-4.2 l 0.75,-2.43 c 0.28,-0.84 0.56,-1.68 1.21,-1.68 0.65,0 0.75,0.75 0.75,1.77 v 17.28 c 0,1 -0.09,1.77 -0.75,1.77 -0.66,0 -0.93,-0.84 -1.21,-1.68 l -0.84,-2.71 c -1,-3.26 -2.71,-4.2 -4.76,-4.2 h -0.38 c -2.61,0 -3.17,0.84 -3.17,4.58 v 24.66 c 0,2 0.46,2.89 2,2.89 h 1.21 c 4,0 7.2,-1 10.09,-5.32 l 1.59,-2.33 c 0.28,-0.38 0.56,-0.66 0.93,-0.66 0.37,0 0.66,0.47 0.47,1.31 l -2.15,9.81 c -0.19,0.65 -0.47,0.93 -1.12,0.93 z"
     id="path843" />
  <path
     class="cls-1"
     d="m 198.12572,921.52771 c 0,-2.14 -0.56,-3.08 -2.8,-4.48 -0.38,-0.18 -0.28,-0.74 0.09,-0.74 h 17.55 c 0.38,0 0.47,0.56 0.1,0.74 -2.24,1.4 -2.8,2.34 -2.8,4.48 v 56.78 c 0,2.15 0.56,3.08 2.8,4.48 0.37,0.19 0.28,0.75 -0.1,0.75 h -17.58 c -0.37,0 -0.47,-0.56 -0.09,-0.75 2.24,-1.4 2.8,-2.33 2.8,-4.48 z"
     id="path845" />
  <path
     class="cls-1"
     d="m 252.38572,916.30771 c 2.89,0 3.92,-1.41 4.2,1 l 1.78,15.32 c 0.09,0.74 -0.75,0.84 -1,0.18 l -2.9,-5.51 c -2.33,-4.48 -4.29,-6.53 -7.56,-6.53 h -0.28 c -2.71,0 -3.46,1.4 -3.46,3.27 v 54.25 c 0,2.15 0.56,3.08 2.81,4.48 0.37,0.19 0.28,0.75 -0.1,0.75 h -17.58 c -0.38,0 -0.47,-0.56 -0.1,-0.75 2.24,-1.4 2.81,-2.33 2.81,-4.48 v -54.23 c 0,-1.87 -0.75,-3.27 -3.46,-3.27 h -0.28 c -3.27,0 -5.6,2 -7.75,6.53 l -2.62,5.51 c -0.28,0.66 -1.12,0.56 -1,-0.18 l 1.3,-15.32 c 0.19,-2.43 1.31,-1 4.21,-1 z"
     id="path847" />
  <path
     class="cls-1"
     d="m 301.68572,969.34771 a 17.19,17.19 0 0 0 -1.21,-6.63 c -0.84,-2.06 0.75,-1.59 2,-0.84 a 10.12,10.12 0 0 1 4.58,8.87 c 0,7.93 -4.86,13.72 -12.05,13.72 -14,0 -19.7,-17.55 -19.7,-37.35 0,-17 4.48,-31.75 18.21,-31.75 3.82,0 5.6,1 7.65,1 a 2.56,2.56 0 0 0 2.24,-1.4 c 0.19,-0.28 0.75,-0.28 0.75,0.09 l 0.38,14.38 c 0,0.75 -1,0.75 -1.22,0.19 -1.77,-4.86 -3.55,-10.46 -8.87,-10.46 -3.73,0 -5.88,3.74 -5.88,20.08 v 19.42 c 0,16.34 3.45,22 7.09,22 4.54,-0.02 6.03,-7.5 6.03,-11.32 z"
     id="path849" />
  <path
     class="cls-1"
     d="m 348.12572,949.91771 c 0,17.93 -4.49,34.55 -18.49,34.55 -14,0 -18.51,-16.62 -18.51,-34.55 0,-17.93 4.48,-34.55 18.49,-34.55 14.01,0 18.51,16.62 18.51,34.55 z m -13.26,8.78 v -18.49 c 0,-16.34 -1.87,-20.73 -5.23,-20.73 -3.36,0 -5.23,4.39 -5.23,20.73 v 18.49 c 0,16.34 1.87,21.67 5.23,21.67 3.36,0 5.19,-5.33 5.19,-21.67 z"
     id="path851" />
  <path
     class="cls-1"
     d="m 379.68572,966.91771 v -45.39 c 0,-2.14 -0.56,-3.08 -2.8,-4.48 -0.38,-0.18 -0.28,-0.74 0.09,-0.74 h 17.56 c 0.37,0 0.46,0.56 0.09,0.74 -2.24,1.4 -2.8,2.34 -2.8,4.48 v 39.39 c 0,14.57 -6.45,23.53 -18.31,23.53 -11.86,0 -18.3,-9 -18.3,-23.53 v -39.39 c 0,-2.14 -0.56,-3.08 -2.8,-4.48 -0.37,-0.18 -0.28,-0.74 0.09,-0.74 h 17.56 c 0.37,0 0.47,0.56 0.09,0.74 -2.24,1.4 -2.8,2.34 -2.8,4.48 v 45.39 c 0,8.5 1.68,13.73 6.16,13.73 4.48,0 6.17,-5.23 6.17,-13.73 z"
     id="path853" />
  <path
     class="cls-1"
     d="m 408.12572,942.82771 a 0.48,0.48 0 0 0 -0.93,0.18 v 35.3 c 0,2.15 0.56,3.08 2.8,4.48 0.37,0.19 0.28,0.75 -0.09,0.75 h -12.14 c -0.38,0 -0.47,-0.56 -0.09,-0.75 2.24,-1.4 2.8,-2.33 2.8,-4.48 v -56.78 c 0,-2.14 -0.56,-3.08 -2.8,-4.48 -0.38,-0.18 -0.29,-0.74 0.09,-0.74 h 10.08 a 1.46,1.46 0 0 1 1.59,1 l 17.84,39.69 a 0.48,0.48 0 0 0 0.93,-0.19 v -35.3 c 0,-2.14 -0.56,-3.08 -2.8,-4.48 -0.37,-0.18 -0.28,-0.74 0.09,-0.74 h 12.14 c 0.38,0 0.47,0.56 0.1,0.74 -2.25,1.4 -2.81,2.34 -2.81,4.48 v 61.26 a 0.67,0.67 0 0 1 -0.65,0.75 h -6.72 a 1.46,1.46 0 0 1 -1.59,-1 z"
     id="path855" />
  <path
     class="cls-1"
     d="m 477.12572,916.30771 c 2.89,0 3.92,-1.41 4.2,1 l 1.77,15.32 c 0.1,0.74 -0.74,0.84 -1,0.18 l -2.9,-5.51 c -2.33,-4.48 -4.29,-6.53 -7.56,-6.53 h -0.28 c -2.71,0 -3.46,1.4 -3.46,3.27 v 54.25 c 0,2.15 0.56,3.08 2.8,4.48 0.38,0.19 0.28,0.75 -0.09,0.75 h -17.56 c -0.37,0 -0.46,-0.56 -0.09,-0.75 2.24,-1.4 2.8,-2.33 2.8,-4.48 v -54.23 c 0,-1.87 -0.75,-3.27 -3.45,-3.27 h -0.28 c -3.27,0 -5.61,2 -7.75,6.53 l -2.62,5.51 c -0.28,0.66 -1.12,0.56 -1,-0.18 l 1.31,-15.32 c 0.19,-2.43 1.31,-1 4.2,-1 z"
     id="path857" />
  <path
     class="cls-2"
     d="m 336.95572,0.00770767 -4.6,0.19 c -1.17,0 -1.87,0.15 -1.86,0.48 0,0.60000003 1.09,-0.07 1.21,2.70000003 l 1.19,30.1000003 c 0.06,1.57 -1.19,1.48 -1.17,2.09 0,0.13 0.2,0.21 0.72,0.19 l 6.15,-0.26 c 5.68,-0.21 10.53,-7.41 10,-21.07 -0.38,-9.7300003 -5.71,-14.65000033 -11.63,-14.42000033 m 5.42,10.00000033 0.52,13.36 c 0.11,2.84 -0.93,9.66 -3.17,9.75 -0.81,0 -1.26,0.14 -1.29,-0.57 l -1.14,-29.9200003 c 0,-0.49 0.25,-0.59 1,-0.61 2.91,-0.12 3.91,4.47 4,8.0000003 m 12.21,-1.6300003 c 0,0.37 0.8,0.71 0.72,1.5 a 11.75,11.75 0 0 1 -0.68,2.3600003 l -6.2,19.19 c -1.16,3.6 -2.14,3 -2.18,3.45 0,0.22 0.07,0.29 0.31,0.29 h 4.66 c 0.17,0 0.28,0 0.31,-0.2 0,-0.54 -1.73,-0.16 -1,-2.28 l 1.48,-4.54 4.69,0.45 0.39,4.51 c 0.21,2.35 -0.84,1.73 -0.89,2.28 0,0.28 0.17,0.35 0.55,0.37 l 6.24,0.44 c 0.31,0 0.58,0 0.61,-0.27 0,-0.51 -0.73,0.08 -1,-2.41 l -2,-23 c -0.13,-1.5200003 -0.17,-1.7800003 -0.49,-1.8100003 l -5.2,-0.5 c -0.13,0 -0.28,0 -0.3,0.11 m 1.24,10.6800003 0.65,7.56 -3.89,-0.39 2.33,-7.25 c 0.51,-1.56 0.8,-1.29 0.91,0.08 m 12.63,-9.2700003 c -0.11,0.4300003 1.29,1.0000003 1,2.3500003 l -4.63,22.21 c -0.42,1.79 -0.75,1.15 -0.88,1.7 0,0.18 0.19,0.26 0.42,0.29 l 3.24,0.53 c 0.28,0 0.39,0 0.45,-0.23 0.12,-0.49 -1.27,0.06 -0.56,-3.36 l 2.27,-11 c 0.08,-0.4 0.35,-0.34 0.43,0.06 l 2.66,15.58 a 0.39,0.39 0 0 0 0.32,0.37 l 2.79,0.91 c 0.16,0 0.34,0.06 0.37,-0.06 0.03,-0.12 -0.23,0 0,-0.71 l 6.4,-22.72 c 0.61,-2.28 1.31,-1.53 1.4,-1.89 0.09,-0.36 -0.14,-0.33 -0.59,-0.48 l -2.63,-0.88 c -0.55,-0.2 -0.82,-0.22 -0.88,0 -0.06,0.22 0.8,0.24 0.32,2 l -3.53,12.42 c -0.18,0.62 -0.59,-0.24 -0.86,-1.52 l -2.65,-13.63 c -0.19,-1 -0.21,-1.17 -0.58,-1.27 l -3.54,-0.8900003 c -0.4,-0.11 -0.64,-0.1 -0.71,0.13 m -46.6,0.5200003 -4.5,1.06 c -0.23,0.05 -0.32,0.06 -0.27,0.25 0.08,0.36 0.71,0.2 0.86,0.84 a 3.08,3.08 0 0 1 -0.17,1.6 l -2.53,6.74 c -0.13,0.31 -0.4,0.72 -0.53,0.75 -0.13,0.03 -0.25,-0.15 -0.29,-0.31 l -1.66,-7.17 c -0.31,-1.34 0.94,-1.26 0.81,-1.79 a 0.19,0.19 0 0 0 -0.24,-0.15 l -6.93,1.62 c -0.26,0.06 -0.33,0.13 -0.29,0.29 0.11,0.48 1,0 1.33,1.55 l 5.16,22.15 c 0.35,1.47 -0.85,1.54 -0.71,2.13 0,0.24 0.19,0.22 0.59,0.13 l 6.83,-2 c 0.17,0 0.17,-0.15 0.14,-0.28 -0.11,-0.44 -1.22,-0.06 -1.4,-0.84 l -2.56,-11 c -0.08,-0.29 0.1,-0.8 0.41,-0.87 0.31,-0.07 0.46,0.37 0.62,0.72 l 5,11.37 c 0.21,0.42 0.37,0.59 1,0.5 l 6,-1 c 0.23,0 0.29,-0.11 0.23,-0.35 -0.13,-0.59 -1.48,0 -2.13,-1.31 l -5,-11.64 c -0.19,-0.39 -0.36,-0.46 -0.62,-0.4 -0.76,0.18 -3.69,1.12 -4,-0.4 -0.11,-0.48 0.57,-2 1.42,-4.36 l 1.48,-3.88 c 1.3,-3.81 2.39,-3.47 2.3,-3.87 0,-0.16 -0.11,-0.18 -0.24,-0.15 m 64.45,4.11 c -0.24,0.67 1.42,0.54 0.37,3.55 l -6.64,18.93 c -1.06,3 -2.27,1.88 -2.51,2.55 -0.08,0.22 0.11,0.42 0.44,0.53 l 6.86,2.22 c 0.32,0.12 0.59,0.08 0.67,-0.14 0.23,-0.67 -1.43,-0.54 -0.36,-3.56 l 6.52,-18.53 c 1.06,-3 2.28,-1.88 2.51,-2.55 0.08,-0.22 -0.1,-0.42 -0.43,-0.53 l -6.82,-2.39 c -0.33,-0.12 -0.6,-0.08 -0.67,0.15 m -83.77,0.09 c -0.32,0.11 -0.34,1 -0.84,1.13 -0.9,0.29 -2.94,0.56 -4,0.89 -4.64,1.51 -4,9.25 -2.47,13.89 3,9.19 8.3,13.14 12.53,11.76 2.62,-0.86 3.63,-4 2.88,-6.34 -0.49,-1.48 -1.27,-3 -2.93,-3.3 -0.32,-0.09 -0.59,0 -0.2,0.56 a 8.87,8.87 0 0 1 1.22,2.37 c 0.28,0.85 0.51,4.8 -1.25,5.37 -2.12,0.7 -3.91,-3.65 -4.51,-5.48 l -4.24,-13 c -0.42,-1.29 -1.48,-4.37 0.89,-5.14 2.37,-0.77 4.24,2.67 4.56,2.57 0.1,0 0.2,-0.07 0.13,-0.28 l -1.53,-4.72 c -0.06,-0.14 -0.16,-0.31 -0.29,-0.27 m 94.31,3.16 c -0.29,0.64 1.37,0.66 0,3.57 l -8.23,18 c -1.33,2.91 -2.44,2.07 -2.73,2.71 -0.1,0.22 0.07,0.43 0.39,0.57 l 10,4.16 2.44,-3.25 a 0.4,0.4 0 0 0 -0.12,-0.63 c -0.84,0.45 -3.56,1.66 -4.66,1.16 -1.1,-0.5 -1.27,-0.81 -0.93,-1.59 l 4.3,-9.42 a 1.2,1.2 0 0 1 1.76,-0.62 c 1.39,0.62 -0.35,4 0.6,4.41 0.24,0.11 0.5,-0.15 0.72,-0.61 l 3.09,-6.8 c 0.18,-0.37 0.22,-0.84 0,-1 -0.83,-0.38 -1.94,2.93 -3.5,2.22 a 1.28,1.28 0 0 1 -0.7,-1.85 l 2.36,-5.06 c 1,-2.13 1.11,-2.44 2,-2 2,0.9 2.48,3.49 2.39,4.45 -0.09,0.96 0.46,1.5 0.7,0.51 l 1.21,-4.29 -10.49,-4.77 c -0.31,-0.14 -0.58,-0.13 -0.69,0.09 m -127.36,3 c -2.31,1.44 -4.31,3 -6.48,4.33 -0.28,0.18 -0.28,0.67 0.14,0.57 1,-0.23 1.65,0.26 2.28,1.28 l 12.49,19.87 c 1.3,2.07 3.88,6.44 0.65,8.47 -2.71,1.69 -5.09,0 -6.35,-2 -1.26,-2 -1.27,-4.69 0.06,-5.52 0.56,-0.35 0.76,-0.19 1.18,-0.46 -0.27,-0.42 -0.32,-0.88 -0.55,-1.24 -1.07,-1.73 -2.86,-1.73 -4.43,-0.75 -2.36,1.48 -2.46,5.8 -0.64,8.71 a 8.58,8.58 0 0 0 11.91,2.75 c 6.5,-4.06 4.47,-10.84 2,-14.74 l -11.24,-18.19 c -0.93,-1.48 -1,-1.77 -0.57,-2.69 0.09,-0.24 0.06,-0.62 -0.34,-0.37 m 153.87,1.08 a 2.44,2.44 0 0 0 -1.26,4.37 c 0.09,1 -1.47,0.49 -1.39,1.39 0,0.24 0.22,0.33 0.82,0.28 1.38,-0.12 4.66,-1.27 4.45,-3.82 a 2.42,2.42 0 0 0 -2.62,-2.22 m -12.66,2.16 c -0.34,0.61 1.31,0.79 -0.27,3.56 l -9.92,17.35 c -1.41,2.47 -2.77,1.33 -3.13,1.94 -0.11,0.21 0,0.44 0.34,0.61 l 9.76,5.37 3.32,-3.17 c 0.16,-0.14 0.28,-0.43 0.07,-0.55 -0.39,-0.22 -3.87,1.54 -5.48,0.62 -0.88,-0.5 -1,-0.79 -0.15,-2.3 l 9.89,-17.19 c 1.58,-2.78 2.57,-1.44 2.92,-2.06 0.12,-0.2 0,-0.43 -0.33,-0.6 l -6.32,-3.58 c -0.3,-0.17 -0.57,-0.19 -0.7,0 m 8.78,10.82 c -3.16,5.26 -0.71,16.79 -2,18.94 -1.29,2.15 -2.39,2.42 -3.69,1.64 a 4,4 0 0 1 -1.58,-5.75 c 0.13,-0.21 0.24,-0.51 -0.07,-0.7 -0.14,-0.08 -0.32,0 -0.5,0.32 l -3.17,4 c -0.06,0.08 -0.42,0.44 -0.2,0.58 0.22,0.14 1.29,-0.35 1.89,0 0.6,0.35 0.93,2.12 3.3,3.55 3.47,2.09 6.66,-0.47 8,-2.61 4,-6.59 0.27,-15.45 2.54,-19.22 a 2.15,2.15 0 0 1 2.93,-0.93 c 1.51,0.92 2,3.64 1.64,5.08 -0.16,0.63 -0.68,1.77 -0.46,1.9 0.22,0.13 0.47,-0.21 0.77,-0.59 l 2.48,-3.35 c 0.23,-0.3 0.35,-0.62 0.19,-0.72 -0.41,-0.24 -0.25,0.26 -1.06,-0.23 -0.81,-0.49 -1.73,-2.92 -3.55,-4 -2.62,-1.57 -6.44,0.46 -7.4,2.06 m -140,-10.32 c -0.6,0.3 -0.76,1.24 0.26,1 0.49,-0.06 0.92,0.37 1.32,1.85 l 5.53,21.34 a 2.64,2.64 0 0 1 -0.55,2.48 c -0.14,0.16 0,0.56 0.2,0.46 0.9,-0.45 4,-2.44 4.41,-2.67 0.24,-0.11 0,-0.41 -0.31,-0.35 -1.13,0.3 -1.4,-0.29 -1.7,-1.45 l -1.09,-4.3 4,-2.11 2.5,3.08 a 1.78,1.78 0 0 1 -0.1,2.55 c -0.42,0.3 -0.11,0.79 0.31,0.58 2.57,-1.28 4.72,-2.6 7.38,-3.92 0.4,-0.2 0.12,-0.7 -0.25,-0.66 -0.74,0.07 -1,-0.12 -1.81,-1.11 l -15.51,-18.95 c -1.06,0.52 -3,1.43 -4.64,2.24 m 6.25,9.13 4.46,5.51 -3.24,1.56 -1.77,-6.82 c -0.1,-0.37 -0.29,-0.81 -0.13,-0.89 0.16,-0.08 0.57,0.5 0.68,0.64"
     id="path859" />
  <path
     class="cls-2"
     d="m 366.56572,68.357708 c -1.18,0 -1.56,-0.4 -3,-0.4 a 25.1,25.1 0 0 0 -2.73,0.39 c -0.48,0 -0.58,-0.15 -0.65,-0.31 -0.07,-0.16 0,-0.31 -0.41,-0.31 h -0.31 c -0.42,0 -0.36,0 -0.56,0.53 -0.1,0.28 -1.11,3.72 -1.24,4.12 -0.13,0.4 -0.19,0.58 0.36,0.6 h 0.34 c 0.43,0 0.3,0 0.56,-0.38 0.07,-0.11 0.25,-0.49 0.31,-0.58 0.31,-0.56 0.51,-0.94 1.07,-0.94 1.37,0 1.91,0.68 3.15,0.68 0.85,0 1.91,-0.48 1.91,0.15 0,0.63 -4.6,1.93 -4.6,5.86 a 3.91,3.91 0 0 0 3.8,3.82 3.78,3.78 0 0 0 1.11,-0.17 c 2.8,-0.83 3.44,-4.25 2.85,-4.48 -0.2,-0.08 -0.38,0.15 -0.55,0.32 -0.69,0.73 -2.16,0.69 -2.16,-1.58 0,-2.88 4,-5.32 4,-7.07 0,-0.6 -0.22,-0.91 -0.81,-0.91 -0.59,0 -0.76,0.67 -2.43,0.67 m -31.88,-0.18 v 0.87 h 0.63 c 0.79,0 1.47,0.86 1.47,2.17 v 5.78 l -7.5,-8.79 h -5.49 l 1.7,2 v 8 c 0,1.36 -0.52,2 -1.49,2 h -0.59 v 0.87 h 5.13 v -0.87 h -0.62 c -0.8,0 -1.47,-0.73 -1.47,-2 v -6.84 l 8.25,9.74 h 3 v -9.9 c 0,-1.36 0.52,-2.17 1.49,-2.17 h 0.59 v -0.87 z m 6.18,7.68 c 0,2.87 2.4,5.36 6,5.36 3.2,0 6,-2 6,-5.36 a 6,6 0 0 0 -11.92,0 m 7.9,-2.63 v 5.2 c 0,1.42 -0.75,1.81 -1.94,1.81 -1.19,0 -1.93,-0.39 -1.93,-1.81 v -5.2 c 0,-1.49 0.41,-1.91 1.93,-1.91 1.52,0 1.94,0.42 1.94,1.91 m 4.82,5.55 a 1.61,1.61 0 1 0 3.22,0 1.61,1.61 0 1 0 -3.22,0 m -18.73,-17.23 a 4,4 0 0 0 7.93,0 c 0,-2.21 -2.46,-3.32 -4,-3.32 -1.54,0 -4,1.11 -4,3.32 m 5.29,-0.93 v 1.92 c 0,1.79 -0.31,1.86 -1.32,1.86 -1.01,0 -1.33,-0.07 -1.33,-1.86 v -1.93 c 0,-1.8 0.32,-1.86 1.33,-1.86 1.01,0 1.32,0.06 1.32,1.86 m 15,-2.3 h -1.17 v 0.66 c 0,0 1.17,0 1.17,0.38 v 1.16 0 a 2.19,2.19 0 0 0 -1.7,-0.67 c -1.33,0 -3,0.79 -3,2.5 a 2.53,2.53 0 0 0 2.79,2.65 2.78,2.78 0 0 0 1.94,-0.69 v 0.55 h 2.93 v -0.44 c 0,0 -0.85,0 -0.85,-0.76 v -5.43 c -0.7,0 -1.39,0.09 -2.09,0.09 m 0,3.16 v 1.86 c 0,0.49 -0.65,1 -1.49,1 -0.44,0 -0.64,-0.19 -0.64,-0.42 v -3 c 0,-0.26 0.36,-0.38 0.76,-0.38 0.75,0 1.37,0.46 1.37,1 m -9.68,-3.16 h -1.15 v 0.66 c 0,0 1.14,0 1.14,0.76 v 3.92 c 0,0.75 -0.85,0.76 -0.85,0.76 v 0.44 h 4 v -0.44 c 0,0 -0.86,0 -0.86,-0.76 v -5.43 c -0.75,0 -1.51,0.09 -2.27,0.09 m -5.46,27 v 3.29 h 0.83 v -1.35 h 0.94 l 0.89,1.33 h 1 l -1,-1.38 a 1.29,1.29 0 0 0 0.54,-0.2 0.9,0.9 0 0 0 0.32,-0.73 1,1 0 0 0 -0.21,-0.63 1.18,1.18 0 0 0 -1,-0.35 z m 2.59,0.74 a 0.48,0.48 0 0 1 0.06,0.25 c 0,0.37 -0.32,0.39 -0.49,0.39 h -1.33 v -0.84 h 1.24 c 0.33,0 0.4,0.07 0.47,0.16 m -7.79,-0.74 v 3.29 h 2.32 a 0.93,0.93 0 0 0 1.16,-0.95 0.83,0.83 0 0 0 -0.72,-0.84 0.71,0.71 0 0 0 0.42,-0.26 0.74,0.74 0 0 0 0.13,-0.44 0.85,0.85 0 0 0 -0.13,-0.46 1.17,1.17 0 0 0 -1,-0.34 z m 2.48,0.93 a 0.35,0.35 0 0 1 -0.2,0.33 0.77,0.77 0 0 1 -0.27,0 h -1.19 v -0.68 h 1.26 c 0.13,0 0.4,0 0.4,0.36 m 0.13,1.33 c 0,0.46 -0.35,0.45 -0.54,0.45 h -1.25 v -0.84 h 1.35 c 0.12,0 0.44,0 0.44,0.39 m 18.81,-2.26 v 3.29 h 1.71 a 1.78,1.78 0 0 0 1.59,-0.61 1.73,1.73 0 0 0 0.33,-1.06 1.49,1.49 0 0 0 -1.45,-1.6 2.17,2.17 0 0 0 -0.36,0 z m 2.64,0.93 a 1.58,1.58 0 0 1 0,1.46 1,1 0 0 1 -0.86,0.32 h -0.88 v -2.14 h 1 a 0.92,0.92 0 0 1 0.85,0.35 m -5.36,-0.93 v 1.68 c 0,0.28 0,0.37 0,0.68 -0.2,-0.26 -0.24,-0.3 -0.44,-0.53 l -1.62,-1.83 h -0.83 v 3.29 h 0.79 v -1.82 a 3.38,3.38 0 0 0 0,-0.55 l 0.43,0.51 1.64,1.86 h 0.82 v -3.29 z m -6.9,0 -1.6,3.29 h 0.9 l 0.28,-0.62 h 1.7 l 0.28,0.62 h 0.93 l -1.6,-3.29 z m 0.46,0.88 0.06,0.13 0.49,1.08 h -1.16 l 0.5,-1.1 c 0,0 0,-0.08 0.05,-0.13 v -0.11 0.13 m -17.42,-36.3 h -0.11 a 13.1,13.1 0 0 1 -3.26,0.42 v 0 a 2.05,2.05 0 0 0 -2.16,-1.54 h -0.09 c -0.77,0 -1.3,0.34 -1.38,0.83 -0.08,0.49 0.22,1 1.2,1.34 a 6.49,6.49 0 0 0 1.55,0.36 1.55,1.55 0 0 1 -0.37,0.35 c -0.87,0.63 -3,1 -4.81,1 a 2.77,2.77 0 0 0 -2.86,-1.89 c -1,0 -1.75,0.4 -1.89,1 -0.14,0.6 0.34,1.21 1.22,1.61 a 7.69,7.69 0 0 0 2.84,0.55 2.77,2.77 0 0 1 -0.83,1.29 8.25,8.25 0 0 1 -4.29,1.57 4.64,4.64 0 0 0 -3.94,-2.68 c -1.56,-0.14 -2.58,0.33 -2.79,1.2 -0.21,0.87 0.46,1.78 1.67,2.37 a 9.13,9.13 0 0 0 4.67,0.75 3.73,3.73 0 0 1 -3.12,3.5 6.12,6.12 0 0 1 -1.28,0.14 8.22,8.22 0 0 1 -2.59,-0.47 c 0,-0.23 0,-0.46 -0.08,-0.71 -0.36,-2.62 -1.92,-4.15 -4,-3.91 a 3.49,3.49 0 0 0 -2.43,1.45 4.54,4.54 0 0 0 -0.51,0.86 7.77,7.77 0 0 0 -1.45,0 4.1,4.1 0 0 0 -3,1.51 5.54,5.54 0 0 0 -1,4.21 14.14,14.14 0 0 0 4.19,7.27 3.4,3.4 0 0 0 -1.05,3.8 c 0.76,2.8 4,5.86 6.69,7.38 a 2.16,2.16 0 0 0 -0.47,1.72 c 0.28,2.71 4.19,4.69 7.51,5.59 a 2,2 0 0 0 -0.38,1.26 c 0.15,2.87 5.38,4.1 8.94,4.24 -0.29,1.09 0.16,2.51 2.28,3.37 a 6.1,6.1 0 0 0 2.29,0.370002 25,25 0 0 0 5.13,-0.760002 14.3,14.3 0 0 1 2.42,-0.43 c 0.44,0 0.44,0.14 0.44,0.19 0,0.05 -0.33,0.21 -0.59,0.31 -0.75,0.28 -1.89,0.700002 -1.89,1.930002 a 1.14,1.14 0 0 0 1.28,1.08 5.81,5.81 0 0 0 3.19,-1.22 7.41,7.41 0 0 1 3.45,-1.400002 c 0.67,0.09 1.33,0.18 2,0.24 a 3.59,3.59 0 0 0 -1,0.340002 1.26,1.26 0 0 0 -0.79,1.07 c 0,0.79 1.07,1.64 3,1.64 a 22,22 0 0 0 5.81,-1.31 22.54,22.54 0 0 0 5.81,1.31 c 2,0 3,-0.85 3,-1.64 0,-0.54 -0.49,-1.14 -1.76,-1.400002 0.71,-0.07 1.39,-0.16 2.08,-0.25 a 7.41,7.41 0 0 1 3.45,1.400002 5.87,5.87 0 0 0 3.2,1.22 1.13,1.13 0 0 0 1.27,-1.08 c 0,-1.23 -1.13,-1.650002 -1.88,-1.930002 -0.26,-0.1 -0.6,-0.22 -0.59,-0.31 0.01,-0.09 0,-0.19 0.44,-0.19 a 14.22,14.22 0 0 1 2.41,0.43 25.08,25.08 0 0 0 5.14,0.760002 6.1,6.1 0 0 0 2.29,-0.370002 c 2.12,-0.86 2.57,-2.28 2.27,-3.37 3.56,-0.14 8.8,-1.37 9,-4.24 a 2.07,2.07 0 0 0 -0.38,-1.26 c 3.32,-0.9 7.23,-2.88 7.51,-5.59 a 2.13,2.13 0 0 0 -0.48,-1.72 c 2.71,-1.52 5.94,-4.58 6.7,-7.38 a 3.42,3.42 0 0 0 -1,-3.8 14.14,14.14 0 0 0 4.19,-7.27 5.58,5.58 0 0 0 -1,-4.21 4.12,4.12 0 0 0 -3,-1.51 7.88,7.88 0 0 0 -1.46,0 5.14,5.14 0 0 0 -0.51,-0.86 3.54,3.54 0 0 0 -2.44,-1.45 c -2,-0.25 -3.6,1.3 -4,3.91 0,0.25 -0.06,0.48 -0.08,0.72 a 8.39,8.39 0 0 1 -2.58,0.46 6.1,6.1 0 0 1 -1.27,-0.14 3.72,3.72 0 0 1 -3.12,-3.5 9.22,9.22 0 0 0 4.67,-0.75 c 1.2,-0.59 1.86,-1.52 1.66,-2.37 -0.2,-0.85 -1.23,-1.34 -2.79,-1.2 a 4.63,4.63 0 0 0 -3.93,2.68 8.25,8.25 0 0 1 -4.29,-1.57 2.77,2.77 0 0 1 -0.83,-1.29 7.73,7.73 0 0 0 2.84,-0.55 c 0.88,-0.4 1.34,-1 1.21,-1.61 -0.13,-0.61 -0.87,-1 -1.89,-1 a 2.77,2.77 0 0 0 -2.85,1.89 c -1.78,-0.06 -3.94,-0.39 -4.82,-1 a 1.76,1.76 0 0 1 -0.37,-0.35 6.57,6.57 0 0 0 1.56,-0.36 c 1,-0.37 1.26,-0.93 1.2,-1.34 -0.06,-0.41 -0.62,-0.8 -1.38,-0.83 h -0.09 a 2.05,2.05 0 0 0 -2.16,1.54 v 0 a 12.7,12.7 0 0 1 -3.47,-0.48 51,51 0 0 0 -34.88,0 m 34.45,0.75 0.16,0.06 a 10.4,10.4 0 0 0 3.69,0.71 h 0.18 a 2.83,2.83 0 0 0 0.49,0.82 c 1,1.25 3.51,1.74 5.38,1.79 a 4.38,4.38 0 0 0 1.14,2.23 7.31,7.31 0 0 0 4.38,2.16 c -0.09,1.73 0.94,3.91 4.07,5 a 6.41,6.41 0 0 0 2.07,0.33 8.15,8.15 0 0 0 1.48,-0.14 c 0,0.39 0,0.78 0,1.15 a 22.85,22.85 0 0 1 -0.2,3.57 c -1.58,10.86 -5.65,16 -12.6,21.79 -0.28,0.23 -0.39,0.47 -0.29,0.6 0.1,0.13 0.24,0.13 0.63,-0.17 7.94,-6.16 12.16,-12.33 13.28,-19.44 a 20.48,20.48 0 0 0 0.09,-6 c 0,-0.55 -0.11,-1.09 -0.13,-1.67 a 25,25 0 0 0 4.21,-1.62 c 0.73,-0.33 1.4,-0.63 2,-0.87 a 21.34,21.34 0 0 1 0,8 c -0.2,0.79 -0.49,1.78 -0.89,2.9 -1.34,0.1 -2,0.68 -2.06,1.26 0,0.39 0.36,0.79 1.17,0.81 h 0.1 a 40.09,40.09 0 0 1 -5.08,8.77 c -1.54,0 -2.37,0.6 -2.37,1.16 0,0.29 0.23,0.61 0.83,0.74 a 38.58,38.58 0 0 1 -5.14,4.94 3.11,3.11 0 0 0 -0.69,-0.07 c -1.37,0 -2,0.49 -2,1 0,0.26 0.19,0.51 0.57,0.69 a 41.78,41.78 0 0 1 -5.92,3.42 l -0.2,-0.07 c -1.16,-0.33 -2.19,-0.05 -2.31,0.56 a 0.67,0.67 0 0 0 0.16,0.56 67,67 0 0 1 -46.25,0 0.63,0.63 0 0 0 0.17,-0.56 c -0.12,-0.61 -1.16,-0.89 -2.31,-0.56 l -0.21,0.08 a 42.21,42.21 0 0 1 -5.92,-3.43 c 0.39,-0.17 0.58,-0.43 0.58,-0.68 0,-0.47 -0.63,-1 -2,-1 a 3.17,3.17 0 0 0 -0.69,0.07 38.58,38.58 0 0 1 -5.14,-4.94 c 0.61,-0.13 0.85,-0.45 0.85,-0.74 0,-0.56 -0.82,-1.14 -2.39,-1.16 a 40.14,40.14 0 0 1 -5.08,-8.78 h 0.12 c 0.81,0 1.17,-0.42 1.16,-0.81 0,-0.58 -0.72,-1.16 -2.07,-1.26 -0.4,-1.12 -0.69,-2.11 -0.89,-2.89 a 21.6,21.6 0 0 1 -0.05,-8 c 0.63,0.23 1.3,0.54 2,0.87 a 25,25 0 0 0 4.21,1.61 c 0,0.58 -0.08,1.13 -0.14,1.68 a 20.48,20.48 0 0 0 0.09,6 c 1.12,7.11 5.34,13.28 13.28,19.44 0.4,0.3 0.56,0.26 0.63,0.17 0.07,-0.09 0,-0.37 -0.29,-0.6 -6.94,-5.75 -11,-10.93 -12.6,-21.79 a 21.49,21.49 0 0 1 -0.19,-3.56 c 0,-0.38 0,-0.77 0,-1.16 a 8.44,8.44 0 0 0 1.49,0.14 6.47,6.47 0 0 0 2.08,-0.33 c 3.13,-1 4.15,-3.23 4.07,-5 a 7.34,7.34 0 0 0 4.38,-2.16 4.5,4.5 0 0 0 1.14,-2.23 c 1.87,0 4.37,-0.54 5.38,-1.79 a 3.07,3.07 0 0 0 0.49,-0.82 h 0.18 a 10.4,10.4 0 0 0 3.69,-0.71 1.55,1.55 0 0 0 0.34,-0.16 46.48,46.48 0 0 1 33.74,0.1 m 6.15,-1.28 c 0.4,0 0.59,0.15 0.6,0.27 0.01,0.12 -0.27,0.39 -0.83,0.52 a 8.06,8.06 0 0 1 -1.38,0.19 1.43,1.43 0 0 1 1.5,-1 z m -44.61,1 a 8.06,8.06 0 0 1 -1.38,-0.19 c -0.57,-0.13 -0.85,-0.36 -0.83,-0.52 0.02,-0.16 0.2,-0.25 0.6,-0.27 h 0.11 a 1.43,1.43 0 0 1 1.5,1 m 52.25,1.42 c 0,0.15 -0.13,0.41 -0.7,0.64 a 7.09,7.09 0 0 1 -2.44,0.33 2,2 0 0 1 2.1,-1.32 h 0.1 c 0.6,0 0.91,0.17 0.94,0.35 m -58.36,1 a 7.16,7.16 0 0 1 -2.45,-0.33 c -0.56,-0.23 -0.73,-0.48 -0.69,-0.64 0.04,-0.16 0.33,-0.35 0.93,-0.35 h 0.1 a 2.05,2.05 0 0 1 2.11,1.32 m 65.87,2.64 c 0.07,0.35 -0.33,0.78 -1,1.06 a 8.92,8.92 0 0 1 -3.77,0.5 3.82,3.82 0 0 1 3.23,-2.09 c 0.88,-0.1 1.49,0.13 1.57,0.53 m -75,-0.53 a 3.82,3.82 0 0 1 3.23,2.09 8.92,8.92 0 0 1 -3.77,-0.5 c -0.7,-0.28 -1.1,-0.71 -1,-1.06 0.1,-0.35 0.53,-0.55 1.19,-0.55 h 0.38 m 80.76,2.77 a 2.88,2.88 0 0 1 2,1.21 3.3,3.3 0 0 1 0.38,0.63 18.19,18.19 0 0 0 -4.13,1.36 c -0.5,0.22 -1,0.42 -1.49,0.61 0,-0.14 0,-0.26 0,-0.41 0.31,-2.25 1.55,-3.58 3.18,-3.4 m -85,3.4 c 0,0.15 0,0.27 0,0.41 -0.49,-0.19 -1,-0.4 -1.48,-0.61 a 18.37,18.37 0 0 0 -4.15,-1.37 4.28,4.28 0 0 1 0.38,-0.62 2.9,2.9 0 0 1 2,-1.21 c 1.63,-0.18 2.87,1.15 3.19,3.4 m 90,-0.52 a 2.08,2.08 0 0 1 1.51,0.79 c 0.44,0.54 0.9,1.6 0.62,3.59 a 15,15 0 0 1 -3.51,7.13 3.55,3.55 0 0 0 -1,-0.17 h -0.1 a 30.67,30.67 0 0 0 0.91,-3.06 19.81,19.81 0 0 0 0.07,-8.06 4,4 0 0 1 1.5,-0.22 m -96.68,0.22 a 19.9,19.9 0 0 0 0.08,8.07 28,28 0 0 0 0.9,3 h -0.08 a 3.55,3.55 0 0 0 -1,0.17 15,15 0 0 1 -3.51,-7.13 c -0.28,-2 0.18,-3 0.62,-3.59 a 2.11,2.11 0 0 1 1.51,-0.8 4.12,4.12 0 0 1 1.48,0.23 m 94.08,11.73 a 3.19,3.19 0 0 1 0.64,0.09 4.11,4.11 0 0 1 -1,0.62 c 0.09,-0.25 0.18,-0.48 0.27,-0.71 z m -91.13,0.62 c 0,0.12 -0.19,0.25 -0.65,0.26 a 2,2 0 0 1 -0.24,0 c -0.11,-0.27 -0.21,-0.54 -0.31,-0.81 0.78,0.1 1.2,0.4 1.2,0.58 m -1.48,0.08 a 4.07,4.07 0 0 1 -1,-0.61 3.4,3.4 0 0 1 0.65,-0.09 h 0.08 l 0.27,0.7 m 91.65,0.15 h -0.25 v 0 c -0.42,0 -0.61,-0.14 -0.61,-0.26 0,-0.12 0.41,-0.48 1.18,-0.57 -0.09,0.26 -0.2,0.53 -0.31,0.8 m 2.91,1.72 c -0.87,3.28 -3.85,6.51 -6.36,8 a 3.61,3.61 0 0 0 -1.34,-0.33 41.25,41.25 0 0 0 5.1,-8.87 5.29,5.29 0 0 0 1.95,-1 2,2 0 0 1 0.65,2.18 m -94.18,-1.05 a 41.67,41.67 0 0 0 5.11,8.89 3.67,3.67 0 0 0 -1.33,0.31 c -2.52,-1.52 -5.5,-4.75 -6.36,-8 a 1.94,1.94 0 0 1 0.65,-2.18 5.46,5.46 0 0 0 1.93,1 m 87.2,9.59 a 5.75,5.75 0 0 1 -1.63,0.56 l 0.57,-0.71 a 4.67,4.67 0 0 1 1.06,0.15 m -79.85,0.36 c 0,0.13 -0.21,0.26 -0.62,0.27 l -0.64,-0.78 c 0.94,0.06 1.26,0.35 1.26,0.51 m 77.6,0.26 c -0.4,0 -0.6,-0.13 -0.6,-0.26 0,-0.13 0.3,-0.44 1.24,-0.51 -0.21,0.26 -0.42,0.52 -0.64,0.77 m -78.84,-0.06 a 6.82,6.82 0 0 1 -1.62,-0.54 4,4 0 0 1 1,-0.17 l 0.57,0.71 m 82.17,0.74 c -0.24,2.16 -4,4.43 -7.33,5.48 a 3.69,3.69 0 0 0 -1,-0.55 39.89,39.89 0 0 0 5.11,-5 h 0.07 a 7,7 0 0 0 2.85,-0.79 1,1 0 0 1 0.34,0.87 m -81.67,-0.08 v 0 a 40,40 0 0 0 5.12,5 3.63,3.63 0 0 0 -1,0.55 c -3.39,-1 -7.09,-3.32 -7.34,-5.48 a 1,1 0 0 1 0.35,-0.87 7,7 0 0 0 2.85,0.79 m 72.1,5.37 -0.87,0.66 c -0.27,-0.06 -0.41,-0.17 -0.41,-0.26 0,-0.09 0.31,-0.4 1.07,-0.42 h 0.21 m -64.44,0.4 c 0,0.09 -0.14,0.2 -0.43,0.26 -0.3,-0.21 -0.58,-0.44 -0.86,-0.65 h 0.3 c 0.68,0 1,0.25 1,0.41 m 65.85,0 a 9,9 0 0 1 -1.56,0.27 l 0.78,-0.6 a 3.32,3.32 0 0 1 0.78,0.33 m -67,0.27 a 13.45,13.45 0 0 1 -1.54,-0.24 2.34,2.34 0 0 1 0.77,-0.35 l 0.77,0.59 m 0,0.61 v 0 a 4.41,4.41 0 0 0 0.68,-0.06 43.31,43.31 0 0 0 6.01,3.58 3.19,3.19 0 0 0 -0.74,0.77 c -3.36,-0.26 -8.23,-1.67 -8.34,-3.55 a 1.72,1.72 0 0 1 0.3,-1 10.4,10.4 0 0 0 2.16,0.29 m 67.83,0.73 c -0.11,1.88 -5,3.29 -8.34,3.55 a 2.72,2.72 0 0 0 -0.74,-0.77 42.58,42.58 0 0 0 5.92,-3.57 4.69,4.69 0 0 0 0.7,0.06 v 0 a 10.48,10.48 0 0 0 2.17,-0.29 1.64,1.64 0 0 1 0.29,1 m -10.55,2.88 c -0.27,0.13 -0.56,0.24 -0.83,0.36 -0.06,-0.06 -0.1,-0.11 -0.1,-0.15 0,-0.04 0.23,-0.24 0.6,-0.24 h 0.33 m -48.26,0.21 c 0,0 0,0.1 -0.09,0.16 l -0.84,-0.36 c 0.53,-0.07 0.92,0.05 0.93,0.2 m 49.69,0.51 a 9.8,9.8 0 0 1 -1.54,-0.08 l 0.87,-0.41 a 1.74,1.74 0 0 1 0.67,0.49 m -50.51,-0.08 a 9.74,9.74 0 0 1 -1.53,0.08 1.71,1.71 0 0 1 0.66,-0.49 l 0.87,0.41 m 48.25,0.42 a 7.79,7.79 0 0 0 2.61,0.35 c 0.17,0.79 -0.25,1.89 -2,2.51 a 6.7,6.7 0 0 1 -2.18,0.3 28.63,28.63 0 0 1 -4.23,-0.45 c -0.65,-0.1 -1.24,-0.19 -1.77,-0.25 a 49.52,49.52 0 0 0 7.47,-2.52 0.3,0.3 0 0 0 0.11,0.06 m -40,2.46 c -0.52,0.06 -1.11,0.15 -1.75,0.25 a 28.77,28.77 0 0 1 -4.24,0.45 6.68,6.68 0 0 1 -2.17,-0.3 c -1.76,-0.62 -2.18,-1.72 -2,-2.51 a 7.79,7.79 0 0 0 2.61,-0.35 l 0.1,-0.05 a 49.77,49.77 0 0 0 7.46,2.51 m 30.12,0.6 c 0,0.79 0.65,1.060002 1.23,1.290002 0.58,0.23 1,0.42 1,1 a 0.29,0.29 0 0 1 -0.3,0.23 8,8 0 0 1 -3.09,-1 16.91,16.91 0 0 0 -2.33,-1.000002 c 1.2,-0.18 2.34,-0.39 3.46,-0.62 a 0.29,0.29 0 0 0 0,0.09 m -24.41,0.54 a 15.17,15.17 0 0 0 -2.32,1.000002 8,8 0 0 1 -3.1,1 0.29,0.29 0 0 1 -0.29,-0.23 c 0,-0.59 0.48,-0.78 1.05,-1 0.57,-0.22 1.23,-0.500002 1.23,-1.290002 a 0.29,0.29 0 0 0 0,-0.09 c 1.12,0.23 2.26,0.45 3.45,0.63 m 9.17,1.720002 a 28.87,28.87 0 0 1 -4.66,0.91 c -1.28,0 -1.94,-0.4 -1.94,-0.78 0,-0.23 0.21,-0.45 0.58,-0.62 a 4.62,4.62 0 0 1 1.92,-0.32 18.14,18.14 0 0 1 4.1,0.81 m 9.16,0.13 c 0,0.39 -0.67,0.78 -1.94,0.78 a 30.06,30.06 0 0 1 -4.53,-0.92 18.66,18.66 0 0 1 4,-0.8 c 1.6,0 2.46,0.5 2.46,0.94 m -7.76,-0.52 c -0.75,-0.23 -1.63,-0.45 -2.55,-0.64 0.8,0 1.6,0.06 2.42,0.06 h 0.08 c 0.88,0 1.73,0 2.58,-0.06 -0.8,0.17 -1.66,0.38 -2.53,0.64 m -33.82,-26.830002 c 1.26,12.28 15.94,21.94 33.7,22 17.76,0.06 32.44,-9.69 33.7,-22 1.27,-12 -13.72,-24.1 -33.71,-24.3 -20,0.21 -35,12.27 -33.69,24.31 m 66.64,0 c -1.16,11.47 -15.57,20.48 -32.94,20.5 -17.37,0.02 -31.78,-9 -33,-20.5 -1.18,-11.24 13.49,-22.41 32.94,-22.59 19.46,0.17 34.13,11.35 33,22.59"
     id="path861" />
  <path
     class="cls-1"
     d="m 188.28572,83.697708 a 6.06,6.06 0 0 1 -2.78,0.6 l 3.77,-2.42 c -0.21,0.66 -0.23,1.38 -1,1.82 m 21,-14 -2.06,-3.94 -15,9.12 -4.48,-8.96 a 14.24,14.24 0 0 1 -1,-2.26 37.15,37.15 0 0 1 4.69,1.82 l 0.66,0.31 3.34,-2.54 -1,-1 c -0.23,-0.23 -5.87,-5.58 -10.67,-2.57 a 3.66,3.66 0 0 0 -1.68,2.41 c -0.54,2.61 1.49,5.73 1.71,6 l 4.79,9.32 -8.86,7.06 1.82,4 h 1 c 1.61,0 9.69,-0.43 11.27,-5.41 a 6.75,6.75 0 0 0 0,-3.87 l 15.18,-9.4 z m -72.25,-35.69 a 1.82,1.82 0 0 1 1.15,-1.94 5.36,5.36 0 0 1 2.69,-0.11 z m 9,-1.86 a 3.61,3.61 0 0 0 -1.57,-2.75 c -1.55,-1.13 -4.13,-1.43 -6.73,-0.77 a 6.74,6.74 0 0 0 -4.87,7.2 l -3.6,2 1.84,3.48 2.92,-1.6 c 3,4 8.28,3.2 8.35,3.19 h 0.12 c 6.61,-1.14 11.87,-8.25 14,-13.3 l -0.36,27.47 c 0,0.2 0,0.45 0,0.76 v 0.52 h 7.72 l -0.5,-39.18 18.65,2.33 0.42,-3.61 -19,-2.21 -0.43,-11.2500003 -6.45,0.58 v 0.9 c 0,1.6 -0.47,6.3800003 -0.73,9.3100003 l -19.47,-1.85 -0.21,3.12 19.46,2.54 v 0 c -1.3,11.15 -10.65,18.51 -11,18.79 -3.34,1.84 -5.52,0.93 -6.67,0 l 8.15,-5.08 z m 17.58,49.77 a 0.17,0.17 0 0 1 -0.09,-0.06 c -0.1,-0.11 -0.37,-0.67 0,-3.13 0.26,-2.07 3,-3.09 4.33,-3.46 0.12,2.82 -3.21,5.82 -4.19,6.65 m -97.34,8.12 a 3.4,3.4 0 0 1 -2.41,0.67 c 0.37,-1.81 4.51,-4.43 4.51,-4.43 a 8,8 0 0 1 -2.1,3.76 m 109.87,-47.69 -6.4,-0.35 -1.32,28.56 h -0.2 a 8.27,8.27 0 0 0 -6.12,2.71 12.58,12.58 0 0 0 -2.39,3.64 62.78,62.78 0 0 1 -4.9,4.74 30.1,30.1 0 0 1 -0.79,-4.06 c -0.61,-4 -1.19,-7.79 -3.7,-8 -2.28,-0.16 -4.26,1.65 -5.67,3.41 l -0.72,-3.73 -0.82,-0.09 c -0.5,-0.06 -2.22,-0.21 -2.66,-0.24 -0.66,0 -1,0 -6.12,8.17 l -2.45,-8.16 -3.8,1.3 0.16,1 c 0.51,3 -2.64,7.16 -4.13,8.95 a 59.46,59.46 0 0 1 -0.66,-12.19 v -0.22 l -0.08,-0.2 c -0.21,-0.56 -0.85,-2.26 -12.51,-2.81 a 16.67,16.67 0 0 0 -4.12,-4 24.09,24.09 0 0 0 -5.9,-2.64 c -0.91,-0.31 -1.84,-0.63 -2.72,-1 l -1.36,-0.1 c -2.51,0 -5.36,0 -7.81,1.19 a 18.1,18.1 0 0 0 -8.17,8.61 c -0.28,0.74 -0.56,1.54 -0.84,2.43 l -0.83,3.23 c -3.37,2.25 -7.43,5.06 -7.79,5.28 -1.93,-3.23 -4.61,-5.27 -7.47,-7.68 -0.9,-0.76 -1.82,-1.55 -2.69,-2.33 -0.24,-0.22 -0.56,-0.48 -0.93,-0.77 -1.65,-1.3 -4.14,-3.28 -3.11,-4.86 0.9,-1.37 4.16,-1.82 6.11,-2.1 l 0.85,-0.12 0.37,-0.06 -0.05,-0.37 c -0.21,-1.45 -0.48,-3.27 -0.68,-4.51 l -0.12,-0.33 h -0.34 -0.28 c -3.86,0.61 -7.74,1.52 -10,4.12 -2.62,3 -1.38,7 0.89,9.52 a 51.22,51.22 0 0 0 5.65,5.09 46.56,46.56 0 0 1 5.83,5.31 11.79,11.79 0 0 1 1.59,2.11 35.82,35.82 0 0 0 -9.39,9.35 l -0.09,0.13 0.72,3.54 0.19,0.07 a 19,19 0 0 0 6.83,1.31 7.26,7.26 0 0 0 5.15,-1.92 c 3,-3.08 3.55,-6.7 2.95,-10.48 0.42,-0.27 3,-2.12 5.23,-3.62 a 13.93,13.93 0 0 0 0.55,4.74 8.44,8.44 0 0 0 1.32,2.86 17.36,17.36 0 0 0 4.88,4 c 5.58,3.36 13.68,2.35 17.33,1 a 16,16 0 0 0 5.09,-2.79 c 3.24,-2.87 4.2,-7.49 4.85,-11.58 a 23.93,23.93 0 0 0 0.29,-8 l 6.22,0.79 c -0.28,6.9 0.94,12.74 3.06,14.6 a 2.4,2.4 0 0 0 2.1,0.64 c 1.91,-0.38 4.17,-3.87 5.86,-7 l 1.41,5.14 4.28,-0.3 4.64,-7.58 1.13,7.64 3.58,-0.06 0.26,-0.75 c 1.68,-4.9 3.43,-7.65 3.84,-8 0.46,0.33 1.12,2.78 1.18,5.59 v 0.13 c 0.79,4.58 1.54,5.49 2,5.77 l 0.11,0.06 3.4,0.37 3,-3.13 a 4.18,4.18 0 0 0 0.59,1 5.71,5.71 0 0 0 3.74,1.93 h 0.11 c 2.62,-0.11 4.85,-1.63 6.5,-4.42 l 0.61,16.82 6.78,-0.1 -1.12,-55.9 z m -87.84,-12.89 a 0.9,0.9 0 0 1 0.4,-0.13 h 0.07 a 1.18,1.18 0 0 1 0.31,0 5.28,5.28 0 0 1 0.78,0.31 16.82,16.82 0 0 1 -2.71,1.29 3.34,3.34 0 0 1 1.15,-1.51 m -19.11,16.58 c -0.29,0.09 -0.81,0.19 -1,-0.15 a 1.79,1.79 0 0 1 1,-1.85 l 4.21,-2.25 c -0.85,1.81 -2.93,3.84 -4.26,4.25 m -6.66,-21.83 c 9.53,6.52 10.92,12.53 10.92,12.53 0,0 -9.46,4.46 -10.32,8.22 a 5.11,5.11 0 0 0 3.85,5.89 6.26,6.26 0 0 0 1.61,0.18 8.81,8.81 0 0 0 6.93,-3.55 17.56,17.56 0 0 0 3.4,-8.28 c 1,-0.59 2.38,-1.22 3.73,-1.83 v 0.13 a 9.11,9.11 0 0 0 7.9,5.63 v 0 l 0.77,-0.13 6.29,-3.19 a 19.86,19.86 0 0 0 0.56,3.43 c 1,3.57 2.85,5.77 5.5,6.36 6.21,1.38 9.7,-4 9.74,-4.08 l 5.94,-10.7 0.36,15.77 5.86,-0.19 -0.23,-12 c 2.35,-5.44 4.32,-9.44 4.79,-9.74 a 3.88,3.88 0 0 1 2.43,-0.33 l 1,0.18 0.62,-5 -4.93,0.15 c -1.59,0.12 -3.09,1.66 -4.46,4.6 l -0.42,-5.71 -5.14,0.25 0.22,3.09 c -3,6.23 -8.59,17.14 -11,18.87 a 3.38,3.38 0 0 1 -3.55,0.31 5.32,5.32 0 0 1 -2.77,-4.59 c -0.15,-3.73 7,-6 7,-6 l 1,-0.32 -1.07,-3 -4.75,0.52 h -0.09 a 7.82,7.82 0 0 0 -2.9,1.44 c -0.94,0.53 -4.15,2.24 -6.79,3.64 -2.27,1.21 -3.73,2 -4.06,2.18 a 10.49,10.49 0 0 1 -3.34,-3.44 l 7.56,-3.7 v -0.79 a 5.73,5.73 0 0 0 -1.49,-4.5 6.08,6.08 0 0 0 -4.79,-1.24 c -2.59,0.22 -4.62,1.91 -5.86,4.9 a 14.74,14.74 0 0 0 -0.77,2.49 c -1.09,0.46 -2.27,1 -3.48,1.55 a 15.15,15.15 0 0 0 -2.9,-5.3 c -4.74,-6.56 -11,-10.06 -11.25,-10.62 a 3,3 0 0 1 0.85,-0.43 l 6.94,-2.55 -2.1,-4.44 c 0,0 -9.28,2.77 -10.77,5.54 a 3.5,3.5 0 0 0 -0.35,3 10.81,10.81 0 0 0 3.88,4.76"
     id="path863" />
  <path
     class="cls-1"
     d="m 162.68572,179.74771 -4.92,2.38 -9.95,-20.62 8.13,-3.92 c 3,-1.45 4.53,-1.74 6.57,-1.16 a 6.55,6.55 0 0 1 4.34,3.7 7.4,7.4 0 0 1 0.26,6.24 c -0.76,1.74 -1.86,2.69 -4.73,4.08 l -3.4,1.64 z m -2.56,-12.83 c 1.3,-0.63 1.86,-1.21 2.13,-2.14 a 3.19,3.19 0 0 0 -1.93,-3.76 3.52,3.52 0 0 0 -2.84,0.43 l -3.16,1.52 2.65,5.47 z"
     id="path865" />
  <path
     class="cls-1"
     d="m 186.85572,169.83771 -5.17,1.55 -6.56,-21.93 9.63,-2.88 c 2.83,-0.85 4.49,-0.92 6.13,-0.23 a 7,7 0 0 1 3.83,4.41 6.6,6.6 0 0 1 -0.37,4.77 6.32,6.32 0 0 1 -1.71,2 l 6.94,8.45 -5.69,1.71 -6,-7.68 -3.68,1.1 z m -3.73,-12.42 3.16,-0.95 c 1.71,-0.51 2.08,-0.69 2.59,-1.28 a 3,3 0 0 0 0.57,-2.78 2.94,2.94 0 0 0 -1.67,-1.87 c -0.81,-0.29 -1.22,-0.24 -3.29,0.38 l -3,0.91 z"
     id="path867" />
  <path
     class="cls-1"
     d="m 211.69572,145.10771 0.64,4.65 8.5,-1.16 0.58,4.25 -8.5,1.17 0.68,5 10.81,-1.48 0.62,4.49 -16.22,2.22 -3.11,-22.68 16.22,-2.22 0.59,4.32 z"
     id="path869" />
  <path
     class="cls-1"
     d="m 246.20572,145.35771 c -0.79,-2.07 -1.77,-2.74 -3.94,-2.78 -2,0 -3.13,0.71 -3.15,2 -0.02,1.29 0.79,1.93 3.25,2.45 3.42,0.78 4.82,1.25 6,2.06 a 6.4,6.4 0 0 1 2.86,5.47 7.42,7.42 0 0 1 -3.46,6 11.2,11.2 0 0 1 -6.07,1.37 10.49,10.49 0 0 1 -6.57,-2.01 7.4,7.4 0 0 1 -2.67,-4.44 l 5,-1 c 0.62,2.21 2,3.23 4.58,3.27 2.26,0 3.69,-0.86 3.71,-2.34 0.02,-1.48 -0.89,-2 -3.93,-2.67 a 15.47,15.47 0 0 1 -5.26,-1.88 5.83,5.83 0 0 1 -2.69,-5.26 6.81,6.81 0 0 1 2.42,-5.24 8.44,8.44 0 0 1 6,-1.89 9.71,9.71 0 0 1 6,1.85 7.08,7.08 0 0 1 2.47,3.68 z"
     id="path871" />
  <path
     class="cls-1"
     d="m 268.84572,145.36771 -0.79,4.64 8.46,1.42 -0.71,4.23 -8.46,-1.43 -0.83,4.94 10.76,1.82 -0.76,4.47 -16.14,-2.73 3.81,-22.56 16.14,2.75 -0.72,4.3 z"
     id="path873" />
  <path
     class="cls-1"
     d="m 302.31572,173.41771 -4.35,-1.48 -3.51,-17.54 a 6.47,6.47 0 0 1 -0.23,0.76 c -0.13,0.5 -0.21,0.84 -0.25,1 l -4.4,13 -3.93,-1.33 7.35,-21.68 5.46,1.85 3,15.28 a 14.56,14.56 0 0 1 0.38,-1.46 l 3.85,-11.35 3.94,1.34 z"
     id="path875" />
  <path
     class="cls-1"
     d="m 333.17572,168.01771 -5,-2.59 -8.43,16.31 -4.82,-2.48 8.4,-16.34 -5.07,-2.61 2.08,-4 14.92,7.7 z"
     id="path877" />
  <path
     class="cls-1"
     d="m 87.05572,417.26771 c 0,6.18 1.41,8.71 6.18,8.71 h 5.89 c 12.08,0 21.92,-5.06 31.75,-21.64 l 5.9,-9.83 c 0.85,-1.13 1.69,-2 2.81,-2 1.41,0 2,1.41 1.41,3.94 l -9,37.93 c -0.56,2 -1.41,2.81 -3.37,2.81 h -86.25 c -1.12,0 -1.4,-1.69 -0.28,-2.25 6.75,-4.21 8.43,-7 8.43,-13.49 v -170.8 c 0,-6.47 -1.68,-9.28 -8.43,-13.49 -1.12,-0.56 -0.84,-2.25 0.28,-2.25 h 52.83 c 1.12,0 1.4,1.69 0.28,2.25 -6.74,4.21 -8.43,7 -8.43,13.49 z"
     id="path879" />
  <path
     class="cls-1"
     d="m 158.12572,250.64771 c 0,-6.47 -1.68,-9.28 -8.43,-13.49 -1.12,-0.56 -0.84,-2.25 0.28,-2.25 h 52.85 c 1.12,0 1.4,1.69 0.28,2.25 -6.74,4.21 -8.43,7 -8.43,13.49 v 170.83 c 0,6.47 1.69,9.28 8.43,13.49 1.12,0.56 0.84,2.25 -0.28,2.25 h -52.83 c -1.12,0 -1.4,-1.69 -0.28,-2.25 6.75,-4.21 8.43,-7 8.43,-13.49 z"
     id="path881" />
  <path
     class="cls-1"
     d="m 282.76572,381.01771 c 0.56,3.65 3.65,3.65 4.21,0 l 24.15,-132.1 c 1.12,-5.62 -0.84,-8.15 -7,-11.8 -1.12,-0.84 -0.84,-2.25 0.28,-2.25 h 33.16 c 1.12,0 1.41,1.69 0.28,2.25 -5.34,3.37 -7,4.77 -8.15,9.83 l -34.57,173.41 c -1.12,5.9 -0.84,10.4 0.56,14.05 0.57,1.12 0.85,2.81 -0.28,2.81 h -34.28 a 2.84,2.84 0 0 1 -3.09,-2.53 l -36.24,-187.7 c -0.85,-5.06 -2.81,-6.46 -8.15,-9.83 -1.13,-0.56 -1.13,-2.25 0,-2.25 h 52.26 a 1.2,1.2 0 0 1 0.56,2.25 c -6.18,3.65 -8.15,6.18 -7,11.8 z"
     id="path883" />
  <path
     class="cls-1"
     d="m 346.61572,437.21771 c -1.12,0 -1.4,-1.69 -0.28,-2.25 6.75,-4.21 8.43,-7 8.43,-13.49 v -170.83 c 0,-6.47 -1.68,-9.28 -8.43,-13.49 -1.12,-0.56 -0.84,-2.25 0.28,-2.25 h 84 c 2,0 3.09,0.84 3.37,2.81 l 3.93,30.35 c 0.28,2.24 0,3.93 -1.4,3.93 -1.13,0 -1.69,-0.84 -2.25,-2 l -3.93,-7 c -7.59,-13.49 -17.71,-16.86 -29.23,-16.86 h -3.65 c -4.21,0 -6.18,2.53 -6.18,8.71 v 48.89 c 0,11.24 1.68,13.77 9.55,13.77 h 1.13 c 5.33,0 11.52,-2.81 14.61,-12.65 l 2.25,-7.3 c 0.84,-2.53 1.68,-5.06 3.65,-5.06 1.68,0 2.25,2.25 2.25,5.34 v 52 c 0,3.09 -0.29,5.34 -2.25,5.34 -1.96,0 -2.81,-2.53 -3.65,-5.06 l -2.53,-8.15 c -3.09,-9.83 -8.15,-12.64 -14.33,-12.64 h -1.13 c -7.87,0 -9.55,2.53 -9.55,13.77 v 74.18 c 0,6.18 1.4,8.71 6.18,8.71 h 3.67 c 12.09,0 21.64,-3.09 30.35,-16 l 4.78,-7 c 0.84,-1.13 1.68,-2 2.81,-2 1.4,0 2,1.41 1.4,3.93 l -6.46,29.51 c -0.56,2 -1.41,2.81 -3.37,2.81 z"
     id="path885" />
  <path
     class="cls-1"
     d="m 170.50572,594.24771 c -1,0 -1.47,0.24 -1.72,1.23 l -5.66,31.89 c -0.74,4.91 0.73,7.12 6.13,10.31 1,0.73 0.74,2 -0.24,2 h -28.89 c -1,0 -1.22,-1.47 -0.24,-2 4.66,-3 6.13,-4.17 7.11,-8.59 l 30.13,-151.39 c 1.23,-6.63 0,-9.57 -5.39,-12.76 -1,-0.74 -0.74,-2 0.24,-2 h 34.35 a 2.47,2.47 0 0 1 2.7,2.2 l 32.1,163.95 c 0.74,4.42 2.46,5.64 7.12,8.59 1,0.49 1,2 0,2 h -45.6 a 1.0295752,1.0295752 0 0 1 -0.49,-2 c 5.4,-3.19 7.12,-5.4 6.14,-10.31 l -5.89,-31.89 c -0.25,-1 -0.74,-1.23 -1.72,-1.23 z m 27.48,-13.25 c 1,0 1.47,-1 1.23,-2 l -11.54,-65.76 c -0.49,-3.19 -3.19,-3.19 -3.68,0 l -12,65.76 c -0.24,1 0.25,2 1.23,2 z"
     id="path887" />
  <path
     class="cls-1"
     d="m 329.12572,462.97771 c 7.6,0 10.3,-3.68 11,2.7 l 4.66,40.24 c 0.25,2 -2,2.2 -2.7,0.49 l -7.6,-14.48 c -6.14,-11.78 -11.29,-17.18 -19.88,-17.18 h -0.73 c -7.12,0 -9.08,3.68 -9.08,8.59 v 142.58 c 0,5.64 1.47,8.1 7.36,11.78 1,0.49 0.73,2 -0.25,2 h -46.08 c -1,0 -1.22,-1.47 -0.24,-2 5.89,-3.68 7.36,-6.14 7.36,-11.78 v -142.58 c 0,-4.91 -2,-8.59 -9.08,-8.59 h -0.74 c -8.58,0 -14.72,5.4 -20.36,17.18 l -6.87,14.48 c -0.74,1.71 -2.95,1.47 -2.7,-0.49 l 3.43,-40.24 c 0.5,-6.38 3.44,-2.7 11,-2.7 z"
     id="path889" />
  <path
     class="cls-1"
     d="m 82.26572,821.57771 c 0,5.4 1.23,7.6 5.4,7.6 h 5.15 c 10.55,0 19.14,-4.41 27.73,-18.89 l 5.15,-8.59 c 0.74,-1 1.47,-1.72 2.46,-1.72 1.22,0 1.71,1.23 1.22,3.44 l -7.85,33.12 c -0.49,1.72 -1.23,2.46 -2.94,2.46 h -75.33 c -1,0 -1.23,-1.47 -0.25,-2 5.89,-3.69 7.36,-6.14 7.36,-11.78 v -149.15 c 0,-5.64 -1.47,-8.09 -7.36,-11.77 -1,-0.49 -0.73,-2 0.25,-2 h 46.13 c 1,0 1.22,1.48 0.24,2 -5.89,3.68 -7.36,6.13 -7.36,11.77 z"
     id="path891" />
  <path
     class="cls-1"
     d="m 160.48572,793.60771 c -1,0 -1.48,0.24 -1.72,1.22 l -5.64,31.9 c -0.73,4.91 0.74,7.12 6.14,10.31 1,0.73 0.73,2 -0.25,2 h -29 c -1,0 -1.23,-1.47 -0.24,-2 4.66,-3 6.13,-4.18 7.11,-8.59 l 30.24,-151.39 c 1.23,-6.63 0,-9.57 -5.4,-12.76 -1,-0.74 -0.73,-2 0.25,-2 h 34.35 a 2.48,2.48 0 0 1 2.7,2.21 l 32.1,163.94 c 0.74,4.41 2.46,5.64 7.12,8.59 1,0.49 1,2 0,2 h -45.62 a 1.0295752,1.0295752 0 0 1 -0.49,-2 c 5.4,-3.19 7.11,-5.4 6.13,-10.31 l -5.89,-31.9 c -0.24,-1 -0.73,-1.22 -1.71,-1.22 z m 27.48,-13.25 c 1,0 1.47,-1 1.22,-2 l -11.53,-65.76 c -0.49,-3.19 -3.19,-3.19 -3.68,0 l -12,65.76 c -0.25,1 0.24,2 1.22,2 z"
     id="path893" />
  <path
     class="cls-1"
     d="m 247.33572,795.80771 c 0,-2.45 2.7,-2.94 3.44,-0.24 4.9,19.87 16.93,33.86 32.14,33.86 8.34,0 13.5,-5.64 13.5,-17.67 0,-6.87 -2.7,-15 -9.08,-24.53 l -31.41,-48.83 c -8.34,-12.76 -14.48,-27.24 -14.48,-41.71 0,-22.82 14,-36.81 35.34,-36.81 16.93,0 24,8.34 33.37,8.34 a 7.18,7.18 0 0 0 6.62,-3.92 c 0.74,-1.72 2.7,-1.48 2.7,0.24 l -1.72,40.49 c 0,2 -2.45,2.45 -3.19,0.24 -4.9,-15 -15.7,-33.12 -33.12,-33.12 -7.85,0 -13.5,5.89 -13.5,14 0,7.61 4.66,15.22 8.84,21.84 l 32.63,50.79 c 8.59,13 15.46,29.45 15.46,44.17 0,28 -19.14,38.52 -37,38.52 -16.69,0 -23.8,-6.38 -30.92,-6.38 -4.66,0 -7.11,2.46 -8.59,7.12 a 1.48,1.48 0 0 1 -2.94,0 z"
     id="path895" />
  <path
     class="cls-1"
     d="m 425.95572,662.32771 c 7.61,0 10.31,-3.68 11.05,2.7 l 4.66,40.24 c 0.24,2 -2,2.21 -2.7,0.49 l -7.61,-14.47 c -6.13,-11.78 -11.29,-17.18 -19.87,-17.18 h -0.74 c -7.12,0 -9.08,3.68 -9.08,8.59 v 142.56 c 0,5.64 1.47,8.09 7.36,11.78 1,0.49 0.74,2 -0.24,2 h -46.13 c -1,0 -1.23,-1.47 -0.25,-2 5.89,-3.69 7.36,-6.14 7.36,-11.78 v -142.56 c 0,-4.91 -2,-8.59 -9.07,-8.59 h -0.74 c -8.59,0 -14.72,5.4 -20.37,17.18 l -6.87,14.47 c -0.73,1.72 -2.94,1.48 -2.7,-0.49 l 3.44,-40.24 c 0.49,-6.38 3.43,-2.7 11,-2.7 z"
     id="path897" />
</svg>
