<svg xmlns="http://www.w3.org/2000/svg" viewBox="0 0 66.51 18.48"><g id="Layer_2" data-name="Layer 2"><g id="Layer_1-2" data-name="Layer 1"><path d="M10.37,15.28a.83.83,0,0,1-.51,1L3.11,18.44c-.45.13-.55-.09-.61-.38a2.56,2.56,0,0,1,.18-1.16A5.12,5.12,0,0,0,2.54,15l-.14-.65L1.19,8.8C1,8.17.83,7.24.31,6.9.2,6.82.06,6.77,0,6.56c-.1-.44.26-.69.58-.79L1,5.65l6-1.91c.51-.17,1,.09,1.1.76s.27,1.2.41,1.87c.11.5.18,1.12-.17,1.23S7.53,7,7.15,6.65a1.46,1.46,0,0,0-1.4-.21,2.62,2.62,0,0,0-1.9,1.94,2.78,2.78,0,0,0,.07.9c.06.28.15.54.21.76a4.66,4.66,0,0,0,.24-.5A3.57,3.57,0,0,1,6.5,7.63a.76.76,0,0,1,.92.2,2.28,2.28,0,0,1,.22.72c.15.68.32,1.31.47,2,.06.27,0,.69-.21.77a.32.32,0,0,1-.29-.09c-.44-.3-.83-.79-1.48-.58a1.43,1.43,0,0,0-.73.57A3,3,0,0,0,5,13.86v0a2.8,2.8,0,0,0,.31.9,1.18,1.18,0,0,0,1.4.57c.44-.14,1-.62.85-1.14a.59.59,0,0,0-.25-.38c-.2-.13-.46-.16-.54-.52s.3-.64.61-.74L9,12.09a.66.66,0,0,1,.59.08,1.06,1.06,0,0,1,.28.57Z"/><path d="M15.22,7.06a16,16,0,0,1,2.37,2.85,9,9,0,0,1,1.21,3.34v.12a1,1,0,0,1,0,.58.7.7,0,0,1-.48.37l-2,.44a1.11,1.11,0,0,1-.48,0,.58.58,0,0,1-.29-.41.86.86,0,0,1,0-.28,3.45,3.45,0,0,0,.06-1.24A5.72,5.72,0,0,0,14,10c-.11-.11-.2-.24-.31-.35s-.05.1-.08.15a4.41,4.41,0,0,0-.71,2.54,2,2,0,0,0,.56,1.28,3.19,3.19,0,0,1,.82.78.78.78,0,0,1,.08.23c0,.23,0,.58-.33.64l-2.27.5a.75.75,0,0,1-1-.66,7.72,7.72,0,0,1,.31-3.47,11.56,11.56,0,0,1,1.1-2.23c.17-.26.33-.53.49-.77-.31-.31-.61-.6-.92-.93A7.32,7.32,0,0,1,9.59,3.93c-.09-.6,0-1,.51-1.06l2.15-.47c.21,0,.39,0,.43.32s0,.53.08.83a4.37,4.37,0,0,0,.37,1.23,4.73,4.73,0,0,0,1.15,1.39l0,0a6,6,0,0,0,.63-1.47A1.69,1.69,0,0,0,15,4c-.11-.77-.77-.95-1.13-1.3a.4.4,0,0,1-.1-.23A.41.41,0,0,1,14,2l1.39-.3,1-.21c.53-.12.85,0,.94.59a1.13,1.13,0,0,1,0,.26,4.69,4.69,0,0,1-.26,1.36,10,10,0,0,1-.92,1.89C15.86,6.09,15.53,6.58,15.22,7.06Z"/><path d="M19.12,1l7.4-.84c.32,0,.39.22.4.37,0,.38-.25.59-.22.94a.88.88,0,0,0,0,.2c.14.38.45.66.62,1a4.09,4.09,0,0,1,.39,1.51c.07.89,0,2.38-.78,2.56h-.06c-.2,0-.41-.07-.61,0h0a1.42,1.42,0,0,0-.6.39A13.86,13.86,0,0,1,24,8.5a6.7,6.7,0,0,0-1.4,1,.78.78,0,0,0-.16.53c0,.11.05.21.06.33a5.4,5.4,0,0,0,.74,2.08,1.41,1.41,0,0,1,.3.7c0,.35-.26.46-.53.49L19.81,14a.36.36,0,0,1-.39-.33,1.69,1.69,0,0,1,.19-.87,2,2,0,0,0,.12-.31,4.86,4.86,0,0,0,.13-1.83l-.58-7.6A1.19,1.19,0,0,0,19,2.32l-.29-.23a.55.55,0,0,1-.22-.45C18.48,1.29,18.89,1,19.12,1Zm4.06,1.15A1.91,1.91,0,0,0,21.93,3.7a1.7,1.7,0,0,0,0,.45c.07,1,.17,2,.24,3,.11-.08.21-.17.32-.24A6.09,6.09,0,0,0,24,5.66a2.37,2.37,0,0,0,.77-1.84C24.64,2.88,24,2.07,23.18,2.16Z"/><path d="M33.67,8.58c-.38,0-.54.52-.81.67a.34.34,0,0,1-.12,0c-.19,0-.24-.19-.24-.4,0-.78-.06-1.58-.08-2.36,0-.06,0-.08,0-.1a1.57,1.57,0,0,1,.91-.32C35.58,6,36.73,8.32,36.79,11A1.82,1.82,0,0,1,35,13l-6.09.19c-.17,0-.36-.33-.37-.55a2.73,2.73,0,0,1,.36-1.05,2.23,2.23,0,0,0,.22-.72,9.93,9.93,0,0,0,0-1.1L29,3.48l0-1.35a1.23,1.23,0,0,0-.21-.8l-.28-.25a.54.54,0,0,1-.2-.46c0-.37.41-.52.65-.52L32.68,0c.42,0,.57.24.58.39l0,1.94c0,.22-.1.37-.29.38s-.49-.38-.81-.37a.65.65,0,0,0-.65.66l.17,6.42a1.37,1.37,0,0,0,1.37,1.45A1.28,1.28,0,0,0,34.3,9.56C34.29,9.08,34,8.57,33.67,8.58Z"/><path d="M46.36,1.42c0,.37-.27.48-.41.69a1.58,1.58,0,0,0-.22.77c-.16,2.64.55,3.77.35,6.93-.09,1.46-.39,4-1.88,3.86l-3.39-.32L39,13.19C37.47,13,37.44,10.44,37.52,9c.16-2.45,1.07-4.59,1.21-6.8a1.55,1.55,0,0,0-.16-.86c-.11-.19-.3-.34-.28-.64A.66.66,0,0,1,39,.05l3.31.33,2.4.22.47,0C45.7.69,46.4.79,46.36,1.42ZM41.69,11.3c.64,0,1.44-1.47,1.65-4.91s-.62-4-1.1-4-1.37.43-1.58,3.79S41.05,11.23,41.69,11.3Z"/><path d="M54,9.08a.77.77,0,0,0,.14.51,10.65,10.65,0,0,1,1,2.62A16.44,16.44,0,0,0,55.86,15a.64.64,0,0,1,.07.27.4.4,0,0,1-.14.22,1.05,1.05,0,0,1-.91.08l-2.41-.49c-.32-.07-.78-.18-.72-.59a.42.42,0,0,1,.1-.2,2.56,2.56,0,0,0,.34-1,4.56,4.56,0,0,0-.46-2.7,1.06,1.06,0,0,0-.62-.53c-.43-.08-.83.29-1.09.58a5.73,5.73,0,0,0,.22,2.8,1.49,1.49,0,0,1,.14.76c-.05.33-.23.43-.57.36l-3.08-.63a.49.49,0,0,1-.4-.59,2.75,2.75,0,0,1,.54-.95,4.47,4.47,0,0,0,.51-1.73l1-7.53a1.22,1.22,0,0,0-.08-.83c-.07-.09-.16-.2-.24-.32A.59.59,0,0,1,48,1.48c.05-.37.44-.44.72-.38L51,1.56c1.86.39,4.28.86,5.06,1a.37.37,0,0,1,.31.46c-.05.37-.37.51-.41.84-.07.52.28,1,.38,1.41a4.35,4.35,0,0,1,.06,1.58,4.14,4.14,0,0,1-.68,1.78c-.16.24-.37.5-.67.43s-.42-.21-.63-.26A.3.3,0,0,0,54,9.08ZM52.47,3.46A1.59,1.59,0,0,0,51,4.29a2.08,2.08,0,0,0-.27.83C50.59,6,50.5,7,50.37,8a1.91,1.91,0,0,1,.36-.13,5.22,5.22,0,0,0,1.67-.79,2.14,2.14,0,0,0,1.13-1.55C53.65,4.64,53.22,3.61,52.47,3.46Z"/><path d="M64.2,17.63a.66.66,0,0,1-.84.56l-6.77-2.14c-.44-.15-.43-.4-.37-.69a2,2,0,0,1,.62-.9,4.92,4.92,0,0,0,.63-1.71l.14-.65L58.8,6.5a3.76,3.76,0,0,0,0-2.18.6.6,0,0,1-.12-.47c.09-.44.5-.44.83-.34l.37.12,5.95,1.88a1,1,0,0,1,.65,1.32c-.14.67-.24,1.21-.39,1.88-.1.5-.29,1.08-.64,1s-.4-1-.58-1.49a1.82,1.82,0,0,0-1.14-1,2.11,2.11,0,0,0-2.44.56,2.47,2.47,0,0,0-.3.83c-.06.27-.09.55-.12.78.14-.07.26-.2.41-.29a2.88,2.88,0,0,1,2.62-.4,1,1,0,0,1,.73.73,2.76,2.76,0,0,1-.1.76c-.14.68-.25,1.32-.4,2-.06.27-.25.62-.5.54a.39.39,0,0,1-.21-.24c-.27-.53-.41-1.19-1.06-1.39a1.25,1.25,0,0,0-.87.05,2.52,2.52,0,0,0-1.43,2h0a3,3,0,0,0-.09,1,1.51,1.51,0,0,0,1,1.34c.44.14,1.09,0,1.21-.49a.75.75,0,0,0-.08-.48c-.12-.23-.33-.42-.26-.78s.52-.37.84-.27l1.6.54a.79.79,0,0,1,.48.42,1.14,1.14,0,0,1,0,.66Z"/></g></g></svg>