<?xml version="1.0" standalone="no"?>
<!DOCTYPE svg PUBLIC "-//W3C//DTD SVG 1.1//EN" "http://www.w3.org/Graphics/SVG/1.1/DTD/svg11.dtd" >
<svg xmlns="http://www.w3.org/2000/svg" xmlns:xlink="http://www.w3.org/1999/xlink" version="1.1">
<metadata>
Created by FontForge 20170731 at Thu Oct 14 11:36:58 2021
 By Aleksey,,,
Copyright (c) 2020 by Ivan Rosenberg. All rights reserved.
</metadata>
<defs>
<font id="OliveVillage-Regular" horiz-adv-x="0" >
  <font-face 
    font-family="Olive Village"
    font-weight="400"
    font-stretch="normal"
    units-per-em="2048"
    panose-1="0 0 5 0 0 0 0 0 0 0"
    ascent="1638"
    descent="-410"
    x-height="963"
    cap-height="1434"
    bbox="-1434 -852 3387 2142"
    underline-thickness="102"
    underline-position="-307"
    unicode-range="U+0020-2212"
  />
<missing-glyph horiz-adv-x="1105" 
d="M205 1597h702v-2211h-702v2211zM737 1376v74h-366v-74h145v-82h-147v-73h368v73h-147v82h147zM590 1010v153h-221v-229h368v76h-147zM442 1090h74v-80h-74v80zM737 801v73h-368v-73h147v-82h-147v-72h221v154h147zM737 520v221h-73v-145h-295v-76h368zM737 221v250h-221
v-123h74v51h74v-104h-222v176h-73v-250h368zM737 -162v250h-368v-250h368zM442 16h222v-104h-222v104zM737 -285v74h-368v-74h155l-155 -104v-72h368v72h-227l156 104h71z" />
    <glyph glyph-name="O_b_l.liga" unicode="Obl" horiz-adv-x="2639" 
d="M2935 1747l41 14q30 -38 45 -59.5t35 -74t20 -107.5q0 -77 -32 -150t-93 -133t-161.5 -96.5t-225.5 -36.5q-128 0 -251 27t-222 69.5t-193.5 94.5t-179.5 103.5t-164 94t-163.5 69t-163.5 25.5q-203 0 -332 -129q85 -22 159.5 -62t133.5 -95t93 -129.5t34 -157.5
q0 -75 -28 -142t-80.5 -119.5t-135.5 -83t-184 -30.5q-163 0 -251.5 94t-88.5 275q0 95 36 197.5t103 193.5q-69 -4 -120 -45.5t-80.5 -109.5t-43.5 -149t-14 -175q0 -184 36 -351.5t91.5 -279t120.5 -177t125 -65.5q200 0 200 547v10q162 31 260.5 142t98.5 268q0 4 2 5.5
t4.5 0.5t3.5 -4q51 -139 51 -305q0 -154 -59.5 -295.5t-157 -242t-227 -160.5t-264.5 -60q-136 0 -262 57t-221.5 155.5t-152.5 241t-57 304.5q0 155 57 298t152 246t224 164.5t268 61.5h35q95 97 223.5 153t280.5 56q153 0 316.5 -29.5t280 -65t260 -65t261.5 -29.5
q93 0 168.5 10.5t150 36t135 75.5t103.5 124zM2181 1004q60 0 121 -18t117.5 -56t100.5 -91.5t70.5 -130.5t26.5 -167q0 -95 -17.5 -181t-54 -160.5t-90 -129t-130 -86t-168.5 -31.5q-94 0 -166 45q-42 27 -58 27t-28 -25h-508v23q46 14 89.5 101t43.5 245l2 1054q0 12 14 4
l359 -208v-340q109 125 276 125zM1057 1020q0 130 -61 224.5t-165 131.5q-96 -151 -96 -360q0 -123 41 -204t125 -81q76 0 116 77.5t40 211.5zM2058 39q80 0 116 99.5t36 324.5q0 226 -36 326t-116 100q-25 0 -45.5 -8.5t-41 -32.5t-34.5 -63t-23 -104.5t-9 -152.5v-36
q0 -232 35 -342.5t118 -110.5z" />
    <glyph glyph-name="O_l.liga" unicode="Ol" horiz-adv-x="2064" 
d="M2935 1747l41 14q30 -38 45 -59.5t35 -74t20 -107.5q0 -77 -32 -150t-93 -133t-161.5 -96.5t-225.5 -36.5q-128 0 -251 27t-222 69.5t-193.5 94.5t-179.5 103.5t-164 94t-163.5 69t-163.5 25.5q-203 0 -332 -129q85 -22 159.5 -62t133.5 -95t93 -129.5t34 -157.5
q0 -75 -28 -142t-80.5 -119.5t-135.5 -83t-184 -30.5q-163 0 -251.5 94t-88.5 275q0 95 36 197.5t103 193.5q-69 -4 -120 -45.5t-80.5 -109.5t-43.5 -149t-14 -175q0 -184 36 -351.5t91.5 -279t120.5 -177t125 -65.5q200 0 200 547v10q162 31 260.5 142t98.5 268q0 4 2 5.5
t4.5 0.5t3.5 -4q51 -139 51 -305q0 -154 -59.5 -295.5t-157 -242t-227 -160.5t-264.5 -60q-136 0 -262 57t-221.5 155.5t-152.5 241t-57 304.5q0 155 57 298t152 246t224 164.5t268 61.5h35q95 97 223.5 153t280.5 56q153 0 316.5 -29.5t280 -65t260 -65t261.5 -29.5
q93 0 168.5 10.5t150 36t135 75.5t103.5 124zM1905 1219v-850q0 -158 43.5 -245t89.5 -101v-23h-641v23q46 14 89.5 101t43.5 245l2 1054q0 12 14 4zM1057 1020q0 130 -61 224.5t-165 131.5q-96 -151 -96 -360q0 -123 41 -204t125 -81q76 0 116 77.5t40 211.5z" />
    <glyph glyph-name="O_l_i.liga" unicode="Oli" horiz-adv-x="2742" 
d="M2935 1747l41 14q30 -38 45 -59.5t35 -74t20 -107.5q0 -77 -32 -150t-93 -133t-161.5 -96.5t-225.5 -36.5q-128 0 -251 27t-222 69.5t-193.5 94.5t-179.5 103.5t-164 94t-163.5 69t-163.5 25.5q-203 0 -332 -129q85 -22 159.5 -62t133.5 -95t93 -129.5t34 -157.5
q0 -75 -28 -142t-80.5 -119.5t-135.5 -83t-184 -30.5q-163 0 -251.5 94t-88.5 275q0 95 36 197.5t103 193.5q-69 -4 -120 -45.5t-80.5 -109.5t-43.5 -149t-14 -175q0 -184 36 -351.5t91.5 -279t120.5 -177t125 -65.5q200 0 200 547v10q162 31 260.5 142t98.5 268q0 4 2 5.5
t4.5 0.5t3.5 -4q51 -139 51 -305q0 -154 -59.5 -295.5t-157 -242t-227 -160.5t-264.5 -60q-136 0 -262 57t-221.5 155.5t-152.5 241t-57 304.5q0 155 57 298t152 246t224 164.5t268 61.5h35q95 97 223.5 153t280.5 56q153 0 316.5 -29.5t280 -65t260 -65t261.5 -29.5
q93 0 168.5 10.5t150 36t135 75.5t103.5 124zM1905 1219v-850q0 -158 43.5 -245t89.5 -101v-23h-641v23q46 14 89.5 101t43.5 245l2 1054q0 12 14 4zM1057 1020q0 130 -61 224.5t-165 131.5q-96 -151 -96 -360q0 -123 41 -204t125 -81q76 0 116 77.5t40 211.5zM2609 856
v-487q0 -158 43.5 -245t89.5 -101v-23h-639v23q46 14 89.5 101t43.5 245v86q0 122 -38 182.5t-123 89.5v27q57 10 129.5 51.5t128.5 85t113 78.5t89 35q74 0 74 -148z" />
    <glyph glyph-name="O_t_h.liga" unicode="Oth" horiz-adv-x="3387" 
d="M1360 1014q0 4 2 5.5t4.5 0.5t3.5 -4q51 -139 51 -305q0 -154 -59.5 -295.5t-157 -242t-227 -160.5t-264.5 -60q-136 0 -262 57t-221.5 155.5t-152.5 241t-57 304.5q0 155 57 298t152 246t224 164.5t268 61.5h35q95 97 223.5 153t280.5 56q120 0 243 -28t227.5 -69
t203 -83t204.5 -76.5t197 -42.5q64 195 212 314.5t283 119.5q107 0 176.5 -75t69.5 -230v-2q0 -19 -2 -25q-5 -74 -40 -142.5t-96 -124t-158 -89t-216 -33.5q-128 0 -251 27t-222 69.5t-193.5 94.5t-179.5 103.5t-164 94t-163.5 69t-163.5 25.5q-203 0 -332 -129
q85 -22 159.5 -62t133.5 -95t93 -129.5t34 -157.5q0 -75 -28 -142t-80.5 -119.5t-135.5 -83t-184 -30.5q-163 0 -251.5 94t-88.5 275q0 95 36 197.5t103 193.5q-69 -4 -120 -45.5t-80.5 -109.5t-43.5 -149t-14 -175q0 -184 36 -351.5t91.5 -279t120.5 -177t125 -65.5
q200 0 200 547v10q162 31 260.5 142t98.5 268zM2834 1749q-54 0 -89 -26.5t-51 -78.5t-21 -106.5t-4 -134.5q70 14 118 37q142 69 142 209q0 44 -28.5 72t-66.5 28zM1057 1020q0 130 -61 224.5t-165 131.5q-96 -151 -96 -360q0 -123 41 -204t125 -81q76 0 116 77.5t40 211.5
zM1997 852v-600q0 -29 3.5 -51t12.5 -40.5t14 -26.5t19.5 -25t17.5 -21v-20q-23 -49 -68 -83t-106 -34q-130 0 -199 72.5t-69 199.5v596q0 19 -1 27.5t-6.5 18t-18.5 13t-35 3.5h-74q-7 0 -7 41t7 41h2q60 0 114 23.5t100 68t82 93t75 114.5q69 -40 137 -72v-227h207
q8 0 8 -41t-8 -41h-148q-53 0 -59 -29zM3324 217q0 -176 63 -197v-20q-27 -22 -80.5 -35.5t-105.5 -13.5q-74 0 -124.5 21t-78 63t-38.5 95.5t-11 129.5q0 40 1 170t1 193q0 95 -29 157t-83 62q-63 0 -115.5 -105.5t-52.5 -244.5v-123q0 -158 43.5 -245t89.5 -101v-23h-641
v23q46 14 89.5 101t43.5 245l2 667v54q130 -31 266 -31q60 0 107 8v-279q142 211 356 211q64 0 115.5 -21t85 -55t55.5 -81t31.5 -95.5t9.5 -101.5v-428z" />
    <glyph glyph-name="T_h.liga" unicode="Th" horiz-adv-x="2856" 
d="M1368 1589v-1220q0 -158 43.5 -245t89.5 -101v-23h-667v23q46 14 89.5 101t43.5 245v411q149 133 149 348q0 87 -40 162.5t-109 126.5v266q-38 3 -76 3q-134 0 -248.5 -62.5t-183 -176t-68.5 -251.5q0 -166 76.5 -274.5t212.5 -108.5q59 0 108.5 18.5t81.5 48t54.5 67
t32.5 74t10 69.5q0 60 -32.5 106.5t-88.5 58.5q-11 3 -14.5 -3t-0.5 -17q9 -27 9 -55q0 -78 -54.5 -133.5t-130.5 -55.5q-75 0 -128.5 55.5t-53.5 133.5q0 115 75.5 190.5t184.5 75.5q141 0 239.5 -92.5t98.5 -225.5q0 -136 -65.5 -235t-175.5 -148t-250 -49
q-123 0 -228.5 37t-184 105.5t-123 173.5t-44.5 233q0 132 70.5 236.5t193 170t281 100t340.5 34.5q191 0 622.5 -60.5t608.5 -60.5q178 0 345.5 58.5t290.5 165t166 239.5l41 14q74 -94 74 -241q0 -64 -21.5 -137.5t-73.5 -153.5t-127 -144t-193.5 -105.5t-260.5 -41.5
q-119 0 -231 16.5t-216.5 48.5t-182.5 61.5t-187 75t-172 68.5zM2800 217q0 -176 63 -197v-20q-27 -22 -80.5 -35.5t-105.5 -13.5q-74 0 -124.5 21t-78 63t-38.5 95.5t-11 129.5q0 40 1 170t1 193q0 95 -29.5 157t-83.5 62q-63 0 -115.5 -105.5t-52.5 -244.5v-123
q0 -158 43.5 -245t89.5 -101v-23h-641v23q46 14 90 101t44 245l2 1011q186 -68 372 -92v-500q142 211 357 211q64 0 115.5 -21t85 -55t55.5 -81t31.5 -95.5t9.5 -101.5v-428z" />
    <glyph glyph-name="V_i.liga" unicode="Vi" horiz-adv-x="2639" 
d="M2144 1204q-162 0 -311 -366v4l-344 -842h-238l-194 492q59 106 59 237q0 128 -82 225t-209 127l-16 41q-47 116 -102 187q-138 -67 -227 -209.5t-89 -302.5q0 -166 76.5 -274.5t212.5 -108.5q73 0 131 28t90.5 71t49 89t16.5 88q0 60 -33 107t-88 59q-11 3 -14.5 -3
t-0.5 -17q9 -27 9 -56q0 -78 -54 -133t-131 -55q-75 0 -128.5 55t-53.5 133q0 115 75.5 191t184.5 76q141 0 239.5 -92.5t98.5 -225.5q0 -136 -65.5 -235t-175.5 -148t-250 -49q-123 0 -228.5 37t-184 105.5t-123 173.5t-44.5 233q0 176 122 311.5t322 206t441 70.5h411v-23
q-14 -4 -26 -17t-19.5 -39t-7.5 -61.5t11 -89t34 -117.5l256 -702l295 721q37 90 88 168.5t113 141.5t137.5 99.5t153.5 36.5q110 0 170.5 -51.5t60.5 -146.5q0 -93 -45 -151t-135 -58q-53 0 -114.5 29.5t-123.5 29.5zM2486 856v-487q0 -158 43.5 -245t89.5 -101v-23h-639
v23q46 14 90 101t44 245v86q0 122 -38.5 182.5t-123.5 89.5v27q47 9 103 38t106 64t96.5 69t88 56.5t67.5 22.5q24 0 40 -13.5t22.5 -38.5t8.5 -46t2 -50z" />
    <glyph glyph-name="W_i.liga" unicode="Wi" horiz-adv-x="3371" 
d="M2859 1204q-159 0 -301 -362l-313 -842h-232l-248 676l-274 -676h-240l-194 492q59 106 59 237q0 128 -82 225t-209 127l-16 41q-47 116 -102 187q-138 -67 -227 -209.5t-89 -302.5q0 -166 76.5 -274.5t212.5 -108.5q73 0 131 28t90.5 71t49 89t16.5 88q0 60 -33 107
t-88 59q-11 3 -14.5 -3t-0.5 -17q9 -27 9 -56q0 -78 -54 -133t-131 -55q-75 0 -128.5 55t-53.5 133q0 115 75.5 191t184.5 76q141 0 239.5 -92.5t98.5 -225.5q0 -136 -65.5 -235t-175.5 -148t-250 -49q-123 0 -228.5 37t-184 105.5t-123 173.5t-44.5 233q0 176 122 311.5
t322 206t441 70.5h411v-23q-14 -4 -26 -17t-19.5 -39t-7.5 -61.5t11 -89t34 -117.5l256 -704l148 362q5 14 7.5 27t4 22.5t0.5 22.5t-1.5 18.5t-4.5 19.5l-5 17.5t-7 20.5t-7 20l-63 174q-37 101 -84 178t-75.5 106.5t-47.5 39.5v23h766v-23q-69 -9 -103 -76t-10 -133
l238 -780l254 684q37 90 87.5 168.5t112.5 141.5t137.5 99.5t153.5 36.5q111 0 171.5 -51.5t60.5 -146.5q0 -93 -45 -151t-135 -58q-53 0 -114.5 29.5t-123.5 29.5zM3217 856v-487q0 -158 44 -245t90 -101v-23h-639v23q46 14 89.5 101t43.5 245v86q0 122 -38.5 182.5
t-123.5 89.5v27q47 9 103 38t106 64t96.5 69t88 56.5t67.5 22.5q24 0 40 -13.5t22.5 -38.5t8.5 -46t2 -50z" />
    <glyph glyph-name="f_i.liga" unicode="fi" horiz-adv-x="1441" 
d="M528 963h217q7 0 7 -41t-7 -41h-155q-42 0 -52 -13t-10 -49v-450q0 -158 44 -245t90 -101v-23h-639v23q46 14 89.5 101t43.5 245v450q0 19 -1 27.5t-7 18t-19 13t-35 3.5h-65q-7 0 -7 41t7 41h127v69q0 109 35.5 208.5t102.5 180.5t177 129.5t248 48.5q252 0 400.5 -75
t148.5 -191q0 -80 -49.5 -133t-131.5 -53q-56 0 -91 20.5t-48.5 53t-20 72t-13 78.5t-19.5 71.5t-46.5 53t-88.5 20.5q-130 0 -181 -91t-51 -276v-186zM1288 856v-487q0 -158 43.5 -245t89.5 -101v-23h-639v23q46 14 89.5 101t43.5 245v86q0 122 -38 182.5t-123 89.5v27
q57 10 129.5 51.5t128.5 85t113 78.5t89 35q74 0 74 -148z" />
    <glyph glyph-name="f_j.liga" unicode="fj" horiz-adv-x="1292" 
d="M662 23v-23h-639v23q46 14 89.5 101t43.5 245v450q0 19 -1 27.5t-7 18t-19 13t-35 3.5h-65q-7 0 -7 41t7 41h127v69q0 109 35.5 208.5t102.5 180.5t177 129.5t248 48.5q252 0 400.5 -75t148.5 -191q0 -80 -49.5 -133t-131.5 -53q-56 0 -91 20.5t-48.5 53t-20 72t-13 78.5
t-19.5 71.5t-46.5 53t-88.5 20.5q-130 0 -181 -91t-51 -276v-186h217q7 0 7 -41t-7 -41h-155q-42 0 -52 -13t-10 -49v-450q0 -158 44 -245t90 -101zM1198 1004q74 0 74 -148v-856l-2 -209q-2 -230 -152.5 -376t-388.5 -146q-134 0 -226.5 69.5t-92.5 176.5q0 57 38.5 96
t92.5 39q57 0 96 -39t39 -96q0 -25 -11 -45t-25 -30t-25 -21t-11 -21q0 -31 55 -31q109 0 174.5 91.5t65.5 260.5v736q0 122 -38.5 182.5t-123.5 89.5v27q47 9 103 38t106 64t96.5 69t88 56.5t67.5 22.5z" />
    <glyph glyph-name="k_i.liga" unicode="ki" horiz-adv-x="1912" 
d="M1159 217q0 -175 66 -197v-20q-27 -22 -81 -35.5t-106 -13.5q-74 0 -124.5 21t-78 63t-38.5 95.5t-11 129.5q0 153 -28 243.5t-88 90.5q-49 0 -78.5 -44.5t-36.5 -152.5v-28q0 -158 43.5 -245t89.5 -101v-23h-641v23q46 14 89.5 101t43.5 245l2 667q0 122 -38.5 183
t-123.5 90v26q57 10 130 51.5t129 84.5t113 77.5t89 34.5q26 0 42.5 -11.5t22.5 -36t7.5 -41t1.5 -47.5v-9v-768q64 60 172.5 175.5t200 211t193 190.5t190.5 150t153 55q110 0 171 -52t61 -147q0 -93 -45 -151t-135 -58q-58 0 -118.5 30t-99.5 30q-60 0 -129.5 -31.5
t-150 -95.5t-145 -124t-156.5 -153q70 13 147 13q85 0 154 -54.5t105 -137.5t36 -173v-131zM1759 856v-487q0 -158 43.5 -245t89.5 -101v-23h-639v23q46 14 89.5 101t43.5 245v86q0 122 -38 182.5t-123 89.5v27q47 9 103 38t106 64t96.5 69t88 56.5t67.5 22.5q24 0 40 -13.5
t22.5 -38.5t8.5 -46t2 -50z" />
    <glyph glyph-name="r_i.liga" unicode="ri" horiz-adv-x="1472" 
d="M535 575v-206q0 -158 43.5 -245t89.5 -101v-23h-639v23q46 14 89.5 101t43.5 245v86q0 122 -38.5 182.5t-123.5 89.5v27q47 9 103 38t106 64t96.5 69t88 56.5t67.5 22.5q74 0 74 -138q24 83 60.5 172.5t87.5 182t107.5 165.5t124.5 119.5t134 46.5q110 0 170.5 -51.5
t60.5 -146.5q0 -93 -45 -151t-135 -58q-58 0 -118 29.5t-99 29.5q-70 0 -155 -126.5t-139 -275t-54 -227.5zM1319 856v-487q0 -158 43.5 -245t89.5 -101v-23h-639v23q46 14 89.5 101t43.5 245v86q0 122 -38.5 182.5t-123.5 89.5v27q47 9 103 38t106 64t96.5 69t88 56.5
t67.5 22.5q74 0 74 -148z" />
    <glyph glyph-name="r_p.liga" unicode="rp" horiz-adv-x="2172" 
d="M1094 813q0 -101 -72 -172.5t-172 -71.5q-89 0 -146 65.5t-57 151.5q0 34 12 72q5 18 6 24.5t0 12.5t-9 2.5t-23 -14.5q-98 -80 -98 -232v-282q0 -158 43.5 -245t89.5 -101v-23h-639v23q46 14 89.5 101t43.5 245v86q0 122 -38.5 182.5t-123.5 89.5v27q47 9 103 38t106 64
t96.5 69t88 56.5t67.5 22.5q74 0 74 -140q25 41 49 70t61.5 60t89 47t115.5 16q100 0 172 -72t72 -172zM1706 1004q60 0 121 -18t117.5 -56t100.5 -91.5t70.5 -130.5t26.5 -167q0 -119 -28.5 -223.5t-83.5 -187t-145 -130t-204 -47.5q-93 0 -165 45q-25 16 -38 23.5
t-25.5 10.5t-17.5 -5t-5 -27v-539h-508v23q46 14 89.5 101t43.5 245l2 627q0 78 -19 137q101 88 101 219q0 34 -6 64q14 10 43.5 31t43.5 30.5t37.5 25t38 22.5t31 12.5t29.5 5.5q25 0 41 -10.5t22.5 -31t8.5 -38.5t2 -45q109 125 276 125zM1583 39q80 0 116 99.5t36 324.5
q0 226 -36 326t-116 100q-25 0 -45.5 -8.5t-41 -32.5t-34.5 -63t-23 -104.5t-9 -152.5v-36q0 -232 35 -342.5t118 -110.5z" />
    <glyph glyph-name="r_v.liga" unicode="rv" horiz-adv-x="1857" 
d="M850 1057q100 0 172 -72t72 -172q0 -101 -72 -172.5t-172 -71.5q-89 0 -146 65.5t-57 151.5q0 34 12 72q5 18 6 24.5t0 12.5t-9 2.5t-23 -14.5q-98 -80 -98 -232v-282q0 -158 43.5 -245t89.5 -101v-23h-639v23q46 14 89.5 101t43.5 245v86q0 122 -38.5 182.5t-123.5 89.5
v27q47 9 103 38t106 64t96.5 69t88 56.5t67.5 22.5q74 0 74 -140q25 41 49 70t61.5 60t89 47t115.5 16zM1980 963v-23q-51 -16 -128.5 -97t-131.5 -227l-225 -616h-258l-188 596q45 39 71.5 96.5t26.5 120.5q0 82 -43 150h375v-23q-19 -6 -33 -26.5t-22 -57.5t0 -101.5
t34 -144.5l76 -239l90 245q29 79 40 142t4.5 99.5t-19 56.5t-31.5 26v23h362z" />
    <glyph glyph-name="r_v_i.liga" unicode="rvi" horiz-adv-x="2514" 
d="M2114 1204q-83 0 -155.5 -79.5t-121.5 -192.5l-342 -932h-258l-188 596q45 39 71.5 96.5t26.5 120.5q0 82 -43 150h375v-23q-19 -6 -33 -26.5t-22 -57.5t0 -101.5t34 -144.5l76 -241l270 737q28 78 55.5 138.5t65.5 120.5t79.5 99t96 63.5t117.5 24.5q110 0 170.5 -51.5
t60.5 -146.5q0 -93 -45 -151t-135 -58q-38 0 -84 29.5t-71 29.5zM850 1057q100 0 172 -72t72 -172q0 -101 -72 -172.5t-172 -71.5q-89 0 -146 65.5t-57 151.5q0 34 12 72q5 18 6 24.5t0 12.5t-9 2.5t-23 -14.5q-98 -80 -98 -232v-282q0 -158 43.5 -245t89.5 -101v-23h-639
v23q46 14 89.5 101t43.5 245v86q0 122 -38.5 182.5t-123.5 89.5v27q47 9 103 38t106 64t96.5 69t88 56.5t67.5 22.5q74 0 74 -140q25 41 49 70t61.5 60t89 47t115.5 16zM2361 856v-487q0 -158 43.5 -245t89.5 -101v-23h-639v23q46 14 90 101t44 245v86q0 122 -38.5 182.5
t-123.5 89.5v27q47 9 103 38t106 64t96.5 69t88 56.5t67.5 22.5q24 0 40 -13.5t22.5 -38.5t8.5 -46t2 -50z" />
    <glyph glyph-name="r_w.liga" unicode="rw" horiz-adv-x="2588" 
d="M850 1057q100 0 172 -72t72 -172q0 -101 -72 -172.5t-172 -71.5q-89 0 -146 65.5t-57 151.5q0 34 12 72q5 18 6 24.5t0 12.5t-9 2.5t-23 -14.5q-98 -80 -98 -232v-282q0 -158 43.5 -245t89.5 -101v-23h-639v23q46 14 89.5 101t43.5 245v86q0 122 -38.5 182.5t-123.5 89.5
v27q47 9 103 38t106 64t96.5 69t88 56.5t67.5 22.5q74 0 74 -140q25 41 49 70t61.5 60t89 47t115.5 16zM2712 963v-23q-20 -6 -49 -26t-66.5 -56.5t-77 -100t-68.5 -141.5l-225 -616h-258l-194 612l-25 72q-20 -40 -29 -68l-225 -616h-258l-188 596q45 39 71.5 96.5
t26.5 120.5q0 82 -43 150h375v-23q-19 -6 -33 -26.5t-22 -57.5t0 -101.5t34 -144.5l76 -239l90 245q52 142 45 232q-44 72 -74 92v23h615v-23q-19 -6 -33 -26.5t-22 -57.5t0 -101.5t34 -144.5l76 -239l90 245q29 79 40 142t4.5 99.5t-19 56.5t-31.5 26v23h363z" />
    <glyph glyph-name="t_i.liga" unicode="ti" horiz-adv-x="1331" 
d="M477 993v-741q0 -29 3.5 -51t12.5 -40t14.5 -27t20 -25.5t17.5 -20.5v-20q-23 -49 -68 -83t-106 -34q-130 0 -199.5 72.5t-69.5 199.5v596q0 19 -1 27.5t-6.5 18t-18.5 13t-35 3.5h-74h-2v2q-6 6 -5.5 43t7.5 37h4q60 1 116.5 29t95 60.5t88 103.5t71.5 109t69 124
q17 30 25 45h41v-289q52 46 104 108.5t88.5 111.5t75 94t80.5 70t88 25q111 0 171.5 -51.5t60.5 -146.5q0 -93 -45 -151t-135 -58q-58 0 -118 29.5t-99 29.5q-13 0 -26.5 -3t-29 -10.5t-27 -13.5t-31 -20.5t-30 -22t-35 -26.5t-34.5 -27q-58 -49 -58 -90zM1178 856v-487
q0 -158 43.5 -245t89.5 -101v-23h-639v23q46 14 89.5 101t43.5 245v86q0 122 -38.5 182.5t-123.5 89.5v27q47 9 103 38t106 64t96.5 69t88 56.5t67.5 22.5q74 0 74 -148z" />
    <glyph glyph-name="t_t.liga" unicode="tt" horiz-adv-x="1261" 
d="M1108 963h207q7 0 7 -41t-7 -41h-148q-53 0 -59 -29v-598q0 -29 3.5 -51t12.5 -40t14.5 -27t20 -25.5t17.5 -20.5v-20q-23 -49 -68.5 -83t-106.5 -34q-130 0 -199 72.5t-69 199.5l-2 627q-6 29 -59 29h-135q-54 0 -60 -29v-600q0 -29 3.5 -51t12.5 -40t14.5 -27t20 -25.5
t17.5 -20.5v-20q-23 -49 -68 -83t-106 -34q-130 0 -199.5 72.5t-69.5 199.5v596q0 19 -1 27.5t-6.5 18t-18.5 13t-35 3.5h-74q-7 0 -7 41t7 41h2q50 0 97 17t86.5 49.5t74 70t68 89.5t59.5 97t57 102q17 31 25 46h41v-471h154q66 9 131 52.5t115 106.5t91 137t66 145.5
t33 131.5h41v-573z" />
    <glyph glyph-name="v_i.liga" unicode="vi" horiz-adv-x="1615" 
d="M1214 1204q-82 0 -154.5 -79t-121.5 -193l-342 -932h-258l-195 612q-49 148 -113.5 230t-105.5 98v23h656v-23q-19 -6 -33 -26.5t-22 -57.5t0 -101.5t34 -144.5l76 -241l270 737q28 78 55.5 138.5t65.5 120.5t79.5 99t96 63.5t117.5 24.5q110 0 170.5 -51.5t60.5 -146.5
q0 -93 -45 -151t-135 -58q-38 0 -84.5 29.5t-71.5 29.5zM1462 856v-487q0 -158 43.5 -245t89.5 -101v-23h-639v23q46 14 90 101t44 245v86q0 122 -38.5 182.5t-123.5 89.5v27q47 9 103 38t106 64t96.5 69t88 56.5t67.5 22.5q24 0 40 -13.5t22.5 -38.5t8.5 -46t2 -50z" />
    <glyph glyph-name="w_i.liga" unicode="wi" horiz-adv-x="2265" 
d="M1864 1204q-83 0 -155.5 -79.5t-121.5 -192.5l-342 -932h-258l-194 612q-4 15 -14 40t-13 36l-252 -688h-258l-195 612q-49 148 -113.5 230t-105.5 98v23h656v-23q-19 -6 -33 -26.5t-22 -57.5t0 -101.5t34 -144.5l76 -239l131 358q29 82 -20 156q-26 37 -50 55v23h615
v-23q-19 -6 -33 -26.5t-22 -57.5t0 -101.5t34 -144.5l76 -241l270 737q28 78 55.5 138.5t65.5 120.5t79.5 99t96 63.5t117.5 24.5q111 0 171.5 -51.5t60.5 -146.5q0 -93 -45.5 -151t-135.5 -58q-38 0 -84 29.5t-71 29.5zM2111 856v-487q0 -158 44 -245t90 -101v-23h-639v23
q46 14 89.5 101t43.5 245v86q0 122 -38.5 182.5t-123.5 89.5v27q47 9 103 38t106 64t96.5 69t88 56.5t67.5 22.5q24 0 40 -13.5t22.5 -38.5t8.5 -46t2 -50z" />
    <glyph glyph-name=".notdef" horiz-adv-x="1105" 
d="M205 1597h702v-2211h-702v2211zM737 1376v74h-366v-74h145v-82h-147v-73h368v73h-147v82h147zM590 1010v153h-221v-229h368v76h-147zM442 1090h74v-80h-74v80zM737 801v73h-368v-73h147v-82h-147v-72h221v154h147zM737 520v221h-73v-145h-295v-76h368zM737 221v250h-221
v-123h74v51h74v-104h-222v176h-73v-250h368zM737 -162v250h-368v-250h368zM442 16h222v-104h-222v104zM737 -285v74h-368v-74h155l-155 -104v-72h368v72h-227l156 104h71z" />
    <glyph glyph-name=".null" 
 />
    <glyph glyph-name="nonmarkingreturn" horiz-adv-x="682" 
 />
    <glyph glyph-name="space" unicode=" " horiz-adv-x="430" 
 />
    <glyph glyph-name="exclam" unicode="!" horiz-adv-x="567" 
d="M299 432h-41q-5 15 -33.5 102t-40.5 127.5t-36 134t-35 164.5t-21 172.5t-10 202.5q0 83 59 142t144 59t144 -59t56 -142q0 -120 -12 -233t-37 -217.5t-43.5 -168.5t-52 -161.5t-41.5 -122.5zM285 -47q-85 0 -144 59t-59 144q0 83 59 141.5t144 58.5t144 -58.5t56 -141.5
q0 -87 -58 -145t-142 -58z" />
    <glyph glyph-name="quotedbl" unicode="&#x22;" horiz-adv-x="712" 
d="M236 963h-74q-3 10 -18 55t-19.5 60t-15.5 52.5t-15 59t-8 52t-4 56.5q0 52 32.5 85.5t82.5 33.5q52 0 85 -33t33 -86q0 -18 -1 -36.5t-5 -39.5t-6 -36t-9 -39.5t-9.5 -35.5t-12 -39t-11.5 -35t-13 -38.5t-12 -35.5zM551 963h-74q-3 10 -18 55t-19.5 60t-15.5 52.5
t-15 59t-8 52t-4 56.5q0 52 32.5 85.5t82.5 33.5q52 0 85.5 -33.5t33.5 -85.5q0 -24 -2 -47t-8 -52t-9 -44.5t-14.5 -51.5t-14 -44t-17 -51t-15.5 -45z" />
    <glyph glyph-name="numbersign" unicode="#" horiz-adv-x="1261" 
d="M1180 811v-74h-193l-86 -260h176v-74h-200l-136 -403h-92l135 403h-405l-135 -403h-92l135 403h-205v74h229l86 260h-213v74h238l143 432h92l-143 -432h406l143 432h92l-143 -432h168zM403 477h406l86 260h-406z" />
    <glyph glyph-name="dollar" unicode="$" horiz-adv-x="1472" 
d="M1391 451q0 -136 -78.5 -244t-207.5 -169.5t-290 -78.5v-76h-74v70h-36q-89 0 -195 27t-202.5 74t-161 120.5t-64.5 155.5q0 69 50 118.5t120 49.5q72 0 120 -35.5t48 -97.5q0 -31 -19 -57t-38 -49t-19 -46q0 -38 49.5 -74.5t136.5 -60t185 -23.5h26v498q-34 17 -92 43.5
t-97.5 44.5t-92.5 47t-89 54.5t-75 62.5t-62 76t-38 90t-15 108q0 115 69 208t185.5 143.5t257.5 50.5h49v63h74v-69q221 -21 367.5 -109t146.5 -192q0 -54 -39 -93t-94 -39q-56 0 -92.5 39t-32.5 93q9 106 -48 155t-194 49h-14v-381q35 -20 89.5 -48t97 -49.5t95 -52
t92 -58.5t79.5 -66t65.5 -77t41.5 -89.5t16 -105.5zM621 1219q0 -95 120 -177v322q-54 -19 -87 -57t-33 -88zM815 514v-444q82 23 131 78t49 120q0 144 -180 246z" />
    <glyph glyph-name="percent" unicode="%" horiz-adv-x="1280" 
d="M356 860q-115 0 -194.5 89t-79.5 214q0 128 79.5 217.5t194.5 89.5q114 0 193.5 -89.5t79.5 -217.5q0 -125 -79.5 -214t-193.5 -89zM393 901q47 3 65 77t1 200q-19 126 -57.5 195t-84.5 63q-49 -7 -66 -82.5t1 -202.5q19 -128 57 -194.5t84 -55.5zM137 0l946 1434h72
l-946 -1434h-72zM926 -45q-115 0 -195 89t-80 214q0 128 80 217.5t195 89.5q114 0 193 -89.5t79 -217.5q0 -125 -79.5 -214t-192.5 -89zM963 -4q47 3 64.5 76.5t0.5 199.5q-19 126 -57 195t-84 63q-49 -7 -66 -82t0 -202q19 -127 57.5 -194t84.5 -56z" />
    <glyph glyph-name="ampersand" unicode="&#x26;" horiz-adv-x="1822" 
d="M1741 946q0 -99 -67 -194t-169.5 -163t-222.5 -108q12 -46 13.5 -96t-17.5 -101.5t-48 -99.5t-77.5 -90t-106 -73.5t-134.5 -49.5t-162 -18q-128 0 -248 32t-213.5 89t-150 142t-56.5 183q0 80 52 154t130.5 122.5t165.5 67.5q-56 20 -110.5 50.5t-108 73.5t-86.5 100
t-33 118q0 97 86.5 181t236 134t324.5 50q291 0 424 -162q63 -78 50.5 -181t-91.5 -161q-83 -58 -183 -41t-157 99q-51 76 -31 158t89 132q28 19 27 29.5t-33 17.5q-40 7 -68 7q-130 0 -227 -81.5t-97 -205.5q0 -114 50.5 -191t160.5 -129v-20q-66 -37 -121 -115t-55 -174
q0 -159 102.5 -254.5t264.5 -95.5q131 0 213 69.5t82 143.5q0 37 -25.5 61.5t-62.5 24.5q-70 0 -128 -59t-51 -140l-14 -12q-26 0 -61 10.5t-71.5 30.5t-61.5 56t-25 81q0 74 54.5 132.5t136 88t169.5 29.5q109 0 191 -31q83 12 141 80.5t58 147.5q0 39 -17.5 89.5
t-17.5 78.5q0 80 56.5 136t137.5 56q78 0 135.5 -64t57.5 -145zM1135 567l-9 2q5 0 9 -2z" />
    <glyph glyph-name="quotesingle" unicode="'" horiz-adv-x="356" 
d="M236 963h-74q-3 10 -18 55t-19.5 60t-15.5 52.5t-15 59t-8 52t-4 56.5q0 52 32.5 85.5t82.5 33.5q52 0 85 -33t33 -86q0 -18 -1 -36.5t-5 -39.5t-6 -36t-9 -39.5t-9.5 -35.5t-12 -39t-11.5 -35t-13 -38.5t-12 -35.5z" />
    <glyph glyph-name="parenleft" unicode="(" horiz-adv-x="589" 
d="M461 1597h47q-106 -232 -148.5 -464.5t-42.5 -499.5q0 -588 191 -1008h-47q-379 433 -379 1006q0 262 86.5 495.5t292.5 470.5z" />
    <glyph glyph-name="parenright" unicode=")" horiz-adv-x="589" 
d="M82 1597h47q206 -237 292.5 -470.5t86.5 -495.5q0 -573 -379 -1006h-47q190 418 190 1008q0 268 -42 500t-148 464z" />
    <glyph glyph-name="asterisk" unicode="*" horiz-adv-x="729" 
d="M643 1389q18 -58 -49 -74q-28 -9 -58.5 -13.5t-77.5 -7.5t-59 -4q10 -8 38 -30t42 -33.5t34 -30t34 -35.5q44 -53 -2 -90q-44 -36 -86 19q-19 24 -35.5 53.5t-34 69t-27.5 57.5q-9 -17 -27.5 -58.5t-34.5 -70t-34 -51.5q-42 -56 -88 -19q-44 36 -2 88q18 24 42.5 45.5
t59.5 48.5t50 39q-11 1 -39 4t-43 5t-38 6t-41.5 9.5t-35.5 12.5q-66 24 -45 78q20 53 84 29q27 -10 55 -26.5t64 -42t51 -34.5q-3 13 -11 46.5t-12 52.5t-8 46.5t-4 49.5q0 69 55 69q58 0 58 -69q0 -23 -4 -51t-8 -47.5t-12 -52t-11 -48.5q14 8 54 32t68.5 38.5t55.5 23.5
q29 10 52 1.5t30 -35.5z" />
    <glyph glyph-name="plus" unicode="+" horiz-adv-x="778" 
d="M426 672h270v-74h-270v-270h-74v270h-270v74h270v270h74v-270z" />
    <glyph glyph-name="comma" unicode="," horiz-adv-x="567" 
d="M285 356q95 0 147.5 -60t52.5 -167q0 -55 -9 -115.5t-29.5 -130t-62.5 -132t-99 -101.5l-21 20q39 38 62 77.5t30 100.5q5 42 -11.5 73.5t-59.5 31.5q-85 0 -144 59t-59 144q0 83 59 141.5t144 58.5z" />
    <glyph glyph-name="hyphen" unicode="-" horiz-adv-x="778" 
d="M82 596v74h614v-74h-614z" />
    <glyph glyph-name="period" unicode="." horiz-adv-x="567" 
d="M285 -47q-85 0 -144 59t-59 144q0 83 59 141.5t144 58.5t144 -58.5t56 -141.5q0 -87 -58 -145t-142 -58z" />
    <glyph glyph-name="slash" unicode="/" horiz-adv-x="749" 
d="M82 -47l493 1481h93l-494 -1481h-92z" />
    <glyph glyph-name="zero" unicode="0" horiz-adv-x="1310" 
d="M647 -45q-123 0 -237 58.5t-200.5 160t-138 249t-51.5 314.5q0 166 53 315.5t140.5 254t203 166t238.5 61.5q131 0 247.5 -58t202 -160.5t135.5 -252.5t50 -326q0 -128 -34.5 -248.5t-96.5 -216t-142 -167.5t-176 -111t-194 -39zM653 39q108 0 159.5 184t51.5 514
q0 360 -47.5 535.5t-161.5 175.5q-209 0 -209 -711q0 -342 49 -520t158 -178z" />
    <glyph glyph-name="one" unicode="1" horiz-adv-x="722" 
d="M510 1536q21 0 34 -13t18 -40t6 -45t1 -50v-3.5v-2.5v-1013q0 -158 43.5 -245t89.5 -101v-23h-639v23q46 14 90 101t44 245v536q0 51 -8.5 90t-19.5 63.5t-36.5 48.5t-44 36.5t-58.5 36.5q-6 4 -10 6v53q57 15 138 65t145.5 100.5t124 91t82.5 40.5z" />
    <glyph glyph-name="two" unicode="2" horiz-adv-x="1177" 
d="M293 334h844l20 -21q0 -18 -11 -64.5t-32.5 -104.5t-61.5 -101t-89 -43h-922l-21 20q0 87 41.5 183t108.5 183t147.5 176t161 174t147.5 163.5t108.5 158t41.5 146.5q0 106 -55.5 177t-149.5 71q-117 0 -180 -63q25 -8 51 -27q69 -50 89 -132.5t-31 -158.5
q-57 -82 -157 -98.5t-183 41.5q-79 58 -91.5 161t50.5 181q42 51 105 88.5t130 55.5t123.5 26t106.5 8q143 0 273.5 -61.5t211 -168t80.5 -229.5q0 -88 -31.5 -158.5t-87 -121t-124.5 -92t-152 -81t-161 -78.5t-159.5 -93.5t-140.5 -116.5z" />
    <glyph glyph-name="three" unicode="3" horiz-adv-x="1271" 
d="M872 868q168 -37 273.5 -163t105.5 -289q0 -214 -181.5 -337.5t-508.5 -123.5q-335 0 -491 195q-65 84 -46 192t105 170q89 63 196 45.5t167 -104.5q55 -82 34 -170t-96 -140q-23 -18 -63 -32q24 -36 76.5 -55t117.5 -19q130 0 210.5 97t80.5 259q0 391 -416 391v50
q75 15 135 48.5t97.5 75t62.5 92.5t35 99.5t10 97.5q0 82 -38.5 144.5t-104.5 62.5q-47 0 -84 -28.5t-56 -70.5t-27 -86t-3 -79q9 -61 -42.5 -97t-125.5 -36q-70 0 -120 49.5t-50 118.5q0 82 50.5 145t131.5 97.5t167 51.5t171 17q123 0 233.5 -46.5t178 -126t67.5 -171.5
q0 -112 -73 -204t-179 -120z" />
    <glyph glyph-name="four" unicode="4" horiz-adv-x="1241" 
d="M1176 713h45v-498h-45q-30 107 -65 147.5t-126 51.5v-45q0 -158 43.5 -245t89.5 -101v-23h-641v23q46 14 89.5 101t43.5 245v51l-501 4q-47 0 -69 20.5t-19 52t24 68.5l508 869q27 45 75.5 72.5t92.5 27.5h264v-1016q91 13 127 53t64 142zM244 506l366 4l2 727
q0 22 -9 31.5t-24.5 1.5t-31.5 -35l-375 -637q-29 -51 -12.5 -71.5t84.5 -20.5z" />
    <glyph glyph-name="five" unicode="5" horiz-adv-x="1288" 
d="M616 938q154 0 279 -39t206 -107t124 -158.5t43 -193.5q0 -218 -177 -351.5t-499 -133.5q-59 0 -117 6.5t-135.5 24.5t-148.5 60t-121 104q-65 84 -46 192t105 170q89 63 196 45.5t167 -104.5q55 -82 34 -170t-96 -140q-23 -18 -63 -32q24 -36 75.5 -55t116.5 -19
q124 0 208.5 100.5t84.5 255.5q0 89 -26 165t-76.5 134.5t-132.5 91.5t-187 33q-90 0 -174 -33l-20 21v711l20 20h809q40 0 74.5 -29.5t55.5 -70.5t36.5 -87.5t22 -79.5t6.5 -46l-21 -21h-901l-6 -196v2q-1 -20 4 -33.5t19 -21.5t28.5 -12t43 -5t51.5 -0.5t65 1.5t73 1z" />
    <glyph glyph-name="six" unicode="6" horiz-adv-x="1196" 
d="M733 932q121 0 223 -56t161 -151.5t59 -206.5q0 -256 -143 -409.5t-386 -153.5q-123 0 -237 58.5t-200.5 160t-138 249t-51.5 314.5q0 166 52.5 316t140 255t203 166.5t237.5 61.5q181 0 312 -78.5t131 -193.5q0 -92 -47.5 -146.5t-130.5 -54.5q-65 0 -111.5 45.5
t-46.5 118.5q0 36 24.5 84.5t65.5 66.5q-18 30 -66 53t-100 23q-44 0 -78.5 -16t-59 -44t-42.5 -74.5t-29 -98t-17.5 -125t-9 -145t-2.5 -167.5q58 73 125.5 110.5t161.5 37.5zM889 1386zM653 39q74 0 117 116t43 277q0 75 -6.5 138.5t-22 125.5t-46.5 97.5t-76 35.5
q-84 0 -147 -115.5t-54 -291.5q39 -383 192 -383z" />
    <glyph glyph-name="seven" unicode="7" horiz-adv-x="1177" 
d="M1137 1536l20 -20l-600 -1516h-455v20q39 144 289 519q280 426 473 663h-823l-21 21q0 13 6.5 46t22 79.5t36.5 87.5t55.5 70.5t74.5 29.5h922z" />
    <glyph glyph-name="eight" unicode="8" horiz-adv-x="1232" 
d="M901 831q143 -57 227 -165.5t84 -249.5q0 -126 -86 -234t-225 -168.5t-293 -60.5t-288.5 58.5t-217 166t-82.5 238.5t85 239t225 170q15 6 15.5 16t-17.5 19q-123 54 -198 140.5t-75 185.5t79 181t207.5 127.5t274.5 45.5q155 0 283 -43.5t203.5 -125t75.5 -185.5
q0 -94 -76.5 -180t-200.5 -140q-17 -8 -17 -17.5t17 -17.5zM616 1458q-80 0 -138 -73.5t-58 -198.5q0 -140 47 -220.5t147 -80.5q68 0 114 41t65.5 107t19.5 153q0 130 -56.5 201t-140.5 71zM608 35q91 0 148 105t57 276q0 187 -51 287t-146 100q-91 0 -143.5 -104
t-52.5 -283q0 -180 49.5 -280.5t138.5 -100.5z" />
    <glyph glyph-name="nine" unicode="9" horiz-adv-x="1196" 
d="M549 1536q123 0 237 -58.5t200.5 -160t138 -249t51.5 -314.5q0 -166 -52.5 -316t-140 -255t-203 -166.5t-237.5 -61.5q-181 0 -312 78.5t-131 193.5q0 91 48 146t131 55q65 0 111 -45.5t46 -118.5q0 -36 -24.5 -84.5t-65.5 -66.5q18 -30 66 -53t100 -23q44 0 78.5 16
t59 44t42.5 74.5t29 98t17.5 125t9 145t2.5 167.5q-58 -73 -125.5 -110.5t-161.5 -37.5q-121 0 -223 56t-161 151.5t-59 206.5q0 256 143 409.5t386 153.5zM535 662q84 0 146.5 115.5t53.5 291.5q-39 383 -192 383q-74 0 -117 -116t-43 -277q0 -58 3.5 -110t14 -106t27 -93
t44 -63.5t63.5 -24.5zM307 104z" />
    <glyph glyph-name="colon" unicode=":" horiz-adv-x="567" 
d="M285 559q-85 0 -144 59t-59 144q0 83 59 142t144 59q83 0 141.5 -59t58.5 -142q0 -87 -58 -145t-142 -58zM285 -47q-85 0 -144 59t-59 144q0 83 59 141.5t144 58.5q83 0 141.5 -58.5t58.5 -141.5q0 -87 -58 -145t-142 -58z" />
    <glyph glyph-name="semicolon" unicode=";" horiz-adv-x="575" 
d="M285 559q-85 0 -144 59t-59 144q0 83 59 142t144 59q83 0 141.5 -59t58.5 -142q0 -87 -58 -145t-142 -58zM293 356q83 0 142 -58.5t59 -141.5q0 -371 -201 -506l-21 20q40 38 63 78t30 100q5 41 -12 73t-60 32q-85 0 -144 59t-59 144q0 83 59 141.5t144 58.5z" />
    <glyph glyph-name="less" unicode="&#x3c;" horiz-adv-x="645" 
d="M82 666l455 354l26 -53l-338 -320l338 -319l-26 -54l-455 355v37z" />
    <glyph glyph-name="equal" unicode="=" horiz-adv-x="778" 
d="M82 739v74h614v-74h-614zM82 453v73h614v-73h-614z" />
    <glyph glyph-name="greater" unicode="&#x3e;" horiz-adv-x="645" 
d="M82 967l27 53l454 -354v-37l-454 -355l-27 54l338 319z" />
    <glyph glyph-name="question" unicode="?" horiz-adv-x="1257" 
d="M627 432h-41q-27 79 -27 201q0 75 37 171t81 171.5t81 164t37 150.5q0 75 -42.5 119.5t-113.5 44.5q-74 0 -125 -35.5t-51 -97.5q0 -40 30.5 -103.5t30.5 -93.5q0 -80 -58 -140t-147 -60q-100 0 -168.5 55.5t-68.5 146.5q0 123 83.5 218.5t212 143.5t273.5 48
q247 0 386 -108.5t139 -276.5q0 -73 -29.5 -136.5t-77 -110.5t-105.5 -91t-116 -85t-106.5 -83.5t-80.5 -97t-34 -115.5zM629 -47q-85 0 -144 59t-59 144q0 83 59 141.5t144 58.5t144 -58.5t56 -141.5q0 -87 -58 -145t-142 -58z" />
    <glyph glyph-name="at" unicode="@" horiz-adv-x="1771" 
d="M887 1208q217 0 402 -99t293 -269t108 -371q0 -102 -29 -204.5t-80.5 -187.5t-132.5 -138.5t-176 -53.5q-114 0 -201.5 87.5t-103.5 248.5q-105 -94 -205 -94q-124 0 -197 83.5t-73 209.5q0 133 89.5 223t231.5 90q93 0 148 -28q-5 104 -32 151t-93 47q-72 0 -120 -49.5
t-48 -99.5l-17 -6q-33 12 -54.5 34t-21.5 52q0 51 80 92t195 41q393 0 393 -381v-465q0 -71 18.5 -114.5t53.5 -43.5q52 0 85.5 150t33.5 356q0 107 -20 203t-63 179.5t-106.5 144t-155 95.5t-202.5 35q-139 0 -246.5 -53t-172.5 -145t-97.5 -208t-32.5 -251
q0 -133 41 -251.5t116.5 -209.5t191 -144.5t255.5 -53.5q112 0 229 38l25 -28q-52 -41 -136.5 -66.5t-172.5 -25.5q-164 0 -313 58.5t-256.5 157.5t-171.5 236.5t-64 288.5q0 201 108 371t293.5 269t403.5 99zM762 442q0 -99 24.5 -167t61.5 -68q33 0 82 55q12 16 19.5 32
t10.5 39t3.5 35.5t0 47t-0.5 47.5v190q-37 29 -72 29q-129 0 -129 -240z" />
    <glyph glyph-name="A" unicode="A" horiz-adv-x="1558" 
d="M827 1434l492 -1127q31 -70 67.5 -126.5t68.5 -88.5t55 -49.5t38 -22.5v-20h-704v23q18 6 30 25.5t16.5 55.5t-9 97t-45.5 139l-27 63h-551q-35 -91 -47.5 -163t-4 -114t25.5 -66t42 -31v-29h-395v20q17 5 41.5 22.5t58 49.5t70.5 88t66 125l475 1129h237zM535 1061
l-242 -576h481z" />
    <glyph glyph-name="B" unicode="B" horiz-adv-x="1409" 
d="M1126 772q146 -36 230 -135t84 -225q0 -92 -40 -165t-105 -118.5t-154 -75t-180.5 -41.5t-192.5 -12h-758v23q46 14 89.5 101t43.5 245v696q0 158 -43.5 245t-89.5 101v23h938q205 0 331 -98.5t126 -241.5q0 -117 -80.5 -208.5t-198.5 -113.5zM737 1352h-100
q-42 0 -67 -35t-25 -129v-377h192q126 0 198.5 76.5t72.5 191.5q0 112 -80 192.5t-191 80.5zM545 82h35q219 0 340.5 80t121.5 231q0 156 -96.5 251t-269.5 95h-131v-657z" />
    <glyph glyph-name="C" unicode="C" horiz-adv-x="1415" 
d="M1462 1174q0 -54 -39 -93t-94 -39q-56 0 -92.5 39t-32.5 93q9 108 -48 160t-193 52q-106 0 -192.5 -35t-147 -98t-101.5 -151.5t-60.5 -193t-19.5 -224.5q0 -112 34.5 -207.5t92 -161t132.5 -112.5t155.5 -68.5t161.5 -21.5q101 0 219 46t184 134h66q-21 -57 -77 -116.5
t-136.5 -111.5t-191.5 -85t-228 -33q-239 0 -429.5 98t-297.5 272.5t-107 393.5q0 226 103 402t286 272t416 96q132 0 251.5 -26t203 -69t133 -98.5t49.5 -113.5z" />
    <glyph glyph-name="D" unicode="D" horiz-adv-x="1554" 
d="M827 1434q162 0 297 -55t223.5 -149t137.5 -218.5t49 -263.5q0 -121 -24.5 -224t-67 -178t-101.5 -135.5t-124.5 -99t-140 -64.5t-144.5 -36.5t-141 -10.5h-781v23q46 14 89.5 101t43.5 245v696q0 158 -43.5 245t-89.5 101v23h817zM545 82h151q99 0 176 32t137 103.5
t92 196.5t32 301q0 145 -21 256.5t-68 199.5t-130 134.5t-199 46.5h-170v-1270z" />
    <glyph glyph-name="E" unicode="E" horiz-adv-x="1310" 
d="M1325 346l37 -20l-109 -326h-1243v23q46 14 89.5 101t43.5 245v696q0 158 -43.5 245t-89.5 101v23h1229l109 -326l-37 -21q-58 115 -190.5 190t-315.5 75q-149 0 -260 -17v-547q86 0 137.5 0.5t105.5 4.5t82 9t58 17t43.5 24.5t29 37t24 49.5t19.5 65h46v-497h-46
q-9 34 -15.5 56t-18.5 44t-20 35.5t-28 26.5t-33.5 19.5t-47 13t-57.5 8.5t-75.5 4t-91 2h-112.5v-613q90 -12 233 -12q185 0 333 75.5t214 188.5z" />
    <glyph glyph-name="F" unicode="F" horiz-adv-x="1296" 
d="M1239 1434l109 -326l-37 -21q-58 115 -190.5 190t-315.5 75q-149 0 -260 -17v-547q90 1 144 3.5t101 12t70.5 21t45 37.5t32.5 54.5t25 78.5h45v-497h-45q-14 52 -25 82t-33 56t-45 37.5t-71 20t-100.5 10.5t-143.5 3v-338q0 -158 43.5 -245t89.5 -101v-23h-668v23
q46 14 89.5 101t43.5 245v696q0 158 -43.5 245t-89.5 101v23h1229z" />
    <glyph glyph-name="G" unicode="G" horiz-adv-x="1548" 
d="M1620 705v-23q-46 -14 -89.5 -101t-43.5 -245v-43q-21 -57 -77 -116.5t-136.5 -111.5t-191.5 -85t-228 -33q-239 0 -429.5 98t-297.5 272.5t-107 393.5q0 226 103 402t286 272t416 96q132 0 251.5 -26t203 -69t133 -98.5t49.5 -113.5q0 -54 -39 -93t-94 -39
q-56 0 -92.5 39t-32.5 93q9 108 -48 160t-193 52q-106 0 -192.5 -35t-147 -98t-101.5 -151.5t-60.5 -193t-19.5 -224.5q0 -113 34.5 -211t93 -168.5t135.5 -121.5t163 -76t174 -25q30 0 64 6v248q0 158 -43.5 245t-89.5 101v23h647z" />
    <glyph glyph-name="H" unicode="H" horiz-adv-x="1550" 
d="M1540 1434v-23q-46 -14 -89.5 -101t-43.5 -245v-696q0 -158 43.5 -245t89.5 -101v-23h-668v23q46 14 90 101t44 245v368h-461v-368q0 -158 43.5 -245t89.5 -101v-23h-668v23q46 14 89.5 101t43.5 245v696q0 158 -43.5 245t-89.5 101v23h668v-23q-46 -14 -89.5 -101
t-43.5 -245v-254h461v254q0 158 -44 245t-90 101v23h668z" />
    <glyph glyph-name="I" unicode="I" horiz-adv-x="688" 
d="M143 369v696q0 158 -43.5 245t-89.5 101v23h668v-23q-46 -14 -89.5 -101t-43.5 -245v-696q0 -158 43.5 -245t89.5 -101v-23h-668v23q46 14 89.5 101t43.5 245z" />
    <glyph glyph-name="J" unicode="J" horiz-adv-x="1093" 
d="M279 195q0 -58 36 -109t105 -51q71 0 100 74t29 206v750q0 158 -43.5 245t-89.5 101v23h667v-23q-46 -14 -89.5 -101t-43.5 -245v-694q0 -213 -112.5 -315.5t-356.5 -102.5q-257 0 -405 104.5t-148 298.5q0 79 57 138t136 59t134.5 -52.5t55.5 -129.5q0 -34 -16 -82.5
t-16 -93.5z" />
    <glyph glyph-name="K" unicode="K" horiz-adv-x="1562" 
d="M889 856l334 -496q55 -80 112 -145.5t103 -103.5t71 -56t43 -28v-27h-751v25q16 5 26 17.5t11 37.5t-9 59.5t-37.5 86.5t-70.5 116l-174 258l-2 -2v-229q0 -158 43.5 -245t89.5 -101v-23h-668v23q46 14 89.5 101t43.5 245v696q0 158 -43.5 245t-89.5 101v23h668v-23
q-46 -14 -89.5 -101t-43.5 -245v-330l373 422q46 51 71.5 93t31.5 69.5t-1.5 47t-23 29.5t-38.5 15v23h418v-23q-181 -77 -338 -254l-108 -123q-56 -67 -56 -114q0 -34 15 -64z" />
    <glyph glyph-name="L" unicode="L" horiz-adv-x="1310" 
d="M1325 346l37 -20l-109 -326h-1243v23q46 14 89.5 101t43.5 245v696q0 158 -43.5 245t-89.5 101v23h668v-23q-46 -14 -89.5 -101t-43.5 -245v-971q90 -12 233 -12q185 0 333 75.5t214 188.5z" />
    <glyph glyph-name="M" unicode="M" horiz-adv-x="1814" 
d="M1804 1434v-23q-46 -14 -89.5 -101t-43.5 -245v-696q0 -158 43.5 -245t89.5 -101v-23h-667v23q46 14 89.5 101t43.5 245v594q0 53 -15 53q-11 0 -32 -49l-416 -1033l-522 1047q-7 13 -16.5 24t-16.5 11q-19 0 -19 -53v-594q0 -158 44 -245t90 -101v-23h-357v23
q46 14 89.5 101t43.5 245v819q1 92 -39.5 152t-83.5 71v23l506 2l443 -875l262 660q8 19 12 45q-21 64 -50.5 100t-55.5 45v23h667z" />
    <glyph glyph-name="N" unicode="N" horiz-adv-x="1372" 
d="M1362 1434v-23q-46 -14 -89.5 -101t-43.5 -245v-1065h-164l-774 993q-20 23 -37 23q-21 0 -21 -53v-594q0 -158 44 -245t90 -101v-23h-357v23q46 14 89.5 101t43.5 245v819q1 92 -39.5 152t-83.5 71v23h469l650 -832v463q0 158 -43.5 245t-89.5 101v23h356z" />
    <glyph glyph-name="O" unicode="O" horiz-adv-x="1441" 
d="M713 -47q-136 0 -262 57t-221.5 155.5t-152.5 241t-57 304.5q0 161 58.5 305.5t155 245.5t224 160t263.5 59q145 0 273.5 -56t222.5 -155t149 -244t55 -315q0 -154 -59.5 -295.5t-157 -242t-227 -160.5t-264.5 -60zM641 1386q-91 0 -152 -134t-61 -332q0 -184 36 -351.5
t91.5 -279t120.5 -177t125 -65.5q200 0 200 547q0 211 -47.5 393.5t-131 290.5t-181.5 108z" />
    <glyph glyph-name="P" unicode="P" horiz-adv-x="1359" 
d="M948 1434q208 0 346 -109t138 -262q0 -89 -36.5 -158.5t-98.5 -114t-150 -73t-183.5 -40t-207.5 -11.5h-211v-297q0 -158 43.5 -245t89.5 -101v-23h-668v23q46 14 89.5 101t43.5 245v696q0 158 -43.5 245t-89.5 101v23h938zM545 756h192q126 0 198.5 83.5t72.5 209.5
q0 122 -80.5 212.5t-190.5 90.5h-100q-43 0 -67.5 -31.5t-24.5 -124.5v-440z" />
    <glyph glyph-name="Q" unicode="Q" horiz-adv-x="1441" 
d="M856 -31q71 -26 114.5 -40t101 -26t99.5 -7t72 28l21 -20q-125 -281 -357 -281q-57 0 -118 18t-109 43.5t-104.5 49.5t-108.5 39t-118.5 9t-135.5 -38l-20 20q51 207 213 267q-173 94 -279.5 274t-106.5 406q0 161 58.5 305.5t155 245.5t224 160t263.5 59
q145 0 273.5 -56t222.5 -155t149 -244t55 -315q0 -134 -45 -259.5t-122 -221.5t-180 -164.5t-218 -96.5zM641 1386q-91 0 -152 -134t-61 -332q0 -184 36 -351.5t91.5 -279t120.5 -177t125 -65.5q200 0 200 547q0 211 -47.5 393.5t-131 290.5t-181.5 108z" />
    <glyph glyph-name="R" unicode="R" horiz-adv-x="1611" 
d="M1317 319q75 -134 156 -207.5t129 -91.5v-22l-730 -2l-2 22q23 8 33 38.5t-3 103.5t-58 174q-167 315 -297 332v-297q0 -158 43.5 -245t89.5 -101v-23h-668v23q46 14 89.5 101t43.5 245v696q0 158 -43.5 245t-89.5 101v23h938q208 0 346 -109t138 -262q0 -311 -426 -379
q-27 -6 -31.5 -16t16.5 -19q99 -35 176.5 -119.5t149.5 -210.5zM737 1352h-100q-43 0 -67.5 -31.5t-24.5 -124.5v-440h192q126 0 198.5 83.5t72.5 209.5q0 122 -80.5 212.5t-190.5 90.5z" />
    <glyph glyph-name="S" unicode="S" horiz-adv-x="1226" 
d="M-31 330q0 69 50 118.5t120 49.5q72 0 120 -35.5t48 -97.5q0 -31 -19 -57t-38 -49t-19 -46q0 -38 49.5 -74.5t136.5 -60t185 -23.5q121 0 201 63.5t80 149.5q0 59 -28 108.5t-75 86t-108 69t-129 62.5t-135.5 62t-128.5 72.5t-108 88t-75 115t-28 147.5q0 115 69 208
t185.5 143.5t257.5 50.5q132 0 251.5 -26t203 -69t133 -98.5t49.5 -113.5q0 -54 -39.5 -93t-94.5 -39q-56 0 -92.5 39t-32.5 93q9 107 -47.5 155.5t-193.5 48.5q-85 0 -147 -45t-62 -114q0 -57 42.5 -107t110.5 -90t150 -80.5t164 -87.5t150 -101.5t110.5 -132t42.5 -169.5
q0 -114 -55.5 -209t-150 -157.5t-218.5 -97t-262 -34.5q-89 0 -195 27t-202.5 74t-161 120.5t-64.5 155.5z" />
    <glyph glyph-name="T" unicode="T" horiz-adv-x="1353" 
d="M1325 1434l61 -347l-34 -16q-51 116 -172.5 183.5t-300.5 76.5v-962q0 -158 43.5 -245t89.5 -101v-23h-668v23q46 14 89.5 101t43.5 245v962q-179 -9 -300.5 -76.5t-172.5 -183.5l-35 16l62 347h1294z" />
    <glyph glyph-name="U" unicode="U" horiz-adv-x="1472" 
d="M1106 1434h356v-23q-46 -14 -89.5 -101t-43.5 -245l2 -569q1 -286 -151 -414.5t-443 -128.5q-279 0 -438 133t-158 410l2 569q0 158 -43.5 245t-89.5 101v23h668v-23q-46 -14 -89.5 -101t-43.5 -245v-514q0 -56 0.5 -93t3 -82.5t7 -75.5t12 -65t18.5 -57t27 -46t37 -37.5
t48 -25.5t61 -17t75 -5q219 0 312 124.5t93 399.5v494q0 158 -43.5 245t-89.5 101v23z" />
    <glyph glyph-name="V" unicode="V" horiz-adv-x="1626" 
d="M1595 1434v-21q-17 -5 -41.5 -22.5t-57 -49.5t-68.5 -88.5t-64 -126.5l-459 -1126h-237l-443 1122q-52 131 -115 204t-100 87v21h703v-23q-14 -4 -26 -17t-19.5 -39t-7.5 -61.5t11 -89t34 -117.5l256 -702l245 604q42 102 57.5 182.5t7 127.5t-26.5 73t-44 33v29h395z
" />
    <glyph glyph-name="W" unicode="W" horiz-adv-x="2283" 
d="M2273 1434v-21q-16 -5 -40 -23t-55 -51t-64 -90.5t-58 -128.5l-391 -1120h-238l-247 676l-275 -676h-237l-443 1122q-52 131 -115 204t-100 87v21h703v-23q-14 -4 -26 -17t-19.5 -39t-7.5 -61.5t11 -89t34 -117.5l256 -702l145 360q4 12 7 23t4 22.5t2 18.5t-1 19t-2 16
t-4.5 17.5t-5 15.5t-6 18t-6.5 18l-64 174q-37 101 -84 178t-75.5 106.5t-47.5 39.5v23h766v-23q-69 -9 -102.5 -76t-9.5 -133l235 -776l195 555q36 103 47.5 185.5t0 130t-31 74.5t-45.5 34v29h395z" />
    <glyph glyph-name="X" unicode="X" horiz-adv-x="1474" 
d="M930 838l297 -519q116 -202 237 -296v-23h-647v23q22 8 27.5 36t-16.5 95t-78 163l-166 279l-187 -287q-37 -57 -59.5 -104.5t-30 -78.5t-4.5 -53.5t13 -34t26 -15.5v-23h-330v23q25 13 57 35.5t99 91.5t125 159l242 373l-259 434q-41 71 -86.5 129t-82.5 91.5t-59.5 50
t-37.5 24.5v23h709v-23q-25 -8 -34 -36t10 -96t75 -165l111 -192l131 202q37 57 60.5 104.5t32 78.5t7.5 54t-10 34.5t-23 15.5v23h369v-23q-22 -7 -53.5 -24t-79 -49t-101 -88.5t-98.5 -125.5z" />
    <glyph glyph-name="Y" unicode="Y" horiz-adv-x="1521" 
d="M1511 1434v-23q-21 -7 -52 -24.5t-76 -50.5t-95 -91.5t-92 -130.5l-190 -332q-54 -106 -54 -221v-192q0 -158 43.5 -245t89.5 -101v-23h-667v23q46 14 89.5 101t43.5 245v90q0 110 -51 217l-244 436q-41 72 -83.5 130.5t-76 92.5t-53.5 51t-33 25v23h662v-23
q-25 -8 -34 -36t10.5 -95.5t76.5 -163.5l188 -323l181 319q55 97 73.5 165.5t9.5 97t-34 36.5v23h368z" />
    <glyph glyph-name="Z" unicode="Z" horiz-adv-x="1253" 
d="M459 102h286q348 0 463 260l35 -16l-61 -346h-1213v102l719 1229h-215q-348 0 -463 -260l-35 16l62 347h1206z" />
    <glyph glyph-name="bracketleft" unicode="[" horiz-adv-x="665" 
d="M82 1597h502v-53q-35 0 -57 -0.5t-62.5 -3t-67 -9.5t-54.5 -17.5t-42 -29t-14 -42.5v-1657q0 -24 14 -42.5t42 -29t54.5 -17.5t67 -9.5t62.5 -3t57 -0.5v-54h-502v1968z" />
    <glyph glyph-name="backslash" unicode="\" horiz-adv-x="749" 
d="M82 1434h92l494 -1485h-93z" />
    <glyph glyph-name="bracketright" unicode="]" horiz-adv-x="665" 
d="M82 1544v53h502v-1968h-502v54q35 0 57 0.5t62.5 3t67 9.5t54.5 17.5t42 29t14 42.5v1657q0 24 -14 42.5t-42 29t-54.5 17.5t-67 9.5t-62.5 3t-57 0.5z" />
    <glyph glyph-name="asciicircum" unicode="^" horiz-adv-x="634" 
d="M336 1434l217 -455l-53 -27l-183 318l-182 -318l-53 27l217 455h37z" />
    <glyph glyph-name="underscore" unicode="_" horiz-adv-x="1095" 
d="M82 -74v74h932v-74h-932z" />
    <glyph glyph-name="a" unicode="a" horiz-adv-x="1095" 
d="M1028 252q0 -28 4 -50.5t13 -40.5t14.5 -27.5t19.5 -25.5t17 -20v-20q-23 -49 -68 -83t-106 -34q-74 0 -132 29t-94 73q-19 20 -35 21.5t-38 -13.5q-126 -110 -248 -110q-159 0 -267 106.5t-108 259.5q0 164 128 279t310 115q131 0 213 -49q-10 129 -52 194.5t-132 65.5
q-86 0 -141.5 -57t-55.5 -126l-47 -18q-71 27 -71 98q0 80 99.5 132.5t233.5 52.5q268 0 405.5 -130t137.5 -348v-274zM375 346q0 -122 31 -199t77 -77q36 0 84 45q55 58 70.5 127t15.5 194v127q-54 41 -116 41q-80 0 -121 -61.5t-41 -196.5z" />
    <glyph glyph-name="b" unicode="b" horiz-adv-x="1280" 
d="M823 1004q60 0 121 -18t118 -56t101 -91.5t70.5 -130.5t26.5 -167q0 -119 -28.5 -223.5t-83.5 -187t-145 -130t-204 -47.5q-94 0 -166 45q-42 27 -58 27t-28 -25h-508v23q46 14 89.5 101t43.5 245l2 667q0 122 -38.5 183t-123.5 90v26q57 10 130 51.5t129 84.5t113 77.5
t89 34.5q26 0 42.5 -11.5t22.5 -36t7.5 -41t1.5 -47.5v-9v-559q109 125 276 125zM700 39q80 0 116 99.5t36 324.5q0 226 -36 326t-116 100q-25 0 -45.5 -8.5t-41 -32.5t-34.5 -63t-23 -104.5t-9 -152.5v-36q0 -232 35 -342.5t118 -110.5z" />
    <glyph glyph-name="c" unicode="c" horiz-adv-x="999" 
d="M782 231h197q-20 -52 -56 -98.5t-91.5 -88t-137 -66.5t-178.5 -25q-146 0 -267 70t-190 190t-69 264t69 265t190 191.5t267 70.5q116 0 214 -35.5t158 -103t60 -152.5q0 -54 -39 -92.5t-94 -38.5q-56 0 -92.5 38.5t-32.5 92.5q0 58 -8 98.5t-19 62t-31.5 32.5t-37 13.5
t-43.5 2.5q-83 0 -131.5 -117.5t-48.5 -327.5q0 -201 71 -311.5t172 -110.5q50 0 102 47t66 129z" />
    <glyph glyph-name="d" unicode="d" horiz-adv-x="1259" 
d="M1106 1438v-1069q0 -158 43.5 -245t89.5 -101v-23h-508q-12 25 -27 25t-57 -27q-72 -45 -166 -45q-114 0 -204 47.5t-145 130t-83.5 187t-28.5 223.5q0 90 26.5 167t70.5 130.5t101 91.5t118 56t121 18q167 0 276 -125v157q0 122 -38.5 183t-123.5 90v26q57 10 130 51.5
t129 84.5t113 77.5t89 34.5q26 0 42.5 -11.5t22.5 -36t7.5 -41t1.5 -47.5v-9zM428 463q0 -225 36 -324.5t116 -99.5q75 0 110.5 90t40.5 277l2 176q-4 92 -17.5 155.5t-36 95t-46 44t-53.5 12.5q-80 0 -116 -100t-36 -326z" />
    <glyph glyph-name="e" unicode="e" horiz-adv-x="1005" 
d="M813 231h197q-41 -108 -157 -193t-265 -85q-124 0 -231 41t-180.5 111.5t-115 167t-41.5 204.5q0 107 41 204.5t111 168.5t168 112.5t207 41.5q402 0 473 -433q8 -57 -26.5 -92t-129.5 -35q-88 -2 -158 -8.5t-130.5 -20t-97.5 -35.5t-54.5 -52.5t-6.5 -73.5t52 -96
q61 -79 130 -97t126.5 27.5t87.5 142.5zM532 922q-71 0 -101 -111.5t-30 -333.5v-16q53 24 108.5 42.5t81 25.5t49 23.5t31 44.5t7.5 81q0 244 -146 244z" />
    <glyph glyph-name="f" unicode="f" horiz-adv-x="825" 
d="M684 1599q134 0 209.5 -61t75.5 -170q0 -57 -38.5 -96t-92.5 -39q-57 0 -96.5 39t-39.5 96q0 25 11 45t25 30t25 21t11 21q0 31 -55 31q-102 0 -146.5 -93t-44.5 -274v-186h217q7 0 7 -41t-7 -41h-155q-42 0 -52 -13t-10 -49v-450q0 -158 44 -245t90 -101v-23h-639v23
q46 14 89.5 101t43.5 245v450q0 19 -1 27.5t-7 18t-19 13t-35 3.5h-65q-7 0 -7 41t7 41h127v69q0 108 33.5 208t97 181t166.5 129.5t231 48.5z" />
    <glyph glyph-name="g" unicode="g" horiz-adv-x="1202" 
d="M768 0q201 0 312.5 -101t111.5 -259q0 -121 -49 -214.5t-134.5 -150.5t-194.5 -86t-236 -29q-191 0 -306.5 101.5t-115.5 267.5q0 77 45.5 147.5t113.5 108.5q-65 7 -115 46.5t-50 98.5q0 30 17 62t38 54t39.5 47.5t22.5 42.5t-13 38q-91 65 -142 158.5t-51 199.5
q0 128 72.5 236.5t199.5 172t279 63.5q58 0 142 -15q122 185 282 185q65 0 104.5 -37.5t39.5 -104.5q0 -50 -31 -83.5t-70 -33.5t-66.5 27.5t-27.5 67.5q0 17 8 31t17.5 21t17.5 14.5t8 13.5q0 24 -41 24q-23 0 -52 -20.5t-50 -48t-21 -59.5t31 -52q119 -64 188.5 -170
t69.5 -232q0 -96 -42.5 -182.5t-115.5 -149.5t-175 -100t-216 -37q-73 0 -145.5 -11t-127 -36t-54.5 -59q0 -31 22.5 -38t68.5 5t100.5 29t135.5 32t156 15zM612 922q-80 0 -126 -101.5t-46 -288.5q0 -188 46 -290.5t126 -102.5q79 0 124.5 102.5t45.5 290.5
q0 187 -45.5 288.5t-124.5 101.5zM549 -758q137 0 208.5 80.5t71.5 210.5q0 121 -72 188.5t-190 67.5h-20q65 -39 65 -121q0 -75 -48 -123.5t-118 -48.5q-42 0 -75 16t-49 39q-23 -36 -23 -102q0 -89 80 -148t170 -59z" />
    <glyph glyph-name="h" unicode="h" horiz-adv-x="1263" 
d="M1200 217q0 -67 14.5 -126t49.5 -71v-20q-27 -22 -81 -35.5t-106 -13.5q-74 0 -124.5 21t-78 63t-38.5 95.5t-11 129.5q0 40 1 170t1 193q0 95 -29 157t-83 62q-63 0 -115.5 -105.5t-52.5 -244.5v-123q0 -158 43.5 -245t89.5 -101v-23h-641v23q46 14 89.5 101t43.5 245
l2 667q0 122 -38.5 183t-123.5 90v26q57 10 130 51.5t129 84.5t113 77.5t89 34.5q26 0 42.5 -11.5t22.5 -36t7.5 -41t1.5 -47.5v-9v-650q142 211 356 211q64 0 115.5 -21t85 -55t55.5 -81t31.5 -95.5t9.5 -101.5v-428z" />
    <glyph glyph-name="i" unicode="i" horiz-adv-x="688" 
d="M348 1040q-85 0 -144 59t-59 144q0 83 59 142t144 59q83 0 142 -59t59 -142q0 -87 -58.5 -145t-142.5 -58zM461 1004q74 0 74 -148v-487q0 -158 43.5 -245t89.5 -101v-23h-639v23q46 14 89.5 101t43.5 245v86q0 122 -38.5 182.5t-123.5 89.5v27q47 9 103 38t106 64
t96.5 69t88 56.5t67.5 22.5z" />
    <glyph glyph-name="j" unicode="j" horiz-adv-x="542" 
d="M322 1040q-85 0 -144 59t-59 144q0 83 59 142t144 59q84 0 142 -58.5t58 -142.5q0 -85 -58.5 -144t-141.5 -59zM434 1004q74 0 74 -148v-856l-2 -209q-2 -230 -152.5 -376t-388.5 -146q-134 0 -226.5 69.5t-92.5 176.5q0 57 38.5 96t92.5 39q57 0 96 -39t39 -96
q0 -25 -11 -45t-25 -30t-25 -21t-11 -21q0 -31 56 -31q109 0 174 91.5t65 260.5v736q0 122 -38.5 182.5t-123.5 89.5v27q47 9 103 38t106 64t96.5 69t88 56.5t67.5 22.5z" />
    <glyph glyph-name="k" unicode="k" horiz-adv-x="1224" 
d="M1159 217q0 -175 66 -197v-20q-27 -22 -81 -35.5t-106 -13.5q-74 0 -124.5 21t-78 63t-38.5 95.5t-11 129.5q0 153 -28 243.5t-88 90.5q-49 0 -78.5 -44.5t-36.5 -152.5v-28q0 -158 43.5 -245t89.5 -101v-23h-641v23q46 14 89.5 101t43.5 245l2 667q0 122 -38.5 183
t-123.5 90v26q57 10 130 51.5t129 84.5t113 77.5t89 34.5q26 0 42.5 -11.5t22.5 -36t7.5 -41t1.5 -47.5v-9v-801q6 6 10 8l154 107q207 142 130 179l-30 9v23h385v-23q-4 -4 -47.5 -22.5t-126 -62.5t-168.5 -103l-59 -41q20 2 61 2q85 0 154 -54.5t105 -137.5t36 -173v-131z
" />
    <glyph glyph-name="l" unicode="l" horiz-adv-x="700" 
d="M473 1583q26 0 42.5 -11.5t22.5 -36t7.5 -41t1.5 -47.5v-9v-1069q0 -158 43.5 -245t89.5 -101v-23h-641v23q46 14 89.5 101t43.5 245l2 667q0 122 -38.5 183t-123.5 90v26q57 10 130 51.5t129 84.5t113 77.5t89 34.5z" />
    <glyph glyph-name="m" unicode="m" horiz-adv-x="1861" 
d="M1747 645v-276q0 -84 10 -151.5t25 -106.5t30 -60.5t29 -27.5v-23h-559v23q13 6 27.5 27.5t29.5 60.5t25 106.5t10 151.5v254q0 95 -29 157t-83 62q-121 0 -121 -240v-233q0 -84 10 -151.5t25 -106.5t30 -60.5t29 -27.5v-23h-559v23q13 6 27.5 27.5t29.5 60.5t25 106.5
t10 151.5v254q0 95 -29.5 157t-83.5 62q-120 0 -120 -240v-233q0 -84 10 -151.5t25 -106.5t30 -60.5t29 -27.5v-23h-600v23q46 14 89.5 101t43.5 245v86q0 122 -38.5 182.5t-123.5 89.5v27q47 9 103 38t106 64t96.5 69t88 56.5t67.5 22.5q74 0 74 -148v-4q129 147 309 147
q103 0 169.5 -50.5t98.5 -133.5q134 184 338 184q64 0 115.5 -21t85 -55t55.5 -81t31.5 -95.5t9.5 -101.5z" />
    <glyph glyph-name="n" unicode="n" horiz-adv-x="1255" 
d="M1141 645v-276q0 -84 10 -151.5t25 -106.5t30 -60.5t29 -27.5v-23h-559v23q13 6 27.5 27.5t29.5 60.5t25 106.5t10 151.5v254q0 95 -29.5 157t-83.5 62q-120 0 -120 -240v-233q0 -84 10 -151.5t25 -106.5t30 -60.5t29 -27.5v-23h-600v23q46 14 89.5 101t43.5 245v86
q0 122 -38.5 182.5t-123.5 89.5v27q47 9 103 38t106 64t96.5 69t88 56.5t67.5 22.5q74 0 74 -148v-4q129 147 309 147q64 0 115.5 -21t85 -55t55.5 -81t31.5 -95.5t9.5 -101.5z" />
    <glyph glyph-name="o" unicode="o" horiz-adv-x="1071" 
d="M516 -47q-146 0 -267 70t-190 190t-69 264t69 265t190 191.5t267 70.5q145 0 265.5 -70.5t189.5 -191.5t69 -265t-69 -264t-189.5 -190t-265.5 -70zM578 41q74 9 101 129.5t-1 329.5q-29 209 -88 319t-135 99q-77 -11 -105 -132.5t0 -330.5q31 -209 91 -317.5t137 -96.5z
" />
    <glyph glyph-name="p" unicode="p" horiz-adv-x="1236" 
d="M770 1004q60 0 121 -18t117.5 -56t100.5 -91.5t70.5 -130.5t26.5 -167q0 -119 -28.5 -223.5t-83.5 -187t-145 -130t-204 -47.5q-93 0 -165 45q-25 16 -38 23.5t-25.5 10.5t-17.5 -5t-5 -27v-539h-508v23q46 14 89.5 101t43.5 245l2 627q0 122 -38.5 182.5t-123.5 89.5v27
q57 10 130 51.5t129 84.5t113 77.5t89 34.5q25 0 41 -10.5t22.5 -31t8.5 -38.5t2 -45q109 125 276 125zM647 39q80 0 116 99.5t36 324.5q0 226 -36 326t-116 100q-25 0 -45.5 -8.5t-41 -32.5t-34.5 -63t-23 -104.5t-9 -152.5v-36q0 -232 35 -342.5t118 -110.5z" />
    <glyph glyph-name="q" unicode="q" horiz-adv-x="1185" 
d="M702 963h506v-23q-46 -14 -89.5 -101t-43.5 -245v-1133h-506v23q46 14 89.5 101t43.5 245v170q0 19 -5 27t-17.5 5t-25.5 -10.5t-38 -23.5q-72 -45 -165 -45q-114 0 -204 47.5t-145 130t-83.5 187t-28.5 223.5q0 90 26.5 167t70.5 130.5t100.5 91.5t117.5 56t121 18
q167 0 276 -125v84zM397 463q0 -225 36 -324.5t116 -99.5q83 0 118 110.5t35 342.5v36q0 87 -9 152.5t-23 104.5t-34.5 63t-41 32.5t-45.5 8.5q-80 0 -116 -100t-36 -326z" />
    <glyph glyph-name="r" unicode="r" horiz-adv-x="1114" 
d="M850 1057q100 0 172 -72t72 -172q0 -101 -72 -172.5t-172 -71.5q-89 0 -146 65.5t-57 151.5q0 34 12 72q5 18 6 24.5t0 12.5t-9 2.5t-23 -14.5q-98 -80 -98 -232v-282q0 -158 43.5 -245t89.5 -101v-23h-639v23q46 14 89.5 101t43.5 245v86q0 122 -38.5 182.5t-123.5 89.5
v27q47 9 103 38t106 64t96.5 69t88 56.5t67.5 22.5q74 0 74 -140q25 41 49 70t61.5 60t89 47t115.5 16z" />
    <glyph glyph-name="s" unicode="s" horiz-adv-x="956" 
d="M-20 213q0 70 47.5 119t117.5 49q60 0 109 -29.5t49 -77.5q0 -34 -30.5 -75t-30.5 -58q0 -42 54.5 -74t152.5 -32q178 0 178 112q0 35 -26.5 67t-69 56.5t-97.5 52t-112.5 52.5t-112.5 60t-97.5 73t-69 91.5t-26.5 115.5q0 78 70.5 145t182 104t233.5 37
q166 0 278.5 -53.5t112.5 -122.5q0 -35 -29 -71t-67 -43l-21 10q0 75 -62 137t-151 62q-59 0 -108 -26.5t-49 -72.5q0 -29 30.5 -58.5t79 -57t107 -58t117 -67.5t107 -79t79 -99t30.5 -121q0 -78 -41.5 -141.5t-111 -103.5t-157 -61.5t-183.5 -21.5q-72 0 -152.5 16t-156 46
t-125 82t-49.5 116z" />
    <glyph glyph-name="t" unicode="t" horiz-adv-x="630" 
d="M477 963h207q8 0 8 -41t-8 -41h-147q-54 0 -60 -29v-600q0 -29 3.5 -51t12.5 -40t14.5 -27t20 -25.5t17.5 -20.5v-20q-23 -49 -68 -83t-106 -34q-130 0 -199.5 72.5t-69.5 199.5v596q0 19 -1 27.5t-6.5 18t-18.5 13t-35 3.5h-74q-7 0 -7 41t7 41h2q50 0 97 17t86.5 49.5
t74 70t68 89.5t59.5 97t57 102q17 31 25 46h41v-471z" />
    <glyph glyph-name="u" unicode="u" horiz-adv-x="1058" 
d="M1090 963v-23q-16 -8 -33 -41t-32 -114t-15 -191v-342q0 -29 3.5 -51t12.5 -40.5t14 -26.5t19.5 -25t17.5 -21v-20q-23 -49 -68 -83t-106 -34q-104 0 -170 47t-88 133q-118 -168 -303 -168q-64 0 -115.5 21t-85 55t-55.5 81t-31.5 95.5t-9.5 101.5v277q0 84 -10 151.5
t-25 106.5t-30 60.5t-29 27.5v23h467v-652q0 -184 112 -184q58 0 81.5 63.5t23.5 190.5v213q0 84 -10 151.5t-25 106.5t-29.5 60.5t-27.5 27.5v23h547z" />
    <glyph glyph-name="v" unicode="v" horiz-adv-x="876" 
d="M999 963v-23q-51 -16 -128.5 -97t-131.5 -227l-225 -616h-258l-195 612q-49 148 -113.5 230t-105.5 98v23h656v-23q-19 -6 -33 -26.5t-22 -57.5t0 -101.5t34 -144.5l76 -239l90 245q29 79 40 142t4.5 99.5t-19 56.5t-31.5 26v23h362z" />
    <glyph glyph-name="w" unicode="w" horiz-adv-x="1607" 
d="M1731 963v-23q-20 -6 -49 -26t-66.5 -56.5t-77 -100t-68.5 -141.5l-225 -616h-258l-194 612q-4 15 -14 40t-13 36l-252 -688h-258l-195 612q-49 148 -113.5 230t-105.5 98v23h656v-23q-19 -6 -33 -26.5t-22 -57.5t0 -101.5t34 -144.5l76 -239l131 358q29 82 -20 156
q-26 37 -50 55v23h615v-23q-19 -6 -33 -26.5t-22 -57.5t0 -101.5t34 -144.5l76 -239l90 245q29 79 40 142t4.5 99.5t-19 56.5t-31.5 26v23h363z" />
    <glyph glyph-name="x" unicode="x" horiz-adv-x="1075" 
d="M707 578l170 -269q36 -56 72.5 -104t65 -79.5t49 -52t37.5 -35.5l17 -15v-23h-639v23q17 5 28.5 16t16.5 33.5t-0.5 53.5t-27 78.5t-58.5 104.5l-30 47l-39 -55q-39 -56 -61 -102t-27.5 -76t0.5 -52t19 -32.5t32 -15.5v-23h-350v23q152 79 290 278l90 127l-143 225
q-45 69 -93 125.5t-87 89t-61.5 48.5t-38.5 24v23h677v-23q-17 -4 -28.5 -15.5t-16.5 -34.5t0.5 -54t27 -78.5t58.5 -104.5l5 -4l10 15q40 56 64 101.5t31 75.5t3 51.5t-15 32t-28 15.5v23h389v-23q-23 -7 -55.5 -23t-81.5 -46.5t-106 -85t-105 -121.5z" />
    <glyph glyph-name="y" unicode="y" horiz-adv-x="876" 
d="M999 963v-23q-51 -16 -128.5 -97t-131.5 -227l-348 -952q-44 -122 -126 -188t-185 -66q-89 0 -152 63t-63 152t63 152t152 63q47 0 84.5 -15.5t55.5 -34.5t38 -34.5t37 -15.5q30 0 57 80l66 180h-162l-195 612q-49 148 -113.5 230t-105.5 98v23h656v-23q-19 -6 -33 -26.5
t-22 -57.5t0 -101.5t34 -144.5l76 -239l90 245q29 79 40 142t4.5 99.5t-19 56.5t-31.5 26v23h362z" />
    <glyph glyph-name="z" unicode="z" horiz-adv-x="1089" 
d="M1112 963v-21l-522 -704q-49 -72 -40 -115t64 -43q40 0 87 24.5t84.5 55t90 88t80.5 92t78 98.5h21l-97 -438h-958v20l528 721q36 65 20.5 103.5t-67.5 38.5q-50 0 -95.5 -18.5t-91.5 -59t-81.5 -81t-89.5 -108.5h-21l35 347h975z" />
    <glyph glyph-name="braceleft" unicode="{" horiz-adv-x="739" 
d="M657 1593v-43q-52 0 -95 -21t-70 -54t-46 -73.5t-26.5 -78t-7.5 -70.5q0 -62 21.5 -173t21.5 -195q0 -182 -115 -248q-12 -6 -12 -14.5t12 -14.5q115 -66 115 -248q0 -84 -21.5 -195t-21.5 -173q0 -33 7.5 -70.5t26.5 -78t46 -73.5t70 -54t95 -21v-43
q-223 0 -335.5 106.5t-112.5 294.5q0 53 11 160t11 154q0 88 -43.5 150.5t-105.5 74.5v61q62 12 105.5 75t43.5 151q0 47 -11 153.5t-11 159.5q0 188 112.5 294.5t335.5 106.5z" />
    <glyph glyph-name="bar" unicode="|" horiz-adv-x="251" 
d="M82 1434h88v-1485h-88v1485z" />
    <glyph glyph-name="braceright" unicode="}" horiz-adv-x="739" 
d="M82 1550v43q223 0 335.5 -106.5t112.5 -294.5q0 -53 -11 -159.5t-11 -153.5q0 -88 43.5 -151t105.5 -75v-61q-62 -12 -105.5 -74.5t-43.5 -150.5q0 -47 11 -154t11 -160q0 -188 -112.5 -294.5t-335.5 -106.5v43q64 0 114.5 31.5t77.5 79.5t40.5 96t13.5 90
q0 62 -21.5 173t-21.5 195q0 183 114 248q12 6 12 14.5t-12 14.5q-114 65 -114 248q0 84 21.5 195t21.5 173q0 42 -13.5 90t-40.5 96t-77.5 79.5t-114.5 31.5z" />
    <glyph glyph-name="asciitilde" unicode="~" horiz-adv-x="860" 
d="M592 537q-45 0 -96 18t-88 39t-79.5 39t-72.5 18q-58 0 -97.5 -30t-52.5 -86l-24 8q7 89 69 137.5t136 48.5q45 0 90.5 -17.5t78 -39t75 -39t81.5 -17.5q48 0 90 31.5t52 85.5l24 -8q-7 -91 -60 -139.5t-126 -48.5z" />
    <glyph glyph-name="exclamdown" unicode="&#xa1;" horiz-adv-x="567" 
d="M285 1067q84 0 142 -58t58 -145q3 -83 -56 -141.5t-144 -58.5t-144 58.5t-59 141.5q0 85 59 144t144 59zM258 588h41q8 -25 41.5 -122.5t52 -161.5t43.5 -168.5t37 -217.5t12 -233q3 -83 -56 -142t-144 -59t-144 59t-59 142q0 101 10 202.5t21 172.5t35 164.5t36 134
t40.5 127.5t33.5 102z" />
    <glyph glyph-name="cent" unicode="&#xa2;" horiz-adv-x="1122" 
d="M907 373q55 0 94 -38.5t39 -92.5q0 -113 -99.5 -190.5t-252.5 -96.5v-125h-74v121h-6q-146 0 -267 70.5t-190 191t-69 264.5t69 265t190 191.5t267 70.5h6v135h74v-140q153 -19 252.5 -96t99.5 -190q0 -54 -39 -92.5t-94 -38.5q-56 0 -92.5 38.5t-32.5 92.5q0 58 -8 98.5
t-19 62t-31.5 32.5t-37 13.5t-43.5 2.5q-83 0 -131.5 -117.5t-48.5 -327.5t48.5 -327t131.5 -117q27 0 43.5 2.5t37 13.5t31.5 32.5t19 62t8 98.5q-4 54 32.5 92.5t92.5 38.5z" />
    <glyph glyph-name="sterling" unicode="&#xa3;" horiz-adv-x="1484" 
d="M1262 487l22 11q119 -100 119 -236q0 -134 -83 -221.5t-218 -87.5q-55 0 -112.5 15t-118.5 45.5t-104.5 56t-107.5 67.5q-57 -87 -144.5 -135.5t-197.5 -48.5q-112 0 -173.5 51.5t-61.5 136.5q0 91 79 163t191 73q-9 40 -22.5 85t-33.5 107t-28 88h-172v74h148
q-47 157 -47 250q0 133 77 240.5t211.5 168t298.5 60.5q52 0 96.5 -5.5t100 -21t107.5 -49.5t94 -86q63 -78 50.5 -181t-91.5 -161q-83 -58 -183 -41t-157 99q-51 76 -31.5 158t88.5 132q26 19 55 29q-33 39 -112 39q-60 0 -105.5 -20.5t-71 -54.5t-37.5 -71t-12 -75
q0 -59 17 -139t31 -125t47 -146h170v-74h-148q45 -155 45 -237q0 -60 -12 -115q163 -37 244 -37q127 0 212.5 68t80.5 151zM373 217q0 22 -4 68q-8 2 -21 2q-88 0 -139 -43t-51 -92q0 -47 25 -79t69 -32q34 0 59 15t38 41t18.5 55.5t5.5 64.5z" />
    <glyph glyph-name="yen" unicode="&#xa5;" horiz-adv-x="1665" 
d="M1214 1411v23h369v-23q-21 -7 -52 -24.5t-76 -50.5t-95 -91.5t-92 -130.5l-160 -278h41v-74h-680v74h14l-155 276q-41 72 -83.5 130.5t-76 92.5t-53.5 51t-33 25v23h661v-23q-14 -4 -23.5 -16t-12 -35t4.5 -55t28.5 -81t56.5 -108l168 -280h41l159 276q56 97 74.5 165.5
t9 97t-34.5 36.5zM1024 561v-192q0 -158 43.5 -245t89.5 -101v-23h-668v23q46 14 90 101t44 245v90q0 67 -21 139h-133v74h680v-74h-123q-2 -12 -2 -37z" />
    <glyph glyph-name="section" unicode="&#xa7;" horiz-adv-x="1019" 
d="M694 539q111 -61 177.5 -131.5t66.5 -163.5q0 -90 -62.5 -157.5t-159.5 -99.5t-210 -32q-63 0 -133.5 14t-137 40.5t-110 72t-43.5 100.5q0 62 42 106t103 44q53 0 95.5 -26t42.5 -68q0 -32 -26 -68t-26 -49q0 -37 48 -64.5t133 -27.5q155 0 155 98q0 35 -29.5 65.5
t-77 55.5t-104.5 51t-114 57t-104.5 67t-77 88t-29.5 114q0 83 89.5 149t219.5 90q-48 23 -74.5 37t-69 38.5t-66.5 47t-50 53t-37.5 66t-11.5 76.5q0 68 62 127t160 92t204 33q146 0 246 -46.5t100 -107.5q0 -32 -26 -63.5t-60 -38.5l-19 10q0 66 -53.5 120t-132.5 54
q-51 0 -94 -23.5t-43 -62.5q0 -26 26.5 -52.5t69 -51t94 -51t102.5 -59t93.5 -69t69 -86.5t26.5 -106q0 -94 -66.5 -161t-177.5 -101zM649 684q0 38 -38.5 76.5t-80.5 38.5q-31 0 -52 -24.5t-21 -57.5q0 -37 37.5 -78t87.5 -41q32 0 49.5 25.5t17.5 60.5z" />
    <glyph glyph-name="copyright" unicode="&#xa9;" horiz-adv-x="1640" 
d="M823 1434q152 0 290.5 -58t238 -156.5t156 -235t51.5 -286.5q0 -157 -58 -295.5t-157 -236t-235 -153.5t-286 -56q-153 0 -290 58.5t-236 157.5t-157 236t-58 289q0 150 58 286.5t157 235t236.5 156.5t289.5 58zM1462 700q3 173 -82.5 318.5t-234 229t-324.5 83.5
q-177 0 -323 -84t-229 -228.5t-83 -318.5q0 -134 49 -252.5t133 -204t202 -135t251 -49.5q178 0 324 81t231.5 228.5t85.5 331.5zM938 375q60 0 108 40t64 95h88q-35 -87 -124 -150t-232 -63q-170 0 -287 116.5t-117 284.5t117 286t287 118q138 0 235 -62t97 -161
q0 -41 -30 -71t-73 -30q-42 0 -70 30t-24 71q0 55 -8 89.5t-26 48.5t-33 17.5t-42 3.5q-62 0 -99.5 -90t-37.5 -250q0 -152 63.5 -237.5t143.5 -85.5z" />
    <glyph glyph-name="guillemotleft" unicode="&#xab;" horiz-adv-x="942" 
d="M82 666l455 354l26 -53l-338 -320l338 -319l-26 -54l-455 355v37zM379 666l455 354l26 -53l-338 -320l338 -319l-26 -54l-455 355v37z" />
    <glyph glyph-name="registered" unicode="&#xae;" horiz-adv-x="1247" 
d="M625 350q-149 0 -274 72.5t-197 198t-72 274.5q0 147 72 271t197 196t274 72q112 0 213.5 -42.5t174.5 -114.5t114.5 -172t37.5 -210q0 -153 -72.5 -278.5t-196 -196t-271.5 -70.5zM625 455q187 0 313.5 124.5t126.5 317.5q3 181 -126 306.5t-314 125.5
q-186 0 -312.5 -125t-126.5 -307q0 -187 126.5 -314.5t312.5 -127.5zM715 879q35 -12 66 -43t49 -61.5t44.5 -79.5t40.5 -72h-198q-5 17 -21.5 55t-40.5 85t-55.5 83t-58.5 39v-260h-158v563h317q80 0 134.5 -43t54.5 -103q0 -124 -166 -149q-21 -6 -8 -14zM616 1155h-38
q-17 0 -27 -12t-10 -49v-172h75q51 0 79 32.5t28 81.5q0 47 -32 83t-75 36z" />
    <glyph glyph-name="degree" unicode="&#xb0;" horiz-adv-x="735" 
d="M369 963q-120 0 -203.5 83t-83.5 203q0 119 83.5 202t203.5 83q121 0 204.5 -83.5t79.5 -201.5q0 -123 -82 -204.5t-202 -81.5zM369 1063q79 0 132.5 52.5t53.5 133.5q1 76 -53.5 130.5t-132.5 54.5t-131.5 -54t-53.5 -131q0 -78 53.5 -132t131.5 -54z" />
    <glyph glyph-name="periodcentered" unicode="&#xb7;" horiz-adv-x="415" 
d="M209 502q-54 0 -90.5 36.5t-36.5 90.5q0 53 36.5 89t90.5 36q53 0 89.5 -36.5t35.5 -88.5q0 -55 -36 -91t-89 -36z" />
    <glyph glyph-name="guillemotright" unicode="&#xbb;" horiz-adv-x="942" 
d="M82 967l27 53l454 -354v-37l-454 -355l-27 54l338 319zM379 967l27 53l454 -354v-37l-454 -355l-27 54l338 319z" />
    <glyph glyph-name="questiondown" unicode="&#xbf;" horiz-adv-x="1257" 
d="M629 1067q85 0 143.5 -59t58.5 -144q0 -83 -58.5 -141.5t-143.5 -58.5t-144.5 58.5t-56.5 141.5q0 87 58.5 145t142.5 58zM631 588h41q26 -76 26 -201q0 -62 -24 -135.5t-59 -140.5t-69.5 -132t-58.5 -131t-24 -118q0 -75 42 -119.5t113 -44.5q74 0 125.5 35.5t51.5 97.5
q0 40 -31 103.5t-31 93.5q0 80 58 140t147 60q100 0 169 -55.5t69 -146.5q0 -123 -84 -218.5t-212.5 -143.5t-273.5 -48q-247 0 -385.5 108.5t-138.5 276.5q0 73 29.5 136.5t77 110.5t105.5 91t116 85t106.5 83.5t80.5 97t34 115.5z" />
    <glyph glyph-name="Agrave" unicode="&#xc0;" horiz-adv-x="1558" 
d="M530 1694q-36 18 -40.5 64t22.5 79q26 35 66.5 41t72.5 -20q32 -27 103.5 -96.5t127.5 -125.5l56 -55l-35 -45q-289 115 -373 158zM827 1434l492 -1127q31 -70 67.5 -126.5t68.5 -88.5t55 -49.5t38 -22.5v-20h-704v23q18 6 30 25.5t16.5 55.5t-9 97t-45.5 139l-27 63
h-551q-35 -91 -47.5 -163t-4 -114t25.5 -66t42 -31v-29h-395v20q17 5 41.5 22.5t58 49.5t70.5 88t66 125l475 1129h237zM535 1061l-242 -576h481z" />
    <glyph glyph-name="Aacute" unicode="&#xc1;" horiz-adv-x="1558" 
d="M893 1694q-37 -19 -130.5 -58.5t-168.5 -69.5l-74 -30l-35 45q215 216 287 277q32 26 72.5 20t66.5 -41q27 -33 22.5 -79t-40.5 -64zM827 1434l492 -1127q31 -70 67.5 -126.5t68.5 -88.5t55 -49.5t38 -22.5v-20h-704v23q18 6 30 25.5t16.5 55.5t-9 97t-45.5 139l-27 63
h-551q-35 -91 -47.5 -163t-4 -114t25.5 -66t42 -31v-29h-395v20q17 5 41.5 22.5t58 49.5t70.5 88t66 125l475 1129h237zM535 1061l-242 -576h481z" />
    <glyph glyph-name="Acircumflex" unicode="&#xc2;" horiz-adv-x="1558" 
d="M1004 1536l-289 150l-291 -150l-41 41l342 332l319 -332zM827 1434l492 -1127q31 -70 67.5 -126.5t68.5 -88.5t55 -49.5t38 -22.5v-20h-704v23q18 6 30 25.5t16.5 55.5t-9 97t-45.5 139l-27 63h-551q-35 -91 -47.5 -163t-4 -114t25.5 -66t42 -31v-29h-395v20
q17 5 41.5 22.5t58 49.5t70.5 88t66 125l475 1129h237zM535 1061l-242 -576h481z" />
    <glyph glyph-name="Atilde" unicode="&#xc3;" horiz-adv-x="1558" 
d="M573 1628q-60 0 -120 -63l-19 8q6 73 58 132.5t106 59.5q46 0 91.5 -23t88.5 -46t82 -23q36 0 67 13.5t46 37.5l20 -6q-6 -76 -49.5 -129t-99.5 -53q-46 0 -98 23t-97 46t-76 23zM827 1434l492 -1127q31 -70 67.5 -126.5t68.5 -88.5t55 -49.5t38 -22.5v-20h-704v23
q18 6 30 25.5t16.5 55.5t-9 97t-45.5 139l-27 63h-551q-35 -91 -47.5 -163t-4 -114t25.5 -66t42 -31v-29h-395v20q17 5 41.5 22.5t58 49.5t70.5 88t66 125l475 1129h237zM535 1061l-242 -576h481z" />
    <glyph glyph-name="Adieresis" unicode="&#xc4;" horiz-adv-x="1558" 
d="M444 1538q-64 0 -110.5 46t-46.5 108q0 64 46 107.5t111 43.5t110.5 -43.5t45.5 -107.5q0 -62 -46 -108t-110 -46zM950 1538q-64 0 -110.5 46t-46.5 108q0 64 46 107.5t111 43.5t110.5 -43.5t45.5 -107.5q0 -62 -46 -108t-110 -46zM827 1434l492 -1127
q31 -70 67.5 -126.5t68.5 -88.5t55 -49.5t38 -22.5v-20h-704v23q18 6 30 25.5t16.5 55.5t-9 97t-45.5 139l-27 63h-551q-35 -91 -47.5 -163t-4 -114t25.5 -66t42 -31v-29h-395v20q17 5 41.5 22.5t58 49.5t70.5 88t66 125l475 1129h237zM535 1061l-242 -576h481z" />
    <glyph glyph-name="Aring" unicode="&#xc5;" horiz-adv-x="1558" 
d="M674 1536q-83 0 -141 55t-58 133t58 134.5t141 56.5t140.5 -56t57.5 -135q0 -78 -57.5 -133t-140.5 -55zM651 1868q-30 -5 -40.5 -44t1.5 -110q10 -64 32.5 -98t49.5 -31q29 3 40 42.5t1 107.5q-10 64 -33 99.5t-51 33.5zM827 1434l492 -1127q31 -70 67.5 -126.5
t68.5 -88.5t55 -49.5t38 -22.5v-20h-704v23q18 6 30 25.5t16.5 55.5t-9 97t-45.5 139l-27 63h-551q-35 -91 -47.5 -163t-4 -114t25.5 -66t42 -31v-29h-395v20q17 5 41.5 22.5t58 49.5t70.5 88t66 125l475 1129h237zM535 1061l-242 -576h481z" />
    <glyph glyph-name="AE" unicode="&#xc6;" horiz-adv-x="2000" 
d="M2015 346l37 -20l-108 -326h-1244v23q46 14 90 101t44 245v34h-496q-44 -74 -70 -136t-33.5 -102.5t-2 -70t19 -44.5t33.5 -21v-29h-406v20q46 15 125 81t150 184l680 1149h1095l109 -326l-37 -21q-58 115 -190.5 190t-315.5 75q-149 0 -260 -17v-547q86 0 137.5 0.5
t105.5 4.5t82 9t58.5 17t44 24.5t29 37t24 49.5t19.5 65h45v-497h-45q-15 56 -26 87t-39 58t-50.5 37t-87 18t-120.5 8.5t-177 0.5v-613q90 -12 233 -12q185 0 333 75.5t214 188.5zM834 1243l-449 -758h449v758z" />
    <glyph glyph-name="Ccedilla" unicode="&#xc7;" horiz-adv-x="1415" 
d="M854 -53q-49 0 -139 8l-27 -107q43 11 83 11t77 -13t59.5 -48t22.5 -89q0 -55 -20.5 -93.5t-53.5 -57t-72.5 -28t-79.5 -8t-73 5t-53 8.5l-21 5l21 66q33 -8 58.5 -8.5t50.5 7.5t38.5 34t13.5 69q0 31 -13.5 49.5t-32.5 22t-38.5 3t-32.5 -4.5l-14 -4v45l39 147
q-282 59 -454.5 260.5t-172.5 483.5q0 226 103 402t286 272t416 96q132 0 251.5 -26t203 -69t133 -98.5t49.5 -113.5q0 -54 -39 -93t-94 -39q-56 0 -92.5 39t-32.5 93q9 108 -48 160t-193 52q-106 0 -192.5 -35t-147 -98t-101.5 -151.5t-60.5 -193t-19.5 -224.5
q0 -112 34.5 -207.5t92 -161t132.5 -112.5t155.5 -68.5t161.5 -21.5q101 0 219 46t184 134h66q-21 -57 -77 -116.5t-136.5 -111.5t-191.5 -85t-228 -33z" />
    <glyph glyph-name="Egrave" unicode="&#xc8;" horiz-adv-x="1310" 
d="M498 1694q-36 18 -41 64t22 79q26 35 66.5 41t72.5 -20q32 -27 104 -96.5t128 -125.5l55 -55l-35 -45q-288 115 -372 158zM1325 346l37 -20l-109 -326h-1243v23q46 14 89.5 101t43.5 245v696q0 158 -43.5 245t-89.5 101v23h1229l109 -326l-37 -21q-58 115 -190.5 190
t-315.5 75q-149 0 -260 -17v-547q86 0 137.5 0.5t105.5 4.5t82 9t58 17t43.5 24.5t29 37t24 49.5t19.5 65h46v-497h-46q-9 34 -15.5 56t-18.5 44t-20 35.5t-28 26.5t-33.5 19.5t-47 13t-57.5 8.5t-75.5 4t-91 2h-112.5v-613q90 -12 233 -12q185 0 333 75.5t214 188.5z" />
    <glyph glyph-name="Eacute" unicode="&#xc9;" horiz-adv-x="1310" 
d="M926 1694q-37 -19 -130.5 -58.5t-167.5 -69.5l-75 -30l-35 45q215 216 287 277q32 26 72.5 20t66.5 -41q27 -33 22.5 -79t-40.5 -64zM1325 346l37 -20l-109 -326h-1243v23q46 14 89.5 101t43.5 245v696q0 158 -43.5 245t-89.5 101v23h1229l109 -326l-37 -21
q-58 115 -190.5 190t-315.5 75q-149 0 -260 -17v-547q86 0 137.5 0.5t105.5 4.5t82 9t58 17t43.5 24.5t29 37t24 49.5t19.5 65h46v-497h-46q-9 34 -15.5 56t-18.5 44t-20 35.5t-28 26.5t-33.5 19.5t-47 13t-57.5 8.5t-75.5 4t-91 2h-112.5v-613q90 -12 233 -12
q185 0 333 75.5t214 188.5z" />
    <glyph glyph-name="Ecircumflex" unicode="&#xca;" horiz-adv-x="1310" 
d="M971 1536l-289 150l-291 -150l-41 41l342 332l320 -332zM1325 346l37 -20l-109 -326h-1243v23q46 14 89.5 101t43.5 245v696q0 158 -43.5 245t-89.5 101v23h1229l109 -326l-37 -21q-58 115 -190.5 190t-315.5 75q-149 0 -260 -17v-547q86 0 137.5 0.5t105.5 4.5t82 9
t58 17t43.5 24.5t29 37t24 49.5t19.5 65h46v-497h-46q-9 34 -15.5 56t-18.5 44t-20 35.5t-28 26.5t-33.5 19.5t-47 13t-57.5 8.5t-75.5 4t-91 2h-112.5v-613q90 -12 233 -12q185 0 333 75.5t214 188.5z" />
    <glyph glyph-name="Edieresis" unicode="&#xcb;" horiz-adv-x="1310" 
d="M430 1538q-64 0 -111 46t-47 108q0 64 46.5 107.5t111.5 43.5t110.5 -43.5t45.5 -107.5q0 -62 -46 -108t-110 -46zM936 1538q-64 0 -111 46t-47 108q0 64 46.5 107.5t111.5 43.5t110.5 -43.5t45.5 -107.5q0 -62 -46 -108t-110 -46zM1325 346l37 -20l-109 -326h-1243v23
q46 14 89.5 101t43.5 245v696q0 158 -43.5 245t-89.5 101v23h1229l109 -326l-37 -21q-58 115 -190.5 190t-315.5 75q-149 0 -260 -17v-547q86 0 137.5 0.5t105.5 4.5t82 9t58 17t43.5 24.5t29 37t24 49.5t19.5 65h46v-497h-46q-9 34 -15.5 56t-18.5 44t-20 35.5t-28 26.5
t-33.5 19.5t-47 13t-57.5 8.5t-75.5 4t-91 2h-112.5v-613q90 -12 233 -12q185 0 333 75.5t214 188.5z" />
    <glyph glyph-name="Igrave" unicode="&#xcc;" horiz-adv-x="688" 
d="M563 1581l-35 -45q-288 115 -372 158q-36 18 -41 64t22 79q26 35 66.5 41t72.5 -20q32 -27 104 -96.5t128 -125.5zM143 369v696q0 158 -43.5 245t-89.5 101v23h668v-23q-46 -14 -89.5 -101t-43.5 -245v-696q0 -158 43.5 -245t89.5 -101v-23h-668v23q46 14 89.5 101
t43.5 245z" />
    <glyph glyph-name="Iacute" unicode="&#xcd;" horiz-adv-x="688" 
d="M150 1536l-35 45q214 216 286 277q32 26 73 20t67 -41q27 -33 22 -79t-41 -64q-37 -19 -130 -58.5t-168 -69.5zM143 369v696q0 158 -43.5 245t-89.5 101v23h668v-23q-46 -14 -89.5 -101t-43.5 -245v-696q0 -158 43.5 -245t89.5 -101v-23h-668v23q46 14 89.5 101t43.5 245
z" />
    <glyph glyph-name="Icircumflex" unicode="&#xce;" horiz-adv-x="688" 
d="M49 1536l-41 41l342 332l320 -332l-41 -41l-289 150zM143 369v696q0 158 -43.5 245t-89.5 101v23h668v-23q-46 -14 -89.5 -101t-43.5 -245v-696q0 -158 43.5 -245t89.5 -101v-23h-668v23q46 14 89.5 101t43.5 245z" />
    <glyph glyph-name="Idieresis" unicode="&#xcf;" horiz-adv-x="688" 
d="M88 1538q-64 0 -111 46t-47 108q0 64 46.5 107.5t111.5 43.5t110.5 -43.5t45.5 -107.5q0 -62 -46 -108t-110 -46zM594 1538q-64 0 -111 46t-47 108q0 64 46.5 107.5t111.5 43.5t110.5 -43.5t45.5 -107.5q0 -62 -46 -108t-110 -46zM143 369v696q0 158 -43.5 245t-89.5 101
v23h668v-23q-46 -14 -89.5 -101t-43.5 -245v-696q0 -158 43.5 -245t89.5 -101v-23h-668v23q46 14 89.5 101t43.5 245z" />
    <glyph glyph-name="Eth" unicode="&#xd0;" horiz-adv-x="1554" 
d="M827 1434q162 0 297 -55t223.5 -149t137.5 -218.5t49 -263.5q0 -121 -24.5 -224t-67 -178t-101.5 -135.5t-124.5 -99t-140 -64.5t-144.5 -36.5t-141 -10.5h-781v23q46 14 89.5 101t43.5 245v266h-71v82h71v348q0 158 -43.5 245t-89.5 101v23h817zM545 82h151q99 0 176 32
t137 103.5t92 196.5t32 301q0 145 -21 256.5t-68 199.5t-130 134.5t-199 46.5h-170v-635h73v-82h-73v-553z" />
    <glyph glyph-name="Ntilde" unicode="&#xd1;" horiz-adv-x="1372" 
d="M623 1628q-61 0 -121 -63l-19 8q6 73 58 132.5t106 59.5q46 0 91.5 -23t88.5 -46t82 -23q36 0 67 13.5t46 37.5l20 -6q-6 -76 -49.5 -129t-99.5 -53q-46 0 -97.5 23t-96.5 46t-76 23zM1362 1434v-23q-46 -14 -89.5 -101t-43.5 -245v-1065h-164l-774 993q-20 23 -37 23
q-21 0 -21 -53v-594q0 -158 44 -245t90 -101v-23h-357v23q46 14 89.5 101t43.5 245v819q1 92 -39.5 152t-83.5 71v23h469l650 -832v463q0 158 -43.5 245t-89.5 101v23h356z" />
    <glyph glyph-name="Ograve" unicode="&#xd2;" horiz-adv-x="1441" 
d="M936 1581l-35 -45q-289 115 -373 158q-36 18 -40.5 64t22.5 79q26 35 66.5 41t72.5 -20q32 -27 103.5 -96.5t127.5 -125.5zM713 -47q-136 0 -262 57t-221.5 155.5t-152.5 241t-57 304.5q0 161 58.5 305.5t155 245.5t224 160t263.5 59q145 0 273.5 -56t222.5 -155
t149 -244t55 -315q0 -154 -59.5 -295.5t-157 -242t-227 -160.5t-264.5 -60zM641 1386q-91 0 -152 -134t-61 -332q0 -184 36 -351.5t91.5 -279t120.5 -177t125 -65.5q200 0 200 547q0 211 -47.5 393.5t-131 290.5t-181.5 108z" />
    <glyph glyph-name="Oacute" unicode="&#xd3;" horiz-adv-x="1441" 
d="M551 1536l-35 45q215 216 287 277q32 26 72.5 20t66.5 -41q27 -33 22.5 -79t-40.5 -64q-37 -19 -130.5 -58.5t-167.5 -69.5zM713 -47q-136 0 -262 57t-221.5 155.5t-152.5 241t-57 304.5q0 161 58.5 305.5t155 245.5t224 160t263.5 59q145 0 273.5 -56t222.5 -155
t149 -244t55 -315q0 -154 -59.5 -295.5t-157 -242t-227 -160.5t-264.5 -60zM641 1386q-91 0 -152 -134t-61 -332q0 -184 36 -351.5t91.5 -279t120.5 -177t125 -65.5q200 0 200 547q0 211 -47.5 393.5t-131 290.5t-181.5 108z" />
    <glyph glyph-name="Ocircumflex" unicode="&#xd4;" horiz-adv-x="1441" 
d="M422 1536l-41 41l342 332l319 -332l-41 -41l-288 150zM713 -47q-136 0 -262 57t-221.5 155.5t-152.5 241t-57 304.5q0 161 58.5 305.5t155 245.5t224 160t263.5 59q145 0 273.5 -56t222.5 -155t149 -244t55 -315q0 -154 -59.5 -295.5t-157 -242t-227 -160.5t-264.5 -60z
M641 1386q-91 0 -152 -134t-61 -332q0 -184 36 -351.5t91.5 -279t120.5 -177t125 -65.5q200 0 200 547q0 211 -47.5 393.5t-131 290.5t-181.5 108z" />
    <glyph glyph-name="Otilde" unicode="&#xd5;" horiz-adv-x="1441" 
d="M883 1536q-46 0 -98 23t-97 46t-76 23q-60 0 -120 -63l-19 8q6 73 58 132.5t106 59.5q46 0 91.5 -23t88.5 -46t82 -23q36 0 67 13.5t46 37.5l20 -6q-6 -76 -49.5 -129t-99.5 -53zM713 -47q-136 0 -262 57t-221.5 155.5t-152.5 241t-57 304.5q0 161 58.5 305.5t155 245.5
t224 160t263.5 59q145 0 273.5 -56t222.5 -155t149 -244t55 -315q0 -154 -59.5 -295.5t-157 -242t-227 -160.5t-264.5 -60zM641 1386q-91 0 -152 -134t-61 -332q0 -184 36 -351.5t91.5 -279t120.5 -177t125 -65.5q200 0 200 547q0 211 -47.5 393.5t-131 290.5t-181.5 108z
" />
    <glyph glyph-name="Odieresis" unicode="&#xd6;" horiz-adv-x="1441" 
d="M459 1538q-64 0 -111 46t-47 108q0 64 46.5 107.5t111.5 43.5t110 -43.5t45 -107.5q0 -62 -45.5 -108t-109.5 -46zM965 1538q-64 0 -111 46t-47 108q0 64 46.5 107.5t111.5 43.5t110 -43.5t45 -107.5q0 -62 -45.5 -108t-109.5 -46zM713 -47q-136 0 -262 57t-221.5 155.5
t-152.5 241t-57 304.5q0 161 58.5 305.5t155 245.5t224 160t263.5 59q145 0 273.5 -56t222.5 -155t149 -244t55 -315q0 -154 -59.5 -295.5t-157 -242t-227 -160.5t-264.5 -60zM641 1386q-91 0 -152 -134t-61 -332q0 -184 36 -351.5t91.5 -279t120.5 -177t125 -65.5
q200 0 200 547q0 211 -47.5 393.5t-131 290.5t-181.5 108z" />
    <glyph glyph-name="multiply" unicode="&#xd7;" horiz-adv-x="651" 
d="M516 877l53 -54l-190 -190l190 -191l-53 -53l-190 191l-191 -191l-53 53l190 191l-190 190l53 54l191 -191z" />
    <glyph glyph-name="Oslash" unicode="&#xd8;" horiz-adv-x="1441" 
d="M1161 1536l-82 -154q158 -98 250 -272t92 -399q0 -154 -59.5 -295.5t-157 -242t-227 -160.5t-264.5 -60q-179 0 -340 96l-51 -96h-93l76 143q-132 105 -208.5 264.5t-76.5 350.5q0 161 58.5 305.5t155 245.5t224 160t263.5 59q154 0 287 -62l61 117h92zM428 920
q0 -244 66 -469l387 731q-48 97 -110 150.5t-130 53.5q-91 0 -152 -134t-61 -332zM801 47q200 0 200 547q0 282 -79 491l-392 -739q56 -138 130 -218.5t141 -80.5z" />
    <glyph glyph-name="Ugrave" unicode="&#xd9;" horiz-adv-x="1472" 
d="M1042 1581l-34 -45q-289 115 -373 158q-36 18 -41 64t22 79q26 35 67 41t73 -20q32 -27 103.5 -96.5t126.5 -125.5zM1106 1434h356v-23q-46 -14 -89.5 -101t-43.5 -245l2 -569q1 -286 -151 -414.5t-443 -128.5q-279 0 -438 133t-158 410l2 569q0 158 -43.5 245t-89.5 101
v23h668v-23q-46 -14 -89.5 -101t-43.5 -245v-514q0 -56 0.5 -93t3 -82.5t7 -75.5t12 -65t18.5 -57t27 -46t37 -37.5t48 -25.5t61 -17t75 -5q219 0 312 124.5t93 399.5v494q0 158 -43.5 245t-89.5 101v23z" />
    <glyph glyph-name="Uacute" unicode="&#xda;" horiz-adv-x="1472" 
d="M756 1536l-35 45q215 216 287 277q32 26 72.5 20t66.5 -41q27 -33 22 -79t-41 -64q-37 -19 -130 -58.5t-168 -69.5zM1106 1434h356v-23q-46 -14 -89.5 -101t-43.5 -245l2 -569q1 -286 -151 -414.5t-443 -128.5q-279 0 -438 133t-158 410l2 569q0 158 -43.5 245t-89.5 101
v23h668v-23q-46 -14 -89.5 -101t-43.5 -245v-514q0 -56 0.5 -93t3 -82.5t7 -75.5t12 -65t18.5 -57t27 -46t37 -37.5t48 -25.5t61 -17t75 -5q219 0 312 124.5t93 399.5v494q0 158 -43.5 245t-89.5 101v23z" />
    <glyph glyph-name="Ucircumflex" unicode="&#xdb;" horiz-adv-x="1472" 
d="M590 1536l-41 41l342 332l319 -332l-41 -41l-288 150zM1106 1434h356v-23q-46 -14 -89.5 -101t-43.5 -245l2 -569q1 -286 -151 -414.5t-443 -128.5q-279 0 -438 133t-158 410l2 569q0 158 -43.5 245t-89.5 101v23h668v-23q-46 -14 -89.5 -101t-43.5 -245v-514
q0 -56 0.5 -93t3 -82.5t7 -75.5t12 -65t18.5 -57t27 -46t37 -37.5t48 -25.5t61 -17t75 -5q219 0 312 124.5t93 399.5v494q0 158 -43.5 245t-89.5 101v23z" />
    <glyph glyph-name="Udieresis" unicode="&#xdc;" horiz-adv-x="1472" 
d="M616 1538q-64 0 -110.5 46t-46.5 108q0 64 46 107.5t111 43.5t110.5 -43.5t45.5 -107.5q0 -62 -46 -108t-110 -46zM1122 1538q-64 0 -110.5 46t-46.5 108q0 64 46 107.5t111 43.5t110.5 -43.5t45.5 -107.5q0 -62 -46 -108t-110 -46zM1106 1434h356v-23
q-46 -14 -89.5 -101t-43.5 -245l2 -569q1 -286 -151 -414.5t-443 -128.5q-279 0 -438 133t-158 410l2 569q0 158 -43.5 245t-89.5 101v23h668v-23q-46 -14 -89.5 -101t-43.5 -245v-514q0 -56 0.5 -93t3 -82.5t7 -75.5t12 -65t18.5 -57t27 -46t37 -37.5t48 -25.5t61 -17
t75 -5q219 0 312 124.5t93 399.5v494q0 158 -43.5 245t-89.5 101v23z" />
    <glyph glyph-name="Yacute" unicode="&#xdd;" horiz-adv-x="1521" 
d="M1094 1694q-37 -19 -130.5 -58.5t-167.5 -69.5l-75 -30l-35 45q215 216 287 277q32 26 72.5 20t66.5 -41q27 -33 22.5 -79t-40.5 -64zM1511 1434v-23q-21 -7 -52 -24.5t-76 -50.5t-95 -91.5t-92 -130.5l-190 -332q-54 -106 -54 -221v-192q0 -158 43.5 -245t89.5 -101v-23
h-667v23q46 14 89.5 101t43.5 245v90q0 110 -51 217l-244 436q-41 72 -83.5 130.5t-76 92.5t-53.5 51t-33 25v23h662v-23q-25 -8 -34 -36t10.5 -95.5t76.5 -163.5l188 -323l181 319q55 97 73.5 165.5t9.5 97t-34 36.5v23h368z" />
    <glyph glyph-name="Thorn" unicode="&#xde;" horiz-adv-x="1513" 
d="M547 1137h401q208 0 346 -109t138 -262q0 -89 -36.5 -158.5t-98.5 -114t-150 -73t-183.5 -40t-207.5 -11.5h-211q0 -158 43.5 -245t89.5 -101v-23h-668v23q46 14 89.5 101t43.5 245v696q0 158 -43.5 245t-89.5 101v23h668v-23q-39 -12 -79.5 -81t-51.5 -193zM545 459h192
q126 0 198.5 83.5t72.5 209.5q0 122 -80.5 212.5t-190.5 90.5h-192v-596z" />
    <glyph glyph-name="germandbls" unicode="&#xdf;" horiz-adv-x="1292" 
d="M846 930q87 -17 159 -48.5t131 -81t92.5 -122t33.5 -162.5q0 -107 -28.5 -199.5t-83.5 -163.5t-144.5 -112t-204.5 -41h-96v23q81 0 125 109.5t44 330.5q0 229 -57.5 337.5t-181.5 108.5v41q203 0 203 312q0 46 -8 88.5t-25 81t-48.5 61.5t-74.5 23q-41 0 -68.5 -23.5
t-41.5 -74t-19.5 -113.5t-5.5 -156v-780q0 -158 43.5 -245t89.5 -101v-23h-639v23q46 14 89.5 101t43.5 245v663q0 109 35.5 208.5t102.5 180.5t177 129.5t248 48.5q98 0 173 -22t118.5 -55.5t71 -81.5t36.5 -92.5t9 -94.5q0 -125 -84 -209.5t-215 -113.5z" />
    <glyph glyph-name="agrave" unicode="&#xe0;" horiz-adv-x="1095" 
d="M330 1225q-36 18 -41 64t22 79q26 35 67 41t73 -20q32 -27 103.5 -96.5t127.5 -124.5l55 -56l-35 -45q-288 115 -372 158zM1028 252q0 -28 4 -50.5t13 -40.5t14.5 -27.5t19.5 -25.5t17 -20v-20q-23 -49 -68 -83t-106 -34q-74 0 -132 29t-94 73q-19 20 -35 21.5t-38 -13.5
q-126 -110 -248 -110q-159 0 -267 106.5t-108 259.5q0 164 128 279t310 115q131 0 213 -49q-10 129 -52 194.5t-132 65.5q-86 0 -141.5 -57t-55.5 -126l-47 -18q-71 27 -71 98q0 80 99.5 132.5t233.5 52.5q268 0 405.5 -130t137.5 -348v-274zM375 346q0 -122 31 -199t77 -77
q36 0 84 45q55 58 70.5 127t15.5 194v127q-54 41 -116 41q-80 0 -121 -61.5t-41 -196.5z" />
    <glyph glyph-name="aacute" unicode="&#xe1;" horiz-adv-x="1095" 
d="M842 1225q-37 -19 -130.5 -58.5t-167.5 -69.5l-75 -30l-35 45q215 216 287 277q32 26 72.5 20t66.5 -41q27 -33 22.5 -79t-40.5 -64zM1028 252q0 -28 4 -50.5t13 -40.5t14.5 -27.5t19.5 -25.5t17 -20v-20q-23 -49 -68 -83t-106 -34q-74 0 -132 29t-94 73q-19 20 -35 21.5
t-38 -13.5q-126 -110 -248 -110q-159 0 -267 106.5t-108 259.5q0 164 128 279t310 115q131 0 213 -49q-10 129 -52 194.5t-132 65.5q-86 0 -141.5 -57t-55.5 -126l-47 -18q-71 27 -71 98q0 80 99.5 132.5t233.5 52.5q268 0 405.5 -130t137.5 -348v-274zM375 346
q0 -122 31 -199t77 -77q36 0 84 45q55 58 70.5 127t15.5 194v127q-54 41 -116 41q-80 0 -121 -61.5t-41 -196.5z" />
    <glyph glyph-name="acircumflex" unicode="&#xe2;" horiz-adv-x="1095" 
d="M860 1067l-289 150l-290 -150l-41 41l342 332l319 -332zM1028 252q0 -28 4 -50.5t13 -40.5t14.5 -27.5t19.5 -25.5t17 -20v-20q-23 -49 -68 -83t-106 -34q-74 0 -132 29t-94 73q-19 20 -35 21.5t-38 -13.5q-126 -110 -248 -110q-159 0 -267 106.5t-108 259.5
q0 164 128 279t310 115q131 0 213 -49q-10 129 -52 194.5t-132 65.5q-86 0 -141.5 -57t-55.5 -126l-47 -18q-71 27 -71 98q0 80 99.5 132.5t233.5 52.5q268 0 405.5 -130t137.5 -348v-274zM375 346q0 -122 31 -199t77 -77q36 0 84 45q55 58 70.5 127t15.5 194v127
q-54 41 -116 41q-80 0 -121 -61.5t-41 -196.5z" />
    <glyph glyph-name="atilde" unicode="&#xe3;" horiz-adv-x="1095" 
d="M412 1157q-61 0 -121 -63l-19 8q6 73 58 132.5t106 59.5q46 0 91.5 -23t88.5 -46t82 -23q36 0 67 13.5t46 37.5l20 -6q-6 -76 -49.5 -129t-99.5 -53q-46 0 -97.5 23t-96.5 46t-76 23zM1028 252q0 -28 4 -50.5t13 -40.5t14.5 -27.5t19.5 -25.5t17 -20v-20q-23 -49 -68 -83
t-106 -34q-74 0 -132 29t-94 73q-19 20 -35 21.5t-38 -13.5q-126 -110 -248 -110q-159 0 -267 106.5t-108 259.5q0 164 128 279t310 115q131 0 213 -49q-10 129 -52 194.5t-132 65.5q-86 0 -141.5 -57t-55.5 -126l-47 -18q-71 27 -71 98q0 80 99.5 132.5t233.5 52.5
q268 0 405.5 -130t137.5 -348v-274zM375 346q0 -122 31 -199t77 -77q36 0 84 45q55 58 70.5 127t15.5 194v127q-54 41 -116 41q-80 0 -121 -61.5t-41 -196.5z" />
    <glyph glyph-name="adieresis" unicode="&#xe4;" horiz-adv-x="1095" 
d="M293 1065q-64 0 -111 46t-47 108q0 64 46.5 107.5t111.5 43.5t110.5 -43.5t45.5 -107.5q0 -62 -46 -108t-110 -46zM799 1065q-64 0 -111 46t-47 108q0 64 46.5 107.5t111.5 43.5t110 -43.5t45 -107.5q0 -62 -45.5 -108t-109.5 -46zM1028 252q0 -28 4 -50.5t13 -40.5
t14.5 -27.5t19.5 -25.5t17 -20v-20q-23 -49 -68 -83t-106 -34q-74 0 -132 29t-94 73q-19 20 -35 21.5t-38 -13.5q-126 -110 -248 -110q-159 0 -267 106.5t-108 259.5q0 164 128 279t310 115q131 0 213 -49q-10 129 -52 194.5t-132 65.5q-86 0 -141.5 -57t-55.5 -126l-47 -18
q-71 27 -71 98q0 80 99.5 132.5t233.5 52.5q268 0 405.5 -130t137.5 -348v-274zM375 346q0 -122 31 -199t77 -77q36 0 84 45q55 58 70.5 127t15.5 194v127q-54 41 -116 41q-80 0 -121 -61.5t-41 -196.5z" />
    <glyph glyph-name="aring" unicode="&#xe5;" horiz-adv-x="1095" 
d="M522 1065q-83 0 -140.5 55t-57.5 133q0 79 57.5 135t140.5 56t141 -56.5t58 -134.5t-58 -133t-141 -55zM500 1397q-30 -5 -40.5 -44t1.5 -110q10 -64 32.5 -98t49.5 -31q29 3 40 42.5t1 107.5q-10 64 -33 99.5t-51 33.5zM1028 252q0 -28 4 -50.5t13 -40.5t14.5 -27.5
t19.5 -25.5t17 -20v-20q-23 -49 -68 -83t-106 -34q-74 0 -132 29t-94 73q-19 20 -35 21.5t-38 -13.5q-126 -110 -248 -110q-159 0 -267 106.5t-108 259.5q0 164 128 279t310 115q131 0 213 -49q-10 129 -52 194.5t-132 65.5q-86 0 -141.5 -57t-55.5 -126l-47 -18
q-71 27 -71 98q0 80 99.5 132.5t233.5 52.5q268 0 405.5 -130t137.5 -348v-274zM375 346q0 -122 31 -199t77 -77q36 0 84 45q55 58 70.5 127t15.5 194v127q-54 41 -116 41q-80 0 -121 -61.5t-41 -196.5z" />
    <glyph glyph-name="ae" unicode="&#xe6;" horiz-adv-x="1656" 
d="M1120 158q61 -79 130 -97t126.5 27.5t87.5 142.5h197q-19 -50 -57.5 -98t-91.5 -89t-124 -66t-147 -25h-2q-138 0 -252.5 50t-189.5 138q-22 17 -53 14t-54 -26q-67 -78 -149 -128t-166 -50q-159 0 -267 106.5t-108 259.5q0 164 128 279t310 115q131 0 213 -49
q-10 129 -52 194.5t-132 65.5q-86 0 -141.5 -57t-55.5 -126l-47 -18q-71 27 -71 98q0 80 99.5 132.5t233.5 52.5q244 0 385 -113q142 113 328 113q402 0 473 -433q8 -58 -26 -92.5t-129 -34.5q-88 -2 -158 -8.5t-130.5 -20t-98 -35.5t-55 -52.5t-6.5 -73.5t52 -96zM1053 477
v-16q46 21 93 37.5t73 23.5t50.5 17.5t35.5 25.5t17.5 42t6.5 71q0 244 -145 244q-71 0 -101 -111.5t-30 -333.5zM375 346q0 -122 31 -199t77 -77q36 0 84 45q55 58 70.5 127t15.5 194v127q-54 41 -116 41q-80 0 -121 -61.5t-41 -196.5z" />
    <glyph glyph-name="ccedilla" unicode="&#xe7;" horiz-adv-x="999" 
d="M782 231h197q-18 -48 -50.5 -92t-81 -84t-120 -67t-156.5 -33l-26 -107q43 11 83 11t77 -13t59 -48t22 -89q0 -55 -20.5 -93.5t-53.5 -57t-72.5 -28t-79 -8t-72.5 5t-54 8.5l-20 5l20 66q33 -8 58.5 -8.5t51 7.5t39 34t13.5 69q0 31 -13.5 49.5t-33 22t-38.5 3t-33 -4.5
l-13 -4v45l35 133q-216 6 -363 158t-147 366q0 144 69 265t190 191.5t267 70.5q116 0 214 -35.5t158 -103t60 -152.5q0 -54 -39 -92.5t-94 -38.5q-56 0 -92.5 38.5t-32.5 92.5q0 58 -8 98.5t-19 62t-31.5 32.5t-37 13.5t-43.5 2.5q-83 0 -131.5 -117.5t-48.5 -327.5
q0 -201 71 -311.5t172 -110.5q50 0 102 47t66 129z" />
    <glyph glyph-name="egrave" unicode="&#xe8;" horiz-adv-x="1005" 
d="M725 1110l-35 -45q-289 115 -373 158q-36 18 -40.5 64t22.5 79q26 35 66.5 40.5t72.5 -20.5q32 -27 104 -96t128 -124zM813 231h197q-41 -108 -157 -193t-265 -85q-124 0 -231 41t-180.5 111.5t-115 167t-41.5 204.5q0 107 41 204.5t111 168.5t168 112.5t207 41.5
q402 0 473 -433q8 -57 -26.5 -92t-129.5 -35q-88 -2 -158 -8.5t-130.5 -20t-97.5 -35.5t-54.5 -52.5t-6.5 -73.5t52 -96q61 -79 130 -97t126.5 27.5t87.5 142.5zM532 922q-71 0 -101 -111.5t-30 -333.5v-16q53 24 108.5 42.5t81 25.5t49 23.5t31 44.5t7.5 81q0 244 -146 244
z" />
    <glyph glyph-name="eacute" unicode="&#xe9;" horiz-adv-x="1005" 
d="M334 1063l-35 45q215 215 287 276q32 26 72.5 20.5t66.5 -40.5q27 -33 22.5 -79t-40.5 -64q-37 -19 -130.5 -58.5t-168.5 -69.5zM813 231h197q-41 -108 -157 -193t-265 -85q-124 0 -231 41t-180.5 111.5t-115 167t-41.5 204.5q0 107 41 204.5t111 168.5t168 112.5
t207 41.5q402 0 473 -433q8 -57 -26.5 -92t-129.5 -35q-88 -2 -158 -8.5t-130.5 -20t-97.5 -35.5t-54.5 -52.5t-6.5 -73.5t52 -96q61 -79 130 -97t126.5 27.5t87.5 142.5zM532 922q-71 0 -101 -111.5t-30 -333.5v-16q53 24 108.5 42.5t81 25.5t49 23.5t31 44.5t7.5 81
q0 244 -146 244z" />
    <glyph glyph-name="ecircumflex" unicode="&#xea;" horiz-adv-x="1005" 
d="M221 1067l-41 41l342 332l320 -332l-41 -41l-289 150zM813 231h197q-41 -108 -157 -193t-265 -85q-124 0 -231 41t-180.5 111.5t-115 167t-41.5 204.5q0 107 41 204.5t111 168.5t168 112.5t207 41.5q402 0 473 -433q8 -57 -26.5 -92t-129.5 -35q-88 -2 -158 -8.5
t-130.5 -20t-97.5 -35.5t-54.5 -52.5t-6.5 -73.5t52 -96q61 -79 130 -97t126.5 27.5t87.5 142.5zM532 922q-71 0 -101 -111.5t-30 -333.5v-16q53 24 108.5 42.5t81 25.5t49 23.5t31 44.5t7.5 81q0 244 -146 244z" />
    <glyph glyph-name="edieresis" unicode="&#xeb;" horiz-adv-x="1005" 
d="M254 1063q-64 0 -111 46t-47 108q0 64 46.5 107.5t111.5 43.5t110.5 -43.5t45.5 -107.5q0 -62 -46 -108t-110 -46zM760 1063q-64 0 -111 46t-47 108q0 64 46.5 107.5t111.5 43.5t110 -43.5t45 -107.5q0 -62 -45.5 -108t-109.5 -46zM813 231h197q-41 -108 -157 -193
t-265 -85q-124 0 -231 41t-180.5 111.5t-115 167t-41.5 204.5q0 107 41 204.5t111 168.5t168 112.5t207 41.5q402 0 473 -433q8 -57 -26.5 -92t-129.5 -35q-88 -2 -158 -8.5t-130.5 -20t-97.5 -35.5t-54.5 -52.5t-6.5 -73.5t52 -96q61 -79 130 -97t126.5 27.5t87.5 142.5z
M532 922q-71 0 -101 -111.5t-30 -333.5v-16q53 24 108.5 42.5t81 25.5t49 23.5t31 44.5t7.5 81q0 244 -146 244z" />
    <glyph glyph-name="igrave" unicode="&#xec;" horiz-adv-x="688" 
d="M543 1116l-35 -45q-289 115 -373 158q-36 18 -40.5 64t22.5 79q26 35 66.5 41t72.5 -20q32 -27 103.5 -96.5t127.5 -124.5zM461 1004q74 0 74 -148v-487q0 -158 43.5 -245t89.5 -101v-23h-639v23q46 14 89.5 101t43.5 245v86q0 122 -38.5 182.5t-123.5 89.5v27
q47 9 103 38t106 64t96.5 69t88 56.5t67.5 22.5z" />
    <glyph glyph-name="iacute" unicode="&#xed;" horiz-adv-x="688" 
d="M147 1067l-34 45q214 216 286 277q32 26 73 20t67 -41q27 -33 22 -79t-41 -64q-37 -19 -130.5 -58.5t-167.5 -69.5zM461 1004q74 0 74 -148v-487q0 -158 43.5 -245t89.5 -101v-23h-639v23q46 14 89.5 101t43.5 245v86q0 122 -38.5 182.5t-123.5 89.5v27q47 9 103 38
t106 64t96.5 69t88 56.5t67.5 22.5z" />
    <glyph glyph-name="icircumflex" unicode="&#xee;" horiz-adv-x="688" 
d="M51 1069l-41 41l342 332l320 -332l-41 -41l-289 150zM461 1004q74 0 74 -148v-487q0 -158 43.5 -245t89.5 -101v-23h-639v23q46 14 89.5 101t43.5 245v86q0 122 -38.5 182.5t-123.5 89.5v27q47 9 103 38t106 64t96.5 69t88 56.5t67.5 22.5z" />
    <glyph glyph-name="idieresis" unicode="&#xef;" horiz-adv-x="688" 
d="M80 1069q-64 0 -111 46t-47 108q0 64 46.5 107.5t111.5 43.5t110.5 -43.5t45.5 -107.5q0 -62 -46 -108t-110 -46zM586 1069q-64 0 -111 46t-47 108q0 64 46.5 107.5t111.5 43.5t110 -43.5t45 -107.5q0 -62 -45.5 -108t-109.5 -46zM461 1004q74 0 74 -148v-487
q0 -158 43.5 -245t89.5 -101v-23h-639v23q46 14 89.5 101t43.5 245v86q0 122 -38.5 182.5t-123.5 89.5v27q47 9 103 38t106 64t96.5 69t88 56.5t67.5 22.5z" />
    <glyph glyph-name="eth" unicode="&#xf0;" horiz-adv-x="1228" 
d="M885 1458l-152 -110q157 -144 252.5 -338t95.5 -400q0 -150 -43.5 -274.5t-119 -207.5t-178.5 -129t-222 -46q-115 0 -212 48t-161.5 129.5t-100.5 187.5t-36 223q0 90 26.5 167t70.5 130.5t100.5 91.5t117.5 56t121 18q134 0 230 -80q-35 172 -99 309l-186 -137l-47 67
l197 144q-98 170 -224 223l2 47q184 -44 351 -176l170 125zM416 463q0 -225 35.5 -324.5t115.5 -99.5q71 0 107.5 82t44.5 250v129q0 92 -10 209q-31 180 -142 180q-80 0 -115.5 -100t-35.5 -326z" />
    <glyph glyph-name="ntilde" unicode="&#xf1;" horiz-adv-x="1255" 
d="M465 1161q-61 0 -121 -63l-18 8q6 74 57.5 133t105.5 59q46 0 92 -23t89 -46t82 -23q81 0 112 51l21 -6q-6 -76 -50 -129t-100 -53q-46 0 -97.5 23t-96.5 46t-76 23zM1141 645v-276q0 -84 10 -151.5t25 -106.5t30 -60.5t29 -27.5v-23h-559v23q13 6 27.5 27.5t29.5 60.5
t25 106.5t10 151.5v254q0 95 -29.5 157t-83.5 62q-120 0 -120 -240v-233q0 -84 10 -151.5t25 -106.5t30 -60.5t29 -27.5v-23h-600v23q46 14 89.5 101t43.5 245v86q0 122 -38.5 182.5t-123.5 89.5v27q47 9 103 38t106 64t96.5 69t88 56.5t67.5 22.5q74 0 74 -148v-4
q129 147 309 147q64 0 115.5 -21t85 -55t55.5 -81t31.5 -95.5t9.5 -101.5z" />
    <glyph glyph-name="ograve" unicode="&#xf2;" horiz-adv-x="1071" 
d="M739 1110l-34 -45q-289 115 -373 158q-36 18 -41 64t22 79q26 35 67 40.5t73 -20.5q32 -27 103.5 -96t127.5 -124zM516 -47q-146 0 -267 70t-190 190t-69 264t69 265t190 191.5t267 70.5q145 0 265.5 -70.5t189.5 -191.5t69 -265t-69 -264t-189.5 -190t-265.5 -70z
M578 41q74 9 101 129.5t-1 329.5q-29 209 -88 319t-135 99q-77 -11 -105 -132.5t0 -330.5q31 -209 91 -317.5t137 -96.5z" />
    <glyph glyph-name="oacute" unicode="&#xf3;" horiz-adv-x="1071" 
d="M326 1067l-35 45q215 216 287 277q32 26 72.5 20t66.5 -41q27 -33 22 -79t-41 -64q-37 -19 -130 -58.5t-168 -69.5zM516 -47q-146 0 -267 70t-190 190t-69 264t69 265t190 191.5t267 70.5q145 0 265.5 -70.5t189.5 -191.5t69 -265t-69 -264t-189.5 -190t-265.5 -70z
M578 41q74 9 101 129.5t-1 329.5q-29 209 -88 319t-135 99q-77 -11 -105 -132.5t0 -330.5q31 -209 91 -317.5t137 -96.5z" />
    <glyph glyph-name="ocircumflex" unicode="&#xf4;" horiz-adv-x="1071" 
d="M225 1061l-41 41l342 332l320 -332l-41 -41l-289 149zM516 -47q-146 0 -267 70t-190 190t-69 264t69 265t190 191.5t267 70.5q145 0 265.5 -70.5t189.5 -191.5t69 -265t-69 -264t-189.5 -190t-265.5 -70zM578 41q74 9 101 129.5t-1 329.5q-29 209 -88 319t-135 99
q-77 -11 -105 -132.5t0 -330.5q31 -209 91 -317.5t137 -96.5z" />
    <glyph glyph-name="otilde" unicode="&#xf5;" horiz-adv-x="1071" 
d="M645 1065q-46 0 -97.5 23t-96.5 46t-76 23q-61 0 -121 -63l-18 8q6 74 57.5 133t105.5 59q46 0 92 -23t89 -46t82 -23q81 0 112 51l21 -6q-6 -76 -50 -129t-100 -53zM516 -47q-146 0 -267 70t-190 190t-69 264t69 265t190 191.5t267 70.5q145 0 265.5 -70.5t189.5 -191.5
t69 -265t-69 -264t-189.5 -190t-265.5 -70zM578 41q74 9 101 129.5t-1 329.5q-29 209 -88 319t-135 99q-77 -11 -105 -132.5t0 -330.5q31 -209 91 -317.5t137 -96.5z" />
    <glyph glyph-name="odieresis" unicode="&#xf6;" horiz-adv-x="1071" 
d="M264 1067q-64 0 -111 46t-47 108q0 64 46.5 107.5t111.5 43.5t110.5 -43.5t45.5 -107.5q0 -62 -46 -108t-110 -46zM770 1067q-64 0 -111 46t-47 108q0 64 46.5 107.5t111.5 43.5t110.5 -43.5t45.5 -107.5q0 -62 -46 -108t-110 -46zM516 -47q-146 0 -267 70t-190 190
t-69 264t69 265t190 191.5t267 70.5q145 0 265.5 -70.5t189.5 -191.5t69 -265t-69 -264t-189.5 -190t-265.5 -70zM578 41q74 9 101 129.5t-1 329.5q-29 209 -88 319t-135 99q-77 -11 -105 -132.5t0 -330.5q31 -209 91 -317.5t137 -96.5z" />
    <glyph glyph-name="divide" unicode="&#xf7;" horiz-adv-x="778" 
d="M389 752q-54 0 -90.5 36.5t-36.5 90.5q0 53 36.5 89t90.5 36q53 0 89.5 -36.5t35.5 -88.5q0 -55 -36 -91t-89 -36zM82 596v74h614v-74h-614zM389 262q-54 0 -90.5 36.5t-36.5 90.5q0 53 36.5 89t90.5 36q53 0 89.5 -36.5t35.5 -88.5q0 -55 -36 -91t-89 -36z" />
    <glyph glyph-name="oslash" unicode="&#xf8;" horiz-adv-x="1071" 
d="M891 1065l-86 -147q108 -70 171.5 -187t63.5 -254q0 -144 -69 -264t-189.5 -190t-265.5 -70q-133 0 -244 57l-34 -57h-93l60 100q-100 72 -157.5 183t-57.5 241q0 144 69 265t190 191.5t267 70.5q117 0 219 -48l64 109h92zM350 455q9 -65 21 -117l247 418
q-65 174 -163 162q-77 -11 -105 -132.5t0 -330.5zM578 41q74 9 101 129.5t-1 329.5q-9 61 -29 153l-248 -422q34 -101 79 -149.5t98 -40.5z" />
    <glyph glyph-name="ugrave" unicode="&#xf9;" horiz-adv-x="1058" 
d="M315 1225q-36 18 -40.5 64t22.5 79q26 35 66.5 41t72.5 -20q32 -27 103.5 -96.5t127.5 -124.5l56 -56l-35 -45q-289 115 -373 158zM1090 963v-23q-16 -8 -33 -41t-32 -114t-15 -191v-342q0 -29 3.5 -51t12.5 -40.5t14 -26.5t19.5 -25t17.5 -21v-20q-23 -49 -68 -83
t-106 -34q-104 0 -170 47t-88 133q-118 -168 -303 -168q-64 0 -115.5 21t-85 55t-55.5 81t-31.5 95.5t-9.5 101.5v277q0 84 -10 151.5t-25 106.5t-30 60.5t-29 27.5v23h467v-652q0 -184 112 -184q58 0 81.5 63.5t23.5 190.5v213q0 84 -10 151.5t-25 106.5t-29.5 60.5
t-27.5 27.5v23h547z" />
    <glyph glyph-name="uacute" unicode="&#xfa;" horiz-adv-x="1058" 
d="M700 1225q-37 -19 -130 -58.5t-168 -69.5l-74 -30l-35 45q215 216 287 277q32 26 72.5 20t66.5 -41q27 -33 22 -79t-41 -64zM1090 963v-23q-16 -8 -33 -41t-32 -114t-15 -191v-342q0 -29 3.5 -51t12.5 -40.5t14 -26.5t19.5 -25t17.5 -21v-20q-23 -49 -68 -83t-106 -34
q-104 0 -170 47t-88 133q-118 -168 -303 -168q-64 0 -115.5 21t-85 55t-55.5 81t-31.5 95.5t-9.5 101.5v277q0 84 -10 151.5t-25 106.5t-30 60.5t-29 27.5v23h467v-652q0 -184 112 -184q58 0 81.5 63.5t23.5 190.5v213q0 84 -10 151.5t-25 106.5t-29.5 60.5t-27.5 27.5v23
h547z" />
    <glyph glyph-name="ucircumflex" unicode="&#xfb;" horiz-adv-x="1058" 
d="M801 1065l-289 149l-291 -149l-41 41l342 332l320 -332zM1090 963v-23q-16 -8 -33 -41t-32 -114t-15 -191v-342q0 -29 3.5 -51t12.5 -40.5t14 -26.5t19.5 -25t17.5 -21v-20q-23 -49 -68 -83t-106 -34q-104 0 -170 47t-88 133q-118 -168 -303 -168q-64 0 -115.5 21t-85 55
t-55.5 81t-31.5 95.5t-9.5 101.5v277q0 84 -10 151.5t-25 106.5t-30 60.5t-29 27.5v23h467v-652q0 -184 112 -184q58 0 81.5 63.5t23.5 190.5v213q0 84 -10 151.5t-25 106.5t-29.5 60.5t-27.5 27.5v23h547z" />
    <glyph glyph-name="udieresis" unicode="&#xfc;" horiz-adv-x="1058" 
d="M268 1067q-64 0 -110.5 46t-46.5 108q0 64 46 107.5t111 43.5t110.5 -43.5t45.5 -107.5q0 -62 -46 -108t-110 -46zM774 1067q-64 0 -111 46t-47 108q0 64 46.5 107.5t111.5 43.5t110.5 -43.5t45.5 -107.5q0 -62 -46 -108t-110 -46zM1090 963v-23q-16 -8 -33 -41t-32 -114
t-15 -191v-342q0 -29 3.5 -51t12.5 -40.5t14 -26.5t19.5 -25t17.5 -21v-20q-23 -49 -68 -83t-106 -34q-104 0 -170 47t-88 133q-118 -168 -303 -168q-64 0 -115.5 21t-85 55t-55.5 81t-31.5 95.5t-9.5 101.5v277q0 84 -10 151.5t-25 106.5t-30 60.5t-29 27.5v23h467v-652
q0 -184 112 -184q58 0 81.5 63.5t23.5 190.5v213q0 84 -10 151.5t-25 106.5t-29.5 60.5t-27.5 27.5v23h547z" />
    <glyph glyph-name="yacute" unicode="&#xfd;" horiz-adv-x="876" 
d="M682 1219q-37 -19 -130.5 -58.5t-167.5 -69.5l-75 -30l-35 45q215 215 287 276q32 26 72.5 20.5t66.5 -40.5q27 -33 22.5 -79t-40.5 -64zM999 963v-23q-51 -16 -128.5 -97t-131.5 -227l-348 -952q-44 -122 -126 -188t-185 -66q-89 0 -152 63t-63 152t63 152t152 63
q47 0 84.5 -15.5t55.5 -34.5t38 -34.5t37 -15.5q30 0 57 80l66 180h-162l-195 612q-49 148 -113.5 230t-105.5 98v23h656v-23q-19 -6 -33 -26.5t-22 -57.5t0 -101.5t34 -144.5l76 -239l90 245q29 79 40 142t4.5 99.5t-19 56.5t-31.5 26v23h362z" />
    <glyph glyph-name="thorn" unicode="&#xfe;" horiz-adv-x="1155" 
d="M688 1004q60 0 121 -18t117.5 -56t100.5 -91.5t70.5 -130.5t26.5 -167q0 -95 -17.5 -181t-54 -160.5t-90 -129t-130 -86t-168.5 -31.5q-94 0 -166 45q-25 16 -38 23.5t-25.5 10.5t-17.5 -5t-5 -27v-539h-508v23q46 14 89.5 101t43.5 245l2 1053q0 122 -38.5 182.5
t-123.5 89.5v27q57 10 130 51.5t129 84.5t113 77.5t89 34.5q18 0 31.5 -5.5t21 -17.5t12.5 -22.5t6.5 -30t2 -30t0.5 -31.5v-9v-405q109 125 276 125zM565 39q80 0 116 99.5t36 324.5q0 226 -36 326t-116 100q-25 0 -45.5 -8.5t-41 -32.5t-34.5 -63t-23 -104.5t-9 -152.5
v-36q0 -232 35 -342.5t118 -110.5z" />
    <glyph glyph-name="ydieresis" unicode="&#xff;" horiz-adv-x="876" 
d="M178 1071q-64 0 -111 46t-47 108q0 64 46.5 107.5t111.5 43.5t110.5 -43.5t45.5 -107.5q0 -62 -46 -108t-110 -46zM684 1071q-64 0 -111 46t-47 108q0 64 46.5 107.5t111.5 43.5t110.5 -43.5t45.5 -107.5q0 -62 -46 -108t-110 -46zM999 963v-23q-51 -16 -128.5 -97
t-131.5 -227l-348 -952q-44 -122 -126 -188t-185 -66q-89 0 -152 63t-63 152t63 152t152 63q47 0 84.5 -15.5t55.5 -34.5t38 -34.5t37 -15.5q30 0 57 80l66 180h-162l-195 612q-49 148 -113.5 230t-105.5 98v23h656v-23q-19 -6 -33 -26.5t-22 -57.5t0 -101.5t34 -144.5
l76 -239l90 245q29 79 40 142t4.5 99.5t-19 56.5t-31.5 26v23h362z" />
    <glyph glyph-name="Amacron" unicode="&#x100;" horiz-adv-x="1558" 
d="M485 1683h457v-147h-457v147zM827 1434l492 -1127q31 -70 67.5 -126.5t68.5 -88.5t55 -49.5t38 -22.5v-20h-704v23q18 6 30 25.5t16.5 55.5t-9 97t-45.5 139l-27 63h-551q-35 -91 -47.5 -163t-4 -114t25.5 -66t42 -31v-29h-395v20q17 5 41.5 22.5t58 49.5t70.5 88t66 125
l475 1129h237zM535 1061l-242 -576h481z" />
    <glyph glyph-name="amacron" unicode="&#x101;" horiz-adv-x="1095" 
d="M283 1214h456v-147h-456v147zM1028 252q0 -28 4 -50.5t13 -40.5t14.5 -27.5t19.5 -25.5t17 -20v-20q-23 -49 -68 -83t-106 -34q-74 0 -132 29t-94 73q-19 20 -35 21.5t-38 -13.5q-126 -110 -248 -110q-159 0 -267 106.5t-108 259.5q0 164 128 279t310 115q131 0 213 -49
q-10 129 -52 194.5t-132 65.5q-86 0 -141.5 -57t-55.5 -126l-47 -18q-71 27 -71 98q0 80 99.5 132.5t233.5 52.5q268 0 405.5 -130t137.5 -348v-274zM375 346q0 -122 31 -199t77 -77q36 0 84 45q55 58 70.5 127t15.5 194v127q-54 41 -116 41q-80 0 -121 -61.5t-41 -196.5z
" />
    <glyph glyph-name="Abreve" unicode="&#x102;" horiz-adv-x="1558" 
d="M700 1536q-49 0 -89.5 16t-65.5 42t-43.5 57t-27.5 62.5t-14 57.5t-6 42l-1 16h41q2 -6 6.5 -15t22 -33t38.5 -42.5t58.5 -33.5t80.5 -15q44 0 81.5 14.5t59.5 35t37 40.5t21 34l6 15h41q0 -6 -1.5 -16.5t-8.5 -41t-16.5 -58t-29 -61.5t-44 -58.5t-62.5 -41t-84 -16.5z
M827 1434l492 -1127q31 -70 67.5 -126.5t68.5 -88.5t55 -49.5t38 -22.5v-20h-704v23q18 6 30 25.5t16.5 55.5t-9 97t-45.5 139l-27 63h-551q-35 -91 -47.5 -163t-4 -114t25.5 -66t42 -31v-29h-395v20q17 5 41.5 22.5t58 49.5t70.5 88t66 125l475 1129h237zM535 1061
l-242 -576h481z" />
    <glyph glyph-name="abreve" unicode="&#x103;" horiz-adv-x="1095" 
d="M561 1065q-49 0 -89.5 16t-65.5 42t-44 57t-28 62.5t-14 57.5t-6 42l-1 16h41q2 -6 6.5 -15t22 -33t39 -42.5t59 -33.5t80.5 -15q44 0 81.5 14.5t59.5 35t37 40.5t21 35l6 14h41q0 -6 -1.5 -16.5t-8.5 -41t-16.5 -58t-29 -61.5t-44 -58.5t-62.5 -41t-84 -16.5zM1028 252
q0 -28 4 -50.5t13 -40.5t14.5 -27.5t19.5 -25.5t17 -20v-20q-23 -49 -68 -83t-106 -34q-74 0 -132 29t-94 73q-19 20 -35 21.5t-38 -13.5q-126 -110 -248 -110q-159 0 -267 106.5t-108 259.5q0 164 128 279t310 115q131 0 213 -49q-10 129 -52 194.5t-132 65.5
q-86 0 -141.5 -57t-55.5 -126l-47 -18q-71 27 -71 98q0 80 99.5 132.5t233.5 52.5q268 0 405.5 -130t137.5 -348v-274zM375 346q0 -122 31 -199t77 -77q36 0 84 45q55 58 70.5 127t15.5 194v127q-54 41 -116 41q-80 0 -121 -61.5t-41 -196.5z" />
    <glyph glyph-name="Aogonek" unicode="&#x104;" horiz-adv-x="1558" 
d="M1546 -301l8 -41q-72 -62 -157.5 -74.5t-145 28t-59.5 120.5t62.5 158.5t131.5 109.5h-542v23q18 6 30 25.5t16.5 55.5t-9 97t-45.5 139l-27 63h-551q-35 -91 -47.5 -163t-4 -114t25.5 -66t42 -31v-29h-395v20q17 5 41.5 22.5t58 49.5t70.5 88t66 125l475 1129h237
l492 -1127q31 -70 67.5 -126.5t68.5 -88.5t55 -49.5t38 -22.5v-20h-96q-37 -44 -59.5 -100.5t-22.5 -102.5q0 -61 52 -93t124 -5zM535 1061l-242 -576h481z" />
    <glyph glyph-name="aogonek" unicode="&#x105;" horiz-adv-x="1095" 
d="M1096 88v-20q-19 -41 -55 -73t-85 -40q-49 -84 -49 -158q0 -61 52 -93t124 -5l9 -41q-72 -62 -158 -74.5t-145.5 28t-59.5 120.5q0 61 37 121.5t92 103.5q-98 21 -162 96q-19 20 -35 21.5t-38 -13.5q-126 -110 -248 -110q-159 0 -267 106.5t-108 259.5q0 164 128 279
t310 115q131 0 213 -49q-10 129 -52 194.5t-132 65.5q-86 0 -141.5 -57t-55.5 -126l-47 -18q-71 27 -71 98q0 80 99.5 132.5t233.5 52.5q268 0 405.5 -130t137.5 -348v-274q0 -28 4 -50.5t13 -40.5t14.5 -27.5t19.5 -25.5t17 -20zM375 346q0 -122 31 -199t77 -77q36 0 84 45
q55 58 70.5 127t15.5 194v127q-54 41 -116 41q-80 0 -121 -61.5t-41 -196.5z" />
    <glyph glyph-name="Cacute" unicode="&#x106;" horiz-adv-x="1415" 
d="M688 1528l-35 45q215 215 287 276q32 26 72.5 20.5t66.5 -40.5q27 -33 22.5 -79t-40.5 -64q-37 -19 -130.5 -58.5t-168.5 -69.5zM1462 1174q0 -54 -39 -93t-94 -39q-56 0 -92.5 39t-32.5 93q9 108 -48 160t-193 52q-106 0 -192.5 -35t-147 -98t-101.5 -151.5t-60.5 -193
t-19.5 -224.5q0 -112 34.5 -207.5t92 -161t132.5 -112.5t155.5 -68.5t161.5 -21.5q101 0 219 46t184 134h66q-21 -57 -77 -116.5t-136.5 -111.5t-191.5 -85t-228 -33q-239 0 -429.5 98t-297.5 272.5t-107 393.5q0 226 103 402t286 272t416 96q132 0 251.5 -26t203 -69
t133 -98.5t49.5 -113.5z" />
    <glyph glyph-name="cacute" unicode="&#x107;" horiz-adv-x="999" 
d="M723 1225q-37 -19 -130.5 -58.5t-168.5 -69.5l-74 -30l-35 45q215 216 287 277q32 26 72.5 20t66.5 -41q27 -33 22.5 -79t-40.5 -64zM782 231h197q-20 -52 -56 -98.5t-91.5 -88t-137 -66.5t-178.5 -25q-146 0 -267 70t-190 190t-69 264t69 265t190 191.5t267 70.5
q116 0 214 -35.5t158 -103t60 -152.5q0 -54 -39 -92.5t-94 -38.5q-56 0 -92.5 38.5t-32.5 92.5q0 58 -8 98.5t-19 62t-31.5 32.5t-37 13.5t-43.5 2.5q-83 0 -131.5 -117.5t-48.5 -327.5q0 -201 71 -311.5t172 -110.5q50 0 102 47t66 129z" />
    <glyph glyph-name="Ccaron" unicode="&#x10c;" horiz-adv-x="1415" 
d="M899 1536l-342 332l41 41l291 -150l289 150l41 -41zM1462 1174q0 -54 -39 -93t-94 -39q-56 0 -92.5 39t-32.5 93q9 108 -48 160t-193 52q-106 0 -192.5 -35t-147 -98t-101.5 -151.5t-60.5 -193t-19.5 -224.5q0 -112 34.5 -207.5t92 -161t132.5 -112.5t155.5 -68.5
t161.5 -21.5q101 0 219 46t184 134h66q-21 -57 -77 -116.5t-136.5 -111.5t-191.5 -85t-228 -33q-239 0 -429.5 98t-297.5 272.5t-107 393.5q0 226 103 402t286 272t416 96q132 0 251.5 -26t203 -69t133 -98.5t49.5 -113.5z" />
    <glyph glyph-name="ccaron" unicode="&#x10d;" horiz-adv-x="999" 
d="M801 1436l41 -41l-320 -332l-342 332l41 41l291 -150zM782 231h197q-20 -52 -56 -98.5t-91.5 -88t-137 -66.5t-178.5 -25q-146 0 -267 70t-190 190t-69 264t69 265t190 191.5t267 70.5q116 0 214 -35.5t158 -103t60 -152.5q0 -54 -39 -92.5t-94 -38.5q-56 0 -92.5 38.5
t-32.5 92.5q0 58 -8 98.5t-19 62t-31.5 32.5t-37 13.5t-43.5 2.5q-83 0 -131.5 -117.5t-48.5 -327.5q0 -201 71 -311.5t172 -110.5q50 0 102 47t66 129z" />
    <glyph glyph-name="Dcaron" unicode="&#x10e;" horiz-adv-x="1554" 
d="M1057 1909l41 -41l-320 -332l-342 332l41 41l291 -150zM827 1434q162 0 297 -55t223.5 -149t137.5 -218.5t49 -263.5q0 -121 -24.5 -224t-67 -178t-101.5 -135.5t-124.5 -99t-140 -64.5t-144.5 -36.5t-141 -10.5h-781v23q46 14 89.5 101t43.5 245v696q0 158 -43.5 245
t-89.5 101v23h817zM545 82h151q99 0 176 32t137 103.5t92 196.5t32 301q0 145 -21 256.5t-68 199.5t-130 134.5t-199 46.5h-170v-1270z" />
    <glyph glyph-name="dcaron" unicode="&#x10f;" horiz-adv-x="1259" 
d="M1262 1870q74 0 114.5 -45.5t40.5 -128.5q0 -60 -11 -122.5t-48 -135.5t-96 -111l-35 37q73 70 81 137q6 52 -35 59q-5 1 -11 1q-63 0 -108.5 45.5t-45.5 109.5q0 63 45.5 108.5t108.5 45.5zM1106 1438v-1069q0 -158 43.5 -245t89.5 -101v-23h-508q-12 25 -27 25t-57 -27
q-72 -45 -166 -45q-114 0 -204 47.5t-145 130t-83.5 187t-28.5 223.5q0 90 26.5 167t70.5 130.5t101 91.5t118 56t121 18q167 0 276 -125v157q0 122 -38.5 183t-123.5 90v26q57 10 130 51.5t129 84.5t113 77.5t89 34.5q26 0 42.5 -11.5t22.5 -36t7.5 -41t1.5 -47.5v-9z
M428 463q0 -225 36 -324.5t116 -99.5q75 0 110.5 90t40.5 277l2 176q-4 92 -17.5 155.5t-36 95t-46 44t-53.5 12.5q-80 0 -116 -100t-36 -326z" />
    <glyph glyph-name="Dcroat" unicode="&#x110;" horiz-adv-x="1554" 
d="M827 1434q162 0 297 -55t223.5 -149t137.5 -218.5t49 -263.5q0 -121 -24.5 -224t-67 -178t-101.5 -135.5t-124.5 -99t-140 -64.5t-144.5 -36.5t-141 -10.5h-781v23q46 14 89.5 101t43.5 245v266h-71v82h71v348q0 158 -43.5 245t-89.5 101v23h817zM545 82h151q99 0 176 32
t137 103.5t92 196.5t32 301q0 145 -21 256.5t-68 199.5t-130 134.5t-199 46.5h-170v-635h73v-82h-73v-553z" />
    <glyph glyph-name="dcroat" unicode="&#x111;" horiz-adv-x="1228" 
d="M1126 1065v-696q0 -158 44 -245t90 -101v-23h-508q-12 25 -27 25t-57 -27q-72 -45 -166 -45q-114 0 -204 47.5t-145 130t-83.5 187t-28.5 223.5q0 90 26.5 167t70.5 130.5t100.5 91.5t117.5 56t121 18q168 0 277 -125v157v29h-92v82h81q-14 65 -51 103t-100 59v26
q57 10 130 51.5t129 84.5t113 77.5t89 34.5q18 0 31 -5t20.5 -17t12.5 -22t6.5 -29.5t2 -29.5t0.5 -32v-10v-291h82v-82h-82zM449 463q0 -225 35.5 -324.5t115.5 -99.5q75 0 111 90.5t41 276.5l2 176q-4 92 -18 155.5t-36.5 95t-46 44t-53.5 12.5q-80 0 -115.5 -100
t-35.5 -326z" />
    <glyph glyph-name="Emacron" unicode="&#x112;" horiz-adv-x="1310" 
d="M453 1683h456v-147h-456v147zM1325 346l37 -20l-109 -326h-1243v23q46 14 89.5 101t43.5 245v696q0 158 -43.5 245t-89.5 101v23h1229l109 -326l-37 -21q-58 115 -190.5 190t-315.5 75q-149 0 -260 -17v-547q86 0 137.5 0.5t105.5 4.5t82 9t58 17t43.5 24.5t29 37
t24 49.5t19.5 65h46v-497h-46q-9 34 -15.5 56t-18.5 44t-20 35.5t-28 26.5t-33.5 19.5t-47 13t-57.5 8.5t-75.5 4t-91 2h-112.5v-613q90 -12 233 -12q185 0 333 75.5t214 188.5z" />
    <glyph glyph-name="emacron" unicode="&#x113;" horiz-adv-x="1005" 
d="M283 1069v148h456v-148h-456zM813 231h197q-41 -108 -157 -193t-265 -85q-124 0 -231 41t-180.5 111.5t-115 167t-41.5 204.5q0 107 41 204.5t111 168.5t168 112.5t207 41.5q402 0 473 -433q8 -57 -26.5 -92t-129.5 -35q-88 -2 -158 -8.5t-130.5 -20t-97.5 -35.5
t-54.5 -52.5t-6.5 -73.5t52 -96q61 -79 130 -97t126.5 27.5t87.5 142.5zM532 922q-71 0 -101 -111.5t-30 -333.5v-16q53 24 108.5 42.5t81 25.5t49 23.5t31 44.5t7.5 81q0 244 -146 244z" />
    <glyph glyph-name="Edotaccent" unicode="&#x116;" horiz-adv-x="1310" 
d="M664 1538q-64 0 -111 46t-47 108v8v10q0 71 51.5 120.5t124.5 49.5q72 0 123 -49t51 -121q0 -70 -51 -121t-123 -51h-10h-8zM1325 346l37 -20l-109 -326h-1243v23q46 14 89.5 101t43.5 245v696q0 158 -43.5 245t-89.5 101v23h1229l109 -326l-37 -21q-58 115 -190.5 190
t-315.5 75q-149 0 -260 -17v-547q86 0 137.5 0.5t105.5 4.5t82 9t58 17t43.5 24.5t29 37t24 49.5t19.5 65h46v-497h-46q-9 34 -15.5 56t-18.5 44t-20 35.5t-28 26.5t-33.5 19.5t-47 13t-57.5 8.5t-75.5 4t-91 2h-112.5v-613q90 -12 233 -12q185 0 333 75.5t214 188.5z" />
    <glyph glyph-name="edotaccent" unicode="&#x117;" horiz-adv-x="1005" 
d="M516 1063q-64 0 -111 46t-47 108v8v10q0 71 52 120.5t125 49.5q72 0 123 -49t51 -121q0 -69 -51.5 -120.5t-122.5 -51.5h-11h-8zM469 158q61 -79 130 -97t126.5 27.5t87.5 142.5h197q-41 -108 -157 -193t-265 -85q-124 0 -231 41t-180.5 111.5t-115 167t-41.5 204.5
q0 107 41 204.5t111 168.5t168 112.5t207 41.5q402 0 473 -433q8 -57 -26.5 -92t-129.5 -35q-88 -2 -158 -8.5t-130.5 -20t-97.5 -35.5t-54.5 -52.5t-6.5 -73.5t52 -96zM401 477v-16q53 24 108.5 42.5t81 25.5t49 23.5t31 44.5t7.5 81q0 244 -146 244q-71 0 -101 -111.5
t-30 -333.5z" />
    <glyph glyph-name="Eogonek" unicode="&#x118;" horiz-adv-x="1310" 
d="M1122 -203q0 -61 52 -93t124 -5l9 -41q-72 -62 -158 -74.5t-145.5 28t-59.5 120.5t63 158.5t132 109.5h-1129v23q46 14 89.5 101t43.5 245v696q0 158 -43.5 245t-89.5 101v23h1229l109 -326l-37 -21q-58 115 -190.5 190t-315.5 75q-149 0 -260 -17v-547q86 0 137.5 0.5
t105.5 4.5t82 9t58 17t43.5 24.5t29 37t24 49.5t19.5 65h46v-497h-46q-9 34 -15.5 56t-18.5 44t-20 35.5t-28 26.5t-33.5 19.5t-47 13t-57.5 8.5t-75.5 4t-91 2h-112.5v-613q90 -12 233 -12q185 0 333 75.5t214 188.5l37 -20l-109 -326h-49q-37 -44 -59.5 -100.5
t-22.5 -102.5z" />
    <glyph glyph-name="eogonek" unicode="&#x119;" horiz-adv-x="1005" 
d="M469 158q61 -79 130 -97t126.5 27.5t87.5 142.5h197q-39 -104 -150.5 -188t-255.5 -90q-47 -79 -47 -152q0 -61 52 -93t124 -5l8 -41q-72 -62 -157.5 -74.5t-145 28t-59.5 120.5q0 59 35.5 118t87.5 103q-216 27 -349 173t-133 347q0 107 41 204.5t111 168.5t168 112.5
t207 41.5q402 0 473 -433q8 -57 -26.5 -92t-129.5 -35q-88 -2 -158 -8.5t-130.5 -20t-97.5 -35.5t-54.5 -52.5t-6.5 -73.5t52 -96zM401 477v-16q53 24 108.5 42.5t81 25.5t49 23.5t31 44.5t7.5 81q0 244 -146 244q-71 0 -101 -111.5t-30 -333.5z" />
    <glyph glyph-name="Ecaron" unicode="&#x11a;" horiz-adv-x="1310" 
d="M971 1909l41 -41l-320 -332l-342 332l41 41l291 -150zM1325 346l37 -20l-109 -326h-1243v23q46 14 89.5 101t43.5 245v696q0 158 -43.5 245t-89.5 101v23h1229l109 -326l-37 -21q-58 115 -190.5 190t-315.5 75q-149 0 -260 -17v-547q86 0 137.5 0.5t105.5 4.5t82 9t58 17
t43.5 24.5t29 37t24 49.5t19.5 65h46v-497h-46q-9 34 -15.5 56t-18.5 44t-20 35.5t-28 26.5t-33.5 19.5t-47 13t-57.5 8.5t-75.5 4t-91 2h-112.5v-613q90 -12 233 -12q185 0 333 75.5t214 188.5z" />
    <glyph glyph-name="ecaron" unicode="&#x11b;" horiz-adv-x="1005" 
d="M522 1063l-342 332l41 41l291 -150l289 150l41 -41zM813 231h197q-41 -108 -157 -193t-265 -85q-124 0 -231 41t-180.5 111.5t-115 167t-41.5 204.5q0 107 41 204.5t111 168.5t168 112.5t207 41.5q402 0 473 -433q8 -57 -26.5 -92t-129.5 -35q-88 -2 -158 -8.5
t-130.5 -20t-97.5 -35.5t-54.5 -52.5t-6.5 -73.5t52 -96q61 -79 130 -97t126.5 27.5t87.5 142.5zM532 922q-71 0 -101 -111.5t-30 -333.5v-16q53 24 108.5 42.5t81 25.5t49 23.5t31 44.5t7.5 81q0 244 -146 244z" />
    <glyph glyph-name="uni0122" unicode="&#x122;" horiz-adv-x="1548" 
d="M1620 705v-23q-46 -14 -89.5 -101t-43.5 -245v-43q-21 -57 -77 -116.5t-136.5 -111.5t-191.5 -85t-228 -33q-239 0 -429.5 98t-297.5 272.5t-107 393.5q0 226 103 402t286 272t416 96q132 0 251.5 -26t203 -69t133 -98.5t49.5 -113.5q0 -54 -39 -93t-94 -39
q-56 0 -92.5 39t-32.5 93q9 108 -48 160t-193 52q-106 0 -192.5 -35t-147 -98t-101.5 -151.5t-60.5 -193t-19.5 -224.5q0 -113 34.5 -211t93 -168.5t135.5 -121.5t163 -76t174 -25q30 0 64 6v248q0 158 -43.5 245t-89.5 101v23h647zM870 -150q74 0 115 -45.5t41 -128.5
q0 -60 -11.5 -122.5t-48.5 -135t-96 -110.5l-34 37q74 71 81 137q5 51 -36 58q-5 1 -11 1q-63 0 -108 46t-45 110q0 63 45 108t108 45z" />
    <glyph glyph-name="uni0123" unicode="&#x123;" horiz-adv-x="1202" 
d="M618 1067q-75 0 -116 46.5t-41 131.5q0 62 11 125t48.5 136.5t97.5 111.5l37 -35q-75 -72 -84 -140q-6 -53 36 -60q5 -1 11 -1q66 0 112 -45.5t46 -111.5t-46 -112t-112 -46zM768 0q201 0 312.5 -101t111.5 -259q0 -121 -49 -214.5t-134.5 -150.5t-194.5 -86t-236 -29
q-191 0 -306.5 101.5t-115.5 267.5q0 77 45.5 147.5t113.5 108.5q-65 7 -115 46.5t-50 98.5q0 30 17 62t38 54t39.5 47.5t22.5 42.5t-13 38q-91 65 -142 158.5t-51 199.5q0 128 72.5 236.5t199.5 172t279 63.5q58 0 142 -15q122 185 282 185q65 0 104.5 -37.5t39.5 -104.5
q0 -50 -31 -83.5t-70 -33.5t-66.5 27.5t-27.5 67.5q0 17 8 31t17.5 21t17.5 14.5t8 13.5q0 24 -41 24q-23 0 -52 -20.5t-50 -48t-21 -59.5t31 -52q119 -64 188.5 -170t69.5 -232q0 -96 -42.5 -182.5t-115.5 -149.5t-175 -100t-216 -37q-73 0 -145.5 -11t-127 -36t-54.5 -59
q0 -31 22.5 -38t68.5 5t100.5 29t135.5 32t156 15zM612 922q-80 0 -126 -101.5t-46 -288.5q0 -188 46 -290.5t126 -102.5q79 0 124.5 102.5t45.5 290.5q0 187 -45.5 288.5t-124.5 101.5zM549 -758q137 0 208.5 80.5t71.5 210.5q0 121 -72 188.5t-190 67.5h-20
q65 -39 65 -121q0 -75 -48 -123.5t-118 -48.5q-42 0 -75 16t-49 39q-23 -36 -23 -102q0 -89 80 -148t170 -59z" />
    <glyph glyph-name="Imacron" unicode="&#x12a;" horiz-adv-x="688" 
d="M111 1536v147h456v-147h-456zM143 369v696q0 158 -43.5 245t-89.5 101v23h668v-23q-46 -14 -89.5 -101t-43.5 -245v-696q0 -158 43.5 -245t89.5 -101v-23h-668v23q46 14 89.5 101t43.5 245z" />
    <glyph glyph-name="imacron" unicode="&#x12b;" horiz-adv-x="688" 
d="M100 1061v147h457v-147h-457zM461 1004q74 0 74 -148v-487q0 -158 43.5 -245t89.5 -101v-23h-639v23q46 14 89.5 101t43.5 245v86q0 122 -38.5 182.5t-123.5 89.5v27q47 9 103 38t106 64t96.5 69t88 56.5t67.5 22.5z" />
    <glyph glyph-name="Iogonek" unicode="&#x12e;" horiz-adv-x="688" 
d="M672 -301l8 -41q-72 -62 -158 -74.5t-145.5 28t-59.5 120.5t63 158.5t132 109.5h-502v23q46 14 89.5 101t43.5 245v696q0 158 -43.5 245t-89.5 101v23h668v-23q-46 -14 -89.5 -101t-43.5 -245v-696q0 -158 43.5 -245t89.5 -101v-23h-100q-37 -44 -59.5 -100.5
t-22.5 -102.5q0 -61 52 -93t124 -5z" />
    <glyph glyph-name="iogonek" unicode="&#x12f;" horiz-adv-x="688" 
d="M348 1040q-85 0 -144 59t-59 144q0 83 59 142t144 59q83 0 142 -59t59 -142q0 -87 -58.5 -145t-142.5 -58zM678 -301l8 -41q-72 -62 -157.5 -74.5t-145 28t-59.5 120.5t62.5 158.5t131.5 109.5h-489v23q46 14 89.5 101t43.5 245v86q0 122 -38.5 182.5t-123.5 89.5v27
q47 9 103 38t106 64t96.5 69t88 56.5t67.5 22.5q74 0 74 -148v-487q0 -158 43.5 -245t89.5 -101v-23h-84q-37 -44 -59.5 -100.5t-22.5 -102.5q0 -61 52 -93t124 -5z" />
    <glyph glyph-name="dotlessi" unicode="&#x131;" horiz-adv-x="688" 
d="M461 1004q74 0 74 -148v-487q0 -158 43.5 -245t89.5 -101v-23h-639v23q46 14 89.5 101t43.5 245v86q0 122 -38.5 182.5t-123.5 89.5v27q47 9 103 38t106 64t96.5 69t88 56.5t67.5 22.5z" />
    <glyph glyph-name="uni0136" unicode="&#x136;" horiz-adv-x="1562" 
d="M889 856l334 -496q55 -80 112 -145.5t103 -103.5t71 -56t43 -28v-27h-751v25q16 5 26 17.5t11 37.5t-9 59.5t-37.5 86.5t-70.5 116l-174 258l-2 -2v-229q0 -158 43.5 -245t89.5 -101v-23h-668v23q46 14 89.5 101t43.5 245v696q0 158 -43.5 245t-89.5 101v23h668v-23
q-46 -14 -89.5 -101t-43.5 -245v-330l373 422q46 51 71.5 93t31.5 69.5t-1.5 47t-23 29.5t-38.5 15v23h418v-23q-181 -77 -338 -254l-108 -123q-56 -67 -56 -114q0 -34 15 -64zM756 -150q74 0 114.5 -45.5t40.5 -128.5q0 -60 -11 -122.5t-48 -135t-96 -110.5l-35 37
q74 71 81 137q6 51 -35 58q-5 1 -11 1q-63 0 -108.5 46t-45.5 110q0 63 45.5 108t108.5 45z" />
    <glyph glyph-name="uni0137" unicode="&#x137;" horiz-adv-x="1224" 
d="M1159 217q0 -175 66 -197v-20q-27 -22 -81 -35.5t-106 -13.5q-74 0 -124.5 21t-78 63t-38.5 95.5t-11 129.5q0 153 -28 243.5t-88 90.5q-49 0 -78.5 -44.5t-36.5 -152.5v-28q0 -158 43.5 -245t89.5 -101v-23h-641v23q46 14 89.5 101t43.5 245l2 667q0 122 -38.5 183
t-123.5 90v26q57 10 130 51.5t129 84.5t113 77.5t89 34.5q26 0 42.5 -11.5t22.5 -36t7.5 -41t1.5 -47.5v-9v-801q6 6 10 8l154 107q207 142 130 179l-30 9v23h385v-23q-4 -4 -47.5 -22.5t-126 -62.5t-168.5 -103l-59 -41q20 2 61 2q85 0 154 -54.5t105 -137.5t36 -173v-131z
M655 -150q74 0 115 -45.5t41 -128.5q0 -60 -11.5 -122.5t-48.5 -135t-96 -110.5l-34 37q74 71 81 137q5 51 -36 58q-5 1 -11 1q-63 0 -108 46t-45 110q0 63 45 108t108 45z" />
    <glyph glyph-name="Lacute" unicode="&#x139;" horiz-adv-x="1310" 
d="M561 1694q-37 -19 -130.5 -58.5t-168.5 -69.5l-74 -30l-34 45q214 216 286 277q32 26 73 20t67 -41q27 -33 22 -79t-41 -64zM1325 346l37 -20l-109 -326h-1243v23q46 14 89.5 101t43.5 245v696q0 158 -43.5 245t-89.5 101v23h668v-23q-46 -14 -89.5 -101t-43.5 -245v-971
q90 -12 233 -12q185 0 333 75.5t214 188.5z" />
    <glyph glyph-name="lacute" unicode="&#x13a;" horiz-adv-x="700" 
d="M109 1536l-35 45q214 216 286 277q32 26 73 20t67 -41q27 -33 22 -79t-41 -64q-37 -19 -130 -58.5t-167 -69.5zM473 1583q26 0 42.5 -11.5t22.5 -36t7.5 -41t1.5 -47.5v-9v-1069q0 -158 43.5 -245t89.5 -101v-23h-641v23q46 14 89.5 101t43.5 245l2 667q0 122 -38.5 183
t-123.5 90v26q57 10 130 51.5t129 84.5t113 77.5t89 34.5z" />
    <glyph glyph-name="uni013B" unicode="&#x13b;" horiz-adv-x="1310" 
d="M1325 346l37 -20l-109 -326h-1243v23q46 14 89.5 101t43.5 245v696q0 158 -43.5 245t-89.5 101v23h668v-23q-46 -14 -89.5 -101t-43.5 -245v-971q90 -12 233 -12q185 0 333 75.5t214 188.5zM154 -150q74 0 114.5 -45.5t40.5 -128.5q0 -60 -11 -122.5t-48 -135t-96 -110.5
l-35 37q74 71 81 137q6 51 -35 58q-5 1 -11 1q-63 0 -108.5 46t-45.5 110q0 63 45.5 108t108.5 45z" />
    <glyph glyph-name="uni013C" unicode="&#x13c;" horiz-adv-x="700" 
d="M473 1583q26 0 42.5 -11.5t22.5 -36t7.5 -41t1.5 -47.5v-9v-1069q0 -158 43.5 -245t89.5 -101v-23h-641v23q46 14 89.5 101t43.5 245l2 667q0 122 -38.5 183t-123.5 90v26q57 10 130 51.5t129 84.5t113 77.5t89 34.5zM340 -150q74 0 115 -45.5t41 -128.5
q0 -60 -11.5 -122.5t-48.5 -135t-96 -110.5l-35 37q74 71 81 137q6 51 -35 58q-5 1 -11 1q-63 0 -108.5 46t-45.5 110q0 63 45.5 108t108.5 45z" />
    <glyph glyph-name="Lcaron" unicode="&#x13d;" horiz-adv-x="1310" 
d="M911 1247q-63 0 -108 46t-45 110q0 63 45 108t108 45q74 0 115 -45.5t41 -128.5q0 -60 -11.5 -122.5t-48.5 -135t-96 -110.5l-34 37q74 71 81 137q5 51 -36 58q-5 1 -11 1zM1325 346l37 -20l-109 -326h-1243v23q46 14 89.5 101t43.5 245v696q0 158 -43.5 245t-89.5 101
v23h668v-23q-46 -14 -89.5 -101t-43.5 -245v-971q90 -12 233 -12q185 0 333 75.5t214 188.5z" />
    <glyph glyph-name="lcaron" unicode="&#x13e;" horiz-adv-x="700" 
d="M670 1868q74 0 114.5 -45.5t40.5 -128.5q0 -60 -11 -122.5t-48 -135.5t-96 -111l-35 37q73 70 81 137q6 52 -35 59q-5 1 -11 1q-63 0 -108.5 45.5t-45.5 109.5q0 63 45.5 108.5t108.5 45.5zM473 1583q26 0 42.5 -11.5t22.5 -36t7.5 -41t1.5 -47.5v-9v-1069
q0 -158 43.5 -245t89.5 -101v-23h-641v23q46 14 89.5 101t43.5 245l2 667q0 122 -38.5 183t-123.5 90v26q57 10 130 51.5t129 84.5t113 77.5t89 34.5z" />
    <glyph glyph-name="Lslash" unicode="&#x141;" horiz-adv-x="1310" 
d="M1325 346l37 -20l-109 -326h-1243v23q46 14 89.5 101t43.5 245v217l-39 -29l-47 68l86 63v377q0 158 -43.5 245t-89.5 101v23h668v-23q-46 -14 -89.5 -101t-43.5 -245v-84l55 41l47 -68l-102 -75v-785q90 -12 233 -12q185 0 333 75.5t214 188.5z" />
    <glyph glyph-name="lslash" unicode="&#x142;" horiz-adv-x="700" 
d="M547 877v-508q0 -158 43.5 -245t89.5 -101v-23h-641v23q46 14 89.5 101t43.5 245v233l-61 -45l-48 68l111 80v331q0 122 -38.5 183t-123.5 90v26q57 10 130 51.5t129 84.5t113 77.5t89 34.5q26 0 42.5 -11.5t22.5 -36t7.5 -41t1.5 -47.5v-9v-459l59 43l47 -68z" />
    <glyph glyph-name="Nacute" unicode="&#x143;" horiz-adv-x="1372" 
d="M977 1694q-37 -19 -130.5 -58.5t-168.5 -69.5l-74 -30l-35 45q215 216 287 277q32 26 72.5 20t66.5 -41q27 -33 22.5 -79t-40.5 -64zM1362 1434v-23q-46 -14 -89.5 -101t-43.5 -245v-1065h-164l-774 993q-20 23 -37 23q-21 0 -21 -53v-594q0 -158 44 -245t90 -101v-23
h-357v23q46 14 89.5 101t43.5 245v819q1 92 -39.5 152t-83.5 71v23h469l650 -832v463q0 158 -43.5 245t-89.5 101v23h356z" />
    <glyph glyph-name="nacute" unicode="&#x144;" horiz-adv-x="1255" 
d="M905 1225q-37 -19 -130.5 -58.5t-168.5 -69.5l-74 -30l-34 45q214 216 286 277q32 26 73 20t67 -41q27 -33 22 -79t-41 -64zM1141 645v-276q0 -84 10 -151.5t25 -106.5t30 -60.5t29 -27.5v-23h-559v23q13 6 27.5 27.5t29.5 60.5t25 106.5t10 151.5v254q0 95 -29.5 157
t-83.5 62q-120 0 -120 -240v-233q0 -84 10 -151.5t25 -106.5t30 -60.5t29 -27.5v-23h-600v23q46 14 89.5 101t43.5 245v86q0 122 -38.5 182.5t-123.5 89.5v27q47 9 103 38t106 64t96.5 69t88 56.5t67.5 22.5q74 0 74 -148v-4q129 147 309 147q64 0 115.5 -21t85 -55
t55.5 -81t31.5 -95.5t9.5 -101.5z" />
    <glyph glyph-name="uni0145" unicode="&#x145;" horiz-adv-x="1372" 
d="M1362 1434v-23q-46 -14 -89.5 -101t-43.5 -245v-1065h-164l-774 993q-20 23 -37 23q-21 0 -21 -53v-594q0 -158 44 -245t90 -101v-23h-357v23q46 14 89.5 101t43.5 245v819q1 92 -39.5 152t-83.5 71v23h469l650 -832v463q0 158 -43.5 245t-89.5 101v23h356zM680 -150
q74 0 115 -45.5t41 -128.5q0 -60 -11.5 -122.5t-48.5 -135t-96 -110.5l-35 37q74 71 81 137q6 51 -35 58q-5 1 -11 1q-63 0 -108.5 46t-45.5 110q0 63 45.5 108t108.5 45z" />
    <glyph glyph-name="uni0146" unicode="&#x146;" horiz-adv-x="1255" 
d="M1141 645v-276q0 -84 10 -151.5t25 -106.5t30 -60.5t29 -27.5v-23h-559v23q13 6 27.5 27.5t29.5 60.5t25 106.5t10 151.5v254q0 95 -29.5 157t-83.5 62q-120 0 -120 -240v-233q0 -84 10 -151.5t25 -106.5t30 -60.5t29 -27.5v-23h-600v23q46 14 89.5 101t43.5 245v86
q0 122 -38.5 182.5t-123.5 89.5v27q47 9 103 38t106 64t96.5 69t88 56.5t67.5 22.5q74 0 74 -148v-4q129 147 309 147q64 0 115.5 -21t85 -55t55.5 -81t31.5 -95.5t9.5 -101.5zM647 -162q74 0 115 -45.5t41 -128.5q0 -43 -7 -89.5t-23 -100.5t-48.5 -102t-77.5 -77l-35 37
q73 70 81 137q6 52 -35 59q-5 1 -11 1q-63 0 -108 46t-45 110q0 63 45 108t108 45z" />
    <glyph glyph-name="Ncaron" unicode="&#x147;" horiz-adv-x="1372" 
d="M1038 1909l41 -41l-319 -332l-342 332l41 41l291 -150zM1362 1434v-23q-46 -14 -89.5 -101t-43.5 -245v-1065h-164l-774 993q-20 23 -37 23q-21 0 -21 -53v-594q0 -158 44 -245t90 -101v-23h-357v23q46 14 89.5 101t43.5 245v819q1 92 -39.5 152t-83.5 71v23h469
l650 -832v463q0 158 -43.5 245t-89.5 101v23h356z" />
    <glyph glyph-name="ncaron" unicode="&#x148;" horiz-adv-x="1255" 
d="M924 1436l41 -41l-320 -332l-342 332l41 41l291 -150zM1141 645v-276q0 -84 10 -151.5t25 -106.5t30 -60.5t29 -27.5v-23h-559v23q13 6 27.5 27.5t29.5 60.5t25 106.5t10 151.5v254q0 95 -29.5 157t-83.5 62q-120 0 -120 -240v-233q0 -84 10 -151.5t25 -106.5t30 -60.5
t29 -27.5v-23h-600v23q46 14 89.5 101t43.5 245v86q0 122 -38.5 182.5t-123.5 89.5v27q47 9 103 38t106 64t96.5 69t88 56.5t67.5 22.5q74 0 74 -148v-4q129 147 309 147q64 0 115.5 -21t85 -55t55.5 -81t31.5 -95.5t9.5 -101.5z" />
    <glyph glyph-name="Eng" unicode="&#x14a;" horiz-adv-x="1372" 
d="M1362 1434v-23q-46 -14 -89.5 -101t-43.5 -245v-1065v-43.5v-47t-1 -42t-3 -47t-5.5 -42t-9.5 -46.5q-21 -81 -77.5 -120.5t-131.5 -27.5t-147 74l8 41q114 -25 183 58t69 243h-49l-774 993q-20 23 -37 23q-21 0 -21 -53v-594q0 -158 44 -245t90 -101v-23h-357v23
q46 14 89.5 101t43.5 245v819q1 92 -39.5 152t-83.5 71v23h469l650 -832v463q0 158 -43.5 245t-89.5 101v23h356z" />
    <glyph glyph-name="eng" unicode="&#x14b;" horiz-adv-x="1228" 
d="M1141 645v-645v-43.5v-47t-1 -42t-3 -47t-5.5 -42t-9.5 -46.5q-21 -81 -77.5 -120.5t-131.5 -27.5t-147 74l8 41q114 -25 183 58t69 243h-350v23q13 6 27.5 27.5t29.5 60.5t25 106.5t10 151.5v254q0 95 -29.5 157t-83.5 62q-120 0 -120 -240v-233q0 -84 10 -151.5
t25 -106.5t30 -60.5t29 -27.5v-23h-600v23q46 14 89.5 101t43.5 245v86q0 122 -38.5 182.5t-123.5 89.5v27q47 9 103 38t106 64t96.5 69t88 56.5t67.5 22.5q74 0 74 -148v-4q129 147 309 147q64 0 115.5 -21t85 -55t55.5 -81t31.5 -95.5t9.5 -101.5z" />
    <glyph glyph-name="Omacron" unicode="&#x14c;" horiz-adv-x="1441" 
d="M483 1536v147h457v-147h-457zM713 -47q-136 0 -262 57t-221.5 155.5t-152.5 241t-57 304.5q0 161 58.5 305.5t155 245.5t224 160t263.5 59q145 0 273.5 -56t222.5 -155t149 -244t55 -315q0 -154 -59.5 -295.5t-157 -242t-227 -160.5t-264.5 -60zM641 1386
q-91 0 -152 -134t-61 -332q0 -184 36 -351.5t91.5 -279t120.5 -177t125 -65.5q200 0 200 547q0 211 -47.5 393.5t-131 290.5t-181.5 108z" />
    <glyph glyph-name="omacron" unicode="&#x14d;" horiz-adv-x="1071" 
d="M287 1067v147h456v-147h-456zM516 -47q-146 0 -267 70t-190 190t-69 264t69 265t190 191.5t267 70.5q145 0 265.5 -70.5t189.5 -191.5t69 -265t-69 -264t-189.5 -190t-265.5 -70zM578 41q74 9 101 129.5t-1 329.5q-29 209 -88 319t-135 99q-77 -11 -105 -132.5t0 -330.5
q31 -209 91 -317.5t137 -96.5z" />
    <glyph glyph-name="Ohungarumlaut" unicode="&#x150;" horiz-adv-x="1441" 
d="M305 1536l-35 45q215 216 287 277q32 26 72.5 20t66.5 -41q27 -33 22.5 -79t-40.5 -64q-37 -19 -130.5 -58.5t-167.5 -69.5zM735 1536l-35 45q215 216 287 277q32 26 72.5 20t66.5 -41q27 -33 22.5 -79t-40.5 -64q-37 -19 -130.5 -58.5t-167.5 -69.5zM713 -47
q-136 0 -262 57t-221.5 155.5t-152.5 241t-57 304.5q0 161 58.5 305.5t155 245.5t224 160t263.5 59q145 0 273.5 -56t222.5 -155t149 -244t55 -315q0 -154 -59.5 -295.5t-157 -242t-227 -160.5t-264.5 -60zM641 1386q-91 0 -152 -134t-61 -332q0 -184 36 -351.5t91.5 -279
t120.5 -177t125 -65.5q200 0 200 547q0 211 -47.5 393.5t-131 290.5t-181.5 108z" />
    <glyph glyph-name="ohungarumlaut" unicode="&#x151;" horiz-adv-x="1071" 
d="M111 1071l-35 45q214 216 286 277q32 26 73 20t67 -41q27 -33 22 -79t-41 -64q-37 -19 -130 -58.5t-167 -69.5zM541 1071l-35 45q215 216 287 277q32 26 72.5 20t66.5 -41q27 -33 22 -79t-41 -64q-37 -19 -130 -58.5t-167 -69.5zM516 -47q-146 0 -267 70t-190 190
t-69 264t69 265t190 191.5t267 70.5q145 0 265.5 -70.5t189.5 -191.5t69 -265t-69 -264t-189.5 -190t-265.5 -70zM578 41q74 9 101 129.5t-1 329.5q-29 209 -88 319t-135 99q-77 -11 -105 -132.5t0 -330.5q31 -209 91 -317.5t137 -96.5z" />
    <glyph glyph-name="OE" unicode="&#x152;" horiz-adv-x="2166" 
d="M2181 346l37 -20l-109 -326h-1163q-112 -47 -233 -47q-136 0 -262 57t-221.5 155.5t-152.5 241t-57 304.5q0 161 58.5 305.5t155 245.5t224 160t263.5 59q134 0 252 -47h1122l109 -326l-37 -21q-58 115 -190.5 190t-315.5 75q-149 0 -260 -17v-547q86 0 137.5 0.5
t105.5 4.5t82 9t58.5 17t44 24.5t29 37t24 49.5t19.5 65h45v-497h-45q-15 56 -26 87t-39 58t-50.5 37t-87 18t-120.5 8.5t-177 0.5v-613q90 -12 233 -12q185 0 333 75.5t214 188.5zM428 920q0 -184 36 -351.5t91.5 -279t120.5 -177t125 -65.5q180 0 198 440v191
q-9 194 -58 356t-128.5 257t-171.5 95q-91 0 -152 -134t-61 -332z" />
    <glyph glyph-name="oe" unicode="&#x153;" horiz-adv-x="1671" 
d="M1135 158q61 -79 130 -97t126.5 27.5t87.5 142.5h196q-41 -108 -157 -193t-265 -85q-230 0 -387 131q-147 -131 -350 -131q-146 0 -267 70t-190 190t-69 264t69 265t190 191.5t267 70.5q200 0 348 -132q148 132 348 132q403 0 474 -433q8 -57 -26.5 -92t-129.5 -35
q-88 -2 -158 -8.5t-130.5 -20t-97.5 -35.5t-54.5 -52.5t-6.5 -73.5t52 -96zM578 41q74 9 101 129.5t-1 329.5q-29 209 -88 319t-135 99q-77 -11 -105 -132.5t0 -330.5q31 -209 91 -317.5t137 -96.5zM1067 477v-16q46 21 93 37.5t73 23.5t50.5 17.5t35.5 25.5t17.5 42t6.5 71
q0 244 -145 244q-71 0 -101 -111.5t-30 -333.5z" />
    <glyph glyph-name="Racute" unicode="&#x154;" horiz-adv-x="1611" 
d="M983 1694q-37 -19 -130.5 -58.5t-168.5 -69.5l-74 -30l-35 45q215 216 287 277q32 26 72.5 20t66.5 -41q27 -33 22.5 -79t-40.5 -64zM1317 319q75 -134 156 -207.5t129 -91.5v-22l-730 -2l-2 22q23 8 33 38.5t-3 103.5t-58 174q-167 315 -297 332v-297q0 -158 43.5 -245
t89.5 -101v-23h-668v23q46 14 89.5 101t43.5 245v696q0 158 -43.5 245t-89.5 101v23h938q208 0 346 -109t138 -262q0 -311 -426 -379q-27 -6 -31.5 -16t16.5 -19q99 -35 176.5 -119.5t149.5 -210.5zM737 1352h-100q-43 0 -67.5 -31.5t-24.5 -124.5v-440h192
q126 0 198.5 83.5t72.5 209.5q0 122 -80.5 212.5t-190.5 90.5z" />
    <glyph glyph-name="racute" unicode="&#x155;" horiz-adv-x="1114" 
d="M729 1221q-37 -19 -130.5 -58.5t-168.5 -69.5l-74 -30l-34 45q214 215 286 276q32 26 73 20.5t67 -40.5q27 -33 22 -79t-41 -64zM850 1057q100 0 172 -72t72 -172q0 -101 -72 -172.5t-172 -71.5q-89 0 -146 65.5t-57 151.5q0 34 12 72q5 18 6 24.5t0 12.5t-9 2.5
t-23 -14.5q-98 -80 -98 -232v-282q0 -158 43.5 -245t89.5 -101v-23h-639v23q46 14 89.5 101t43.5 245v86q0 122 -38.5 182.5t-123.5 89.5v27q47 9 103 38t106 64t96.5 69t88 56.5t67.5 22.5q74 0 74 -140q25 41 49 70t61.5 60t89 47t115.5 16z" />
    <glyph glyph-name="uni0156" unicode="&#x156;" horiz-adv-x="1611" 
d="M1317 319q75 -134 156 -207.5t129 -91.5v-22l-730 -2l-2 22q23 8 33 38.5t-3 103.5t-58 174q-167 315 -297 332v-297q0 -158 43.5 -245t89.5 -101v-23h-668v23q46 14 89.5 101t43.5 245v696q0 158 -43.5 245t-89.5 101v23h938q208 0 346 -109t138 -262q0 -311 -426 -379
q-27 -6 -31.5 -16t16.5 -19q99 -35 176.5 -119.5t149.5 -210.5zM737 1352h-100q-43 0 -67.5 -31.5t-24.5 -124.5v-440h192q126 0 198.5 83.5t72.5 209.5q0 122 -80.5 212.5t-190.5 90.5zM154 -150q74 0 114.5 -45.5t40.5 -128.5q0 -60 -11 -122.5t-48 -135t-96 -110.5
l-35 37q74 71 81 137q6 51 -35 58q-5 1 -11 1q-63 0 -108.5 46t-45.5 110q0 63 45.5 108t108.5 45z" />
    <glyph glyph-name="uni0157" unicode="&#x157;" horiz-adv-x="1114" 
d="M850 1057q100 0 172 -72t72 -172q0 -101 -72 -172.5t-172 -71.5q-89 0 -146 65.5t-57 151.5q0 34 12 72q5 18 6 24.5t0 12.5t-9 2.5t-23 -14.5q-98 -80 -98 -232v-282q0 -158 43.5 -245t89.5 -101v-23h-639v23q46 14 89.5 101t43.5 245v86q0 122 -38.5 182.5t-123.5 89.5
v27q47 9 103 38t106 64t96.5 69t88 56.5t67.5 22.5q74 0 74 -140q25 41 49 70t61.5 60t89 47t115.5 16zM342 -150q74 0 115 -45.5t41 -128.5q0 -60 -11.5 -122.5t-48.5 -135t-96 -110.5l-35 37q74 71 81 137q6 51 -35 58q-5 1 -11 1q-63 0 -108.5 46t-45.5 110
q0 63 45.5 108t108.5 45z" />
    <glyph glyph-name="Rcaron" unicode="&#x158;" horiz-adv-x="1611" 
d="M1010 1909l41 -41l-320 -332l-342 332l41 41l291 -150zM1317 319q75 -134 156 -207.5t129 -91.5v-22l-730 -2l-2 22q23 8 33 38.5t-3 103.5t-58 174q-167 315 -297 332v-297q0 -158 43.5 -245t89.5 -101v-23h-668v23q46 14 89.5 101t43.5 245v696q0 158 -43.5 245
t-89.5 101v23h938q208 0 346 -109t138 -262q0 -311 -426 -379q-27 -6 -31.5 -16t16.5 -19q99 -35 176.5 -119.5t149.5 -210.5zM737 1352h-100q-43 0 -67.5 -31.5t-24.5 -124.5v-440h192q126 0 198.5 83.5t72.5 209.5q0 122 -80.5 212.5t-190.5 90.5z" />
    <glyph glyph-name="rcaron" unicode="&#x159;" horiz-adv-x="1114" 
d="M838 1446l41 -41l-320 -332l-342 332l41 41l291 -150zM850 1057q100 0 172 -72t72 -172q0 -101 -72 -172.5t-172 -71.5q-89 0 -146 65.5t-57 151.5q0 34 12 72q5 18 6 24.5t0 12.5t-9 2.5t-23 -14.5q-98 -80 -98 -232v-282q0 -158 43.5 -245t89.5 -101v-23h-639v23
q46 14 89.5 101t43.5 245v86q0 122 -38.5 182.5t-123.5 89.5v27q47 9 103 38t106 64t96.5 69t88 56.5t67.5 22.5q74 0 74 -140q25 41 49 70t61.5 60t89 47t115.5 16z" />
    <glyph glyph-name="Sacute" unicode="&#x15a;" horiz-adv-x="1226" 
d="M516 1536l-35 45q215 216 287 277q32 26 72.5 20t66.5 -41q27 -33 22.5 -79t-40.5 -64q-37 -19 -130.5 -58.5t-168.5 -69.5zM-31 330q0 69 50 118.5t120 49.5q72 0 120 -35.5t48 -97.5q0 -31 -19 -57t-38 -49t-19 -46q0 -38 49.5 -74.5t136.5 -60t185 -23.5
q121 0 201 63.5t80 149.5q0 59 -28 108.5t-75 86t-108 69t-129 62.5t-135.5 62t-128.5 72.5t-108 88t-75 115t-28 147.5q0 115 69 208t185.5 143.5t257.5 50.5q132 0 251.5 -26t203 -69t133 -98.5t49.5 -113.5q0 -54 -39.5 -93t-94.5 -39q-56 0 -92.5 39t-32.5 93
q9 107 -47.5 155.5t-193.5 48.5q-85 0 -147 -45t-62 -114q0 -57 42.5 -107t110.5 -90t150 -80.5t164 -87.5t150 -101.5t110.5 -132t42.5 -169.5q0 -114 -55.5 -209t-150 -157.5t-218.5 -97t-262 -34.5q-89 0 -195 27t-202.5 74t-161 120.5t-64.5 155.5z" />
    <glyph glyph-name="sacute" unicode="&#x15b;" horiz-adv-x="956" 
d="M301 1067l-35 45q215 216 287 277q32 26 72.5 20t66.5 -41q27 -33 22.5 -79t-40.5 -64q-37 -19 -130.5 -58.5t-167.5 -69.5zM-20 213q0 70 47.5 119t117.5 49q60 0 109 -29.5t49 -77.5q0 -34 -30.5 -75t-30.5 -58q0 -42 54.5 -74t152.5 -32q178 0 178 112q0 35 -26.5 67
t-69 56.5t-97.5 52t-112.5 52.5t-112.5 60t-97.5 73t-69 91.5t-26.5 115.5q0 78 70.5 145t182 104t233.5 37q166 0 278.5 -53.5t112.5 -122.5q0 -35 -29 -71t-67 -43l-21 10q0 75 -62 137t-151 62q-59 0 -108 -26.5t-49 -72.5q0 -29 30.5 -58.5t79 -57t107 -58t117 -67.5
t107 -79t79 -99t30.5 -121q0 -78 -41.5 -141.5t-111 -103.5t-157 -61.5t-183.5 -21.5q-72 0 -152.5 16t-156 46t-125 82t-49.5 116z" />
    <glyph glyph-name="Scedilla" unicode="&#x15e;" horiz-adv-x="1226" 
d="M1278 451q0 -146 -88.5 -258t-232 -172t-320.5 -68l-27 -105q43 11 83 11t77 -13t59.5 -48t22.5 -89q0 -55 -20.5 -93.5t-53.5 -57t-72.5 -28t-79.5 -8t-73 5t-53 8.5l-21 5l21 66q33 -8 58.5 -8.5t51 7.5t39 34t13.5 69q0 31 -13.5 49.5t-33 22t-39 3t-32.5 -4.5l-14 -4
v45l35 133q-90 4 -192 32.5t-193 75.5t-151 118.5t-60 150.5q0 69 50 118.5t120 49.5q72 0 120 -35.5t48 -97.5q0 -31 -19 -57t-38 -49t-19 -46q0 -38 49.5 -74.5t136.5 -60t185 -23.5q121 0 201 63.5t80 149.5q0 59 -28 108.5t-75 86t-108 69t-129 62.5t-135.5 62
t-128.5 72.5t-108 88t-75 115t-28 147.5q0 115 69 208t185.5 143.5t257.5 50.5q132 0 251.5 -26t203 -69t133 -98.5t49.5 -113.5q0 -54 -39.5 -93t-94.5 -39q-56 0 -92.5 39t-32.5 93q9 107 -47.5 155.5t-193.5 48.5q-85 0 -147 -45t-62 -114q0 -57 42.5 -107t110.5 -90
t150 -80.5t164 -87.5t150 -101.5t110.5 -132t42.5 -169.5z" />
    <glyph glyph-name="scedilla" unicode="&#x15f;" horiz-adv-x="956" 
d="M463 -47l-27 -105q43 11 83 11t77 -13t59.5 -48t22.5 -89q0 -55 -20.5 -93.5t-53.5 -57t-72.5 -28t-79.5 -8t-73 5t-53 8.5l-21 5l21 66q33 -8 58.5 -8.5t50.5 7.5t38.5 34t13.5 69q0 31 -13.5 49.5t-32.5 22t-38.5 3t-32.5 -4.5l-14 -4v45l35 137q-71 6 -140 25
t-131.5 49.5t-101 78t-38.5 103.5q0 70 47.5 119t117.5 49q60 0 109 -29.5t49 -77.5q0 -34 -30.5 -75t-30.5 -58q0 -42 54.5 -74t152.5 -32q178 0 178 112q0 35 -26.5 67t-69 56.5t-97.5 52t-112.5 52.5t-112.5 60t-97.5 73t-69 91.5t-26.5 115.5q0 78 70.5 145t182 104
t233.5 37q166 0 278.5 -53.5t112.5 -122.5q0 -35 -29 -71t-67 -43l-21 10q0 75 -62 137t-151 62q-59 0 -108 -26.5t-49 -72.5q0 -29 30.5 -58.5t79 -57t107 -58t117 -67.5t107 -79t79 -99t30.5 -121q0 -78 -41.5 -141.5t-111 -103.5t-157 -61.5t-183.5 -21.5z" />
    <glyph glyph-name="Scaron" unicode="&#x160;" horiz-adv-x="1226" 
d="M655 1536l-342 332l41 41l291 -150l289 150l41 -41zM-31 330q0 69 50 118.5t120 49.5q72 0 120 -35.5t48 -97.5q0 -31 -19 -57t-38 -49t-19 -46q0 -38 49.5 -74.5t136.5 -60t185 -23.5q121 0 201 63.5t80 149.5q0 59 -28 108.5t-75 86t-108 69t-129 62.5t-135.5 62
t-128.5 72.5t-108 88t-75 115t-28 147.5q0 115 69 208t185.5 143.5t257.5 50.5q132 0 251.5 -26t203 -69t133 -98.5t49.5 -113.5q0 -54 -39.5 -93t-94.5 -39q-56 0 -92.5 39t-32.5 93q9 107 -47.5 155.5t-193.5 48.5q-85 0 -147 -45t-62 -114q0 -57 42.5 -107t110.5 -90
t150 -80.5t164 -87.5t150 -101.5t110.5 -132t42.5 -169.5q0 -114 -55.5 -209t-150 -157.5t-218.5 -97t-262 -34.5q-89 0 -195 27t-202.5 74t-161 120.5t-64.5 155.5z" />
    <glyph glyph-name="scaron" unicode="&#x161;" horiz-adv-x="956" 
d="M506 1063l-342 332l41 41l291 -150l288 150l41 -41zM-20 213q0 70 47.5 119t117.5 49q60 0 109 -29.5t49 -77.5q0 -34 -30.5 -75t-30.5 -58q0 -42 54.5 -74t152.5 -32q178 0 178 112q0 35 -26.5 67t-69 56.5t-97.5 52t-112.5 52.5t-112.5 60t-97.5 73t-69 91.5
t-26.5 115.5q0 78 70.5 145t182 104t233.5 37q166 0 278.5 -53.5t112.5 -122.5q0 -35 -29 -71t-67 -43l-21 10q0 75 -62 137t-151 62q-59 0 -108 -26.5t-49 -72.5q0 -29 30.5 -58.5t79 -57t107 -58t117 -67.5t107 -79t79 -99t30.5 -121q0 -78 -41.5 -141.5t-111 -103.5
t-157 -61.5t-183.5 -21.5q-72 0 -152.5 16t-156 46t-125 82t-49.5 116z" />
    <glyph glyph-name="uni0162" unicode="&#x162;" horiz-adv-x="1353" 
d="M1325 1434l61 -347l-34 -16q-51 116 -172.5 183.5t-300.5 76.5v-962q0 -158 43.5 -245t89.5 -101v-23h-211l-39 -152q43 11 83 11t77 -13t59.5 -48t22.5 -89q0 -55 -20.5 -93.5t-53.5 -57t-72.5 -28t-79.5 -8t-73 5t-53 8.5l-21 5l20 66q33 -8 58.5 -8.5t51 7.5t39 34
t13.5 69q0 31 -13.5 49.5t-32.5 22t-38.5 3t-32.5 -4.5l-14 -4v45l47 180h-385v23q46 14 89.5 101t43.5 245v962q-179 -9 -300.5 -76.5t-172.5 -183.5l-35 16l62 347h1294z" />
    <glyph glyph-name="uni0163" unicode="&#x163;" horiz-adv-x="630" 
d="M477 963h207q8 0 8 -41t-8 -41h-147q-54 0 -60 -29v-600q0 -29 3.5 -51t12.5 -40t14.5 -27t20 -25.5t17.5 -20.5v-20q-23 -49 -68 -83t-106 -34q-27 0 -39 2l-27 -105q43 11 83 11t77 -13t59.5 -48t22.5 -89q0 -55 -20.5 -93.5t-53.5 -57t-73 -28t-79.5 -8t-72.5 5
t-54 8.5l-20 5l21 66q33 -8 58.5 -8.5t50.5 7.5t38.5 34t13.5 69q0 31 -13.5 49.5t-33 22t-38.5 3t-33 -4.5l-13 -4v45l39 147q-79 26 -120.5 92.5t-41.5 163.5v596q0 19 -1 27.5t-6.5 18t-18.5 13t-35 3.5h-74q-7 0 -7 41t7 41h2q50 0 97 17t86.5 49.5t74 70t68 89.5
t59.5 97t57 102q17 31 25 46h41v-471z" />
    <glyph glyph-name="Tcaron" unicode="&#x164;" horiz-adv-x="1353" 
d="M969 1909l41 -41l-320 -332l-342 332l41 41l291 -150zM1325 1434l61 -347l-34 -16q-51 116 -172.5 183.5t-300.5 76.5v-962q0 -158 43.5 -245t89.5 -101v-23h-668v23q46 14 89.5 101t43.5 245v962q-179 -9 -300.5 -76.5t-172.5 -183.5l-35 16l62 347h1294z" />
    <glyph glyph-name="tcaron" unicode="&#x165;" horiz-adv-x="630" 
d="M696 1597q74 0 115 -45.5t41 -128.5q0 -60 -11.5 -122.5t-48.5 -135t-96 -110.5l-34 37q74 71 81 137q5 51 -36 58q-5 1 -11 1q-63 0 -108 46t-45 110q0 63 45 108t108 45zM477 963h207q8 0 8 -41t-8 -41h-147q-54 0 -60 -29v-600q0 -29 3.5 -51t12.5 -40t14.5 -27
t20 -25.5t17.5 -20.5v-20q-23 -49 -68 -83t-106 -34q-130 0 -199.5 72.5t-69.5 199.5v596q0 19 -1 27.5t-6.5 18t-18.5 13t-35 3.5h-74q-7 0 -7 41t7 41h2q50 0 97 17t86.5 49.5t74 70t68 89.5t59.5 97t57 102q17 31 25 46h41v-471z" />
    <glyph glyph-name="Tbar" unicode="&#x166;" horiz-adv-x="1353" 
d="M1325 1434l61 -347l-34 -16q-51 116 -172.5 183.5t-300.5 76.5v-696h67v-82h-67v-184q0 -158 43.5 -245t89.5 -101v-23h-668v23q46 14 89.5 101t43.5 245v184h-78v82h78v696q-179 -9 -300.5 -76.5t-172.5 -183.5l-35 16l62 347h1294z" />
    <glyph glyph-name="tbar" unicode="&#x167;" horiz-adv-x="630" 
d="M477 963h207q8 0 8 -41t-8 -41h-147q-54 0 -60 -29v-217h82v-82h-82v-301q0 -29 3.5 -51t12.5 -40t14.5 -27t20 -25.5t17.5 -20.5v-20q-23 -49 -68 -83t-106 -34q-130 0 -199.5 72.5t-69.5 199.5v330h-90v82h90v184q0 19 -1 27.5t-6.5 18t-18.5 13t-35 3.5h-74
q-7 0 -7 41t7 41h2q50 0 97 17t86.5 49.5t74 70t68 89.5t59.5 97t57 102q17 31 25 46h41v-471z" />
    <glyph glyph-name="Umacron" unicode="&#x16a;" horiz-adv-x="1472" 
d="M655 1536v147h457v-147h-457zM1106 1434h356v-23q-46 -14 -89.5 -101t-43.5 -245l2 -569q1 -286 -151 -414.5t-443 -128.5q-279 0 -438 133t-158 410l2 569q0 158 -43.5 245t-89.5 101v23h668v-23q-46 -14 -89.5 -101t-43.5 -245v-514q0 -56 0.5 -93t3 -82.5t7 -75.5
t12 -65t18.5 -57t27 -46t37 -37.5t48 -25.5t61 -17t75 -5q219 0 312 124.5t93 399.5v494q0 158 -43.5 245t-89.5 101v23z" />
    <glyph glyph-name="umacron" unicode="&#x16b;" horiz-adv-x="1058" 
d="M248 1219h457v-148h-457v148zM1090 963v-23q-16 -8 -33 -41t-32 -114t-15 -191v-342q0 -29 3.5 -51t12.5 -40.5t14 -26.5t19.5 -25t17.5 -21v-20q-23 -49 -68 -83t-106 -34q-104 0 -170 47t-88 133q-118 -168 -303 -168q-64 0 -115.5 21t-85 55t-55.5 81t-31.5 95.5
t-9.5 101.5v277q0 84 -10 151.5t-25 106.5t-30 60.5t-29 27.5v23h467v-652q0 -184 112 -184q58 0 81.5 63.5t23.5 190.5v213q0 84 -10 151.5t-25 106.5t-29.5 60.5t-27.5 27.5v23h547z" />
    <glyph glyph-name="Uring" unicode="&#x16e;" horiz-adv-x="1472" 
d="M872 1536q-83 0 -140.5 55t-57.5 133q0 79 57.5 135t140.5 56t141 -56.5t58 -134.5t-58 -133t-141 -55zM893 1585q29 3 40 42.5t1 107.5q-10 64 -33 99.5t-51 33.5q-30 -5 -40.5 -44t1.5 -110q10 -64 32.5 -98t49.5 -31zM1106 1434h356v-23q-46 -14 -89.5 -101
t-43.5 -245l2 -569q1 -286 -151 -414.5t-443 -128.5q-279 0 -438 133t-158 410l2 569q0 158 -43.5 245t-89.5 101v23h668v-23q-46 -14 -89.5 -101t-43.5 -245v-514q0 -56 0.5 -93t3 -82.5t7 -75.5t12 -65t18.5 -57t27 -46t37 -37.5t48 -25.5t61 -17t75 -5q219 0 312 124.5
t93 399.5v494q0 158 -43.5 245t-89.5 101v23z" />
    <glyph glyph-name="uring" unicode="&#x16f;" horiz-adv-x="1058" 
d="M487 1061q-83 0 -140.5 55t-57.5 133q0 79 57.5 135t140.5 56t141 -56.5t58 -134.5t-58 -133t-141 -55zM465 1393q-30 -5 -40.5 -44t1.5 -110q10 -64 32.5 -98t49.5 -31q29 3 40 42.5t1 107.5q-10 64 -33 99.5t-51 33.5zM1090 963v-23q-16 -8 -33 -41t-32 -114t-15 -191
v-342q0 -29 3.5 -51t12.5 -40.5t14 -26.5t19.5 -25t17.5 -21v-20q-23 -49 -68 -83t-106 -34q-104 0 -170 47t-88 133q-118 -168 -303 -168q-64 0 -115.5 21t-85 55t-55.5 81t-31.5 95.5t-9.5 101.5v277q0 84 -10 151.5t-25 106.5t-30 60.5t-29 27.5v23h467v-652
q0 -184 112 -184q58 0 81.5 63.5t23.5 190.5v213q0 84 -10 151.5t-25 106.5t-29.5 60.5t-27.5 27.5v23h547z" />
    <glyph glyph-name="Uhungarumlaut" unicode="&#x170;" horiz-adv-x="1472" 
d="M438 1536l-35 45q215 216 287 277q32 26 72.5 20t66.5 -41q27 -33 22.5 -79t-40.5 -64q-37 -19 -130.5 -58.5t-168.5 -69.5zM868 1536l-34 45q214 216 286 277q32 26 73 20t67 -41q27 -33 22 -79t-41 -64q-37 -19 -130.5 -58.5t-168.5 -69.5zM1106 1434h356v-23
q-46 -14 -89.5 -101t-43.5 -245l2 -569q1 -286 -151 -414.5t-443 -128.5q-279 0 -438 133t-158 410l2 569q0 158 -43.5 245t-89.5 101v23h668v-23q-46 -14 -89.5 -101t-43.5 -245v-514q0 -56 0.5 -93t3 -82.5t7 -75.5t12 -65t18.5 -57t27 -46t37 -37.5t48 -25.5t61 -17
t75 -5q219 0 312 124.5t93 399.5v494q0 158 -43.5 245t-89.5 101v23z" />
    <glyph glyph-name="uhungarumlaut" unicode="&#x171;" horiz-adv-x="1058" 
d="M461 1223q-37 -19 -130.5 -58.5t-168.5 -69.5l-74 -30l-35 45q215 215 287 276q32 26 72.5 20.5t66.5 -40.5q27 -33 22.5 -79t-40.5 -64zM518 1065l-35 45q215 215 287 276q32 26 72.5 20.5t66.5 -40.5q27 -33 22.5 -79t-40.5 -64q-37 -19 -130.5 -58.5t-168.5 -69.5z
M1090 963v-23q-16 -8 -33 -41t-32 -114t-15 -191v-342q0 -29 3.5 -51t12.5 -40.5t14 -26.5t19.5 -25t17.5 -21v-20q-23 -49 -68 -83t-106 -34q-104 0 -170 47t-88 133q-118 -168 -303 -168q-64 0 -115.5 21t-85 55t-55.5 81t-31.5 95.5t-9.5 101.5v277q0 84 -10 151.5
t-25 106.5t-30 60.5t-29 27.5v23h467v-652q0 -184 112 -184q58 0 81.5 63.5t23.5 190.5v213q0 84 -10 151.5t-25 106.5t-29.5 60.5t-27.5 27.5v23h547z" />
    <glyph glyph-name="Uogonek" unicode="&#x172;" horiz-adv-x="1472" 
d="M1106 1411v23h356v-23q-46 -14 -89.5 -101t-43.5 -245l2 -569q3 -415 -338 -512q-32 -42 -50.5 -93.5t-18.5 -93.5q0 -61 52 -93t124 -5l8 -41q-72 -62 -158 -74.5t-145.5 28t-59.5 120.5q0 62 39 123.5t95 105.5q-60 -8 -142 -8q-279 0 -438 133t-158 410l2 569
q0 158 -43.5 245t-89.5 101v23h668v-23q-46 -14 -89.5 -101t-43.5 -245v-514q0 -56 0.5 -93t3 -82.5t7 -75.5t12 -65t18.5 -57t27 -46t37 -37.5t48 -25.5t61 -17t75 -5q219 0 312 124.5t93 399.5v494q0 158 -43.5 245t-89.5 101z" />
    <glyph glyph-name="uogonek" unicode="&#x173;" horiz-adv-x="1058" 
d="M1090 963v-23q-16 -8 -33 -41t-32 -114t-15 -191v-342q0 -29 3.5 -51t12.5 -40.5t14 -26.5t19.5 -25t17.5 -21v-20q-21 -46 -63 -79.5t-99 -37.5q-47 -83 -47 -154q0 -61 52 -93t124 -5l9 -41q-72 -62 -158 -74.5t-145.5 28t-59.5 120.5q0 61 38 122.5t93 104.5
q-140 34 -176 172q-118 -168 -303 -168q-64 0 -115.5 21t-85 55t-55.5 81t-31.5 95.5t-9.5 101.5v277q0 84 -10 151.5t-25 106.5t-30 60.5t-29 27.5v23h467v-652q0 -184 112 -184q58 0 81.5 63.5t23.5 190.5v213q0 84 -10 151.5t-25 106.5t-29.5 60.5t-27.5 27.5v23h547z
" />
    <glyph glyph-name="Wcircumflex" unicode="&#x174;" horiz-adv-x="2283" 
d="M1507 1536l-288 150l-291 -150l-41 41l342 332l319 -332zM2273 1434v-21q-16 -5 -40 -23t-55 -51t-64 -90.5t-58 -128.5l-391 -1120h-238l-247 676l-275 -676h-237l-443 1122q-52 131 -115 204t-100 87v21h703v-23q-14 -4 -26 -17t-19.5 -39t-7.5 -61.5t11 -89t34 -117.5
l256 -702l145 360q4 12 7 23t4 22.5t2 18.5t-1 19t-2 16t-4.5 17.5t-5 15.5t-6 18t-6.5 18l-64 174q-37 101 -84 178t-75.5 106.5t-47.5 39.5v23h766v-23q-69 -9 -102.5 -76t-9.5 -133l235 -776l195 555q36 103 47.5 185.5t0 130t-31 74.5t-45.5 34v29h395z" />
    <glyph glyph-name="wcircumflex" unicode="&#x175;" horiz-adv-x="1607" 
d="M1206 1067l-288 150l-291 -150l-41 41l342 332l319 -332zM1731 963v-23q-20 -6 -49 -26t-66.5 -56.5t-77 -100t-68.5 -141.5l-225 -616h-258l-194 612q-4 15 -14 40t-13 36l-252 -688h-258l-195 612q-49 148 -113.5 230t-105.5 98v23h656v-23q-19 -6 -33 -26.5t-22 -57.5
t0 -101.5t34 -144.5l76 -239l131 358q29 82 -20 156q-26 37 -50 55v23h615v-23q-19 -6 -33 -26.5t-22 -57.5t0 -101.5t34 -144.5l76 -239l90 245q29 79 40 142t4.5 99.5t-19 56.5t-31.5 26v23h363z" />
    <glyph glyph-name="Ycircumflex" unicode="&#x176;" horiz-adv-x="1521" 
d="M1188 1536l-289 150l-291 -150l-41 41l342 332l320 -332zM1511 1434v-23q-21 -7 -52 -24.5t-76 -50.5t-95 -91.5t-92 -130.5l-190 -332q-54 -106 -54 -221v-192q0 -158 43.5 -245t89.5 -101v-23h-667v23q46 14 89.5 101t43.5 245v90q0 110 -51 217l-244 436
q-41 72 -83.5 130.5t-76 92.5t-53.5 51t-33 25v23h662v-23q-25 -8 -34 -36t10.5 -95.5t76.5 -163.5l188 -323l181 319q55 97 73.5 165.5t9.5 97t-34 36.5v23h368z" />
    <glyph glyph-name="ycircumflex" unicode="&#x177;" horiz-adv-x="876" 
d="M770 1067l-289 150l-291 -150l-40 41l342 332l319 -332zM999 963v-23q-51 -16 -128.5 -97t-131.5 -227l-348 -952q-44 -122 -126 -188t-185 -66q-89 0 -152 63t-63 152t63 152t152 63q47 0 84.5 -15.5t55.5 -34.5t38 -34.5t37 -15.5q30 0 57 80l66 180h-162l-195 612
q-49 148 -113.5 230t-105.5 98v23h656v-23q-19 -6 -33 -26.5t-22 -57.5t0 -101.5t34 -144.5l76 -239l90 245q29 79 40 142t4.5 99.5t-19 56.5t-31.5 26v23h362z" />
    <glyph glyph-name="Ydieresis" unicode="&#x178;" horiz-adv-x="1521" 
d="M621 1538q-64 0 -111 46t-47 108q0 64 46.5 107.5t111.5 43.5t110 -43.5t45 -107.5q0 -62 -45.5 -108t-109.5 -46zM1126 1538q-64 0 -110.5 46t-46.5 108q0 64 46 107.5t111 43.5t110.5 -43.5t45.5 -107.5q0 -62 -46 -108t-110 -46zM1511 1434v-23q-21 -7 -52 -24.5
t-76 -50.5t-95 -91.5t-92 -130.5l-190 -332q-54 -106 -54 -221v-192q0 -158 43.5 -245t89.5 -101v-23h-667v23q46 14 89.5 101t43.5 245v90q0 110 -51 217l-244 436q-41 72 -83.5 130.5t-76 92.5t-53.5 51t-33 25v23h662v-23q-25 -8 -34 -36t10.5 -95.5t76.5 -163.5
l188 -323l181 319q55 97 73.5 165.5t9.5 97t-34 36.5v23h368z" />
    <glyph glyph-name="Zacute" unicode="&#x179;" horiz-adv-x="1253" 
d="M911 1677q-37 -19 -130 -58.5t-167 -68.5l-75 -30l-35 45q215 215 287 276q32 26 72.5 20.5t66.5 -40.5q27 -33 22 -79.5t-41 -64.5zM459 102h286q348 0 463 260l35 -16l-61 -346h-1213v102l719 1229h-215q-348 0 -463 -260l-35 16l62 347h1206z" />
    <glyph glyph-name="zacute" unicode="&#x17a;" horiz-adv-x="1089" 
d="M823 1225q-37 -19 -130 -58.5t-167 -69.5l-75 -30l-35 45q214 216 286 277q32 26 73 20t67 -41q27 -33 22 -79t-41 -64zM1112 963v-21l-522 -704q-49 -72 -40 -115t64 -43q40 0 87 24.5t84.5 55t90 88t80.5 92t78 98.5h21l-97 -438h-958v20l528 721q36 65 20.5 103.5
t-67.5 38.5q-50 0 -95.5 -18.5t-91.5 -59t-81.5 -81t-89.5 -108.5h-21l35 347h975z" />
    <glyph glyph-name="Zdotaccent" unicode="&#x17b;" horiz-adv-x="1253" 
d="M645 1538q-64 0 -111 46t-47 108v8v10q0 71 52 120.5t125 49.5q72 0 123 -49t51 -121q0 -70 -51 -121t-123 -51h-11h-8zM459 102h286q348 0 463 260l35 -16l-61 -346h-1213v102l719 1229h-215q-348 0 -463 -260l-35 16l62 347h1206z" />
    <glyph glyph-name="zdotaccent" unicode="&#x17c;" horiz-adv-x="1089" 
d="M629 1067q-64 0 -111 46t-47 108v8v10q0 71 51.5 120.5t124.5 49.5q72 0 123 -49t51 -121q0 -69 -51.5 -120.5t-122.5 -51.5h-10h-8zM1112 963v-21l-522 -704q-49 -72 -40 -115t64 -43q40 0 87 24.5t84.5 55t90 88t80.5 92t78 98.5h21l-97 -438h-958v20l528 721
q36 65 20.5 103.5t-67.5 38.5q-50 0 -95.5 -18.5t-91.5 -59t-81.5 -81t-89.5 -108.5h-21l35 347h975z" />
    <glyph glyph-name="Zcaron" unicode="&#x17d;" horiz-adv-x="1253" 
d="M995 1909l41 -41l-319 -332l-342 332l41 41l291 -150zM459 102h286q348 0 463 260l35 -16l-61 -346h-1213v102l719 1229h-215q-348 0 -463 -260l-35 16l62 347h1206z" />
    <glyph glyph-name="zcaron" unicode="&#x17e;" horiz-adv-x="1089" 
d="M905 1444l41 -41l-319 -332l-342 332l41 41l290 -150zM1112 963v-21l-522 -704q-49 -72 -40 -115t64 -43q40 0 87 24.5t84.5 55t90 88t80.5 92t78 98.5h21l-97 -438h-958v20l528 721q36 65 20.5 103.5t-67.5 38.5q-50 0 -95.5 -18.5t-91.5 -59t-81.5 -81t-89.5 -108.5
h-21l35 347h975z" />
    <glyph glyph-name="gravecomb" unicode="&#x300;" 
d="M0 1581l-35 -45q-289 115 -373 158q-36 18 -40.5 64t22.5 79q26 35 66.5 41t72.5 -20q32 -27 103.5 -96.5t127.5 -125.5z" />
    <glyph glyph-name="acutecomb" unicode="&#x301;" 
d="M-414 1536l-35 45q215 216 287 277q32 26 72.5 20t66.5 -41q27 -33 22.5 -79t-40.5 -64q-37 -19 -130.5 -58.5t-168.5 -69.5z" />
    <glyph glyph-name="uni0302" unicode="&#x302;" 
d="M-621 1536l-41 41l343 332l319 -332l-41 -41l-289 150z" />
    <glyph glyph-name="tildecomb" unicode="&#x303;" 
d="M-150 1536q-46 0 -97.5 23t-96.5 46t-76 23q-61 0 -121 -63l-18 8q6 73 58 132.5t106 59.5q46 0 91.5 -23t88.5 -46t82 -23q36 0 67 13.5t46 37.5l20 -6q-6 -76 -50 -129t-100 -53z" />
    <glyph glyph-name="uni0304" unicode="&#x304;" 
d="M-457 1536v147h457v-147h-457z" />
    <glyph glyph-name="uni0306" unicode="&#x306;" 
d="M-246 1536q-49 0 -89.5 16t-65.5 42t-44 57t-28 62.5t-14 57.5t-6 42l-1 16h41q2 -6 6.5 -15t22 -33t39 -42.5t59 -33.5t80.5 -15q44 0 81.5 14.5t59.5 35t37 40.5t21 34l6 15h41q0 -6 -1.5 -16.5t-8.5 -41t-16.5 -58t-29 -61.5t-44 -58.5t-62.5 -41t-84 -16.5z" />
    <glyph glyph-name="uni0307" unicode="&#x307;" 
d="M-174 1880q72 0 123 -49t51 -121q0 -70 -51 -121t-123 -51h-10h-9q-64 0 -110.5 46t-46.5 108v8v10q0 71 51.5 120.5t124.5 49.5z" />
    <glyph glyph-name="uni0308" unicode="&#x308;" 
d="M-760 1538q-64 0 -111 46t-47 108q0 64 46.5 107.5t111.5 43.5t110.5 -43.5t45.5 -107.5q0 -62 -46 -108t-110 -46zM-254 1538q-64 0 -111 46t-47 108q0 64 46.5 107.5t111.5 43.5t110.5 -43.5t45.5 -107.5q0 -62 -46 -108t-110 -46z" />
    <glyph glyph-name="uni030A" unicode="&#x30a;" 
d="M-170 1536q-83 0 -141 55t-58 133t58 134.5t141 56.5t141 -56.5t58 -134.5t-58 -133t-141 -55zM-150 1585q29 3 40 42.5t1 107.5q-10 64 -33 99.5t-51 33.5q-30 -5 -40 -44t2 -110q10 -65 32 -98.5t49 -30.5z" />
    <glyph glyph-name="uni030B" unicode="&#x30b;" 
d="M-844 1536l-35 45q215 216 287 277q32 26 72.5 20t66.5 -41q27 -33 22.5 -79t-40.5 -64q-37 -19 -130.5 -58.5t-168.5 -69.5zM-414 1536l-35 45q215 216 287 277q32 26 72.5 20t66.5 -41q27 -33 22.5 -79t-40.5 -64q-37 -19 -130.5 -58.5t-168.5 -69.5z" />
    <glyph glyph-name="uni030C" unicode="&#x30c;" 
d="M-319 1536l-343 332l41 41l291 -150l289 150l41 -41z" />
    <glyph glyph-name="uni0312" unicode="&#x312;" 
d="M-190 1536q-75 0 -116.5 46.5t-41.5 131.5q0 61 11.5 124.5t49 137t97.5 111.5l36 -35q-75 -72 -83 -140q-6 -53 36 -60q5 -1 11 -1q66 0 111.5 -45.5t45.5 -111.5t-45.5 -112t-111.5 -46z" />
    <glyph glyph-name="uni0326" unicode="&#x326;" 
d="M-195 -150q74 0 115 -45.5t41 -128.5q0 -60 -11.5 -122.5t-48.5 -135t-96 -110.5l-34 37q74 71 81 137q5 51 -36 58q-5 1 -11 1q-63 0 -108 46t-45 110q0 63 45 108t108 45z" />
    <glyph glyph-name="uni0327" unicode="&#x327;" 
d="M-244 0l-39 -152q43 11 83 11t77 -13t59.5 -48t22.5 -89q0 -55 -20.5 -93.5t-53.5 -57t-72.5 -28t-79.5 -8t-73 5t-54 8.5l-20 5l21 66q33 -8 58.5 -8.5t51 7.5t39 34t13.5 69q0 31 -13.5 49.5t-32.5 22t-38.5 3t-32.5 -4.5l-14 -4v45l47 180h71z" />
    <glyph glyph-name="uni0328" unicode="&#x328;" 
d="M-8 -301l8 -41q-72 -62 -157.5 -74.5t-145 28t-59.5 120.5t62.5 158.5t131.5 109.5h66q-37 -44 -59.5 -100.5t-22.5 -102.5q0 -61 52 -93t124 -5z" />
    <glyph glyph-name="Wgrave" unicode="&#x1e80;" horiz-adv-x="2283" 
d="M1030 1694q-36 18 -40.5 64t22.5 79q26 35 66.5 41t72.5 -20q32 -27 103.5 -96.5t127.5 -125.5l56 -55l-35 -45q-289 115 -373 158zM2273 1434v-21q-16 -5 -40 -23t-55 -51t-64 -90.5t-58 -128.5l-391 -1120h-238l-247 676l-275 -676h-237l-443 1122q-52 131 -115 204
t-100 87v21h703v-23q-14 -4 -26 -17t-19.5 -39t-7.5 -61.5t11 -89t34 -117.5l256 -702l145 360q4 12 7 23t4 22.5t2 18.5t-1 19t-2 16t-4.5 17.5t-5 15.5t-6 18t-6.5 18l-64 174q-37 101 -84 178t-75.5 106.5t-47.5 39.5v23h766v-23q-69 -9 -102.5 -76t-9.5 -133l235 -776
l195 555q36 103 47.5 185.5t0 130t-31 74.5t-45.5 34v29h395z" />
    <glyph glyph-name="wgrave" unicode="&#x1e81;" horiz-adv-x="1607" 
d="M641 1225q-36 18 -40.5 64t22.5 79q26 35 66.5 41t72.5 -20q32 -27 104 -96.5t128 -124.5l55 -56l-35 -45q-289 115 -373 158zM1731 963v-23q-20 -6 -49 -26t-66.5 -56.5t-77 -100t-68.5 -141.5l-225 -616h-258l-194 612q-4 15 -14 40t-13 36l-252 -688h-258l-195 612
q-49 148 -113.5 230t-105.5 98v23h656v-23q-19 -6 -33 -26.5t-22 -57.5t0 -101.5t34 -144.5l76 -239l131 358q29 82 -20 156q-26 37 -50 55v23h615v-23q-19 -6 -33 -26.5t-22 -57.5t0 -101.5t34 -144.5l76 -239l90 245q29 79 40 142t4.5 99.5t-19 56.5t-31.5 26v23h363z" />
    <glyph glyph-name="Wacute" unicode="&#x1e82;" horiz-adv-x="2283" 
d="M1425 1694q-37 -19 -130 -58.5t-167 -69.5l-75 -30l-35 45q215 216 287 277q32 26 72.5 20t66.5 -41q27 -33 22 -79t-41 -64zM2273 1434v-21q-16 -5 -40 -23t-55 -51t-64 -90.5t-58 -128.5l-391 -1120h-238l-247 676l-275 -676h-237l-443 1122q-52 131 -115 204t-100 87
v21h703v-23q-14 -4 -26 -17t-19.5 -39t-7.5 -61.5t11 -89t34 -117.5l256 -702l145 360q4 12 7 23t4 22.5t2 18.5t-1 19t-2 16t-4.5 17.5t-5 15.5t-6 18t-6.5 18l-64 174q-37 101 -84 178t-75.5 106.5t-47.5 39.5v23h766v-23q-69 -9 -102.5 -76t-9.5 -133l235 -776l195 555
q36 103 47.5 185.5t0 130t-31 74.5t-45.5 34v29h395z" />
    <glyph glyph-name="wacute" unicode="&#x1e83;" horiz-adv-x="1607" 
d="M1106 1219q-37 -19 -130.5 -58.5t-167.5 -69.5l-75 -30l-35 45q215 215 287 276q32 26 72.5 20.5t66.5 -40.5q27 -33 22.5 -79t-40.5 -64zM1731 963v-23q-20 -6 -49 -26t-66.5 -56.5t-77 -100t-68.5 -141.5l-225 -616h-258l-194 612q-4 15 -14 40t-13 36l-252 -688h-258
l-195 612q-49 148 -113.5 230t-105.5 98v23h656v-23q-19 -6 -33 -26.5t-22 -57.5t0 -101.5t34 -144.5l76 -239l131 358q29 82 -20 156q-26 37 -50 55v23h615v-23q-19 -6 -33 -26.5t-22 -57.5t0 -101.5t34 -144.5l76 -239l90 245q29 79 40 142t4.5 99.5t-19 56.5t-31.5 26v23
h363z" />
    <glyph glyph-name="Wdieresis" unicode="&#x1e84;" horiz-adv-x="2283" 
d="M965 1538q-64 0 -111 46t-47 108q0 64 46.5 107.5t111.5 43.5t110 -43.5t45 -107.5q0 -62 -45.5 -108t-109.5 -46zM1470 1538q-64 0 -110.5 46t-46.5 108q0 64 46 107.5t111 43.5t110.5 -43.5t45.5 -107.5q0 -62 -46 -108t-110 -46zM2273 1434v-21q-16 -5 -40 -23
t-55 -51t-64 -90.5t-58 -128.5l-391 -1120h-238l-247 676l-275 -676h-237l-443 1122q-52 131 -115 204t-100 87v21h703v-23q-14 -4 -26 -17t-19.5 -39t-7.5 -61.5t11 -89t34 -117.5l256 -702l145 360q4 12 7 23t4 22.5t2 18.5t-1 19t-2 16t-4.5 17.5t-5 15.5t-6 18t-6.5 18
l-64 174q-37 101 -84 178t-75.5 106.5t-47.5 39.5v23h766v-23q-69 -9 -102.5 -76t-9.5 -133l235 -776l195 555q36 103 47.5 185.5t0 130t-31 74.5t-45.5 34v29h395z" />
    <glyph glyph-name="wdieresis" unicode="&#x1e85;" horiz-adv-x="1607" 
d="M535 1063q-64 0 -111 46t-47 108q0 64 46.5 107.5t111.5 43.5t110 -43.5t45 -107.5q0 -62 -45.5 -108t-109.5 -46zM1040 1063q-64 0 -110.5 46t-46.5 108q0 64 46 107.5t111 43.5t110.5 -43.5t45.5 -107.5q0 -62 -46 -108t-110 -46zM1731 963v-23q-20 -6 -49 -26
t-66.5 -56.5t-77 -100t-68.5 -141.5l-225 -616h-258l-194 612q-4 15 -14 40t-13 36l-252 -688h-258l-195 612q-49 148 -113.5 230t-105.5 98v23h656v-23q-19 -6 -33 -26.5t-22 -57.5t0 -101.5t34 -144.5l76 -239l131 358q29 82 -20 156q-26 37 -50 55v23h615v-23
q-19 -6 -33 -26.5t-22 -57.5t0 -101.5t34 -144.5l76 -239l90 245q29 79 40 142t4.5 99.5t-19 56.5t-31.5 26v23h363z" />
    <glyph glyph-name="uni1E9E" unicode="&#x1e9e;" horiz-adv-x="1292" 
d="M846 930q87 -17 159 -48.5t131 -81t92.5 -122t33.5 -162.5q0 -107 -28.5 -199.5t-83.5 -163.5t-144.5 -112t-204.5 -41h-96v23q81 0 125 109.5t44 330.5q0 229 -57.5 337.5t-181.5 108.5v41q203 0 203 312q0 46 -8 88.5t-25 81t-48.5 61.5t-74.5 23q-41 0 -68.5 -23.5
t-41.5 -74t-19.5 -113.5t-5.5 -156v-780q0 -158 43.5 -245t89.5 -101v-23h-639v23q46 14 89.5 101t43.5 245v663q0 109 35.5 208.5t102.5 180.5t177 129.5t248 48.5q98 0 173 -22t118.5 -55.5t71 -81.5t36.5 -92.5t9 -94.5q0 -125 -84 -209.5t-215 -113.5z" />
    <glyph glyph-name="Ygrave" unicode="&#x1ef2;" horiz-adv-x="1521" 
d="M678 1694q-36 18 -41 64t22 79q26 35 67 41t73 -20q32 -27 103.5 -96.5t127.5 -125.5l55 -55l-34 -45q-289 115 -373 158zM1511 1434v-23q-21 -7 -52 -24.5t-76 -50.5t-95 -91.5t-92 -130.5l-190 -332q-54 -106 -54 -221v-192q0 -158 43.5 -245t89.5 -101v-23h-667v23
q46 14 89.5 101t43.5 245v90q0 110 -51 217l-244 436q-41 72 -83.5 130.5t-76 92.5t-53.5 51t-33 25v23h662v-23q-25 -8 -34 -36t10.5 -95.5t76.5 -163.5l188 -323l181 319q55 97 73.5 165.5t9.5 97t-34 36.5v23h368z" />
    <glyph glyph-name="ygrave" unicode="&#x1ef3;" horiz-adv-x="876" 
d="M252 1223q-36 18 -41 64t22 79q26 35 67 40.5t73 -20.5q32 -27 103.5 -96t127.5 -124l55 -56l-34 -45q-289 115 -373 158zM999 963v-23q-51 -16 -128.5 -97t-131.5 -227l-348 -952q-44 -122 -126 -188t-185 -66q-89 0 -152 63t-63 152t63 152t152 63q47 0 84.5 -15.5
t55.5 -34.5t38 -34.5t37 -15.5q30 0 57 80l66 180h-162l-195 612q-49 148 -113.5 230t-105.5 98v23h656v-23q-19 -6 -33 -26.5t-22 -57.5t0 -101.5t34 -144.5l76 -239l90 245q29 79 40 142t4.5 99.5t-19 56.5t-31.5 26v23h362z" />
    <glyph glyph-name="endash" unicode="&#x2013;" horiz-adv-x="983" 
d="M82 596v74h819v-74h-819z" />
    <glyph glyph-name="emdash" unicode="&#x2014;" horiz-adv-x="1290" 
d="M82 596v74h1126v-74h-1126z" />
    <glyph glyph-name="quoteleft" unicode="&#x2018;" horiz-adv-x="608" 
d="M303 831q-95 0 -148 60.5t-53 167.5q0 55 9 115.5t30 130t63 132t99 101.5l21 -20q-82 -78 -93 -179q-5 -41 12 -72.5t60 -31.5q85 0 144 -59t59 -144q0 -83 -59 -142t-144 -59z" />
    <glyph glyph-name="quoteright" unicode="&#x2019;" horiz-adv-x="608" 
d="M305 1536q95 0 148 -60t53 -167q0 -54 -9 -114t-30 -129.5t-63 -133t-99 -103.5l-20 21q39 38 62 77.5t30 100.5q5 41 -12 73t-60 32q-85 0 -144 58.5t-59 143.5q0 83 59 142t144 59z" />
    <glyph glyph-name="quotesinglbase" unicode="&#x201a;" horiz-adv-x="567" 
d="M285 356q95 0 147.5 -60t52.5 -167q0 -55 -9 -115.5t-29.5 -130t-62.5 -132t-99 -101.5l-21 20q39 38 62 77.5t30 100.5q5 42 -11.5 73.5t-59.5 31.5q-85 0 -144 59t-59 144q0 83 59 141.5t144 58.5z" />
    <glyph glyph-name="quotedblleft" unicode="&#x201c;" horiz-adv-x="1091" 
d="M303 831q-95 0 -148 60.5t-53 167.5q0 55 9 115.5t30 130t63 132t99 101.5l21 -20q-82 -78 -93 -179q-5 -41 12 -72.5t60 -31.5q85 0 144 -59t59 -144q0 -83 -59 -142t-144 -59zM786 831q-95 0 -147.5 60t-52.5 168q0 55 9 115.5t29.5 130t62.5 132t99 101.5l21 -20
q-39 -37 -62 -77.5t-30 -101.5q-5 -41 11.5 -72.5t59.5 -31.5q85 0 144 -59t59 -144q0 -83 -59 -142t-144 -59z" />
    <glyph glyph-name="quotedblright" unicode="&#x201d;" horiz-adv-x="1091" 
d="M305 1536q95 0 148 -60t53 -167q0 -54 -9 -114t-30 -129.5t-63 -133t-99 -103.5l-20 21q39 38 62 77.5t30 100.5q5 41 -12 73t-60 32q-85 0 -144 58.5t-59 143.5q0 83 59 142t144 59zM788 1536q95 0 148 -60t53 -167q0 -55 -9 -115.5t-30 -130.5t-63 -132.5t-99 -101.5
l-20 21q39 38 62 77.5t30 100.5q5 41 -12 73t-60 32q-85 0 -143.5 58.5t-58.5 143.5q0 83 59 142t143 59z" />
    <glyph glyph-name="quotedblbase" unicode="&#x201e;" horiz-adv-x="567" 
d="M285 356q95 0 147.5 -60t52.5 -167q0 -55 -9 -115.5t-29.5 -130t-62.5 -132t-99 -101.5l-21 20q39 38 62 77.5t30 100.5q5 42 -11.5 73.5t-59.5 31.5q-85 0 -144 59t-59 144q0 83 59 141.5t144 58.5z" />
    <glyph glyph-name="dagger" unicode="&#x2020;" horiz-adv-x="778" 
d="M434 1130h262v-73h-262v-860h-88v860h-264v73h264v304h88v-304z" />
    <glyph glyph-name="bullet" unicode="&#x2022;" horiz-adv-x="567" 
d="M285 664q-85 0 -144 58.5t-59 143.5q0 83 59 142t144 59t144 -59t56 -142q0 -87 -58 -144.5t-142 -57.5z" />
    <glyph glyph-name="ellipsis" unicode="&#x2026;" horiz-adv-x="1699" 
d="M285 -47q-85 0 -144 59t-59 144q0 83 59 141.5t144 58.5t144 -58.5t56 -141.5q0 -87 -58 -145t-142 -58zM848 -47q-85 0 -144 59t-59 144q0 83 59 141.5t144 58.5t144.5 -58.5t56.5 -141.5q0 -87 -58.5 -145t-142.5 -58zM1417 -47q-85 0 -144 59t-59 144q0 83 59 141.5
t144 58.5t144.5 -58.5t56.5 -141.5q0 -87 -58.5 -145t-142.5 -58z" />
    <glyph glyph-name="guilsinglleft" unicode="&#x2039;" horiz-adv-x="645" 
d="M82 666l455 354l26 -53l-338 -320l338 -319l-26 -54l-455 355v37z" />
    <glyph glyph-name="guilsinglright" unicode="&#x203a;" horiz-adv-x="645" 
d="M82 967l27 53l454 -354v-37l-454 -355l-27 54l338 319z" />
    <glyph glyph-name="fraction" unicode="&#x2044;" horiz-adv-x="1050" 
d="M20 -47l908 1481h102l-907 -1481h-103z" />
    <glyph glyph-name="Euro" unicode="&#x20ac;" horiz-adv-x="1697" 
d="M676 762h-594v74h96q17 192 123.5 339t282.5 226.5t395 79.5q132 0 251.5 -26t203 -69t133 -98.5t49.5 -113.5q0 -54 -39 -93t-94 -39q-56 0 -92.5 39t-32.5 93q9 107 -48.5 159.5t-193.5 52.5q-247 0 -383.5 -145.5t-154.5 -404.5h98v-74zM1483 391q55 0 94 -38.5
t39 -92.5q0 -58 -49.5 -113.5t-133 -98.5t-203 -69t-251.5 -26q-219 0 -395 79.5t-282.5 226.5t-123.5 339h-96v74h594v-74h-98q18 -260 154.5 -405.5t383.5 -145.5q136 0 193.5 52.5t48.5 160.5q-4 54 32.5 92.5t92.5 38.5z" />
    <glyph glyph-name="trademark" unicode="&#x2122;" horiz-adv-x="1159" 
d="M82 1436h426v-56h-148v-417h-131v417h-147v56zM836 1171l110 265h131v-473h-131v327l-153 -348l-166 334v-313h-52v473h127z" />
    <glyph glyph-name="minus" unicode="&#x2212;" horiz-adv-x="778" 
d="M82 596v74h614v-74h-614z" />
    <glyph glyph-name="A.ss01" horiz-adv-x="1910" 
d="M885 1434h297l491 -1127q56 -129 122.5 -200.5t105.5 -86.5v-20h-703v23q19 6 31 25.5t16.5 55t-9 97t-46.5 139.5l-98 233q24 70 24 156q0 135 -90.5 235.5t-226.5 122.5l86 205q11 31 -1.5 45.5t-54.5 14.5q-77 0 -156.5 -47.5t-141 -124t-101 -179t-39.5 -204.5
q0 -166 76.5 -274.5t212.5 -108.5q73 0 131 28t90.5 71t49 89t16.5 88q0 60 -33 107t-88 59q-11 3 -14.5 -3t-0.5 -17q9 -27 9 -56q0 -78 -54 -133t-131 -55q-75 0 -128.5 55t-53.5 133q0 115 75.5 191t184.5 76q141 0 239.5 -92.5t98.5 -225.5q0 -136 -65.5 -235
t-175.5 -148t-250 -49q-123 0 -228.5 37t-184 105.5t-123 173.5t-44.5 233q0 176 122 311.5t322 206t441 70.5zM567 252q-20 -100 0.5 -155.5t61.5 -67.5v-29h-396v20q39 13 101 73.5t115 168.5q65 -10 118 -10z" />
    <glyph glyph-name="B.ss01" horiz-adv-x="2232" 
d="M1950 772q145 -36 229 -134.5t84 -225.5q0 -92 -40 -165t-105 -118.5t-154 -75t-180.5 -41.5t-192.5 -12h-757v23q46 14 89.5 101t43.5 245v12q149 133 149 348q0 87 -40 162.5t-109 126.5v246q0 88 -76 88q-131 0 -247.5 -79.5t-184.5 -207.5t-68 -268
q0 -166 76.5 -274.5t212.5 -108.5q73 0 131 28t90.5 71t49 89t16.5 88q0 60 -33 107t-88 59q-11 3 -14.5 -3t-0.5 -17q9 -27 9 -56q0 -78 -54 -133t-131 -55q-75 0 -128.5 55t-53.5 133q0 115 75.5 191t184.5 76q141 0 239.5 -92.5t98.5 -225.5q0 -136 -65.5 -235
t-175.5 -148t-250 -49q-123 0 -228.5 37t-184 105.5t-123 173.5t-44.5 233q0 176 122 311.5t322 206t441 70.5h887q205 0 330.5 -98.5t125.5 -241.5q0 -117 -80 -208.5t-198 -113.5zM1561 1352h-101q-42 0 -67 -35t-25 -129v-377h193q126 0 198 76.5t72 191.5
q0 112 -80 192.5t-190 80.5zM1368 82h35q219 0 341 80t122 231q0 156 -97 251t-270 95h-131v-657z" />
    <glyph glyph-name="C.ss01" horiz-adv-x="1478" 
d="M1018 113q101 0 219 46t184 134h66q-21 -57 -77 -116.5t-136.5 -111.5t-191.5 -85t-228 -33q-239 0 -429.5 98t-297.5 272.5t-107 393.5q0 224 107 400.5t293 272.5t418 97q196 0 347.5 -56t237.5 -162.5t86 -248.5q0 -75 -28 -142t-80.5 -119.5t-135.5 -83t-184 -30.5
q-186 0 -295.5 86t-109.5 221q0 94 53.5 168t138.5 74q72 0 121 -47t49 -119q0 -32 -14.5 -60.5t-31.5 -46.5t-31.5 -42t-14.5 -48q0 -39 33 -66.5t92 -27.5q74 0 127 81t53 208q0 161 -86 263.5t-247 102.5q-115 0 -206.5 -54t-150 -149t-89 -222t-30.5 -277
q0 -112 34.5 -207.5t92 -161t132.5 -112.5t155.5 -68.5t161.5 -21.5z" />
    <glyph glyph-name="D.ss01" horiz-adv-x="2377" 
d="M1651 1434q162 0 297 -55t223.5 -149t137 -218t48.5 -264q0 -121 -24.5 -224t-67 -178t-101.5 -135.5t-124.5 -99t-140 -64.5t-144.5 -36.5t-141 -10.5h-780v23q46 14 89.5 101t43.5 245v12q149 133 149 348q0 87 -40 162.5t-109 126.5v246q0 88 -76 88
q-131 0 -247.5 -79.5t-184.5 -207.5t-68 -268q0 -166 76.5 -274.5t212.5 -108.5q73 0 131 28t90.5 71t49 89t16.5 88q0 60 -33 107t-88 59q-11 3 -14.5 -3t-0.5 -17q9 -27 9 -56q0 -78 -54 -133t-131 -55q-75 0 -128.5 55t-53.5 133q0 115 75.5 191t184.5 76
q141 0 239.5 -92.5t98.5 -225.5q0 -136 -65.5 -235t-175.5 -148t-250 -49q-123 0 -228.5 37t-184 105.5t-123 173.5t-44.5 233q0 176 122 311.5t322 206t441 70.5h766zM1368 82h152q99 0 176 32t137 103.5t91.5 196.5t31.5 301q0 145 -21 256.5t-68 199.5t-130 134.5
t-199 46.5h-78q-42 0 -67 -35t-25 -129v-1106z" />
    <glyph glyph-name="E.ss01" horiz-adv-x="2134" 
d="M2148 346l37 -20l-108 -326h-1243v23q46 14 89.5 101t43.5 245v12q149 133 149 348q0 87 -40 162.5t-109 126.5v246q0 88 -76 88q-131 0 -247.5 -80t-184.5 -208t-68 -267q0 -166 76.5 -274.5t212.5 -108.5q73 0 131 28t90.5 71t49 89t16.5 88q0 60 -33 107t-88 59
q-11 3 -14.5 -3t-0.5 -17q9 -27 9 -56q0 -78 -54 -133t-131 -55q-75 0 -128.5 55t-53.5 133q0 115 75.5 191t184.5 76q141 0 239.5 -92.5t98.5 -225.5q0 -136 -65.5 -235t-175.5 -148t-250 -49q-123 0 -228.5 37t-184 105.5t-123 173.5t-44.5 233q0 176 122 311.5t322 206
t441 70.5h1177l109 -326l-37 -21q-58 115 -190.5 190t-315.5 75q-106 0 -207 -9q-53 -27 -53 -155v-400q86 0 137.5 0.5t105.5 4.5t82 9t58.5 17t44 24.5t29 37t24 49.5t19.5 65h45v-497h-45q-15 56 -26 87t-39 58t-50.5 37t-87 18t-120.5 8.5t-177 0.5v-613q90 -12 234 -12
q184 0 332 75.5t214 188.5z" />
    <glyph glyph-name="F.ss01" horiz-adv-x="2119" 
d="M2062 1434l109 -326l-37 -21q-58 115 -190.5 190t-315.5 75q-106 0 -207 -9q-53 -27 -53 -155v-400q86 0 137.5 0.5t105.5 4.5t82 9t58.5 17t44 24.5t29 37t24 49.5t19.5 65h45v-497h-45q-15 56 -26 87t-39 58t-50.5 37t-87 18t-120.5 8.5t-177 0.5v-338
q0 -158 43.5 -245t89.5 -101v-23h-667v23q46 14 89.5 101t43.5 245v12q149 133 149 348q0 87 -40 162.5t-109 126.5v246q0 88 -76 88q-131 0 -247.5 -79.5t-184.5 -207.5t-68 -268q0 -166 76.5 -274.5t212.5 -108.5q73 0 131 28t90.5 71t49 89t16.5 88q0 60 -33 107t-88 59
q-11 3 -14.5 -3t-0.5 -17q9 -27 9 -56q0 -78 -54 -133t-131 -55q-75 0 -128.5 55t-53.5 133q0 115 75.5 191t184.5 76q141 0 239.5 -92.5t98.5 -225.5q0 -136 -65.5 -235t-175.5 -148t-250 -49q-123 0 -228.5 37t-184 105.5t-123 173.5t-44.5 233q0 176 122 311.5t322 206
t441 70.5h1177z" />
    <glyph glyph-name="G.ss01" horiz-adv-x="1488" 
d="M1561 565v-16q-33 -10 -64 -70.5t-31 -171.5v-14q-21 -57 -77 -116.5t-136.5 -111.5t-191 -85t-227.5 -33q-239 0 -429.5 98t-297.5 272.5t-107 393.5q0 226 103 402t286 272t416 96q197 0 351.5 -56t243.5 -162.5t89 -248.5q0 -75 -28 -142t-80.5 -119.5t-135.5 -83
t-184 -30.5q-186 0 -296 86t-110 221q0 94 54 168t139 74q72 0 121 -47t49 -119q0 -32 -14.5 -60.5t-31.5 -46.5t-31.5 -42t-14.5 -48q0 -39 33 -66.5t92 -27.5q74 0 127 81t53 208q0 161 -86.5 263.5t-247.5 102.5q-153 0 -262 -94t-161 -250.5t-52 -357.5
q0 -113 34.5 -211t93 -168.5t135.5 -121.5t163 -76t174 -25q23 0 35 2v113q0 158 -43.5 245t-89.5 101v22h637z" />
    <glyph glyph-name="H.ss01" horiz-adv-x="2373" 
d="M2363 1434v-23q-46 -14 -89.5 -101t-43.5 -245v-696q0 -158 43.5 -245t89.5 -101v-23h-667v23q46 14 89.5 101t43.5 245v368h-461v-368q0 -158 43.5 -245t89.5 -101v-23h-667v23q46 14 89.5 101t43.5 245v12q149 133 149 348q0 87 -40 162.5t-109 126.5v246q0 88 -76 88
q-97 0 -189.5 -47.5t-160 -124t-109 -178t-41.5 -205.5q0 -166 76.5 -274.5t212.5 -108.5q73 0 131 28t90.5 71t49 89t16.5 88q0 60 -33 107t-88 59q-11 3 -14.5 -3t-0.5 -17q9 -27 9 -56q0 -78 -55 -133t-130 -55t-128.5 55t-53.5 133q0 115 75.5 191t184.5 76
q141 0 239.5 -92.5t98.5 -225.5q0 -136 -65.5 -235t-175.5 -148t-250 -49q-123 0 -228.5 37t-184 105.5t-123 173.5t-44.5 233q0 176 122 311.5t322 206t441 70.5h616v-23q-46 -14 -89.5 -101t-43.5 -245v-254h461v254q0 158 -43.5 245t-89.5 101v23h667z" />
    <glyph glyph-name="I.ss01" horiz-adv-x="1511" 
d="M1501 1434v-23q-46 -14 -89.5 -101t-43.5 -245v-696q0 -158 43.5 -245t89.5 -101v-23h-667v23q46 14 89.5 101t43.5 245v12q149 133 149 348q0 87 -40 162.5t-109 126.5v246q0 88 -76 88q-131 0 -247.5 -79.5t-184.5 -207.5t-68 -268q0 -166 76.5 -274.5t212.5 -108.5
q73 0 131 28t90.5 71t49 89t16.5 88q0 60 -33 107t-88 59q-11 3 -14.5 -3t-0.5 -17q9 -27 9 -56q0 -78 -54 -133t-131 -55q-75 0 -128.5 55t-53.5 133q0 115 75.5 191t184.5 76q141 0 239.5 -92.5t98.5 -225.5q0 -136 -65.5 -235t-175.5 -148t-250 -49q-123 0 -228.5 37
t-184 105.5t-123 173.5t-44.5 233q0 176 122 311.5t322 206t441 70.5h616z" />
    <glyph glyph-name="J.ss01" horiz-adv-x="1511" 
d="M1501 1434v-23q-46 -14 -89.5 -101t-43.5 -245v-1075q0 -213 -112.5 -315.5t-356.5 -102.5q-257 0 -405 104.5t-148 298.5q0 79 57 138t136 59t134.5 -52.5t55.5 -129.5q0 -34 -16.5 -82.5t-16.5 -93.5q0 -57 36.5 -108.5t105.5 -51.5q71 0 100 74t29 206v447
q149 133 149 348q0 87 -40 162.5t-109 126.5v246q0 88 -76 88q-131 0 -247.5 -79.5t-184.5 -207.5t-68 -268q0 -166 76.5 -274.5t212.5 -108.5q73 0 131 28t90.5 71t49 89t16.5 88q0 60 -33 107t-88 59q-11 3 -14.5 -3t-0.5 -17q9 -27 9 -56q0 -78 -54 -133t-131 -55
q-75 0 -128.5 55t-53.5 133q0 115 75.5 191t184.5 76q141 0 239.5 -92.5t98.5 -225.5q0 -136 -65.5 -235t-175.5 -148t-250 -49q-123 0 -228.5 37t-184 105.5t-123 173.5t-44.5 233q0 176 122 311.5t322 206t441 70.5h616z" />
    <glyph glyph-name="K.ss01" horiz-adv-x="2385" 
d="M1712 856l334 -496q55 -80 112 -145.5t103 -103.5t71 -56t44 -28v-27h-752v25q16 5 26 17.5t11 37.5t-9 59.5t-37.5 86.5t-70.5 116l-174 258l-2 -2v-229q0 -158 43.5 -245t89.5 -101v-23h-667v23q46 14 89.5 101t43.5 245v12q149 133 149 348q0 87 -40 162.5t-109 126.5
v246q0 88 -76 88q-131 0 -247.5 -79.5t-184.5 -207.5t-68 -268q0 -166 76.5 -274.5t212.5 -108.5q73 0 131 28t90.5 71t49 89t16.5 88q0 60 -33 107t-88 59q-11 3 -14.5 -3t-0.5 -17q9 -27 9 -56q0 -78 -55 -133t-130 -55t-128.5 55t-53.5 133q0 115 75.5 191t184.5 76
q141 0 239.5 -92.5t98.5 -225.5q0 -136 -65.5 -235t-175.5 -148t-250 -49q-123 0 -228.5 37t-184 105.5t-123 173.5t-44.5 233q0 176 122 311.5t322 206t441 70.5h616v-23q-46 -14 -89.5 -101t-43.5 -245v-330l373 422q46 51 71.5 93t31.5 69.5t-1 47t-22.5 29.5t-38.5 15
v23h418v-23q-181 -77 -338 -254l-109 -123q-55 -66 -55 -114q0 -36 14 -64z" />
    <glyph glyph-name="L.ss01" horiz-adv-x="2134" 
d="M2148 346l37 -20l-108 -326h-1243v23q46 14 89.5 101t43.5 245v12q149 133 149 348q0 87 -40 162.5t-109 126.5v246q0 88 -76 88q-131 0 -247.5 -79.5t-184.5 -207.5t-68 -268q0 -166 76.5 -274.5t212.5 -108.5q73 0 131 28t90.5 71t49 89t16.5 88q0 60 -33 107t-88 59
q-11 3 -14.5 -3t-0.5 -17q9 -27 9 -56q0 -78 -55 -133t-130 -55t-128.5 55t-53.5 133q0 115 75.5 191t184.5 76q141 0 239.5 -92.5t98.5 -225.5q0 -136 -65.5 -235t-175.5 -148t-250 -49q-123 0 -228.5 37t-184 105.5t-123 173.5t-44.5 233q0 176 122 311.5t322 206
t441 70.5h616v-23q-46 -14 -89.5 -101t-43.5 -245v-971q90 -12 234 -12q184 0 332 75.5t214 188.5z" />
    <glyph glyph-name="M.ss01" horiz-adv-x="2637" 
d="M2628 1434v-23q-46 -14 -90 -101t-44 -245v-696q0 -158 44 -245t90 -101v-23h-668v23q46 14 89.5 101t43.5 245v594q0 53 -14 53q-12 0 -33 -49l-416 -1033l-526 1053q-17 29 -29 29q-18 0 -18 -53v-37q-36 50 -90 92v246q0 88 -76 88q-97 0 -189.5 -47.5t-160 -124
t-109 -178t-41.5 -205.5q0 -166 76.5 -274.5t212.5 -108.5q73 0 131 28t90.5 71t49 89t16.5 88q0 60 -33 107t-88 59q-11 3 -14.5 -3t-0.5 -17q9 -27 9 -56q0 -78 -55 -133t-130 -55t-128.5 55t-53.5 133q0 115 75.5 191t184.5 76q141 0 239.5 -92.5t98.5 -225.5
q0 -136 -65.5 -235t-175.5 -148t-250 -49q-123 0 -228.5 37t-184 105.5t-123 173.5t-44.5 233q0 176 122 311.5t322 206t441 70.5l465 2l442 -875l262 660q8 19 12 45q-21 64 -50.5 100t-55.5 45v23h668zM1057 492v-123q0 -158 43.5 -245t89.5 -101v-23h-356v23
q46 14 89.5 101t43.5 245v12q49 44 90 111z" />
    <glyph glyph-name="N.ss01" horiz-adv-x="2195" 
d="M2185 1434v-23q-46 -14 -89.5 -101t-43.5 -245v-1065h-164l-774 993q-20 23 -37 23q-20 0 -20 -53v-37q-36 50 -90 92v246q0 88 -76 88q-97 0 -189.5 -47.5t-160 -124t-109 -178t-41.5 -205.5q0 -166 76.5 -274.5t212.5 -108.5q73 0 131 28t90.5 71t49 89t16.5 88
q0 60 -33 107t-88 59q-11 3 -14.5 -3t-0.5 -17q9 -27 9 -56q0 -78 -55 -133t-130 -55t-128.5 55t-53.5 133q0 115 75.5 191t184.5 76q141 0 239.5 -92.5t98.5 -225.5q0 -136 -65.5 -235t-175.5 -148t-250 -49q-123 0 -228.5 37t-184 105.5t-123 173.5t-44.5 233
q0 176 122 311.5t322 206t441 70.5h428l649 -832v463q0 158 -43.5 245t-89.5 101v23h356zM1057 492v-123q0 -158 43.5 -245t89.5 -101v-23h-356v23q46 14 89.5 101t43.5 245v12q49 44 90 111z" />
    <glyph glyph-name="O.ss01" horiz-adv-x="1421" 
d="M1350 1016q51 -139 51 -305q0 -154 -59.5 -295.5t-157.5 -242t-227.5 -160.5t-264.5 -60q-136 0 -262 57t-221 155.5t-152 241t-57 304.5q0 155 57 298t151.5 246t223.5 164.5t268 61.5q105 0 209.5 -33t190.5 -91.5t140 -148.5t54 -194q0 -75 -28 -142t-80.5 -119.5
t-135.5 -83t-184 -30.5q-186 0 -295.5 86t-109.5 221q0 94 53.5 168t138.5 74q72 0 121 -47t49 -119q0 -32 -14.5 -60.5t-31.5 -46.5t-31.5 -42t-14.5 -48q0 -39 33 -66.5t92 -27.5q74 0 127 81t53 208q0 166 -105 272.5t-249 106.5q-73 0 -128 -39.5t-86 -108.5
t-45.5 -151.5t-14.5 -179.5q0 -184 36 -351.5t91 -279t120 -177t125 -65.5q201 0 201 547v10q162 31 260 142t98 268q0 4 2.5 5.5t5 0.5t3.5 -4z" />
    <glyph glyph-name="P.ss01" horiz-adv-x="2183" 
d="M1772 1434q207 0 345 -109t138 -262q0 -89 -36.5 -158.5t-98.5 -114t-150 -73t-183.5 -40t-207.5 -11.5h-211v-297q0 -158 43.5 -245t89.5 -101v-23h-667v23q46 14 89.5 101t43.5 245v12q149 133 149 348q0 87 -40 162.5t-109 126.5v246q0 88 -76 88q-131 0 -247.5 -79.5
t-184.5 -207.5t-68 -268q0 -166 76.5 -274.5t212.5 -108.5q73 0 131 28t90.5 71t49 89t16.5 88q0 60 -33 107t-88 59q-11 3 -14.5 -3t-0.5 -17q9 -27 9 -56q0 -78 -54 -133t-131 -55q-75 0 -128.5 55t-53.5 133q0 115 75.5 191t184.5 76q141 0 239.5 -92.5t98.5 -225.5
q0 -136 -65.5 -235t-175.5 -148t-250 -49q-123 0 -228.5 37t-184 105.5t-123 173.5t-44.5 233q0 176 122 311.5t322 206t441 70.5h887zM1368 756h193q126 0 198 83.5t72 209.5q0 122 -80 212.5t-190 90.5h-101q-42 0 -67 -35t-25 -129v-432z" />
    <glyph glyph-name="Q.ss01" horiz-adv-x="1421" 
d="M889 -14q87 -33 146 -50t124.5 -18.5t104.5 27.5l20 -21q-125 -280 -356 -280q-67 0 -139 25.5t-131.5 55.5t-124 55t-141.5 23.5t-159 -39.5l-20 21q44 179 170 248q-172 94 -277.5 273.5t-105.5 404.5q0 155 57 298t151.5 246t223.5 164.5t268 61.5q105 0 209.5 -33
t190.5 -91.5t140 -148.5t54 -194q0 -75 -28 -142t-80.5 -119.5t-135.5 -83t-184 -30.5q-186 0 -295.5 86t-109.5 221q0 94 53.5 168t138.5 74q72 0 121 -47t49 -119q0 -32 -14.5 -60.5t-31.5 -46.5t-31.5 -42t-14.5 -48q0 -39 33 -66.5t92 -27.5q74 0 127 81t53 208
q0 166 -105 272.5t-249 106.5q-73 0 -128 -39.5t-86 -108.5t-45.5 -151.5t-14.5 -179.5q0 -184 36 -351.5t91 -279t120 -177t125 -65.5q201 0 201 547v10q162 31 260 142t98 268q0 4 2.5 5.5t5 0.5t3.5 -4q51 -139 51 -305q0 -252 -147 -452t-365 -273z" />
    <glyph glyph-name="R.ss01" horiz-adv-x="2435" 
d="M2140 319q75 -134 156 -207.5t129 -91.5v-22l-729 -2l-2 22q23 8 33 38.5t-3.5 103.5t-58.5 174q-167 315 -297 332v-297q0 -158 43.5 -245t89.5 -101v-23h-667v23q46 14 89.5 101t43.5 245v12q149 133 149 348q0 87 -40 162.5t-109 126.5v246q0 88 -76 88
q-131 0 -247.5 -79.5t-184.5 -207.5t-68 -268q0 -166 76.5 -274.5t212.5 -108.5q73 0 131 28t90.5 71t49 89t16.5 88q0 60 -33 107t-88 59q-11 3 -14.5 -3t-0.5 -17q9 -27 9 -56q0 -78 -54 -133t-131 -55q-75 0 -128.5 55t-53.5 133q0 115 75.5 191t184.5 76
q141 0 239.5 -92.5t98.5 -225.5q0 -136 -65.5 -235t-175.5 -148t-250 -49q-123 0 -228.5 37t-184 105.5t-123 173.5t-44.5 233q0 176 122 311.5t322 206t441 70.5h887q207 0 345 -109t138 -262q0 -311 -426 -379q-27 -6 -31 -16t17 -19q99 -35 176 -119t149 -211zM1561 1352
h-101q-42 0 -67 -35t-25 -129v-432h193q126 0 198 83.5t72 209.5q0 122 -80 212.5t-190 90.5z" />
    <glyph glyph-name="S.ss01" horiz-adv-x="1224" 
d="M506 1219q0 -57 42.5 -107t110.5 -90t150 -80.5t164 -87.5t150 -101.5t110.5 -132t42.5 -169.5q0 -150 -83.5 -276t-240 -204.5t-356.5 -87.5q-284 0 -455.5 118t-171.5 329q0 75 28 142t80.5 119.5t135.5 83t184 30.5q185 0 295.5 -86.5t110.5 -221.5q0 -93 -54 -167
t-139 -74q-72 0 -121 47t-49 119q0 40 23 73.5t46 63.5t23 59q0 39 -32.5 66.5t-91.5 27.5q-74 0 -127.5 -80.5t-53.5 -207.5q0 -166 84 -262.5t271 -96.5q149 0 230 96.5t81 257.5q0 100 -39.5 182.5t-108 136t-158 83t-190.5 29.5q-46 0 -110 -11q-105 59 -163 139
t-58 201q0 115 69 208t185.5 143.5t257.5 50.5q132 0 251.5 -26t203 -69t132.5 -98.5t49 -113.5q0 -54 -39 -93t-94 -39q-56 0 -92.5 39t-32.5 93q9 107 -47.5 155.5t-193.5 48.5q-85 0 -147 -45t-62 -114z" />
    <glyph glyph-name="T.ss01" horiz-adv-x="1843" 
d="M1815 1434l61 -347l-35 -16q-51 116 -172.5 183.5t-300.5 76.5v-1331h-534v23q46 14 89.5 101t43.5 245v12q149 133 149 348q0 87 -40 162.5t-109 126.5v246q0 88 -76 88q-131 0 -247.5 -79.5t-184.5 -207.5t-68 -268q0 -166 76.5 -274.5t212.5 -108.5q73 0 131 28
t90.5 71t49 89t16.5 88q0 60 -33 107t-88 59q-11 3 -14.5 -3t-0.5 -17q9 -27 9 -56q0 -78 -54 -133t-131 -55q-75 0 -128.5 55t-53.5 133q0 115 75.5 191t184.5 76q141 0 239.5 -92.5t98.5 -225.5q0 -136 -65.5 -235t-175.5 -148t-250 -49q-123 0 -228.5 37t-184 105.5
t-123 173.5t-44.5 233q0 176 122 311.5t322 206t441 70.5h930z" />
    <glyph glyph-name="U.ss01" horiz-adv-x="2295" 
d="M1929 1411v23h357v-23q-46 -14 -90 -101t-44 -245l2 -569q1 -286 -150.5 -414.5t-442.5 -128.5q-250 0 -404 105.5t-184 326.5q143 133 143 344q0 87 -40 162.5t-109 126.5v246q0 88 -76 88q-97 0 -189.5 -47.5t-160 -124t-109 -178t-41.5 -205.5q0 -166 76.5 -274.5
t212.5 -108.5q73 0 131 28t90.5 71t49 89t16.5 88q0 60 -33 107t-88 59q-11 3 -14.5 -3t-0.5 -17q9 -27 9 -56q0 -78 -55 -133t-130 -55t-128.5 55t-53.5 133q0 115 75.5 191t184.5 76q141 0 239.5 -92.5t98.5 -225.5q0 -136 -65.5 -235t-175.5 -148t-250 -49
q-123 0 -228.5 37t-184 105.5t-123 173.5t-44.5 233q0 176 122 311.5t322 206t441 70.5h616v-23q-46 -14 -89.5 -101t-43.5 -245v-514q0 -56 0.5 -93t3 -82.5t7 -75.5t12 -65t18.5 -57t27 -46t37 -37.5t48 -25.5t61 -17t75 -5q219 0 312 124.5t93 399.5v494q0 158 -43.5 245
t-89.5 101z" />
    <glyph glyph-name="V.ss01" horiz-adv-x="2209" 
d="M2179 1434v-21q-17 -5 -41.5 -22.5t-57 -49.5t-68.5 -88.5t-64 -126.5l-459 -1126h-238l-194 492q59 106 59 237q0 128 -82 225t-209 127l-16 41q-47 116 -102 187q-138 -67 -227 -209.5t-89 -302.5q0 -166 76.5 -274.5t212.5 -108.5q73 0 131 28t90.5 71t49 89t16.5 88
q0 60 -33 107t-88 59q-11 3 -14.5 -3t-0.5 -17q9 -27 9 -56q0 -78 -54 -133t-131 -55q-75 0 -128.5 55t-53.5 133q0 115 75.5 191t184.5 76q141 0 239.5 -92.5t98.5 -225.5q0 -136 -65.5 -235t-175.5 -148t-250 -49q-123 0 -228.5 37t-184 105.5t-123 173.5t-44.5 233
q0 176 122 311.5t322 206t441 70.5h411v-23q-14 -4 -26 -17t-19.5 -39t-7.5 -61.5t11 -89t34 -117.5l256 -702l246 604q42 102 57.5 182.5t7 127.5t-26.5 73t-44 33v29h395z" />
    <glyph glyph-name="W.ss01" horiz-adv-x="2887" 
d="M2857 1434v-21q-16 -5 -40 -23t-55 -51t-64 -90.5t-58 -128.5l-391 -1120h-238l-248 676l-274 -676h-238l-194 492q59 106 59 237q0 128 -82 225t-209 127l-16 41q-47 116 -102 187q-138 -67 -227 -209.5t-89 -302.5q0 -166 76.5 -274.5t212.5 -108.5q73 0 131 28
t90.5 71t49 89t16.5 88q0 60 -33 107t-88 59q-11 3 -14.5 -3t-0.5 -17q9 -27 9 -56q0 -78 -54 -133t-131 -55q-75 0 -128.5 55t-53.5 133q0 115 75.5 191t184.5 76q141 0 239.5 -92.5t98.5 -225.5q0 -136 -65.5 -235t-175.5 -148t-250 -49q-123 0 -228.5 37t-184 105.5
t-123 173.5t-44.5 233q0 176 122 311.5t322 206t441 70.5h411v-23q-14 -4 -26 -17t-19.5 -39t-7.5 -61.5t11 -89t34 -117.5l256 -702l146 360q5 14 7.5 27t4 22.5t0.5 22.5t-1.5 18.5t-4.5 19.5l-5 17.5t-7 20.5t-7 20l-63 174q-37 101 -84 178t-75.5 106.5t-47.5 39.5v23
h766v-23q-69 -9 -103 -76t-10 -133l236 -776l194 555q36 103 47.5 185.5t0.5 130t-30.5 74.5t-45.5 34v29h395z" />
    <glyph glyph-name="X.ss01" horiz-adv-x="1945" 
d="M1401 838l297 -519q116 -202 237 -296v-23h-647v23q22 8 27.5 36t-16.5 95t-78 163l-138 232q33 87 33 180q0 145 -100.5 248.5t-251.5 112.5l-16 26q-54 92 -107 154q-112 -76 -181 -205t-69 -268q0 -166 76.5 -274.5t212.5 -108.5q151 0 231 112l17 25q39 68 39 139
q0 60 -33 107t-88 59q-11 3 -14.5 -3t-0.5 -17q9 -27 9 -56q0 -78 -54 -133t-131 -55q-75 0 -128.5 55t-53.5 133q0 115 75.5 191t184.5 76q141 0 239.5 -92.5t98.5 -225.5q0 -126 -53 -215l-25 -37l-108 -168q-37 -57 -59.5 -104.5t-30 -78.5t-5 -53.5t12.5 -34t26 -15.5
v-23h-340v23q25 13 57 35.5t99 91.5t125 159l12 19q-95 -31 -202 -31q-123 0 -228.5 37t-184 105.5t-123 173.5t-44.5 233q0 176 122 311.5t322 206t441 70.5h305v-23q-25 -8 -34 -36t10 -96t75 -165l111 -192l131 202q37 57 60.5 104.5t32 78.5t7.5 54t-10 34.5t-23 15.5
v23h369v-23q-22 -7 -53.5 -24t-79 -49t-101 -88.5t-98.5 -125.5z" />
    <glyph glyph-name="Y.ss01" horiz-adv-x="2027" 
d="M1649 1411v23h368v-23q-21 -7 -52 -24.5t-76 -50.5t-95 -91.5t-92 -130.5l-191 -332q-53 -104 -53 -221v-192q0 -158 43.5 -245t89.5 -101v-23h-667v23q46 14 89.5 101t43.5 245v90v28q61 106 61 242q0 142 -98.5 244.5t-245.5 116.5l-12 22q-58 100 -111 166
q-117 -76 -188.5 -207t-71.5 -274q0 -166 76.5 -274.5t212.5 -108.5q73 0 131 28t90.5 71t49 89t16.5 88q0 60 -33 107t-88 59q-11 3 -14.5 -3t-0.5 -17q9 -27 9 -56q0 -78 -54 -133t-131 -55q-75 0 -128.5 55t-53.5 133q0 115 75.5 191t184.5 76q141 0 239.5 -92.5
t98.5 -225.5q0 -136 -65.5 -235t-175.5 -148t-250 -49q-123 0 -228.5 37t-184 105.5t-123 173.5t-44.5 233q0 176 122 311.5t322 206t441 70.5h293v-23q-25 -8 -33.5 -36t11 -95.5t75.5 -163.5l188 -323l180 319q55 97 74 165.5t10 97t-34 36.5z" />
    <glyph glyph-name="Z.ss01" horiz-adv-x="1439" 
d="M1001 821q200 0 314.5 -109.5t114.5 -265.5q0 -217 -166 -331.5t-488 -114.5h-776v102l719 1229h-215q-348 0 -463 -260l-35 16l62 347h1206l-336 -570q-176 -15 -281.5 -110t-105.5 -240q0 -115 63 -197l-139 -235h301q191 0 293 99t102 259q0 127 -53 208t-127 81
q-59 0 -92 -27.5t-33 -66.5q0 -24 14.5 -48t31.5 -42t31.5 -46.5t14.5 -60.5q0 -72 -49 -119t-121 -47q-85 0 -138.5 74t-53.5 168q0 135 108.5 221t296.5 86z" />
    <glyph glyph-name="A.ss02" horiz-adv-x="1910" 
d="M1180 1434l491 -1127q31 -70 67.5 -126.5t69 -88.5t55.5 -49.5t38 -22.5v-20h-705v23q18 6 30 25.5t16.5 55.5t-9 97t-45.5 139l-21 47q-168 94 -349.5 170t-274.5 76q-45 0 -78.5 -12.5t-53.5 -32t-36 -43t-31.5 -47.5t-34.5 -43.5t-50 -32t-73 -12.5q-87 2 -136.5 51.5
t-49.5 140.5q0 99 88 159t215 60q144 0 348 -76l291 689h238zM887 1059l-148 -350q157 -69 381 -205zM467 305l117 279q26 -4 94 -23l-51 -121q-43 -100 -60 -180t-9 -126t25.5 -72t43.5 -33v-29h-396v20q17 5 41.5 22.5t58 49.5t70.5 88t66 125z" />
    <glyph glyph-name="B.ss02" horiz-adv-x="1431" 
d="M1096 766q164 -31 259 -154t95 -286q0 -139 -63.5 -253.5t-173 -189t-255 -115t-311.5 -40.5q-321 0 -484 114.5t-163 331.5q0 75 28 142t80.5 119.5t135.5 83t184 30.5q186 0 296 -86t110 -221q0 -94 -54 -168t-139 -74q-72 0 -121 47t-49 119q0 40 23 73.5t46 63.5
t23 59q0 39 -33 67t-92 28q-74 0 -127 -81t-53 -208q0 -160 102 -259t293 -99q88 0 158.5 32.5t114 83.5t72 121t40 139t11.5 142q0 185 -103.5 298t-277.5 113h-113v-157q-59 12 -127 12q-156 0 -274 -70v541q0 158 -44 245t-90 101v23h938q205 0 331 -98.5t126 -241.5
q0 -128 -94 -223.5t-225 -104.5zM748 1352h-101q-42 0 -67 -35t-25 -129v-377h193q126 0 198 76.5t72 191.5q0 112 -80 192.5t-190 80.5z" />
    <glyph glyph-name="C.ss02" horiz-adv-x="1497" 
d="M1518 1180q0 -66 -48.5 -120.5t-123 -87.5t-157.5 -51t-159 -18q-99 0 -221 23.5t-221 52.5t-237.5 52.5t-266.5 23.5q-105 0 -174.5 -19.5t-101 -50t-48.5 -68t-25.5 -75t-22 -68t-49.5 -50t-97 -19.5q-87 0 -137 50.5t-50 141.5q0 64 37 116.5t93 85t126 54.5
t131.5 30.5t114.5 8.5q157 0 355 -29q107 153 281.5 238.5t389.5 85.5q152 0 291 -37.5t229.5 -109.5t90.5 -160zM1044 1384q-162 0 -274.5 -79t-173.5 -222q120 -31 167 -42.5t128.5 -25.5t140.5 -14q147 0 228 55t81 126q0 79 -90.5 140.5t-206.5 61.5zM1503 293h66
q-21 -57 -77 -116.5t-136.5 -111.5t-191.5 -85t-228 -33q-239 0 -429.5 98t-297.5 272.5t-107 393.5q0 158 54 297q160 -7 395 -66q-27 -120 -27 -258q0 -112 34.5 -207.5t92 -161t132.5 -112.5t155.5 -68.5t161.5 -21.5q101 0 219 46t184 134z" />
    <glyph glyph-name="D.ss02" horiz-adv-x="1574" 
d="M848 1434q138 0 254 -39.5t198.5 -109t140 -165t85.5 -208.5t28 -238q0 -435 -240 -690.5t-650 -255.5q-322 0 -488 114.5t-166 331.5q0 75 28 142t80.5 119.5t135.5 83t184 30.5q188 0 297 -86t109 -221q0 -94 -54 -168t-139 -74q-72 0 -121 47t-49 119q0 40 23 73.5
t46 63.5t23 59q0 39 -33 67t-91 28q-74 0 -127.5 -81t-53.5 -208q0 -160 102.5 -259t293.5 -99q105 0 188 45t138 122t91 186.5t52 233.5t16 267q0 88 -3.5 156t-14 143t-28.5 129.5t-49.5 105.5t-74.5 83.5t-104.5 51.5t-139.5 19h-78q-42 0 -67 -35t-25 -129v-606
q-58 12 -127 12q-156 0 -274 -70v541q0 158 -43.5 245t-89.5 101v23h817z" />
    <glyph glyph-name="E.ss02" horiz-adv-x="1546" 
d="M1071 821q101 0 184 -30.5t135.5 -83t80.5 -119.5t28 -142q0 -217 -163 -331.5t-484 -114.5h-842v23q46 14 89.5 101t43.5 245v696q0 158 -43.5 245t-89.5 101v23h1229l109 -326l-37 -21q-58 115 -190.5 190t-315.5 75q-149 0 -260 -17v-487q226 5 343.5 50t155.5 157h46
v-189h-19q-208 0 -332 -102q-53 2 -194 2v-672q165 -12 342 -12q164 0 259 100.5t95 257.5q0 127 -53 208t-127 81q-59 0 -92 -27.5t-33 -66.5q0 -24 14.5 -48t31.5 -42t31.5 -46.5t14.5 -60.5q0 -72 -49 -119t-121 -47q-85 0 -138.5 74t-53.5 168q0 135 109.5 221t295.5 86
z" />
    <glyph glyph-name="F.ss02" horiz-adv-x="1953" 
d="M2918 2128l41 14q74 -94 74 -241q0 -64 -21.5 -137.5t-73.5 -153.5t-127 -144t-193.5 -105.5t-260.5 -41.5q-119 0 -231 16.5t-216.5 48.5t-182.5 61.5t-187 75t-172 68.5v-801q85 0 135.5 0.5t103.5 4.5t81 9t58 17t43.5 25t29 37t24 49t19.5 65h45v-497h-45
q-11 42 -19.5 68t-25.5 51t-28.5 37.5t-44 24.5t-56.5 16t-81.5 7.5t-103 4t-135.5 0.5v-338q0 -158 43.5 -245t89.5 -101v-23h-667v23q46 14 89.5 101t43.5 245v411q149 133 149 348q0 87 -40 162.5t-109 126.5v266q-38 3 -76 3q-134 0 -248.5 -62.5t-183 -176
t-68.5 -251.5q0 -166 76.5 -274.5t212.5 -108.5q59 0 108.5 18.5t81.5 48t54.5 67t32.5 74t10 69.5q0 60 -32.5 106.5t-88.5 58.5q-11 3 -14.5 -3t-0.5 -17q9 -27 9 -55q0 -78 -54.5 -133.5t-130.5 -55.5q-75 0 -128.5 55.5t-53.5 133.5q0 115 75.5 190.5t184.5 75.5
q141 0 239.5 -92.5t98.5 -225.5q0 -136 -65.5 -235t-175.5 -148t-250 -49q-123 0 -228.5 37t-184 105.5t-123 173.5t-44.5 233q0 132 70.5 236.5t193 170t281 100t340.5 34.5q191 0 622.5 -60.5t608.5 -60.5q178 0 345.5 58.5t290.5 165t166 239.5z" />
    <glyph glyph-name="G.ss02" horiz-adv-x="1671" 
d="M1559 1180q0 -66 -48.5 -120.5t-123 -87.5t-157.5 -51t-159 -18q-99 0 -221 23.5t-221 52.5t-237.5 52.5t-266.5 23.5q-105 0 -174.5 -19.5t-101 -50t-48.5 -68t-25.5 -75t-22 -68t-49.5 -50t-97 -19.5q-87 0 -137 50.5t-50 141.5q0 64 37 116.5t93 85t126 54.5
t131.5 30.5t114.5 8.5q156 0 354 -29q107 153 281.5 238.5t390.5 85.5q152 0 291 -37.5t229.5 -109.5t90.5 -160zM1085 1384q-162 0 -274.5 -79t-173.5 -222q120 -31 167 -42.5t128.5 -25.5t140.5 -14q147 0 228 55t81 126q0 79 -90.5 140.5t-206.5 61.5zM1743 705v-23
q-46 -14 -89.5 -101t-43.5 -245v-43q-21 -57 -77 -116.5t-136.5 -111.5t-191.5 -85t-228 -33q-239 0 -429.5 98t-297.5 272.5t-107 393.5q0 158 54 297q160 -7 395 -66q-27 -120 -27 -258q0 -113 34.5 -211t93 -168.5t135.5 -121.5t163 -76t174 -25q29 0 64 6v248
q0 158 -43.5 245t-89.5 101v23h647z" />
    <glyph glyph-name="H.ss02" horiz-adv-x="1601" 
d="M1591 1434v-23q-46 -14 -89.5 -101t-43.5 -245v-696q0 -158 43.5 -245t89.5 -101v-23h-667v23q46 14 89.5 101t43.5 245v256q-158 81 -308 139.5t-231 58.5q-45 0 -78 -12.5t-53 -32t-36 -43t-31.5 -47.5t-34.5 -43.5t-50 -32t-73 -12.5q-87 2 -137 52t-50 141
q0 82 61.5 137.5t158.5 73.5v61q0 158 -44 245t-90 101v23h668v-23q-46 -14 -89.5 -101t-43.5 -245v-119q200 -71 461 -229v348q0 158 -43.5 245t-89.5 101v23h667zM596 754v-385q0 -158 43.5 -245t89.5 -101v-23h-668v23q46 14 90 101t44 245v178q0 5 3 7t15 5
q32 6 57.5 19.5t45.5 34.5t29.5 34t25.5 37q24 37 36 52t40.5 28.5t70.5 13.5q23 0 53 -6q16 -4 20.5 -7.5t4.5 -10.5z" />
    <glyph glyph-name="J.ss02" horiz-adv-x="1153" 
d="M1143 1434v-23q-46 -14 -89.5 -101t-43.5 -245v-571q0 -128 -46 -232.5t-126.5 -172.5t-187.5 -105t-230 -37q-140 0 -250 49t-176 148t-66 235q0 133 98.5 225t239.5 92q109 0 184.5 -75.5t75.5 -190.5q0 -78 -53.5 -133t-128.5 -55q-76 0 -130 55t-54 133q0 31 8 55
q4 11 0.5 17.5t-14.5 3.5q-55 -12 -88 -59t-33 -107q0 -43 16.5 -88.5t49 -89t90 -71.5t130.5 -28q136 0 212.5 108.5t76.5 274.5v619q0 158 -43.5 245t-89.5 101v23h668z" />
    <glyph glyph-name="K.ss02" horiz-adv-x="1554" 
d="M1239 1223q-132 0 -391 -291q2 -9 8 -21t11.5 -20.5t19 -29.5t20.5 -32l316 -469q55 -80 112 -145.5t103 -103.5t71 -56t43 -28v-27h-751v25q16 5 26 17.5t11 37.5t-9 59.5t-37.5 86.5t-70.5 116l-162 242q-8 -8 -14 -17v-198q0 -158 43.5 -245t89.5 -101v-23h-668v23
q46 14 89.5 101t43.5 245v696q0 158 -43.5 245t-89.5 101v23h668v-23q-46 -14 -89.5 -101t-43.5 -245v-346q63 83 106.5 139.5t113.5 141.5t124.5 142.5t125.5 123t131 104.5t126 65.5t125 26.5q117 0 181 -52.5t64 -135.5q0 -94 -49.5 -151.5t-134.5 -57.5
q-36 0 -60.5 16.5t-38 39.5t-26.5 46t-36.5 39.5t-57.5 16.5z" />
    <glyph glyph-name="L.ss02" horiz-adv-x="1525" 
d="M1071 821q101 0 184 -30.5t135.5 -83t80.5 -119.5t28 -142q0 -217 -163 -331.5t-484 -114.5h-842v23q46 14 89.5 101t43.5 245v696q0 158 -43.5 245t-89.5 101v23h668v-23q-46 -14 -89.5 -101t-43.5 -245v-971q165 -12 342 -12q164 0 259 100.5t95 257.5q0 127 -53 208
t-127 81q-59 0 -92 -27.5t-33 -66.5q0 -24 14.5 -48t31.5 -42t31.5 -46.5t14.5 -60.5q0 -72 -49 -119t-121 -47q-85 0 -138.5 74t-53.5 168q0 135 109.5 221t295.5 86z" />
    <glyph glyph-name="M.ss02" horiz-adv-x="2414" 
d="M2404 1434v-23q-46 -14 -89.5 -101t-43.5 -245v-696q0 -158 43.5 -245t89.5 -101v-23h-667v23q46 14 89.5 101t43.5 245v594q0 53 -15 53q-11 0 -32 -49l-416 -1033l-522 1047q-7 13 -16.5 24t-16.5 11q-18 0 -18 -53v-746q0 -171 -104 -290.5t-281 -119.5
q-179 0 -304 104t-125 271q0 125 91 212t251 87q148 0 236 -68.5t88 -176.5q0 -74 -43.5 -133.5t-110.5 -59.5q-59 0 -97 37.5t-38 95.5q0 32 18.5 59.5t37 51t18.5 45.5q0 32 -26.5 54t-73.5 22q-60 0 -102 -64.5t-42 -165.5q0 -114 71 -197t171 -83q129 0 201.5 88.5
t72.5 249.5v952q1 92 -39 152t-83 71v23l505 2l443 -875l262 660q8 19 12 45q-21 64 -50.5 100t-55.5 45v23h667z" />
    <glyph glyph-name="N.ss02" horiz-adv-x="1951" 
d="M1942 1434v-23q-46 -14 -90 -101t-44 -245v-1065h-163l-775 993q-20 23 -36 23q-21 0 -21 -53v-746q0 -171 -104 -290.5t-281 -119.5q-179 0 -303.5 104t-124.5 271q0 125 91 212t251 87q148 0 236 -68.5t88 -176.5q0 -74 -43.5 -133.5t-110.5 -59.5q-59 0 -97 37.5
t-38 95.5q0 32 18.5 59.5t37 51t18.5 45.5q0 32 -26.5 54t-74.5 22q-60 0 -101.5 -64.5t-41.5 -165.5q0 -114 71 -197t171 -83q129 0 201.5 88.5t72.5 249.5v952q1 92 -39.5 152t-83.5 71v23h469l649 -832v463q0 158 -43.5 245t-89.5 101v23h357z" />
    <glyph glyph-name="O.ss02" horiz-adv-x="1449" 
d="M2935 1747l41 14q30 -38 45 -59.5t35 -74t20 -107.5q0 -77 -32 -150t-93 -133t-161.5 -96.5t-225.5 -36.5q-128 0 -251 27t-222 69.5t-193.5 94.5t-179.5 103.5t-164 94t-163.5 69t-163.5 25.5q-203 0 -332 -129q85 -22 159.5 -62t133.5 -95t93 -129.5t34 -157.5
q0 -75 -28 -142t-80.5 -119.5t-135.5 -83t-184 -30.5q-163 0 -251.5 94t-88.5 275q0 95 36 197.5t103 193.5q-69 -4 -120 -45.5t-80.5 -109.5t-43.5 -149t-14 -175q0 -184 36 -351.5t91.5 -279t120.5 -177t125 -65.5q200 0 200 547v10q162 31 260.5 142t98.5 268q0 4 2 5.5
t4.5 0.5t3.5 -4q51 -139 51 -305q0 -154 -59.5 -295.5t-157 -242t-227 -160.5t-264.5 -60q-136 0 -262 57t-221.5 155.5t-152.5 241t-57 304.5q0 155 57 298t152 246t224 164.5t268 61.5h35q95 97 223.5 153t280.5 56q153 0 316.5 -29.5t280 -65t260 -65t261.5 -29.5
q93 0 168.5 10.5t150 36t135 75.5t103.5 124zM1057 1020q0 130 -61 224.5t-165 131.5q-96 -151 -96 -360q0 -123 41 -204t125 -81q76 0 116 77.5t40 211.5z" />
    <glyph glyph-name="P.ss02" horiz-adv-x="2166" 
d="M1165 1729q177 0 338 -22.5t300.5 -70.5t242 -116.5t161 -166t58.5 -214.5q0 -106 -32.5 -187t-90.5 -135t-145.5 -88t-190.5 -48.5t-233 -14.5h-205v-297q0 -158 43.5 -245t89.5 -101v-23h-667v23q46 14 89.5 101t43.5 245v114q149 133 149 348q0 87 -40 162.5
t-109 126.5v8q0 131 -43.5 203t-89.5 84v19h667v-23q-46 -14 -89.5 -101t-43.5 -245v-309h94q182 0 276.5 107.5t94.5 301.5q0 104 -40 188t-105.5 137.5t-153.5 90t-179.5 51.5t-189.5 15q-151 0 -279.5 -43t-218 -115.5t-153 -168.5t-93.5 -203t-30 -218
q0 -166 76.5 -274.5t212.5 -108.5q59 0 108.5 18.5t81.5 48t54.5 67t32.5 74t10 69.5q0 60 -32.5 106.5t-88.5 58.5q-11 3 -14.5 -3t-0.5 -17q9 -27 9 -55q0 -78 -55 -133.5t-130 -55.5t-128.5 55.5t-53.5 133.5q0 115 75.5 190.5t184.5 75.5q141 0 239.5 -92.5t98.5 -225.5
q0 -136 -65.5 -235t-175.5 -148t-250 -49q-123 0 -228.5 37t-184 105.5t-123 173.5t-44.5 233q0 225 154 404.5t419.5 278t591.5 98.5z" />
    <glyph glyph-name="R.ss02" horiz-adv-x="2435" 
d="M2140 319q75 -134 156 -207.5t129 -91.5v-22l-729 -2l-2 22q23 8 33 38.5t-3.5 103.5t-58.5 174q-167 315 -297 332v-297q0 -158 43.5 -245t89.5 -101v-23h-667v23q46 14 89.5 101t43.5 245v114q149 133 149 348q0 87 -40 162.5t-109 126.5v8q0 131 -43.5 203t-89.5 84
v19h667v-23q-46 -14 -89.5 -101t-43.5 -245v-309h94q182 0 276.5 107.5t94.5 301.5q0 104 -40 188t-105.5 137.5t-153.5 90t-179.5 51.5t-189.5 15q-151 0 -279.5 -43t-218 -115.5t-153 -168.5t-93.5 -203t-30 -218q0 -166 76.5 -274.5t212.5 -108.5q59 0 108.5 18.5
t81.5 48t54.5 67t32.5 74t10 69.5q0 60 -32.5 106.5t-88.5 58.5q-11 3 -14.5 -3t-0.5 -17q9 -27 9 -55q0 -78 -55 -133.5t-130 -55.5t-128.5 55.5t-53.5 133.5q0 115 75.5 190.5t184.5 75.5q141 0 239.5 -92.5t98.5 -225.5q0 -136 -65.5 -235t-175.5 -148t-250 -49
q-123 0 -228.5 37t-184 105.5t-123 173.5t-44.5 233q0 225 154 404.5t419.5 278t591.5 98.5q177 0 338 -22.5t300.5 -70.5t242 -116.5t161 -166t58.5 -214.5q0 -202 -111 -311t-321 -144q-37 -8 -36 -21q1 -8 18 -14q99 -35 176 -119t149 -211z" />
    <glyph glyph-name="S.ss02" horiz-adv-x="1368" 
d="M2621 1747l41 14l26 -32.5t24.5 -37t26.5 -50t16 -54t8 -67.5q0 -77 -32 -150t-93 -133t-161.5 -96.5t-225.5 -36.5q-128 0 -251 26.5t-222 69t-193.5 94.5t-179.5 103.5t-164.5 94t-164 69t-163.5 26.5q-114 0 -201 -81.5t-87 -192.5q0 -64 27 -118.5t72.5 -95.5
t104.5 -78.5t124 -71.5t130 -69t124 -78t104.5 -91.5t72.5 -115t27 -144.5q0 -114 -55.5 -209t-150 -157.5t-218.5 -97t-262 -34.5q-89 0 -195 27t-202.5 74t-161 120.5t-64.5 155.5q0 69 50 118.5t120 49.5q72 0 120 -35.5t48 -97.5q0 -25 -11.5 -47t-26 -35.5t-26 -32
t-11.5 -37.5q0 -38 49.5 -74.5t136 -60t184.5 -23.5q121 0 201 63.5t80 149.5q0 59 -28 108.5t-75 86t-108 69.5t-129 64t-135.5 64t-128.5 75t-108 92t-75 120t-28 153q0 178 100 313.5t268 206t377 70.5q153 0 316.5 -29.5t280 -65t260 -65t261.5 -29.5q93 0 168.5 10.5
t150 36t135 75.5t103.5 124z" />
    <glyph glyph-name="T.ss02" horiz-adv-x="1619" 
d="M1591 1434l62 -347l-35 -16q-51 116 -172.5 183.5t-300.5 76.5v-962q0 -158 43.5 -245t89.5 -101v-23h-668v23q46 14 89.5 101t43.5 245v962h-294q-149 0 -247 -87t-98 -204q0 -60 33 -107t88 -59q11 -3 14.5 3.5t0.5 17.5q-9 27 -9 55q0 78 54.5 133.5t130.5 55.5
q75 0 128.5 -55.5t53.5 -133.5q0 -115 -75.5 -190.5t-184.5 -75.5q-141 0 -239.5 92t-98.5 225q0 136 66 235.5t176 148.5t250 49h1099z" />
    <glyph glyph-name="U.ss02" horiz-adv-x="1466" 
d="M1624 1739q178 0 302 -104t124 -271q0 -125 -91 -212t-251 -87q-148 0 -236 69t-88 177q0 74 43.5 133t110.5 59q59 0 97 -37.5t38 -95.5q0 -32 -18.5 -59.5t-37 -51t-18.5 -45.5q0 -32 26.5 -53.5t74.5 -21.5q60 0 101.5 64t41.5 165q0 114 -70.5 197.5t-170.5 83.5
q-128 0 -200.5 -89t-72.5 -249l2 -815q0 -286 -152 -414.5t-442 -128.5q-279 0 -438 133t-158 410l2 569q0 158 -43.5 245t-89.5 101v23h668v-23q-46 -14 -89.5 -101t-43.5 -245v-514q0 -56 0.5 -93t3 -82.5t7 -75.5t12 -65t18.5 -57t27 -46t37 -37.5t48 -25.5t61 -17t75 -5
q219 0 312 124.5t93 399.5v758q0 110 44 202t132.5 149.5t206.5 58.5h2z" />
    <glyph glyph-name="V.ss02" horiz-adv-x="2215" 
d="M2331 1552q110 0 170.5 -51.5t60.5 -146.5q0 -93 -45 -151t-135 -58q-53 0 -114.5 29.5t-123.5 29.5q-162 0 -311 -366v4l-344 -842h-238l-194 492q59 106 59 237q0 128 -82 225t-209 127l-16 41q-47 116 -102 187q-138 -67 -227 -209.5t-89 -302.5q0 -166 76.5 -274.5
t212.5 -108.5q73 0 131 28t90.5 71t49 89t16.5 88q0 60 -33 107t-88 59q-11 3 -14.5 -3t-0.5 -17q9 -27 9 -56q0 -78 -54 -133t-131 -55q-75 0 -128.5 55t-53.5 133q0 115 75.5 191t184.5 76q141 0 239.5 -92.5t98.5 -225.5q0 -136 -65.5 -235t-175.5 -148t-250 -49
q-123 0 -228.5 37t-184 105.5t-123 173.5t-44.5 233q0 176 122 311.5t322 206t441 70.5h411v-23q-14 -4 -26 -17t-19.5 -39t-7.5 -61.5t11 -89t34 -117.5l256 -702l295 721q37 90 88 168.5t113 141.5t137.5 99.5t153.5 36.5z" />
    <glyph glyph-name="X.ss02" horiz-adv-x="1945" 
d="M2136 1552q117 0 201 -53.5t84 -144.5t-49 -149t-140 -58q-48 0 -83 17.5t-55 43t-37 51t-40 43t-53 17.5q-247 0 -459 -324v2l-104 -159l297 -519q116 -202 237 -296v-23h-647v23q22 8 27.5 36t-16.5 95t-78 163l-138 232q33 87 33 180q0 145 -100.5 248.5t-251.5 112.5
l-16 26q-54 92 -107 154q-112 -76 -181 -205t-69 -268q0 -166 76.5 -274.5t212.5 -108.5q151 0 231 112l17 25q39 68 39 139q0 60 -33 107t-88 59q-11 3 -14.5 -3t-0.5 -17q9 -27 9 -56q0 -78 -54 -133t-131 -55q-75 0 -128.5 55t-53.5 133q0 115 75.5 191t184.5 76
q141 0 239.5 -92.5t98.5 -225.5q0 -126 -53 -215l-25 -37l-108 -168q-37 -57 -59.5 -104.5t-30 -78.5t-5 -53.5t12.5 -34t26 -15.5v-23h-340v23q25 13 57 35.5t99 91.5t125 159l12 19q-95 -31 -202 -31q-123 0 -228.5 37t-184 105.5t-123 173.5t-44.5 233q0 176 122 311.5
t322 206t441 70.5h305v-23q-25 -8 -34 -36t10 -96t75 -165l111 -192l133 204q140 216 307 321t344 105z" />
    <glyph glyph-name="Y.ss02" horiz-adv-x="1507" 
d="M1552 1552q111 0 171.5 -51.5t60.5 -146.5q0 -93 -45 -151t-135 -58q-53 0 -114.5 29.5t-123.5 29.5t-114 -46.5t-105 -129.5l-78 -137q-10 -15 -20 -35l-43 -76q-54 -106 -54 -219v-192q0 -158 43.5 -245t89.5 -101v-23h-667v23q46 14 89.5 101t43.5 245v90
q0 110 -51 217l-244 436q-41 72 -83.5 130.5t-76 92.5t-53.5 51t-33 25v23h662v-23q-25 -8 -34 -36t10.5 -95.5t76.5 -163.5l188 -323l152 270q4 7 12 22q117 205 184 289q140 178 291 178z" />
    <glyph glyph-name="Z.ss02" horiz-adv-x="1509" 
d="M715 102h286q348 0 463 260l35 -16l-61 -346h-1213v102l719 1229h-475q-149 0 -246.5 -87t-97.5 -204q0 -60 33 -107t88 -59q11 -3 14.5 3.5t-0.5 17.5q-8 24 -8 55q0 78 54 133.5t130 55.5q75 0 128.5 -55.5t53.5 -133.5q0 -115 -75.5 -190.5t-184.5 -75.5
q-141 0 -239.5 92t-98.5 225q0 136 66 235.5t176 148.5t250 49h987z" />
    <glyph glyph-name="A.ss03" horiz-adv-x="2400" 
d="M1669 1434l492 -1127q31 -70 67.5 -126.5t68.5 -88.5t55 -49.5t38 -22.5v-20h-704v23q25 8 38.5 38.5t4 103.5t-51.5 175l-26 63h-551l-6 -14q-86 -203 -142 -292q-129 -205 -319 -245q-50 -10 -105 -10q-147 0 -265 51t-190.5 154t-72.5 242q0 75 28 142t80.5 119.5
t135.5 83t184 30.5q185 0 295.5 -86.5t110.5 -221.5q0 -93 -54 -167t-139 -74q-72 0 -121 47t-49 119q0 40 23 73.5t46 63.5t23 59q0 39 -33 66.5t-92 27.5q-74 0 -127 -80.5t-53 -207.5q0 -143 76.5 -247t193.5 -104q56 0 107 17t88.5 40t74 62t58.5 68.5t47 75t34 65.5
t24 55l471 1119h237zM1376 1061l-241 -576h481z" />
    <glyph glyph-name="B.ss03" horiz-adv-x="1429" 
d="M1133 770q146 -39 231.5 -150t85.5 -249q0 -143 -63.5 -264.5t-172.5 -204t-256 -128.5t-311 -46q-321 0 -484 114.5t-163 331.5q0 75 28 142t80.5 119.5t135.5 83t184 30.5q186 0 296 -86t110 -221q0 -94 -54 -168t-139 -74q-72 0 -121 47t-49 119q0 40 23 73.5t46 63.5
t23 59q0 39 -33 67t-92 28q-74 0 -127 -81t-53 -208q0 -157 95 -257.5t259 -100.5q208 0 317 124.5t109 341.5q0 87 -26.5 158.5t-68 117t-96.5 90.5t-106.5 78.5t-103 82t-82.5 100.5v-321q-59 12 -127 12q-156 0 -274 -70v541q0 158 -44 245t-90 101v23h938
q205 0 331 -98.5t126 -241.5q0 -118 -81.5 -210t-200.5 -114zM748 1352h-193v-256q0 -96 85 -178t169 -82q209 0 209 243q0 112 -80 192.5t-190 80.5z" />
    <glyph glyph-name="C.ss03" horiz-adv-x="1447" 
d="M2095 -184q108 0 204.5 -13t183.5 -42t149.5 -73t99.5 -109.5t37 -147.5q0 -102 -55.5 -158.5t-151.5 -56.5q-106 0 -164.5 59t-58.5 182q0 98 -127.5 151.5t-362.5 53.5q-160 0 -479.5 -42t-507.5 -42q-166 7 -304 63t-237 151t-167 224.5t-101 284t-33 330.5
q0 198 62 359.5t172 268.5t259.5 165t324.5 59q196 0 347.5 -56t237.5 -162.5t86 -248.5q0 -75 -28 -142t-80.5 -119.5t-135.5 -83t-184 -30.5q-186 0 -295.5 86t-109.5 221q0 94 53.5 168t138.5 74q72 0 121 -47t49 -119q0 -32 -14.5 -60.5t-31.5 -46.5t-31.5 -42
t-14.5 -48q0 -39 33 -66.5t92 -27.5q74 0 127 81t53 208q0 161 -86 264t-247 103q-155 0 -263 -97.5t-160.5 -272t-52.5 -415.5q0 -433 181 -674t520 -241q96 0 276 33t367.5 65t308.5 29z" />
    <glyph glyph-name="D.ss03" horiz-adv-x="1574" 
d="M664 1710q410 0 650 -255.5t240 -690.5q0 -125 -28 -238t-85.5 -208.5t-140 -165t-198.5 -109t-254 -39.5h-817v23q46 14 89.5 101t43.5 245v540q117 -69 274 -69q68 0 127 12v-770h170q78 0 139.5 19t104.5 51.5t74.5 83.5t49.5 105.5t28.5 129.5t14 143t3.5 156
q0 143 -16 265t-52 228.5t-91.5 181t-138 117t-187.5 42.5q-194 0 -295 -90t-101 -248q0 -127 53.5 -208t127.5 -81q59 0 91.5 27.5t32.5 66.5q0 24 -14.5 48t-31.5 42t-31.5 46.5t-14.5 60.5q0 72 49 119t121 47q85 0 139 -74t54 -168q0 -135 -109 -221t-297 -86
q-101 0 -184 30.5t-135.5 83t-80.5 119.5t-28 142q0 212 176.5 329t477.5 117z" />
    <glyph glyph-name="E.ss03" horiz-adv-x="1310" 
d="M1325 346l37 -20l-109 -326h-1243v23q46 14 89.5 101t43.5 245v696q0 158 -43.5 245t-89.5 101v23h1229l109 -326l-37 -21q-58 115 -190.5 190t-315.5 75q-149 0 -260 -17v-532q215 98 368 98q101 0 172.5 -48t71.5 -128q0 -74 -39.5 -114t-109.5 -42q-39 0 -67.5 13.5
t-42.5 33.5t-30.5 43.5t-31.5 43.5t-45 33.5t-72 13.5q-63 0 -174 -43v-613q90 -12 233 -12q185 0 333 75.5t214 188.5z" />
    <glyph glyph-name="G.ss03" horiz-adv-x="1671" 
d="M1559 1180q0 -66 -48.5 -120.5t-123 -87.5t-157.5 -51t-159 -18q-99 0 -221 23.5t-221 52.5t-237.5 52.5t-266.5 23.5q-105 0 -174.5 -19.5t-101 -50t-48.5 -68t-25.5 -75t-22 -68t-49.5 -50t-97 -19.5q-87 0 -137 50.5t-50 141.5q0 64 37 116.5t93 85t126 54.5
t131.5 30.5t114.5 8.5q156 0 354 -29q107 153 281.5 238.5t390.5 85.5q152 0 291 -37.5t229.5 -109.5t90.5 -160zM1085 1384q-162 0 -274.5 -79t-173.5 -222q120 -31 167 -42.5t128.5 -25.5t140.5 -14q147 0 228 55t81 126q0 79 -90.5 140.5t-206.5 61.5zM1096 682v23h647
v-23q-46 -14 -89.5 -101t-43.5 -245v-330q0 -140 -27 -251.5t-83 -197t-150.5 -132t-221.5 -46.5q-51 0 -100.5 8t-98.5 27t-85.5 47.5t-59 74t-22.5 102.5q0 76 52 133t126 57q76 0 132 -51.5t56 -126.5q0 -38 -12 -68t-26.5 -44.5t-26.5 -29t-12 -26.5q0 -21 53 -21
q41 0 70.5 44t42 105t12.5 128v250q-125 -41 -252 -41q-239 0 -429.5 98t-297.5 272.5t-107 393.5q0 158 54 297q160 -7 395 -66q-27 -120 -27 -258q0 -140 52.5 -260t136.5 -198.5t186.5 -122.5t204.5 -44q44 0 64 25.5t20 85.5v166q0 158 -43.5 245t-89.5 101z" />
    <glyph glyph-name="H.ss03" horiz-adv-x="1560" 
d="M1696 -172q74 0 126 -57t52 -133q0 -70 -34 -123t-89.5 -81t-117 -41.5t-126.5 -13.5q-127 0 -223.5 46.5t-156.5 130.5t-90 195.5t-31 248.5v737h-461v-368q0 -158 43.5 -245t89.5 -101v-23h-668v23q46 14 89.5 101t43.5 245v696q0 158 -43.5 245t-89.5 101v23h668v-23
q-46 -14 -89.5 -101t-43.5 -245v-254h461v254q0 158 -44 245t-90 101v23h668v-23q-46 -14 -89.5 -101t-43.5 -245v-1327q0 -67 12.5 -128t42 -105t70.5 -44q53 0 53 21q0 12 -12 26.5t-27 29t-27 44.5t-12 68q0 75 56.5 126.5t132.5 51.5z" />
    <glyph glyph-name="K.ss03" horiz-adv-x="1525" 
d="M2058 -131q82 0 139.5 -54t57.5 -130q0 -65 -33.5 -122.5t-86 -95t-116.5 -59.5t-127 -22q-141 0 -276.5 47t-253.5 132.5t-219 193.5t-191 241l-405 600l-2 -2v-229q0 -158 43.5 -245t89.5 -101v-23h-668v23q46 14 89.5 101t43.5 245v696q0 158 -43.5 245t-89.5 101v23
h668v-23q-46 -14 -89.5 -101t-43.5 -245v-330l373 422q46 51 71.5 93t31.5 69.5t-1.5 47t-23 29.5t-38.5 15v23h418v-23q-181 -77 -338 -254l-108 -123q-56 -67 -56 -114q0 -30 15 -64l577 -856q145 -215 213 -298q162 -195 275 -196q6 0 9.5 4t0.5 10.5t-12 12.5
q-78 56 -78 150q0 69 52.5 127.5t131.5 58.5z" />
    <glyph glyph-name="L.ss03" horiz-adv-x="788" 
d="M1806 -131q82 0 139.5 -54t57.5 -130q0 -85 -57 -151.5t-138.5 -98t-167.5 -31.5q-192 0 -359 33t-284.5 85.5t-218.5 116t-180.5 127t-151 116t-148.5 85.5t-155 33h-133v23q46 14 89.5 101t43.5 245v696q0 158 -43.5 245t-89.5 101v23h668v-23q-46 -14 -89.5 -101
t-43.5 -245v-670q0 -162 -33 -252q41 -28 92 -41q132 -34 253.5 -85.5t211 -106t169.5 -113t143 -110t117.5 -92.5t106 -65t97.5 -24q6 0 9.5 4t0.5 10.5t-12 12.5q-78 56 -78 150q0 69 52.5 127.5t131.5 58.5z" />
    <glyph glyph-name="M.ss03" horiz-adv-x="1742" 
d="M1960 -172q74 0 126 -57t52 -133q0 -57 -22.5 -102.5t-59 -74t-85.5 -47.5t-98.5 -27t-100.5 -8q-127 0 -224 46.5t-156.5 130.5t-90 195.5t-31.5 248.5v963q0 53 -15 53q-11 0 -32 -49l-416 -1033l-522 1047q-7 13 -16.5 24t-16.5 11q-19 0 -19 -53v-594q0 -158 44 -245
t90 -101v-23h-357v23q46 14 89.5 101t43.5 245v819q1 92 -39.5 152t-83.5 71v23l506 2l443 -875l262 660q8 19 12 45q-21 64 -50.5 100t-55.5 45v23h667v-23q-46 -14 -89.5 -101t-43.5 -245v-1327q0 -67 12.5 -128t42 -105t70.5 -44q53 0 53 21q0 12 -12 26.5t-26.5 29
t-26.5 44.5t-12 68q0 75 56 126.5t132 51.5z" />
    <glyph glyph-name="N.ss03" horiz-adv-x="1320" 
d="M1522 1739q179 0 303.5 -104t124.5 -271q0 -125 -91 -212t-251 -87q-148 0 -236 69t-88 177q0 74 43.5 133t110.5 59q59 0 97 -37.5t38 -95.5q0 -32 -18.5 -59.5t-37 -51t-18.5 -45.5q0 -32 26 -53.5t74 -21.5q60 0 102 64t42 165q0 114 -71 197.5t-171 83.5
q-129 0 -201.5 -88.5t-72.5 -249.5v-1311h-162l-774 993q-20 23 -37 23q-21 0 -21 -53v-594q0 -158 44 -245t90 -101v-23h-357v23q46 14 89.5 101t43.5 245v819q1 92 -39.5 152t-83.5 71v23h469l648 -830v725q0 171 104 290.5t281 119.5z" />
    <glyph glyph-name="R.ss03" horiz-adv-x="1628" 
d="M2161 -131q82 0 139 -53.5t57 -130.5q0 -86 -56.5 -156.5t-138.5 -106.5t-167 -36q-141 0 -276 47t-253 132.5t-219 193.5t-192 241q-37 53 -93.5 147.5t-103.5 171t-101.5 154.5t-108.5 127.5t-103 61.5v-293q0 -158 43.5 -245t89.5 -101v-23h-668v23q46 14 89.5 101
t43.5 245v696q0 158 -43.5 245t-89.5 101v23h938q208 0 346 -109t138 -262q0 -311 -426 -379q-19 -5 -27.5 -11.5t-4.5 -13t21 -12.5q2 -2 4 -2q86 -31 158.5 -90.5t112.5 -118.5q97 -145 162 -242.5t132 -195t108 -156.5t85.5 -117t70 -88t55.5 -59t47.5 -40t41.5 -20
t41 -10.5t43 -1.5q6 0 9.5 4t0.5 10.5t-12 12.5q-78 56 -78 150q0 69 53 127.5t132 58.5zM737 1352h-100q-43 0 -67.5 -31.5t-24.5 -124.5v-440h192q126 0 198.5 83.5t72.5 209.5q0 122 -80.5 212.5t-190.5 90.5z" />
    <glyph glyph-name="T.ss03" horiz-adv-x="1734" 
d="M2918 2128l41 14q74 -94 74 -241q0 -64 -21.5 -137.5t-73.5 -153.5t-127 -144t-193.5 -105.5t-260.5 -41.5q-119 0 -231 16.5t-216.5 48.5t-182.5 61.5t-187 75t-172 68.5v-1220q0 -158 43.5 -245t89.5 -101v-23h-667v23q46 14 89.5 101t43.5 245v411q149 133 149 348
q0 87 -40 162.5t-109 126.5v266q-38 3 -76 3q-134 0 -248.5 -62.5t-183 -176t-68.5 -251.5q0 -166 76.5 -274.5t212.5 -108.5q59 0 108.5 18.5t81.5 48t54.5 67t32.5 74t10 69.5q0 60 -32.5 106.5t-88.5 58.5q-11 3 -14.5 -3t-0.5 -17q9 -27 9 -55q0 -78 -54.5 -133.5
t-130.5 -55.5q-75 0 -128.5 55.5t-53.5 133.5q0 115 75.5 190.5t184.5 75.5q141 0 239.5 -92.5t98.5 -225.5q0 -136 -65.5 -235t-175.5 -148t-250 -49q-123 0 -228.5 37t-184 105.5t-123 173.5t-44.5 233q0 132 70.5 236.5t193 170t281 100t340.5 34.5q191 0 622.5 -60.5
t608.5 -60.5q178 0 345.5 58.5t290.5 165t166 239.5z" />
    </font>
</defs>
</svg>
