<?xml version="1.0" encoding="utf-8"?>
<!-- Generator: Adobe Illustrator 26.3.1, SVG Export Plug-In . SVG Version: 6.00 Build 0)  -->
<svg version="1.1" id="Layer_2_00000073703177776382957420000016382124675812803478_"
	 xmlns="http://www.w3.org/2000/svg" xmlns:xlink="http://www.w3.org/1999/xlink" x="0px" y="0px" viewBox="0 0 288.2 171.7"
	 style="enable-background:new 0 0 288.2 171.7;" xml:space="preserve">
<style type="text/css">
	.st0{fill:#E60000;}
</style>
<g id="Layer_1-2">
	<path class="st0" d="M234.6,59.1c-7.6-8.8-13.2-19.5-17.7-33.3c-4.4-13.4-12.6-26-29.1-25.8c-14.2,0.1-25.8,11.6-25.8,25.8
		c0,22.2,22.3,33.3,50.2,43.5c14.1,5.2,28.2,9.9,38.2,13.2c-113.5-6.9-178-35.6-211.7-35.4C17.3,47.3,0,64.5,0,85.8
		s17.3,38.6,38.7,38.7c33.8,0.2,98.2-28.5,211.7-35.4c-10,3.3-24.1,8.1-38.2,13.2c-27.9,10.2-50.2,21.3-50.2,43.5
		c0,14.2,11.6,25.7,25.8,25.8c16.4,0.2,24.7-12.4,29.1-25.8c4.5-13.8,10-24.5,17.7-33.3c9.8-11.3,22.4-20.7,53.6-26.7
		C257,79.7,244.4,70.3,234.6,59.1"/>
</g>
</svg>
